G75*
%MOIN*%
%OFA0B0*%
%FSLAX24Y24*%
%IPPOS*%
%LPD*%
%AMOC8*
5,1,8,0,0,1.08239X$1,22.5*
%
%ADD10C,0.0080*%
%ADD11C,0.0060*%
%ADD12R,0.0100X0.0250*%
%ADD13C,0.0050*%
%ADD14R,0.0160X0.0280*%
%ADD15R,0.0280X0.0160*%
%ADD16C,0.0160*%
D10*
X003051Y003045D02*
X003242Y003096D01*
X003383Y003339D01*
X003539Y003248D02*
X003721Y003143D01*
X003746Y003048D01*
X003676Y002926D01*
X003580Y002901D01*
X003398Y003006D01*
X003328Y002884D02*
X003539Y003248D01*
X003140Y003479D02*
X003000Y003236D01*
X003051Y003045D01*
X003060Y003719D02*
X003690Y003719D01*
X003937Y003018D02*
X004059Y002948D01*
X003998Y002983D02*
X003788Y002619D01*
X003848Y002584D02*
X003727Y002654D01*
X003993Y002501D02*
X004203Y002865D01*
X004236Y002361D01*
X004446Y002725D01*
X004890Y002375D02*
X004890Y003359D01*
X004575Y003359D01*
X004575Y001981D01*
X004890Y002375D02*
X005363Y002375D01*
X006937Y002375D02*
X007410Y002375D01*
X007410Y003359D01*
X007725Y003359D01*
X007725Y001981D01*
X008030Y002415D02*
X008125Y002390D01*
X008247Y002460D01*
X008272Y002555D01*
X008202Y002677D01*
X008081Y002607D01*
X007889Y002658D02*
X008030Y002415D01*
X007889Y002658D02*
X007915Y002754D01*
X008036Y002824D01*
X008132Y002798D01*
X008253Y002949D02*
X008706Y002725D01*
X008496Y003089D01*
X008652Y003179D02*
X008834Y003284D01*
X008930Y003259D01*
X009070Y003016D01*
X009044Y002920D01*
X008862Y002815D01*
X008652Y003179D01*
X008253Y002949D02*
X008463Y002585D01*
X009628Y004185D02*
X009768Y004427D01*
X009551Y004472D02*
X009628Y004185D01*
X009915Y004262D02*
X009551Y004472D01*
X008567Y005895D02*
X008475Y006017D01*
X008294Y006017D01*
X008389Y005895D02*
X008465Y006011D01*
X008475Y006017D02*
X008656Y006017D01*
X007767Y005035D02*
X007486Y005035D01*
X007306Y005035D02*
X007026Y005035D01*
X007026Y004615D01*
X007306Y004615D01*
X007166Y004825D02*
X007026Y004825D01*
X006846Y004615D02*
X006636Y004825D01*
X006566Y004755D02*
X006846Y005035D01*
X006566Y005035D02*
X006566Y004615D01*
X006385Y004685D02*
X006315Y004615D01*
X006175Y004615D01*
X006105Y004685D01*
X006105Y004965D01*
X006175Y005035D01*
X006315Y005035D01*
X006385Y004965D01*
X005938Y005035D02*
X005798Y005035D01*
X005868Y005035D02*
X005868Y004615D01*
X005798Y004615D02*
X005938Y004615D01*
X005618Y004615D02*
X005478Y004755D01*
X005548Y004755D02*
X005618Y004825D01*
X005618Y004965D01*
X005548Y005035D01*
X005338Y005035D01*
X005338Y004615D01*
X005338Y004755D02*
X005548Y004755D01*
X005158Y004685D02*
X005088Y004615D01*
X004948Y004615D01*
X004878Y004685D01*
X004878Y004965D01*
X004948Y005035D01*
X005088Y005035D01*
X005158Y004965D01*
X004181Y006083D02*
X004000Y006083D01*
X003908Y006205D01*
X003819Y006083D02*
X004000Y006083D01*
X004010Y006089D02*
X004086Y006205D01*
X002410Y006190D02*
X002410Y006050D01*
X002340Y005980D01*
X002270Y005980D01*
X001990Y006260D01*
X001990Y005980D01*
X002340Y006260D02*
X002410Y006190D01*
X003060Y004506D02*
X003690Y004506D01*
X002974Y004214D02*
X002948Y004118D01*
X002887Y004083D01*
X002792Y004108D01*
X002766Y004013D01*
X002705Y003978D01*
X002610Y004003D01*
X002540Y004125D01*
X002565Y004220D01*
X002757Y004169D02*
X002792Y004108D01*
X002974Y004214D02*
X002904Y004335D01*
X002808Y004361D01*
X002859Y008064D02*
X002495Y008274D01*
X002565Y008395D02*
X002425Y008153D01*
X002807Y008255D02*
X002859Y008064D01*
X004268Y009502D02*
X004370Y009885D01*
X004275Y009910D01*
X004153Y009840D01*
X004128Y009745D01*
X004268Y009502D01*
X004364Y009476D01*
X004485Y009546D01*
X004511Y009642D01*
X004370Y009885D01*
X004811Y010778D02*
X007489Y010778D01*
X007489Y010908D01*
X007703Y010163D02*
X007608Y010138D01*
X007703Y010163D02*
X007825Y010093D01*
X007850Y009998D01*
X007710Y009755D01*
X007615Y009729D01*
X007493Y009799D01*
X007468Y009895D01*
X007866Y009665D02*
X007892Y009569D01*
X008013Y009499D01*
X008109Y009525D01*
X008249Y009767D01*
X008223Y009863D01*
X008102Y009933D01*
X008006Y009908D01*
X008370Y009617D02*
X008230Y009374D01*
X008370Y009617D02*
X008562Y009668D01*
X008613Y009477D01*
X008473Y009234D01*
X009216Y008592D02*
X009191Y008496D01*
X009296Y008314D01*
X009660Y008525D01*
X009555Y008707D01*
X009459Y008732D01*
X009216Y008592D01*
X009386Y008158D02*
X009750Y008369D01*
X009526Y007916D01*
X009890Y008126D01*
X009920Y007935D02*
X009798Y007865D01*
X009868Y007743D01*
X009817Y007552D02*
X009721Y007578D01*
X009651Y007699D01*
X009677Y007795D01*
X009920Y007935D02*
X010015Y007909D01*
X010085Y007788D01*
X010060Y007692D01*
X009817Y007552D01*
X008725Y007850D02*
X008725Y008350D01*
X008125Y008350D02*
X008125Y007850D01*
X007381Y008271D02*
X007381Y008822D01*
X006869Y008822D01*
X006869Y008271D01*
X006869Y008822D02*
X006869Y008979D01*
X007381Y008979D02*
X007381Y008822D01*
X005581Y008929D02*
X005581Y008378D01*
X005069Y008378D01*
X005069Y008929D01*
X005069Y008378D02*
X005069Y008221D01*
X005581Y008221D02*
X005581Y008378D01*
X004811Y010778D02*
X004811Y010908D01*
X004811Y011971D02*
X007489Y011971D01*
X009915Y006270D02*
X009915Y005990D01*
X010125Y005990D01*
X010055Y006130D01*
X010055Y006200D01*
X010125Y006270D01*
X010265Y006270D01*
X010335Y006200D01*
X010335Y006060D01*
X010265Y005990D01*
X007627Y005035D02*
X007627Y004615D01*
X006937Y000406D02*
X005363Y000406D01*
D11*
X004910Y003640D02*
X004910Y003960D01*
X004690Y003960D01*
X004010Y003960D02*
X003790Y003960D01*
X003790Y003640D01*
X005150Y005220D02*
X007160Y005220D01*
X007160Y007080D02*
X005150Y007080D01*
D12*
X008000Y005400D03*
D13*
X008330Y005400D02*
X008600Y005400D01*
X008330Y005220D01*
X008600Y005220D01*
X008555Y005105D02*
X008375Y005105D01*
X008330Y005060D01*
X008330Y004970D01*
X008375Y004925D01*
X008555Y004925D01*
X008600Y004970D01*
X008600Y005060D01*
X008555Y005105D01*
X008855Y005165D02*
X008855Y005255D01*
X008900Y005300D01*
X008945Y005300D01*
X008990Y005255D01*
X009035Y005300D01*
X009080Y005300D01*
X009125Y005255D01*
X009125Y005165D01*
X009080Y005120D01*
X009125Y005005D02*
X009035Y004915D01*
X009035Y004960D02*
X009035Y004825D01*
X009125Y004825D02*
X008855Y004825D01*
X008855Y004960D01*
X008900Y005005D01*
X008990Y005005D01*
X009035Y004960D01*
X008900Y005120D02*
X008855Y005165D01*
X008990Y005210D02*
X008990Y005255D01*
X008607Y004336D02*
X008686Y004257D01*
X008607Y004257D01*
X008607Y004336D01*
X008607Y004257D02*
X008607Y003864D01*
X008293Y003864D02*
X008293Y004257D01*
X008214Y004257D01*
X008293Y004336D01*
X008293Y004257D01*
X008125Y004270D02*
X008125Y004450D01*
X008125Y004360D02*
X007855Y004360D01*
X007945Y004270D01*
X007900Y004155D02*
X007855Y004110D01*
X007855Y003975D01*
X008125Y003975D01*
X008125Y004110D01*
X008080Y004155D01*
X007900Y004155D01*
X005150Y004210D02*
X004970Y004210D01*
X005105Y004345D01*
X005105Y004075D01*
X004855Y004120D02*
X004855Y004300D01*
X004810Y004345D01*
X004675Y004345D01*
X004675Y004075D01*
X004810Y004075D01*
X004855Y004120D01*
X004095Y005430D02*
X003825Y005430D01*
X004095Y005430D02*
X004095Y005611D01*
X003625Y005825D02*
X003355Y005825D01*
X003355Y005960D01*
X003400Y006005D01*
X003490Y006005D01*
X003535Y005960D01*
X003535Y005825D01*
X003535Y005915D02*
X003625Y006005D01*
X003580Y006120D02*
X003490Y006120D01*
X003490Y006255D01*
X003535Y006300D01*
X003580Y006300D01*
X003625Y006255D01*
X003625Y006165D01*
X003580Y006120D01*
X003490Y006120D02*
X003400Y006210D01*
X003355Y006300D01*
X003305Y006425D02*
X003215Y006515D01*
X003260Y006515D02*
X003125Y006515D01*
X003125Y006425D02*
X003125Y006695D01*
X003260Y006695D01*
X003305Y006650D01*
X003305Y006560D01*
X003260Y006515D01*
X003420Y006470D02*
X003465Y006425D01*
X003555Y006425D01*
X003600Y006470D01*
X003600Y006650D01*
X003555Y006695D01*
X003465Y006695D01*
X003420Y006650D01*
X003420Y006605D01*
X003465Y006560D01*
X003600Y006560D01*
X003125Y006255D02*
X003125Y006165D01*
X003080Y006120D01*
X002990Y006120D02*
X002945Y006210D01*
X002945Y006255D01*
X002990Y006300D01*
X003080Y006300D01*
X003125Y006255D01*
X002990Y006120D02*
X002855Y006120D01*
X002855Y006300D01*
X002775Y006310D02*
X002730Y006355D01*
X002775Y006310D02*
X002775Y006220D01*
X002730Y006175D01*
X002550Y006175D01*
X002505Y006220D01*
X002505Y006310D01*
X002550Y006355D01*
X002640Y006470D02*
X002640Y006650D01*
X002775Y006605D02*
X002505Y006605D01*
X002640Y006470D01*
X002175Y006570D02*
X002130Y006525D01*
X001950Y006525D01*
X001905Y006570D01*
X001905Y006660D01*
X001950Y006705D01*
X001995Y006820D02*
X001905Y006910D01*
X002175Y006910D01*
X002175Y006820D02*
X002175Y007000D01*
X002130Y006705D02*
X002175Y006660D01*
X002175Y006570D01*
X002855Y005960D02*
X002855Y005825D01*
X003125Y005825D01*
X003035Y005825D02*
X003035Y005960D01*
X002990Y006005D01*
X002900Y006005D01*
X002855Y005960D01*
X003035Y005915D02*
X003125Y006005D01*
X002145Y005380D02*
X002100Y005380D01*
X001920Y005561D01*
X001875Y005561D01*
X001875Y005380D01*
X001920Y005266D02*
X002010Y005266D01*
X002055Y005221D01*
X002055Y005086D01*
X002055Y005176D02*
X002145Y005266D01*
X002145Y005086D02*
X001875Y005086D01*
X001875Y005221D01*
X001920Y005266D01*
X004675Y008136D02*
X004675Y008271D01*
X004720Y008316D01*
X004900Y008316D01*
X004945Y008271D01*
X004945Y008136D01*
X004675Y008136D01*
X004720Y008430D02*
X004675Y008475D01*
X004675Y008565D01*
X004720Y008611D01*
X004765Y008611D01*
X004945Y008430D01*
X004945Y008611D01*
X004773Y008975D02*
X004593Y008975D01*
X004773Y009155D01*
X004773Y009200D01*
X004728Y009245D01*
X004638Y009245D01*
X004593Y009200D01*
X004478Y009200D02*
X004433Y009245D01*
X004343Y009245D01*
X004298Y009200D01*
X004298Y009020D01*
X004343Y008975D01*
X004433Y008975D01*
X004478Y009020D01*
X004192Y008975D02*
X004102Y008975D01*
X004147Y008975D02*
X004147Y009245D01*
X004102Y009245D02*
X004192Y009245D01*
X004110Y008867D02*
X003990Y008867D01*
X002911Y009530D02*
X002730Y009530D01*
X002820Y009530D02*
X002820Y009800D01*
X002730Y009710D01*
X002616Y009530D02*
X002436Y009530D01*
X002436Y009800D01*
X005111Y007425D02*
X005111Y007155D01*
X005111Y007245D02*
X005246Y007245D01*
X005291Y007290D01*
X005291Y007380D01*
X005246Y007425D01*
X005111Y007425D01*
X005201Y007245D02*
X005291Y007155D01*
X005405Y007290D02*
X005586Y007290D01*
X005540Y007155D02*
X005540Y007425D01*
X005405Y007290D01*
X006111Y007350D02*
X006156Y007305D01*
X006246Y007305D01*
X006291Y007350D01*
X006405Y007350D02*
X006450Y007305D01*
X006540Y007305D01*
X006586Y007350D01*
X006586Y007395D01*
X006540Y007440D01*
X006495Y007440D01*
X006540Y007440D02*
X006586Y007485D01*
X006586Y007530D01*
X006540Y007575D01*
X006450Y007575D01*
X006405Y007530D01*
X006291Y007530D02*
X006246Y007575D01*
X006156Y007575D01*
X006111Y007530D01*
X006111Y007350D01*
X005788Y008400D02*
X005517Y008400D01*
X005517Y008535D01*
X005562Y008580D01*
X005652Y008580D01*
X005697Y008535D01*
X005697Y008400D01*
X005697Y008490D02*
X005788Y008580D01*
X005788Y008695D02*
X005607Y008875D01*
X005562Y008875D01*
X005517Y008830D01*
X005517Y008740D01*
X005562Y008695D01*
X005788Y008695D02*
X005788Y008875D01*
X006292Y009300D02*
X006292Y009435D01*
X006337Y009480D01*
X006427Y009480D01*
X006472Y009435D01*
X006472Y009300D01*
X006472Y009390D02*
X006563Y009480D01*
X006563Y009595D02*
X006563Y009775D01*
X006563Y009685D02*
X006292Y009685D01*
X006382Y009595D01*
X006292Y009300D02*
X006563Y009300D01*
X006775Y009725D02*
X006775Y009995D01*
X006910Y009995D01*
X006955Y009950D01*
X006955Y009860D01*
X006910Y009815D01*
X006775Y009815D01*
X006865Y009815D02*
X006955Y009725D01*
X007070Y009770D02*
X007070Y009815D01*
X007115Y009860D01*
X007205Y009860D01*
X007250Y009815D01*
X007250Y009770D01*
X007205Y009725D01*
X007115Y009725D01*
X007070Y009770D01*
X007115Y009860D02*
X007070Y009905D01*
X007070Y009950D01*
X007115Y009995D01*
X007205Y009995D01*
X007250Y009950D01*
X007250Y009905D01*
X007205Y009860D01*
X007525Y008525D02*
X007480Y008480D01*
X007480Y008390D01*
X007525Y008345D01*
X007525Y008230D02*
X007480Y008185D01*
X007480Y008050D01*
X007750Y008050D01*
X007750Y008185D01*
X007705Y008230D01*
X007525Y008230D01*
X007705Y008345D02*
X007750Y008390D01*
X007750Y008480D01*
X007705Y008525D01*
X007660Y008525D01*
X007615Y008480D01*
X007615Y008435D01*
X007615Y008480D02*
X007570Y008525D01*
X007525Y008525D01*
X007581Y007375D02*
X007536Y007330D01*
X007536Y007150D01*
X007581Y007105D01*
X007671Y007105D01*
X007716Y007150D01*
X007830Y007105D02*
X008011Y007105D01*
X007920Y007105D02*
X007920Y007375D01*
X007830Y007285D01*
X007716Y007330D02*
X007671Y007375D01*
X007581Y007375D01*
X007429Y007375D02*
X007339Y007375D01*
X007384Y007375D02*
X007384Y007105D01*
X007339Y007105D02*
X007429Y007105D01*
X008850Y007836D02*
X008850Y008016D01*
X008940Y008130D02*
X008850Y008220D01*
X009120Y008220D01*
X009120Y008130D02*
X009120Y008311D01*
X008985Y007926D02*
X008985Y007836D01*
X009120Y007836D02*
X008850Y007836D01*
X005800Y009775D02*
X005620Y009775D01*
X005800Y009955D01*
X005800Y010000D01*
X005755Y010045D01*
X005665Y010045D01*
X005620Y010000D01*
X005505Y010000D02*
X005460Y010045D01*
X005370Y010045D01*
X005325Y010000D01*
X005325Y009820D01*
X005370Y009775D01*
X005460Y009775D01*
X005505Y009820D01*
D14*
X007200Y009500D03*
X005025Y007650D03*
X003700Y006950D03*
D15*
X003400Y005200D03*
X002900Y005200D03*
X002400Y005200D03*
X006013Y008675D03*
X006488Y008675D03*
X009000Y005900D03*
D16*
X007175Y007638D02*
X007175Y007662D01*
X005375Y009513D02*
X005375Y009537D01*
X002862Y007250D02*
X002838Y007250D01*
X002412Y007250D02*
X002388Y007250D01*
M02*
