G75*
%MOIN*%
%OFA0B0*%
%FSLAX24Y24*%
%IPPOS*%
%LPD*%
%AMOC8*
5,1,8,0,0,1.08239X$1,22.5*
%
%ADD10C,0.0080*%
%ADD11C,0.0050*%
%ADD12R,0.0337X0.0000*%
%ADD13R,0.0337X0.0000*%
%ADD14R,0.0344X0.0001*%
%ADD15R,0.0348X0.0000*%
%ADD16R,0.0347X0.0000*%
%ADD17R,0.0350X0.0000*%
%ADD18R,0.0350X0.0000*%
%ADD19R,0.0352X0.0001*%
%ADD20R,0.0355X0.0000*%
%ADD21R,0.0354X0.0000*%
%ADD22R,0.0356X0.0001*%
%ADD23R,0.0359X0.0000*%
%ADD24R,0.0360X0.0000*%
%ADD25R,0.0361X0.0001*%
%ADD26R,0.0363X0.0000*%
%ADD27R,0.0362X0.0000*%
%ADD28R,0.0365X0.0001*%
%ADD29R,0.0364X0.0001*%
%ADD30R,0.0365X0.0000*%
%ADD31R,0.0366X0.0000*%
%ADD32R,0.0366X0.0000*%
%ADD33R,0.0367X0.0001*%
%ADD34R,0.0369X0.0000*%
%ADD35R,0.0370X0.0001*%
%ADD36R,0.0369X0.0001*%
%ADD37R,0.0370X0.0000*%
%ADD38R,0.0371X0.0000*%
%ADD39R,0.0371X0.0000*%
%ADD40R,0.0372X0.0001*%
%ADD41R,0.0372X0.0001*%
%ADD42R,0.0373X0.0000*%
%ADD43R,0.0373X0.0000*%
%ADD44R,0.0374X0.0001*%
%ADD45R,0.0374X0.0001*%
%ADD46R,0.0375X0.0000*%
%ADD47R,0.0374X0.0000*%
%ADD48R,0.0375X0.0000*%
%ADD49R,0.0375X0.0000*%
%ADD50R,0.0375X0.0001*%
%ADD51R,0.0376X0.0001*%
%ADD52R,0.0376X0.0000*%
%ADD53R,0.0377X0.0001*%
%ADD54R,0.0376X0.0001*%
%ADD55R,0.0377X0.0000*%
%ADD56R,0.0378X0.0000*%
%ADD57R,0.0378X0.0000*%
%ADD58R,0.0379X0.0001*%
%ADD59R,0.0379X0.0000*%
%ADD60R,0.0379X0.0000*%
%ADD61R,0.0380X0.0001*%
%ADD62R,0.0379X0.0001*%
%ADD63R,0.0380X0.0000*%
%ADD64R,0.0379X0.0000*%
%ADD65R,0.0380X0.0000*%
%ADD66R,0.0380X0.0000*%
%ADD67R,0.0380X0.0001*%
%ADD68R,0.0381X0.0001*%
%ADD69R,0.0381X0.0000*%
%ADD70R,0.0381X0.0001*%
%ADD71R,0.0381X0.0001*%
%ADD72R,0.0381X0.0000*%
%ADD73R,0.0382X0.0001*%
%ADD74R,0.0381X0.0001*%
%ADD75R,0.0382X0.0000*%
%ADD76R,0.0382X0.0000*%
%ADD77R,0.0382X0.0001*%
%ADD78R,0.0382X0.0000*%
%ADD79R,0.0383X0.0000*%
%ADD80R,0.0383X0.0001*%
%ADD81R,0.0383X0.0001*%
%ADD82R,0.0383X0.0000*%
%ADD83R,0.0382X0.0001*%
%ADD84R,0.0379X0.0001*%
%ADD85R,0.0381X0.0000*%
%ADD86R,0.0378X0.0001*%
%ADD87R,0.0377X0.0000*%
%ADD88R,0.0376X0.0000*%
%ADD89R,0.0374X0.0000*%
%ADD90R,0.0377X0.0001*%
%ADD91R,0.0372X0.0000*%
%ADD92R,0.0371X0.0001*%
%ADD93R,0.0376X0.0001*%
%ADD94R,0.0371X0.0000*%
%ADD95R,0.0376X0.0000*%
%ADD96R,0.0370X0.0000*%
%ADD97R,0.0369X0.0001*%
%ADD98R,0.0374X0.0001*%
%ADD99R,0.0368X0.0000*%
%ADD100R,0.0374X0.0000*%
%ADD101R,0.0367X0.0001*%
%ADD102R,0.0373X0.0001*%
%ADD103R,0.0366X0.0000*%
%ADD104R,0.0372X0.0000*%
%ADD105R,0.0365X0.0000*%
%ADD106R,0.0371X0.0000*%
%ADD107R,0.0364X0.0001*%
%ADD108R,0.0371X0.0001*%
%ADD109R,0.0362X0.0000*%
%ADD110R,0.0369X0.0000*%
%ADD111R,0.0360X0.0001*%
%ADD112R,0.0369X0.0001*%
%ADD113R,0.0359X0.0000*%
%ADD114R,0.0367X0.0000*%
%ADD115R,0.0357X0.0000*%
%ADD116R,0.0355X0.0001*%
%ADD117R,0.0365X0.0001*%
%ADD118R,0.0354X0.0000*%
%ADD119R,0.0364X0.0000*%
%ADD120R,0.0351X0.0001*%
%ADD121R,0.0363X0.0001*%
%ADD122R,0.0348X0.0000*%
%ADD123R,0.0361X0.0000*%
%ADD124R,0.0345X0.0000*%
%ADD125R,0.0340X0.0001*%
%ADD126R,0.0359X0.0001*%
%ADD127R,0.0258X0.0000*%
%ADD128R,0.0356X0.0000*%
%ADD129R,0.0257X0.0001*%
%ADD130R,0.0354X0.0001*%
%ADD131R,0.0257X0.0000*%
%ADD132R,0.0352X0.0000*%
%ADD133R,0.0347X0.0001*%
%ADD134R,0.0257X0.0000*%
%ADD135R,0.0344X0.0000*%
%ADD136R,0.0257X0.0001*%
%ADD137R,0.0338X0.0001*%
%ADD138R,0.0239X0.0000*%
%ADD139R,0.0256X0.0000*%
%ADD140R,0.0256X0.0001*%
%ADD141R,0.0239X0.0001*%
%ADD142R,0.0239X0.0001*%
%ADD143R,0.0256X0.0000*%
%ADD144R,0.0239X0.0000*%
%ADD145R,0.0256X0.0001*%
%ADD146R,0.0255X0.0000*%
%ADD147R,0.0238X0.0000*%
%ADD148R,0.0255X0.0001*%
%ADD149R,0.0238X0.0001*%
%ADD150R,0.0255X0.0000*%
%ADD151R,0.0255X0.0001*%
%ADD152R,0.0238X0.0001*%
%ADD153R,0.0238X0.0000*%
%ADD154R,0.0255X0.0000*%
%ADD155R,0.0238X0.0000*%
%ADD156R,0.0255X0.0001*%
%ADD157R,0.0238X0.0001*%
%ADD158R,0.0254X0.0000*%
%ADD159R,0.0254X0.0001*%
%ADD160R,0.0237X0.0000*%
%ADD161R,0.0254X0.0001*%
%ADD162R,0.0237X0.0001*%
%ADD163R,0.0254X0.0000*%
%ADD164R,0.0253X0.0000*%
%ADD165R,0.0236X0.0000*%
%ADD166R,0.0253X0.0001*%
%ADD167R,0.0236X0.0001*%
%ADD168R,0.0253X0.0000*%
%ADD169R,0.0253X0.0001*%
%ADD170R,0.0236X0.0001*%
%ADD171R,0.0236X0.0000*%
%ADD172R,0.0252X0.0001*%
%ADD173R,0.0252X0.0000*%
%ADD174R,0.0235X0.0000*%
%ADD175R,0.0235X0.0001*%
%ADD176R,0.0251X0.0000*%
%ADD177R,0.0251X0.0001*%
%ADD178R,0.0235X0.0001*%
%ADD179R,0.0235X0.0000*%
%ADD180R,0.0251X0.0001*%
%ADD181R,0.0251X0.0000*%
%ADD182R,0.0234X0.0000*%
%ADD183R,0.0250X0.0001*%
%ADD184R,0.0234X0.0001*%
%ADD185R,0.0250X0.0000*%
%ADD186R,0.0250X0.0000*%
%ADD187R,0.0234X0.0000*%
%ADD188R,0.0250X0.0001*%
%ADD189R,0.0234X0.0001*%
%ADD190R,0.0250X0.0001*%
%ADD191R,0.0250X0.0000*%
%ADD192R,0.0233X0.0000*%
%ADD193R,0.0249X0.0001*%
%ADD194R,0.0233X0.0001*%
%ADD195R,0.0249X0.0000*%
%ADD196R,0.0233X0.0001*%
%ADD197R,0.0233X0.0000*%
%ADD198R,0.0249X0.0000*%
%ADD199R,0.0249X0.0001*%
%ADD200R,0.0232X0.0000*%
%ADD201R,0.0248X0.0001*%
%ADD202R,0.0232X0.0001*%
%ADD203R,0.0248X0.0000*%
%ADD204R,0.0248X0.0001*%
%ADD205R,0.0232X0.0001*%
%ADD206R,0.0248X0.0000*%
%ADD207R,0.0232X0.0000*%
%ADD208R,0.0247X0.0000*%
%ADD209R,0.0231X0.0000*%
%ADD210R,0.0247X0.0001*%
%ADD211R,0.0231X0.0001*%
%ADD212R,0.0246X0.0001*%
%ADD213R,0.0246X0.0000*%
%ADD214R,0.0231X0.0000*%
%ADD215R,0.0231X0.0001*%
%ADD216R,0.0246X0.0000*%
%ADD217R,0.0246X0.0001*%
%ADD218R,0.0230X0.0000*%
%ADD219R,0.0245X0.0000*%
%ADD220R,0.0245X0.0001*%
%ADD221R,0.0230X0.0001*%
%ADD222R,0.0245X0.0001*%
%ADD223R,0.0230X0.0001*%
%ADD224R,0.0245X0.0000*%
%ADD225R,0.0230X0.0000*%
%ADD226R,0.0245X0.0000*%
%ADD227R,0.0229X0.0000*%
%ADD228R,0.0245X0.0001*%
%ADD229R,0.0229X0.0001*%
%ADD230R,0.0244X0.0000*%
%ADD231R,0.0244X0.0001*%
%ADD232R,0.0229X0.0001*%
%ADD233R,0.0229X0.0000*%
%ADD234R,0.0244X0.0000*%
%ADD235R,0.0228X0.0000*%
%ADD236R,0.0244X0.0001*%
%ADD237R,0.0228X0.0001*%
%ADD238R,0.0243X0.0000*%
%ADD239R,0.0243X0.0001*%
%ADD240R,0.0243X0.0000*%
%ADD241R,0.0228X0.0000*%
%ADD242R,0.0243X0.0001*%
%ADD243R,0.0228X0.0001*%
%ADD244R,0.0242X0.0000*%
%ADD245R,0.0227X0.0000*%
%ADD246R,0.0242X0.0001*%
%ADD247R,0.0227X0.0001*%
%ADD248R,0.0241X0.0000*%
%ADD249R,0.0241X0.0001*%
%ADD250R,0.0227X0.0001*%
%ADD251R,0.0227X0.0000*%
%ADD252R,0.0241X0.0001*%
%ADD253R,0.0241X0.0000*%
%ADD254R,0.0226X0.0000*%
%ADD255R,0.0226X0.0001*%
%ADD256R,0.0240X0.0000*%
%ADD257R,0.0240X0.0001*%
%ADD258R,0.0226X0.0001*%
%ADD259R,0.0240X0.0000*%
%ADD260R,0.0226X0.0000*%
%ADD261R,0.0240X0.0001*%
%ADD262R,0.0225X0.0000*%
%ADD263R,0.0240X0.0001*%
%ADD264R,0.0225X0.0001*%
%ADD265R,0.0240X0.0000*%
%ADD266R,0.0225X0.0000*%
%ADD267R,0.0225X0.0001*%
%ADD268R,0.0239X0.0001*%
%ADD269R,0.0239X0.0000*%
%ADD270R,0.0224X0.0000*%
%ADD271R,0.0224X0.0001*%
%ADD272R,0.0224X0.0001*%
%ADD273R,0.0224X0.0000*%
%ADD274R,0.0223X0.0000*%
%ADD275R,0.0237X0.0001*%
%ADD276R,0.0223X0.0001*%
%ADD277R,0.0237X0.0000*%
%ADD278R,0.0223X0.0001*%
%ADD279R,0.0223X0.0000*%
%ADD280R,0.0236X0.0000*%
%ADD281R,0.0222X0.0000*%
%ADD282R,0.0236X0.0001*%
%ADD283R,0.0222X0.0001*%
%ADD284R,0.0222X0.0000*%
%ADD285R,0.0222X0.0001*%
%ADD286R,0.0221X0.0000*%
%ADD287R,0.0235X0.0000*%
%ADD288R,0.0235X0.0001*%
%ADD289R,0.0221X0.0001*%
%ADD290R,0.0221X0.0001*%
%ADD291R,0.0221X0.0000*%
%ADD292R,0.0234X0.0000*%
%ADD293R,0.0220X0.0000*%
%ADD294R,0.0234X0.0001*%
%ADD295R,0.0220X0.0001*%
%ADD296R,0.0220X0.0001*%
%ADD297R,0.0220X0.0000*%
%ADD298R,0.0219X0.0000*%
%ADD299R,0.0219X0.0001*%
%ADD300R,0.0232X0.0000*%
%ADD301R,0.0232X0.0001*%
%ADD302R,0.0219X0.0000*%
%ADD303R,0.0219X0.0001*%
%ADD304R,0.0231X0.0000*%
%ADD305R,0.0218X0.0000*%
%ADD306R,0.0231X0.0001*%
%ADD307R,0.0218X0.0001*%
%ADD308R,0.0218X0.0001*%
%ADD309R,0.0218X0.0000*%
%ADD310R,0.0217X0.0000*%
%ADD311R,0.0217X0.0001*%
%ADD312R,0.0230X0.0000*%
%ADD313R,0.0230X0.0001*%
%ADD314R,0.0217X0.0001*%
%ADD315R,0.0217X0.0000*%
%ADD316R,0.0216X0.0000*%
%ADD317R,0.0229X0.0001*%
%ADD318R,0.0216X0.0001*%
%ADD319R,0.0229X0.0000*%
%ADD320R,0.0216X0.0000*%
%ADD321R,0.0216X0.0001*%
%ADD322R,0.0215X0.0000*%
%ADD323R,0.0227X0.0001*%
%ADD324R,0.0215X0.0001*%
%ADD325R,0.0227X0.0000*%
%ADD326R,0.0215X0.0001*%
%ADD327R,0.0215X0.0000*%
%ADD328R,0.0214X0.0000*%
%ADD329R,0.0226X0.0001*%
%ADD330R,0.0214X0.0001*%
%ADD331R,0.0226X0.0000*%
%ADD332R,0.0214X0.0001*%
%ADD333R,0.0214X0.0000*%
%ADD334R,0.0213X0.0000*%
%ADD335R,0.0213X0.0001*%
%ADD336R,0.0225X0.0001*%
%ADD337R,0.0225X0.0000*%
%ADD338R,0.0213X0.0000*%
%ADD339R,0.0213X0.0001*%
%ADD340R,0.0213X0.0000*%
%ADD341R,0.0224X0.0000*%
%ADD342R,0.0224X0.0001*%
%ADD343R,0.0213X0.0001*%
%ADD344R,0.0212X0.0001*%
%ADD345R,0.0212X0.0000*%
%ADD346R,0.0211X0.0000*%
%ADD347R,0.0211X0.0001*%
%ADD348R,0.0222X0.0000*%
%ADD349R,0.0222X0.0001*%
%ADD350R,0.0211X0.0001*%
%ADD351R,0.0211X0.0000*%
%ADD352R,0.0210X0.0000*%
%ADD353R,0.0210X0.0001*%
%ADD354R,0.0221X0.0000*%
%ADD355R,0.0221X0.0001*%
%ADD356R,0.0210X0.0000*%
%ADD357R,0.0210X0.0001*%
%ADD358R,0.0209X0.0000*%
%ADD359R,0.0209X0.0001*%
%ADD360R,0.0220X0.0000*%
%ADD361R,0.0220X0.0001*%
%ADD362R,0.0209X0.0001*%
%ADD363R,0.0209X0.0000*%
%ADD364R,0.0208X0.0000*%
%ADD365R,0.0208X0.0001*%
%ADD366R,0.0219X0.0000*%
%ADD367R,0.0219X0.0001*%
%ADD368R,0.0208X0.0001*%
%ADD369R,0.0208X0.0000*%
%ADD370R,0.0208X0.0000*%
%ADD371R,0.0208X0.0001*%
%ADD372R,0.0217X0.0000*%
%ADD373R,0.0207X0.0000*%
%ADD374R,0.0217X0.0001*%
%ADD375R,0.0207X0.0001*%
%ADD376R,0.0206X0.0000*%
%ADD377R,0.0216X0.0001*%
%ADD378R,0.0206X0.0001*%
%ADD379R,0.0216X0.0000*%
%ADD380R,0.0206X0.0001*%
%ADD381R,0.0206X0.0000*%
%ADD382R,0.0205X0.0000*%
%ADD383R,0.0205X0.0001*%
%ADD384R,0.0215X0.0001*%
%ADD385R,0.0205X0.0001*%
%ADD386R,0.0215X0.0000*%
%ADD387R,0.0205X0.0000*%
%ADD388R,0.0204X0.0000*%
%ADD389R,0.0204X0.0001*%
%ADD390R,0.0214X0.0001*%
%ADD391R,0.0214X0.0000*%
%ADD392R,0.0204X0.0000*%
%ADD393R,0.0204X0.0001*%
%ADD394R,0.0203X0.0000*%
%ADD395R,0.0203X0.0001*%
%ADD396R,0.0212X0.0001*%
%ADD397R,0.0203X0.0001*%
%ADD398R,0.0212X0.0000*%
%ADD399R,0.0203X0.0000*%
%ADD400R,0.0203X0.0000*%
%ADD401R,0.0203X0.0001*%
%ADD402R,0.0211X0.0000*%
%ADD403R,0.0211X0.0001*%
%ADD404R,0.0202X0.0001*%
%ADD405R,0.0202X0.0000*%
%ADD406R,0.0201X0.0000*%
%ADD407R,0.0201X0.0001*%
%ADD408R,0.0210X0.0000*%
%ADD409R,0.0201X0.0000*%
%ADD410R,0.0210X0.0001*%
%ADD411R,0.0201X0.0001*%
%ADD412R,0.0200X0.0000*%
%ADD413R,0.0200X0.0001*%
%ADD414R,0.0209X0.0000*%
%ADD415R,0.0209X0.0001*%
%ADD416R,0.0200X0.0001*%
%ADD417R,0.0200X0.0000*%
%ADD418R,0.0199X0.0000*%
%ADD419R,0.0199X0.0001*%
%ADD420R,0.0199X0.0001*%
%ADD421R,0.0207X0.0000*%
%ADD422R,0.0199X0.0000*%
%ADD423R,0.0207X0.0001*%
%ADD424R,0.0198X0.0000*%
%ADD425R,0.0198X0.0001*%
%ADD426R,0.0206X0.0000*%
%ADD427R,0.0198X0.0000*%
%ADD428R,0.0206X0.0001*%
%ADD429R,0.0198X0.0001*%
%ADD430R,0.0198X0.0000*%
%ADD431R,0.0198X0.0001*%
%ADD432R,0.0197X0.0001*%
%ADD433R,0.0205X0.0000*%
%ADD434R,0.0197X0.0000*%
%ADD435R,0.0205X0.0001*%
%ADD436R,0.0196X0.0000*%
%ADD437R,0.0196X0.0001*%
%ADD438R,0.0204X0.0001*%
%ADD439R,0.0196X0.0001*%
%ADD440R,0.0204X0.0000*%
%ADD441R,0.0196X0.0000*%
%ADD442R,0.0195X0.0000*%
%ADD443R,0.0195X0.0001*%
%ADD444R,0.0195X0.0000*%
%ADD445R,0.0202X0.0001*%
%ADD446R,0.0195X0.0001*%
%ADD447R,0.0202X0.0000*%
%ADD448R,0.0194X0.0000*%
%ADD449R,0.0194X0.0001*%
%ADD450R,0.0201X0.0001*%
%ADD451R,0.0194X0.0001*%
%ADD452R,0.0201X0.0000*%
%ADD453R,0.0194X0.0000*%
%ADD454R,0.0193X0.0000*%
%ADD455R,0.0193X0.0001*%
%ADD456R,0.0193X0.0001*%
%ADD457R,0.0193X0.0000*%
%ADD458R,0.0200X0.0001*%
%ADD459R,0.0200X0.0000*%
%ADD460R,0.0192X0.0000*%
%ADD461R,0.0192X0.0001*%
%ADD462R,0.0199X0.0000*%
%ADD463R,0.0192X0.0000*%
%ADD464R,0.0199X0.0001*%
%ADD465R,0.0192X0.0001*%
%ADD466R,0.0191X0.0000*%
%ADD467R,0.0191X0.0001*%
%ADD468R,0.0191X0.0001*%
%ADD469R,0.0191X0.0000*%
%ADD470R,0.0197X0.0000*%
%ADD471R,0.0197X0.0001*%
%ADD472R,0.0190X0.0000*%
%ADD473R,0.0190X0.0001*%
%ADD474R,0.0190X0.0001*%
%ADD475R,0.0196X0.0000*%
%ADD476R,0.0190X0.0000*%
%ADD477R,0.0196X0.0001*%
%ADD478R,0.0189X0.0000*%
%ADD479R,0.0189X0.0001*%
%ADD480R,0.0189X0.0000*%
%ADD481R,0.0189X0.0001*%
%ADD482R,0.0195X0.0000*%
%ADD483R,0.0195X0.0001*%
%ADD484R,0.0188X0.0000*%
%ADD485R,0.0188X0.0001*%
%ADD486R,0.0188X0.0001*%
%ADD487R,0.0194X0.0000*%
%ADD488R,0.0188X0.0000*%
%ADD489R,0.0194X0.0001*%
%ADD490R,0.0187X0.0000*%
%ADD491R,0.0187X0.0001*%
%ADD492R,0.0187X0.0001*%
%ADD493R,0.0187X0.0000*%
%ADD494R,0.0192X0.0000*%
%ADD495R,0.0186X0.0000*%
%ADD496R,0.0192X0.0001*%
%ADD497R,0.0186X0.0001*%
%ADD498R,0.0186X0.0000*%
%ADD499R,0.0191X0.0001*%
%ADD500R,0.0186X0.0001*%
%ADD501R,0.0191X0.0000*%
%ADD502R,0.0185X0.0000*%
%ADD503R,0.0185X0.0001*%
%ADD504R,0.0185X0.0001*%
%ADD505R,0.0185X0.0000*%
%ADD506R,0.0190X0.0001*%
%ADD507R,0.0190X0.0000*%
%ADD508R,0.0184X0.0000*%
%ADD509R,0.0184X0.0001*%
%ADD510R,0.0184X0.0001*%
%ADD511R,0.0184X0.0000*%
%ADD512R,0.0189X0.0001*%
%ADD513R,0.0189X0.0000*%
%ADD514R,0.0183X0.0000*%
%ADD515R,0.0183X0.0001*%
%ADD516R,0.0183X0.0000*%
%ADD517R,0.0183X0.0001*%
%ADD518R,0.0187X0.0001*%
%ADD519R,0.0187X0.0000*%
%ADD520R,0.0182X0.0000*%
%ADD521R,0.0182X0.0001*%
%ADD522R,0.0182X0.0001*%
%ADD523R,0.0182X0.0000*%
%ADD524R,0.0186X0.0000*%
%ADD525R,0.0186X0.0001*%
%ADD526R,0.0181X0.0000*%
%ADD527R,0.0181X0.0001*%
%ADD528R,0.0181X0.0001*%
%ADD529R,0.0181X0.0000*%
%ADD530R,0.0185X0.0000*%
%ADD531R,0.0180X0.0000*%
%ADD532R,0.0185X0.0001*%
%ADD533R,0.0180X0.0001*%
%ADD534R,0.0180X0.0000*%
%ADD535R,0.0180X0.0001*%
%ADD536R,0.0184X0.0000*%
%ADD537R,0.0184X0.0001*%
%ADD538R,0.0179X0.0000*%
%ADD539R,0.0179X0.0001*%
%ADD540R,0.0179X0.0001*%
%ADD541R,0.0179X0.0000*%
%ADD542R,0.0182X0.0000*%
%ADD543R,0.0178X0.0000*%
%ADD544R,0.0182X0.0001*%
%ADD545R,0.0178X0.0001*%
%ADD546R,0.0178X0.0001*%
%ADD547R,0.0178X0.0000*%
%ADD548R,0.0181X0.0000*%
%ADD549R,0.0177X0.0000*%
%ADD550R,0.0181X0.0001*%
%ADD551R,0.0177X0.0001*%
%ADD552R,0.0177X0.0000*%
%ADD553R,0.0177X0.0001*%
%ADD554R,0.0180X0.0000*%
%ADD555R,0.0176X0.0000*%
%ADD556R,0.0180X0.0001*%
%ADD557R,0.0176X0.0001*%
%ADD558R,0.0176X0.0001*%
%ADD559R,0.0176X0.0000*%
%ADD560R,0.0179X0.0001*%
%ADD561R,0.0179X0.0000*%
%ADD562R,0.0175X0.0000*%
%ADD563R,0.0175X0.0001*%
%ADD564R,0.0175X0.0001*%
%ADD565R,0.0175X0.0000*%
%ADD566R,0.0174X0.0000*%
%ADD567R,0.0177X0.0001*%
%ADD568R,0.0174X0.0001*%
%ADD569R,0.0177X0.0000*%
%ADD570R,0.0174X0.0000*%
%ADD571R,0.0174X0.0001*%
%ADD572R,0.0176X0.0001*%
%ADD573R,0.0176X0.0000*%
%ADD574R,0.0173X0.0000*%
%ADD575R,0.0173X0.0001*%
%ADD576R,0.0173X0.0001*%
%ADD577R,0.0173X0.0000*%
%ADD578R,0.0173X0.0000*%
%ADD579R,0.0175X0.0001*%
%ADD580R,0.0173X0.0001*%
%ADD581R,0.0175X0.0000*%
%ADD582R,0.0172X0.0001*%
%ADD583R,0.0172X0.0000*%
%ADD584R,0.0174X0.0000*%
%ADD585R,0.0171X0.0000*%
%ADD586R,0.0174X0.0001*%
%ADD587R,0.0171X0.0001*%
%ADD588R,0.0171X0.0000*%
%ADD589R,0.0171X0.0001*%
%ADD590R,0.0170X0.0000*%
%ADD591R,0.0172X0.0000*%
%ADD592R,0.0172X0.0001*%
%ADD593R,0.0170X0.0001*%
%ADD594R,0.0170X0.0001*%
%ADD595R,0.0170X0.0000*%
%ADD596R,0.0171X0.0000*%
%ADD597R,0.0169X0.0000*%
%ADD598R,0.0171X0.0001*%
%ADD599R,0.0169X0.0001*%
%ADD600R,0.0169X0.0001*%
%ADD601R,0.0169X0.0000*%
%ADD602R,0.0168X0.0000*%
%ADD603R,0.0168X0.0001*%
%ADD604R,0.0170X0.0000*%
%ADD605R,0.0170X0.0001*%
%ADD606R,0.0168X0.0000*%
%ADD607R,0.0168X0.0001*%
%ADD608R,0.0169X0.0000*%
%ADD609R,0.0168X0.0000*%
%ADD610R,0.0169X0.0001*%
%ADD611R,0.0168X0.0001*%
%ADD612R,0.0167X0.0001*%
%ADD613R,0.0167X0.0000*%
%ADD614R,0.0166X0.0000*%
%ADD615R,0.0166X0.0001*%
%ADD616R,0.0167X0.0000*%
%ADD617R,0.0167X0.0001*%
%ADD618R,0.0166X0.0001*%
%ADD619R,0.0166X0.0000*%
%ADD620R,0.0165X0.0000*%
%ADD621R,0.0166X0.0001*%
%ADD622R,0.0165X0.0001*%
%ADD623R,0.0166X0.0000*%
%ADD624R,0.0165X0.0000*%
%ADD625R,0.0165X0.0001*%
%ADD626R,0.0164X0.0000*%
%ADD627R,0.0165X0.0001*%
%ADD628R,0.0164X0.0001*%
%ADD629R,0.0165X0.0000*%
%ADD630R,0.0164X0.0001*%
%ADD631R,0.0164X0.0000*%
%ADD632R,0.0163X0.0000*%
%ADD633R,0.0164X0.0001*%
%ADD634R,0.0163X0.0001*%
%ADD635R,0.0164X0.0000*%
%ADD636R,0.0163X0.0001*%
%ADD637R,0.0163X0.0000*%
%ADD638R,0.0163X0.0000*%
%ADD639R,0.0163X0.0001*%
%ADD640R,0.0162X0.0001*%
%ADD641R,0.0162X0.0000*%
%ADD642R,0.0162X0.0000*%
%ADD643R,0.0161X0.0001*%
%ADD644R,0.0162X0.0001*%
%ADD645R,0.0161X0.0000*%
%ADD646R,0.0161X0.0000*%
%ADD647R,0.0161X0.0001*%
%ADD648R,0.0160X0.0001*%
%ADD649R,0.0161X0.0001*%
%ADD650R,0.0160X0.0000*%
%ADD651R,0.0161X0.0000*%
%ADD652R,0.0160X0.0000*%
%ADD653R,0.0160X0.0001*%
%ADD654R,0.0160X0.0000*%
%ADD655R,0.0160X0.0001*%
%ADD656R,0.0159X0.0001*%
%ADD657R,0.0159X0.0000*%
%ADD658R,0.0159X0.0000*%
%ADD659R,0.0159X0.0001*%
%ADD660R,0.0159X0.0000*%
%ADD661R,0.0159X0.0001*%
%ADD662R,0.0158X0.0000*%
%ADD663R,0.0158X0.0001*%
%ADD664R,0.0158X0.0000*%
%ADD665R,0.0158X0.0000*%
%ADD666R,0.0158X0.0001*%
%ADD667R,0.0158X0.0001*%
%ADD668R,0.0157X0.0000*%
%ADD669R,0.0157X0.0001*%
%ADD670R,0.0156X0.0000*%
%ADD671R,0.0156X0.0001*%
%ADD672R,0.0156X0.0000*%
%ADD673R,0.0156X0.0001*%
%ADD674R,0.0157X0.0001*%
%ADD675R,0.0155X0.0000*%
%ADD676R,0.0157X0.0000*%
%ADD677R,0.0155X0.0001*%
%ADD678R,0.0155X0.0001*%
%ADD679R,0.0155X0.0000*%
%ADD680R,0.0155X0.0000*%
%ADD681R,0.0156X0.0000*%
%ADD682R,0.0155X0.0001*%
%ADD683R,0.0156X0.0001*%
%ADD684R,0.0154X0.0000*%
%ADD685R,0.0154X0.0001*%
%ADD686R,0.0154X0.0001*%
%ADD687R,0.0154X0.0000*%
%ADD688R,0.0153X0.0000*%
%ADD689R,0.0153X0.0001*%
%ADD690R,0.0154X0.0000*%
%ADD691R,0.0152X0.0001*%
%ADD692R,0.0154X0.0001*%
%ADD693R,0.0152X0.0000*%
%ADD694R,0.0152X0.0001*%
%ADD695R,0.0152X0.0000*%
%ADD696R,0.0151X0.0000*%
%ADD697R,0.0153X0.0000*%
%ADD698R,0.0151X0.0001*%
%ADD699R,0.0153X0.0001*%
%ADD700R,0.0151X0.0001*%
%ADD701R,0.0151X0.0000*%
%ADD702R,0.0150X0.0001*%
%ADD703R,0.0150X0.0000*%
%ADD704R,0.0150X0.0000*%
%ADD705R,0.0150X0.0001*%
%ADD706R,0.0150X0.0001*%
%ADD707R,0.0152X0.0001*%
%ADD708R,0.0150X0.0000*%
%ADD709R,0.0152X0.0000*%
%ADD710R,0.0149X0.0000*%
%ADD711R,0.0149X0.0001*%
%ADD712R,0.0149X0.0000*%
%ADD713R,0.0149X0.0001*%
%ADD714R,0.0151X0.0001*%
%ADD715R,0.0151X0.0000*%
%ADD716R,0.0148X0.0001*%
%ADD717R,0.0148X0.0000*%
%ADD718R,0.0260X0.0000*%
%ADD719R,0.0259X0.0000*%
%ADD720R,0.0260X0.0001*%
%ADD721R,0.0259X0.0001*%
%ADD722R,0.0868X0.0000*%
%ADD723R,0.0868X0.0001*%
%ADD724R,0.0321X0.0000*%
%ADD725R,0.0305X0.0000*%
%ADD726R,0.0321X0.0001*%
%ADD727R,0.0305X0.0001*%
%ADD728R,0.0867X0.0000*%
%ADD729R,0.0867X0.0001*%
%ADD730R,0.0867X0.0000*%
%ADD731R,0.0867X0.0001*%
%ADD732R,0.0866X0.0000*%
%ADD733R,0.0866X0.0000*%
%ADD734R,0.0866X0.0001*%
%ADD735R,0.0866X0.0000*%
%ADD736R,0.0866X0.0001*%
%ADD737R,0.0865X0.0000*%
%ADD738R,0.0865X0.0001*%
%ADD739R,0.0864X0.0001*%
%ADD740R,0.0864X0.0000*%
%ADD741R,0.0864X0.0001*%
%ADD742R,0.0864X0.0000*%
%ADD743R,0.0864X0.0001*%
%ADD744R,0.0864X0.0000*%
%ADD745R,0.0863X0.0001*%
%ADD746R,0.0863X0.0000*%
%ADD747R,0.0862X0.0001*%
%ADD748R,0.0862X0.0000*%
%ADD749R,0.0862X0.0001*%
%ADD750R,0.0862X0.0000*%
%ADD751R,0.0861X0.0001*%
%ADD752R,0.0861X0.0000*%
%ADD753R,0.0861X0.0001*%
%ADD754R,0.0860X0.0001*%
%ADD755R,0.0860X0.0000*%
%ADD756R,0.0859X0.0000*%
%ADD757R,0.0859X0.0001*%
%ADD758R,0.0858X0.0000*%
%ADD759R,0.0858X0.0001*%
%ADD760R,0.0857X0.0001*%
%ADD761R,0.0857X0.0000*%
%ADD762R,0.0856X0.0000*%
%ADD763R,0.0856X0.0001*%
%ADD764R,0.0855X0.0000*%
%ADD765R,0.0855X0.0001*%
%ADD766R,0.0855X0.0000*%
%ADD767R,0.0855X0.0001*%
%ADD768R,0.0854X0.0000*%
%ADD769R,0.0854X0.0001*%
%ADD770R,0.0853X0.0000*%
%ADD771R,0.0853X0.0001*%
%ADD772R,0.0853X0.0000*%
%ADD773R,0.0853X0.0000*%
%ADD774R,0.0852X0.0001*%
%ADD775R,0.0852X0.0000*%
%ADD776R,0.0852X0.0001*%
%ADD777R,0.0851X0.0000*%
%ADD778R,0.0850X0.0001*%
%ADD779R,0.0850X0.0000*%
%ADD780R,0.0850X0.0001*%
%ADD781R,0.0849X0.0000*%
%ADD782R,0.0848X0.0001*%
%ADD783R,0.0848X0.0000*%
%ADD784R,0.0848X0.0001*%
%ADD785R,0.0848X0.0000*%
%ADD786R,0.0847X0.0000*%
%ADD787R,0.0847X0.0001*%
%ADD788R,0.0846X0.0000*%
%ADD789R,0.0846X0.0001*%
%ADD790R,0.0845X0.0000*%
%ADD791R,0.0845X0.0000*%
%ADD792R,0.0845X0.0001*%
%ADD793R,0.0843X0.0000*%
%ADD794R,0.0843X0.0001*%
%ADD795R,0.0841X0.0000*%
%ADD796R,0.0840X0.0000*%
%ADD797R,0.0839X0.0001*%
%ADD798R,0.0838X0.0000*%
%ADD799R,0.0837X0.0001*%
%ADD800R,0.0836X0.0000*%
%ADD801R,0.0835X0.0000*%
%ADD802R,0.0834X0.0001*%
%ADD803R,0.0833X0.0000*%
%ADD804R,0.0832X0.0001*%
%ADD805R,0.0831X0.0000*%
%ADD806R,0.0830X0.0000*%
%ADD807R,0.0829X0.0001*%
%ADD808R,0.0828X0.0000*%
%ADD809R,0.0827X0.0001*%
%ADD810R,0.0826X0.0000*%
%ADD811R,0.0825X0.0000*%
%ADD812R,0.0824X0.0001*%
%ADD813R,0.0823X0.0000*%
%ADD814R,0.0822X0.0001*%
%ADD815R,0.0821X0.0000*%
%ADD816R,0.0820X0.0000*%
%ADD817R,0.0819X0.0001*%
%ADD818R,0.0818X0.0000*%
%ADD819R,0.0817X0.0001*%
%ADD820R,0.0816X0.0000*%
%ADD821R,0.0815X0.0000*%
%ADD822R,0.0814X0.0001*%
%ADD823R,0.0813X0.0000*%
%ADD824R,0.0812X0.0001*%
%ADD825R,0.0811X0.0000*%
%ADD826R,0.0810X0.0000*%
%ADD827R,0.0808X0.0001*%
%ADD828R,0.0808X0.0000*%
%ADD829R,0.0807X0.0001*%
%ADD830R,0.0805X0.0000*%
%ADD831R,0.0805X0.0000*%
%ADD832R,0.0803X0.0001*%
%ADD833R,0.0803X0.0000*%
%ADD834R,0.0802X0.0001*%
%ADD835R,0.0800X0.0000*%
%ADD836R,0.0800X0.0000*%
%ADD837R,0.0798X0.0001*%
%ADD838R,0.0798X0.0000*%
%ADD839R,0.0797X0.0001*%
%ADD840R,0.0795X0.0000*%
%ADD841R,0.0795X0.0000*%
%ADD842R,0.0793X0.0001*%
%ADD843R,0.0793X0.0000*%
%ADD844R,0.0791X0.0001*%
%ADD845R,0.0790X0.0000*%
%ADD846R,0.0789X0.0000*%
%ADD847R,0.0788X0.0001*%
%ADD848R,0.0787X0.0000*%
%ADD849R,0.0786X0.0001*%
%ADD850R,0.0785X0.0000*%
%ADD851R,0.0784X0.0000*%
%ADD852R,0.0783X0.0001*%
%ADD853R,0.0782X0.0000*%
%ADD854R,0.0781X0.0001*%
%ADD855R,0.0780X0.0000*%
%ADD856R,0.0779X0.0000*%
%ADD857R,0.0778X0.0001*%
%ADD858R,0.0777X0.0000*%
%ADD859R,0.0776X0.0001*%
%ADD860R,0.0775X0.0000*%
%ADD861R,0.0774X0.0000*%
%ADD862R,0.0773X0.0001*%
%ADD863R,0.0772X0.0000*%
%ADD864R,0.0771X0.0001*%
%ADD865R,0.0770X0.0000*%
%ADD866R,0.0769X0.0000*%
%ADD867R,0.0768X0.0001*%
%ADD868R,0.0767X0.0000*%
%ADD869R,0.0766X0.0001*%
%ADD870R,0.0765X0.0000*%
%ADD871R,0.0764X0.0000*%
%ADD872R,0.0763X0.0001*%
%ADD873R,0.0762X0.0000*%
%ADD874R,0.0761X0.0001*%
%ADD875R,0.0760X0.0000*%
%ADD876R,0.0758X0.0000*%
%ADD877R,0.0757X0.0001*%
%ADD878R,0.0757X0.0000*%
%ADD879R,0.0755X0.0001*%
%ADD880R,0.0755X0.0000*%
%ADD881R,0.0753X0.0000*%
%ADD882R,0.0752X0.0001*%
%ADD883R,0.0752X0.0000*%
%ADD884R,0.0750X0.0001*%
%ADD885R,0.0750X0.0000*%
%ADD886R,0.0748X0.0000*%
%ADD887R,0.0747X0.0001*%
%ADD888R,0.0747X0.0000*%
%ADD889R,0.0745X0.0001*%
%ADD890R,0.0745X0.0000*%
%ADD891R,0.0743X0.0000*%
%ADD892R,0.0742X0.0001*%
%ADD893R,0.0741X0.0000*%
%ADD894R,0.0740X0.0001*%
%ADD895R,0.0739X0.0000*%
%ADD896R,0.0738X0.0000*%
%ADD897R,0.0737X0.0001*%
%ADD898R,0.0736X0.0000*%
%ADD899R,0.0735X0.0001*%
%ADD900R,0.0734X0.0000*%
%ADD901R,0.0733X0.0000*%
%ADD902R,0.0732X0.0001*%
%ADD903R,0.0731X0.0000*%
%ADD904R,0.0730X0.0001*%
%ADD905R,0.0729X0.0000*%
%ADD906R,0.0728X0.0000*%
%ADD907R,0.0727X0.0001*%
%ADD908R,0.0726X0.0000*%
%ADD909R,0.0725X0.0001*%
%ADD910R,0.0724X0.0000*%
%ADD911R,0.0723X0.0000*%
%ADD912R,0.0722X0.0001*%
%ADD913R,0.0721X0.0000*%
%ADD914R,0.0720X0.0001*%
%ADD915R,0.0719X0.0000*%
%ADD916R,0.0718X0.0000*%
%ADD917R,0.0717X0.0001*%
%ADD918R,0.0716X0.0000*%
%ADD919R,0.0715X0.0001*%
%ADD920R,0.0714X0.0000*%
%ADD921R,0.0713X0.0000*%
%ADD922R,0.0712X0.0001*%
%ADD923R,0.0711X0.0000*%
%ADD924R,0.0710X0.0001*%
%ADD925R,0.0709X0.0000*%
%ADD926R,0.0707X0.0000*%
%ADD927R,0.0707X0.0001*%
%ADD928R,0.0705X0.0000*%
%ADD929R,0.0705X0.0001*%
%ADD930R,0.0703X0.0000*%
%ADD931R,0.0703X0.0000*%
%ADD932R,0.0702X0.0001*%
%ADD933R,0.0700X0.0000*%
%ADD934R,0.0700X0.0001*%
%ADD935R,0.0698X0.0000*%
%ADD936R,0.0698X0.0000*%
%ADD937R,0.0697X0.0001*%
%ADD938R,0.0695X0.0000*%
%ADD939R,0.0695X0.0001*%
%ADD940R,0.0693X0.0000*%
%ADD941R,0.0692X0.0000*%
%ADD942R,0.0691X0.0001*%
%ADD943R,0.0690X0.0000*%
%ADD944R,0.0689X0.0001*%
%ADD945R,0.0688X0.0000*%
%ADD946R,0.0687X0.0000*%
%ADD947R,0.0686X0.0001*%
%ADD948R,0.0685X0.0000*%
%ADD949R,0.0684X0.0001*%
%ADD950R,0.0683X0.0000*%
%ADD951R,0.0682X0.0000*%
%ADD952R,0.0681X0.0001*%
%ADD953R,0.0680X0.0000*%
%ADD954R,0.0679X0.0001*%
%ADD955R,0.0678X0.0000*%
%ADD956R,0.0677X0.0000*%
%ADD957R,0.0676X0.0001*%
%ADD958R,0.0675X0.0000*%
%ADD959R,0.0674X0.0001*%
%ADD960R,0.0673X0.0000*%
%ADD961R,0.0672X0.0000*%
%ADD962R,0.0671X0.0001*%
%ADD963R,0.0670X0.0000*%
%ADD964R,0.0669X0.0001*%
%ADD965R,0.0668X0.0000*%
%ADD966R,0.0667X0.0000*%
%ADD967R,0.0666X0.0001*%
%ADD968R,0.0665X0.0000*%
%ADD969R,0.0664X0.0001*%
%ADD970R,0.0663X0.0000*%
%ADD971R,0.0662X0.0000*%
%ADD972R,0.0661X0.0001*%
%ADD973R,0.0660X0.0000*%
%ADD974R,0.0659X0.0001*%
%ADD975R,0.0658X0.0000*%
%ADD976R,0.0657X0.0000*%
%ADD977R,0.0655X0.0001*%
%ADD978R,0.0655X0.0000*%
%ADD979R,0.0653X0.0001*%
%ADD980R,0.0653X0.0000*%
%ADD981R,0.0652X0.0000*%
%ADD982R,0.0650X0.0001*%
%ADD983R,0.0650X0.0000*%
%ADD984R,0.0648X0.0001*%
%ADD985R,0.0648X0.0000*%
%ADD986R,0.0647X0.0000*%
%ADD987R,0.0645X0.0001*%
%ADD988R,0.0645X0.0000*%
%ADD989R,0.0643X0.0001*%
%ADD990R,0.0642X0.0000*%
%ADD991R,0.0641X0.0000*%
%ADD992R,0.0640X0.0001*%
%ADD993R,0.0639X0.0000*%
%ADD994R,0.0638X0.0001*%
%ADD995R,0.0637X0.0000*%
%ADD996R,0.0636X0.0000*%
%ADD997R,0.0635X0.0001*%
%ADD998R,0.0634X0.0000*%
%ADD999R,0.0633X0.0001*%
%ADD1000R,0.0632X0.0000*%
%ADD1001R,0.0631X0.0000*%
%ADD1002R,0.0630X0.0001*%
%ADD1003R,0.0629X0.0000*%
%ADD1004R,0.0628X0.0001*%
%ADD1005R,0.0627X0.0000*%
%ADD1006R,0.0626X0.0000*%
%ADD1007R,0.0625X0.0001*%
%ADD1008R,0.0624X0.0000*%
%ADD1009R,0.0623X0.0001*%
%ADD1010R,0.0622X0.0000*%
%ADD1011R,0.0621X0.0000*%
%ADD1012R,0.0620X0.0001*%
%ADD1013R,0.0619X0.0000*%
%ADD1014R,0.0618X0.0001*%
%ADD1015R,0.0617X0.0000*%
%ADD1016R,0.0616X0.0000*%
%ADD1017R,0.0615X0.0001*%
%ADD1018R,0.0614X0.0000*%
%ADD1019R,0.0613X0.0001*%
%ADD1020R,0.0612X0.0000*%
%ADD1021R,0.0611X0.0000*%
%ADD1022R,0.0610X0.0001*%
%ADD1023R,0.0609X0.0000*%
%ADD1024R,0.0607X0.0001*%
%ADD1025R,0.0607X0.0000*%
%ADD1026R,0.0605X0.0000*%
%ADD1027R,0.0605X0.0001*%
%ADD1028R,0.0603X0.0000*%
%ADD1029R,0.0602X0.0001*%
%ADD1030R,0.0602X0.0000*%
%ADD1031R,0.0600X0.0000*%
%ADD1032R,0.0600X0.0001*%
%ADD1033R,0.0598X0.0000*%
%ADD1034R,0.0597X0.0001*%
%ADD1035R,0.0597X0.0000*%
%ADD1036R,0.0595X0.0000*%
%ADD1037R,0.0595X0.0001*%
%ADD1038R,0.0593X0.0000*%
%ADD1039R,0.0592X0.0001*%
%ADD1040R,0.0591X0.0000*%
%ADD1041R,0.0590X0.0000*%
%ADD1042R,0.0589X0.0001*%
%ADD1043R,0.0588X0.0000*%
%ADD1044R,0.0587X0.0001*%
%ADD1045R,0.0586X0.0000*%
%ADD1046R,0.0585X0.0000*%
%ADD1047R,0.0584X0.0001*%
%ADD1048R,0.0583X0.0000*%
%ADD1049R,0.0582X0.0001*%
%ADD1050R,0.0581X0.0000*%
%ADD1051R,0.0580X0.0000*%
%ADD1052R,0.0579X0.0001*%
%ADD1053R,0.0578X0.0000*%
%ADD1054R,0.0577X0.0001*%
%ADD1055R,0.0576X0.0000*%
%ADD1056R,0.0575X0.0000*%
%ADD1057R,0.0574X0.0001*%
%ADD1058R,0.0573X0.0000*%
%ADD1059R,0.0571X0.0001*%
%ADD1060R,0.0568X0.0000*%
%ADD1061R,0.0565X0.0000*%
%ADD1062R,0.0563X0.0001*%
%ADD1063R,0.0560X0.0000*%
%ADD1064R,0.0557X0.0001*%
%ADD1065R,0.0554X0.0000*%
%ADD1066R,0.0551X0.0000*%
%ADD1067R,0.0548X0.0001*%
%ADD1068R,0.0545X0.0000*%
%ADD1069R,0.0542X0.0001*%
%ADD1070R,0.0537X0.0000*%
%ADD1071R,0.0533X0.0000*%
%ADD1072R,0.0530X0.0001*%
%ADD1073R,0.0526X0.0000*%
%ADD1074R,0.0522X0.0001*%
%ADD1075R,0.0518X0.0000*%
%ADD1076R,0.0513X0.0000*%
%ADD1077R,0.0508X0.0001*%
%ADD1078R,0.0503X0.0000*%
%ADD1079R,0.0496X0.0001*%
%ADD1080R,0.0489X0.0000*%
%ADD1081R,0.0477X0.0000*%
%ADD1082C,0.0000*%
D10*
X002904Y003109D02*
X003115Y003473D01*
X003225Y003565D02*
X003155Y003635D01*
X003155Y003775D01*
X003225Y003845D01*
X003366Y003845D01*
X003436Y003775D01*
X003436Y003635D01*
X003366Y003565D01*
X003225Y003565D01*
X002975Y003565D02*
X002975Y003845D01*
X002905Y003845D01*
X002835Y003775D01*
X002765Y003845D01*
X002695Y003775D01*
X002695Y003565D01*
X002835Y003565D02*
X002835Y003775D01*
X002675Y003990D02*
X002580Y004015D01*
X002510Y004137D01*
X002535Y004232D01*
X002596Y004267D01*
X002692Y004242D01*
X002727Y004181D01*
X002692Y004242D02*
X002717Y004337D01*
X002778Y004372D01*
X002874Y004347D01*
X002944Y004225D01*
X002918Y004130D01*
X003616Y003845D02*
X003826Y003845D01*
X003896Y003775D01*
X003896Y003635D01*
X003826Y003565D01*
X003616Y003565D01*
X003357Y003333D02*
X002904Y003109D01*
X003147Y002968D02*
X003357Y003333D01*
X003502Y003249D02*
X003623Y003179D01*
X003562Y003214D02*
X003352Y002850D01*
X003292Y002885D02*
X003413Y002815D01*
X003674Y002907D02*
X003700Y002811D01*
X003882Y002706D01*
X003812Y002585D02*
X004022Y002949D01*
X003840Y003054D01*
X003744Y003028D01*
X003674Y002907D01*
X004038Y002616D02*
X004178Y002859D01*
X004421Y002719D02*
X004280Y002476D01*
X004089Y002425D01*
X004038Y002616D01*
X004056Y003565D02*
X004126Y003565D01*
X004126Y003635D01*
X004056Y003635D01*
X004056Y003565D01*
X004306Y003565D02*
X004517Y003565D01*
X004587Y003635D01*
X004587Y003775D01*
X004517Y003845D01*
X004306Y003845D01*
X004753Y003565D02*
X004894Y003565D01*
X004824Y003565D02*
X004824Y003845D01*
X004894Y003845D01*
X004824Y003985D02*
X004824Y004055D01*
X005060Y003845D02*
X005201Y003845D01*
X005130Y003915D02*
X005130Y003635D01*
X005060Y003565D01*
X005381Y003635D02*
X005381Y003775D01*
X005451Y003845D01*
X005591Y003845D01*
X005661Y003775D01*
X005661Y003635D01*
X005591Y003565D01*
X005451Y003565D01*
X005381Y003635D01*
X005841Y003635D02*
X005841Y003775D01*
X005911Y003845D01*
X006121Y003845D01*
X006121Y003985D02*
X006121Y003565D01*
X005911Y003565D01*
X005841Y003635D01*
X006301Y003635D02*
X006301Y003775D01*
X006372Y003845D01*
X006512Y003845D01*
X006582Y003775D01*
X006582Y003635D01*
X006512Y003565D01*
X006372Y003565D01*
X006301Y003635D01*
X006755Y003845D02*
X006825Y003845D01*
X006965Y003705D01*
X006965Y003565D02*
X006965Y003845D01*
X007145Y003845D02*
X007356Y003845D01*
X007426Y003775D01*
X007426Y003635D01*
X007356Y003565D01*
X007145Y003565D01*
X007606Y003565D02*
X007816Y003565D01*
X007886Y003635D01*
X007816Y003705D01*
X007606Y003705D01*
X007606Y003775D02*
X007606Y003565D01*
X007606Y003775D02*
X007676Y003845D01*
X007816Y003845D01*
X008046Y003635D02*
X008046Y003565D01*
X008116Y003565D01*
X008116Y003635D01*
X008046Y003635D01*
X008296Y003635D02*
X008296Y003845D01*
X008296Y003635D02*
X008367Y003565D01*
X008437Y003635D01*
X008507Y003565D01*
X008577Y003635D01*
X008577Y003845D01*
X008757Y003845D02*
X008757Y003635D01*
X008827Y003565D01*
X008897Y003635D01*
X008967Y003565D01*
X009037Y003635D01*
X009037Y003845D01*
X009217Y003845D02*
X009217Y003635D01*
X009287Y003565D01*
X009357Y003635D01*
X009427Y003565D01*
X009498Y003635D01*
X009498Y003845D01*
X009648Y004173D02*
X009788Y004415D01*
X009501Y004339D01*
X009865Y004128D01*
X008920Y003268D02*
X009060Y003025D01*
X009035Y002930D01*
X008913Y002860D01*
X008818Y002885D01*
X008748Y003007D01*
X008869Y003077D01*
X008920Y003268D02*
X008825Y003294D01*
X008703Y003224D01*
X008678Y003128D01*
X008486Y003098D02*
X008454Y002594D01*
X008244Y002958D01*
X008486Y003098D02*
X008697Y002734D01*
X008298Y002504D02*
X008116Y002399D01*
X008020Y002425D01*
X007880Y002667D01*
X007906Y002763D01*
X008088Y002868D01*
X008298Y002504D01*
X009915Y005980D02*
X009915Y006260D01*
X010125Y006260D01*
X010055Y006120D01*
X010055Y006050D01*
X010125Y005980D01*
X010265Y005980D01*
X010335Y006050D01*
X010335Y006190D01*
X010265Y006260D01*
X009808Y007543D02*
X009712Y007568D01*
X009607Y007750D01*
X009971Y007960D01*
X010076Y007778D01*
X010050Y007683D01*
X009808Y007543D01*
X009517Y007906D02*
X009881Y008116D01*
X009377Y008149D01*
X009741Y008359D01*
X009590Y008480D02*
X009615Y008576D01*
X009545Y008697D01*
X009450Y008723D01*
X009207Y008583D01*
X009181Y008487D01*
X009251Y008366D01*
X009347Y008340D01*
X009468Y008410D02*
X009398Y008531D01*
X009468Y008410D02*
X009590Y008480D01*
X008517Y009304D02*
X008421Y009278D01*
X008300Y009348D01*
X008274Y009444D01*
X008415Y009687D01*
X008510Y009712D01*
X008632Y009642D01*
X008657Y009547D01*
X008259Y009777D02*
X008233Y009873D01*
X008112Y009943D01*
X008016Y009917D01*
X007876Y009674D01*
X007901Y009579D01*
X008023Y009509D01*
X008118Y009534D01*
X007685Y009704D02*
X007825Y009946D01*
X007773Y010138D01*
X007582Y010087D01*
X007442Y009844D01*
X007450Y008560D02*
X007380Y008490D01*
X007450Y008560D02*
X007590Y008560D01*
X007660Y008490D01*
X007660Y008210D01*
X007590Y008140D01*
X007450Y008140D01*
X007380Y008210D01*
X007200Y008140D02*
X007200Y008560D01*
X006989Y008560D01*
X006919Y008490D01*
X006919Y008350D01*
X006989Y008280D01*
X007200Y008280D01*
X007059Y008280D02*
X006919Y008140D01*
X006739Y008140D02*
X006599Y008140D01*
X006669Y008140D02*
X006669Y008560D01*
X006739Y008560D02*
X006599Y008560D01*
X006432Y008490D02*
X006432Y008210D01*
X006362Y008140D01*
X006222Y008140D01*
X006152Y008210D01*
X005972Y008140D02*
X005972Y008560D01*
X005902Y008350D02*
X005692Y008140D01*
X005512Y008140D02*
X005231Y008140D01*
X005371Y008350D02*
X005512Y008350D01*
X005512Y008560D02*
X005512Y008140D01*
X005512Y008560D02*
X005231Y008560D01*
X005051Y008560D02*
X004771Y008560D01*
X004911Y008560D02*
X004911Y008140D01*
X005692Y008560D02*
X005972Y008280D01*
X006152Y008490D02*
X006222Y008560D01*
X006362Y008560D01*
X006432Y008490D01*
X004497Y009526D02*
X004522Y009622D01*
X004140Y009725D01*
X004165Y009820D01*
X004287Y009890D01*
X004382Y009865D01*
X004522Y009622D01*
X004497Y009526D02*
X004375Y009456D01*
X004280Y009482D01*
X004140Y009725D01*
X002545Y008407D02*
X002405Y008165D01*
X002475Y008286D02*
X002839Y008076D01*
X002647Y008025D01*
X002340Y006270D02*
X002270Y006270D01*
X001990Y005990D01*
X001990Y006270D01*
X002340Y006270D02*
X002410Y006200D01*
X002410Y006060D01*
X002340Y005990D01*
D11*
X005791Y000870D02*
X005746Y000825D01*
X005926Y000645D01*
X005881Y000600D01*
X005791Y000600D01*
X005746Y000645D01*
X005746Y000825D01*
X005791Y000870D02*
X005881Y000870D01*
X005926Y000825D01*
X005926Y000645D01*
X006028Y000645D02*
X006028Y000600D01*
X006073Y000600D01*
X006073Y000645D01*
X006028Y000645D01*
X006188Y000600D02*
X006368Y000600D01*
X006278Y000600D02*
X006278Y000870D01*
X006368Y000780D01*
X006482Y000780D02*
X006572Y000600D01*
X006663Y000780D01*
D12*
X006434Y004075D03*
D13*
X005817Y004075D03*
D14*
X005817Y004075D03*
X006434Y004075D03*
D15*
X006434Y004076D03*
D16*
X005817Y004076D03*
D17*
X006434Y004076D03*
D18*
X005817Y004076D03*
X005817Y004326D03*
D19*
X005817Y004077D03*
X006434Y004077D03*
D20*
X006434Y004078D03*
D21*
X005817Y004078D03*
D22*
X005817Y004078D03*
X006434Y004078D03*
D23*
X006434Y004079D03*
X005817Y004079D03*
D24*
X005817Y004079D03*
X005817Y004324D03*
X006434Y004079D03*
D25*
X006434Y004079D03*
X005817Y004079D03*
D26*
X006434Y004080D03*
D27*
X005817Y004080D03*
D28*
X006434Y004080D03*
D29*
X005817Y004080D03*
D30*
X006434Y004081D03*
D31*
X005817Y004081D03*
D32*
X005817Y004081D03*
X005817Y004321D03*
X006434Y004081D03*
D33*
X006434Y004082D03*
X005817Y004082D03*
D34*
X005817Y004083D03*
X006434Y004083D03*
D35*
X006434Y004083D03*
D36*
X005817Y004083D03*
D37*
X006434Y004084D03*
D38*
X005817Y004084D03*
D39*
X005817Y004084D03*
X006434Y004084D03*
D40*
X006434Y004084D03*
D41*
X005817Y004084D03*
D42*
X006434Y004085D03*
D43*
X005817Y004085D03*
D44*
X006434Y004085D03*
D45*
X006434Y004314D03*
X005817Y004085D03*
D46*
X006434Y004086D03*
X006434Y004314D03*
D47*
X005817Y004086D03*
D48*
X006434Y004086D03*
D49*
X005817Y004086D03*
X005817Y004316D03*
D50*
X006434Y004313D03*
X006434Y004087D03*
D51*
X005817Y004087D03*
D52*
X005817Y004088D03*
X005817Y004315D03*
X006434Y004088D03*
D53*
X006434Y004088D03*
D54*
X006434Y004312D03*
X005817Y004088D03*
D55*
X005817Y004089D03*
X006434Y004089D03*
X006434Y004311D03*
D56*
X006434Y004089D03*
D57*
X005817Y004089D03*
X005817Y004314D03*
D58*
X005817Y004313D03*
X005817Y004089D03*
X006434Y004089D03*
D59*
X006434Y004090D03*
D60*
X006434Y004310D03*
X005817Y004314D03*
X005817Y004090D03*
D61*
X006434Y004090D03*
D62*
X005817Y004090D03*
X005817Y004312D03*
D63*
X006434Y004309D03*
X006434Y004091D03*
D64*
X005817Y004091D03*
X005817Y004313D03*
D65*
X006434Y004308D03*
X006434Y004093D03*
X006434Y004091D03*
D66*
X006434Y004309D03*
X005817Y004311D03*
X005817Y004091D03*
D67*
X006434Y004092D03*
X006434Y004308D03*
D68*
X005817Y004310D03*
X005817Y004092D03*
D69*
X005817Y004093D03*
X005817Y004311D03*
D70*
X006434Y004307D03*
X006434Y004093D03*
D71*
X005817Y004093D03*
D72*
X005817Y004094D03*
X005817Y004094D03*
X005817Y004309D03*
X005817Y004309D03*
X006434Y004306D03*
X006434Y004306D03*
X006434Y004094D03*
X006434Y004094D03*
D73*
X006434Y004094D03*
D74*
X006434Y004305D03*
X005817Y004309D03*
X005817Y004094D03*
D75*
X006434Y004095D03*
X006434Y004305D03*
D76*
X005817Y004095D03*
D77*
X005817Y004095D03*
X005817Y004097D03*
X005817Y004305D03*
X005817Y004307D03*
X006434Y004304D03*
X006434Y004303D03*
X006434Y004097D03*
X006434Y004095D03*
D78*
X006434Y004096D03*
X006434Y004096D03*
X006434Y004303D03*
X006434Y004304D03*
X006434Y004304D03*
X005817Y004306D03*
X005817Y004306D03*
X005817Y004308D03*
X005817Y004098D03*
X005817Y004096D03*
X005817Y004096D03*
D79*
X006434Y004098D03*
X006434Y004099D03*
X006434Y004099D03*
X006434Y004100D03*
X006434Y004101D03*
X006434Y004101D03*
X006434Y004103D03*
X006434Y004104D03*
X006434Y004104D03*
X006434Y004105D03*
X006434Y004106D03*
X006434Y004106D03*
X006434Y004108D03*
X006434Y004109D03*
X006434Y004109D03*
X006434Y004110D03*
X006434Y004111D03*
X006434Y004111D03*
X006434Y004113D03*
X006434Y004114D03*
X006434Y004114D03*
X006434Y004115D03*
X006434Y004116D03*
X006434Y004116D03*
X006434Y004118D03*
X006434Y004119D03*
X006434Y004119D03*
X006434Y004120D03*
X006434Y004121D03*
X006434Y004121D03*
X006434Y004123D03*
X006434Y004124D03*
X006434Y004124D03*
X006434Y004125D03*
X006434Y004126D03*
X006434Y004126D03*
X006434Y004128D03*
X006434Y004129D03*
X006434Y004129D03*
X006434Y004130D03*
X006434Y004131D03*
X006434Y004131D03*
X006434Y004133D03*
X006434Y004134D03*
X006434Y004134D03*
X006434Y004135D03*
X006434Y004136D03*
X006434Y004136D03*
X006434Y004138D03*
X006434Y004139D03*
X006434Y004139D03*
X006434Y004140D03*
X006434Y004141D03*
X006434Y004141D03*
X006434Y004143D03*
X006434Y004144D03*
X006434Y004144D03*
X006434Y004145D03*
X006434Y004146D03*
X006434Y004146D03*
X006434Y004148D03*
X006434Y004149D03*
X006434Y004149D03*
X006434Y004150D03*
X006434Y004151D03*
X006434Y004151D03*
X006434Y004153D03*
X006434Y004154D03*
X006434Y004154D03*
X006434Y004155D03*
X006434Y004156D03*
X006434Y004156D03*
X006434Y004158D03*
X006434Y004159D03*
X006434Y004159D03*
X006434Y004160D03*
X006434Y004161D03*
X006434Y004161D03*
X006434Y004163D03*
X006434Y004164D03*
X006434Y004164D03*
X006434Y004165D03*
X006434Y004166D03*
X006434Y004166D03*
X006434Y004168D03*
X006434Y004169D03*
X006434Y004169D03*
X006434Y004170D03*
X006434Y004171D03*
X006434Y004171D03*
X006434Y004173D03*
X006434Y004174D03*
X006434Y004174D03*
X006434Y004175D03*
X006434Y004176D03*
X006434Y004176D03*
X006434Y004178D03*
X006434Y004179D03*
X006434Y004179D03*
X006434Y004180D03*
X006434Y004181D03*
X006434Y004181D03*
X006434Y004183D03*
X006434Y004184D03*
X006434Y004184D03*
X006434Y004185D03*
X006434Y004186D03*
X006434Y004186D03*
X006434Y004188D03*
X006434Y004189D03*
X006434Y004189D03*
X006434Y004190D03*
X006434Y004191D03*
X006434Y004191D03*
X006434Y004193D03*
X006434Y004194D03*
X006434Y004194D03*
X006434Y004195D03*
X006434Y004196D03*
X006434Y004196D03*
X006434Y004198D03*
X006434Y004199D03*
X006434Y004199D03*
X006434Y004200D03*
X006434Y004201D03*
X006434Y004201D03*
X006434Y004203D03*
X006434Y004204D03*
X006434Y004204D03*
X006434Y004205D03*
X006434Y004206D03*
X006434Y004206D03*
X006434Y004208D03*
X006434Y004209D03*
X006434Y004209D03*
X006434Y004210D03*
X006434Y004211D03*
X006434Y004211D03*
X006434Y004213D03*
X006434Y004214D03*
X006434Y004214D03*
X006434Y004215D03*
X006434Y004216D03*
X006434Y004216D03*
X006434Y004218D03*
X006434Y004219D03*
X006434Y004219D03*
X006434Y004220D03*
X006434Y004221D03*
X006434Y004221D03*
X006434Y004223D03*
X006434Y004224D03*
X006434Y004224D03*
X006434Y004225D03*
X006434Y004226D03*
X006434Y004226D03*
X006434Y004228D03*
X006434Y004229D03*
X006434Y004229D03*
X006434Y004230D03*
X006434Y004231D03*
X006434Y004231D03*
X006434Y004233D03*
X006434Y004234D03*
X006434Y004234D03*
X006434Y004235D03*
X006434Y004236D03*
X006434Y004236D03*
X006434Y004238D03*
X006434Y004239D03*
X006434Y004239D03*
X006434Y004240D03*
X006434Y004241D03*
X006434Y004241D03*
X006434Y004243D03*
X006434Y004244D03*
X006434Y004244D03*
X006434Y004245D03*
X006434Y004246D03*
X006434Y004246D03*
X006434Y004248D03*
X006434Y004249D03*
X006434Y004249D03*
X006434Y004250D03*
X006434Y004251D03*
X006434Y004251D03*
X006434Y004253D03*
X006434Y004254D03*
X006434Y004254D03*
X006434Y004255D03*
X006434Y004256D03*
X006434Y004256D03*
X006434Y004258D03*
X006434Y004259D03*
X006434Y004259D03*
X006434Y004260D03*
X006434Y004261D03*
X006434Y004261D03*
X006434Y004263D03*
X006434Y004264D03*
X006434Y004264D03*
X006434Y004265D03*
X006434Y004266D03*
X006434Y004266D03*
X006434Y004268D03*
X006434Y004269D03*
X006434Y004269D03*
X006434Y004270D03*
X006434Y004271D03*
X006434Y004271D03*
X006434Y004273D03*
X006434Y004274D03*
X006434Y004274D03*
X006434Y004275D03*
X006434Y004276D03*
X006434Y004276D03*
X006434Y004278D03*
X006434Y004279D03*
X006434Y004279D03*
X006434Y004280D03*
X006434Y004281D03*
X006434Y004281D03*
X006434Y004283D03*
X006434Y004284D03*
X006434Y004284D03*
X006434Y004285D03*
X006434Y004286D03*
X006434Y004286D03*
X006434Y004288D03*
X006434Y004289D03*
X006434Y004289D03*
X006434Y004290D03*
X006434Y004291D03*
X006434Y004291D03*
X006434Y004293D03*
X006434Y004294D03*
X006434Y004294D03*
X006434Y004295D03*
X006434Y004296D03*
X006434Y004296D03*
X006434Y004298D03*
X006434Y004299D03*
X006434Y004299D03*
X006434Y004300D03*
X006434Y004301D03*
X006434Y004301D03*
D80*
X006434Y004300D03*
X006434Y004299D03*
X006434Y004298D03*
X006434Y004297D03*
X006434Y004295D03*
X006434Y004294D03*
X006434Y004293D03*
X006434Y004292D03*
X006434Y004290D03*
X006434Y004289D03*
X006434Y004288D03*
X006434Y004287D03*
X006434Y004285D03*
X006434Y004284D03*
X006434Y004283D03*
X006434Y004282D03*
X006434Y004280D03*
X006434Y004279D03*
X006434Y004278D03*
X006434Y004277D03*
X006434Y004275D03*
X006434Y004274D03*
X006434Y004273D03*
X006434Y004272D03*
X006434Y004270D03*
X006434Y004269D03*
X006434Y004268D03*
X006434Y004267D03*
X006434Y004265D03*
X006434Y004264D03*
X006434Y004263D03*
X006434Y004262D03*
X006434Y004260D03*
X006434Y004259D03*
X006434Y004258D03*
X006434Y004257D03*
X006434Y004255D03*
X006434Y004254D03*
X006434Y004253D03*
X006434Y004252D03*
X006434Y004250D03*
X006434Y004249D03*
X006434Y004248D03*
X006434Y004247D03*
X006434Y004245D03*
X006434Y004244D03*
X006434Y004243D03*
X006434Y004242D03*
X006434Y004240D03*
X006434Y004239D03*
X006434Y004238D03*
X006434Y004237D03*
X006434Y004235D03*
X006434Y004234D03*
X006434Y004233D03*
X006434Y004232D03*
X006434Y004230D03*
X006434Y004229D03*
X006434Y004228D03*
X006434Y004227D03*
X006434Y004225D03*
X006434Y004224D03*
X006434Y004223D03*
X006434Y004222D03*
X006434Y004220D03*
X006434Y004219D03*
X006434Y004218D03*
X006434Y004217D03*
X006434Y004215D03*
X006434Y004214D03*
X006434Y004213D03*
X006434Y004212D03*
X006434Y004210D03*
X006434Y004209D03*
X006434Y004208D03*
X006434Y004207D03*
X006434Y004205D03*
X006434Y004204D03*
X006434Y004203D03*
X006434Y004202D03*
X006434Y004200D03*
X006434Y004199D03*
X006434Y004198D03*
X006434Y004197D03*
X006434Y004195D03*
X006434Y004194D03*
X006434Y004193D03*
X006434Y004192D03*
X006434Y004190D03*
X006434Y004189D03*
X006434Y004188D03*
X006434Y004187D03*
X006434Y004185D03*
X006434Y004184D03*
X006434Y004183D03*
X006434Y004182D03*
X006434Y004180D03*
X006434Y004179D03*
X006434Y004178D03*
X006434Y004177D03*
X006434Y004175D03*
X006434Y004174D03*
X006434Y004173D03*
X006434Y004172D03*
X006434Y004170D03*
X006434Y004169D03*
X006434Y004168D03*
X006434Y004167D03*
X006434Y004165D03*
X006434Y004164D03*
X006434Y004163D03*
X006434Y004162D03*
X006434Y004160D03*
X006434Y004159D03*
X006434Y004158D03*
X006434Y004157D03*
X006434Y004155D03*
X006434Y004154D03*
X006434Y004153D03*
X006434Y004152D03*
X006434Y004150D03*
X006434Y004149D03*
X006434Y004148D03*
X006434Y004147D03*
X006434Y004145D03*
X006434Y004144D03*
X006434Y004143D03*
X006434Y004142D03*
X006434Y004140D03*
X006434Y004139D03*
X006434Y004138D03*
X006434Y004137D03*
X006434Y004135D03*
X006434Y004134D03*
X006434Y004133D03*
X006434Y004132D03*
X006434Y004130D03*
X006434Y004129D03*
X006434Y004128D03*
X006434Y004127D03*
X006434Y004125D03*
X006434Y004124D03*
X006434Y004123D03*
X006434Y004122D03*
X006434Y004120D03*
X006434Y004119D03*
X006434Y004118D03*
X006434Y004117D03*
X006434Y004115D03*
X006434Y004114D03*
X006434Y004113D03*
X006434Y004112D03*
X006434Y004110D03*
X006434Y004109D03*
X006434Y004108D03*
X006434Y004107D03*
X006434Y004105D03*
X006434Y004104D03*
X006434Y004103D03*
X006434Y004102D03*
X006434Y004100D03*
X006434Y004099D03*
X006434Y004098D03*
X006434Y004302D03*
D81*
X005817Y004303D03*
X005817Y004302D03*
X005817Y004300D03*
X005817Y004299D03*
X005817Y004298D03*
X005817Y004297D03*
X005817Y004295D03*
X005817Y004294D03*
X005817Y004293D03*
X005817Y004292D03*
X005817Y004290D03*
X005817Y004289D03*
X005817Y004288D03*
X005817Y004287D03*
X005817Y004285D03*
X005817Y004284D03*
X005817Y004283D03*
X005817Y004282D03*
X005817Y004280D03*
X005817Y004279D03*
X005817Y004278D03*
X005817Y004277D03*
X005817Y004275D03*
X005817Y004274D03*
X005817Y004273D03*
X005817Y004272D03*
X005817Y004270D03*
X005817Y004269D03*
X005817Y004268D03*
X005817Y004267D03*
X005817Y004265D03*
X005817Y004264D03*
X005817Y004263D03*
X005817Y004262D03*
X005817Y004260D03*
X005817Y004259D03*
X005817Y004258D03*
X005817Y004257D03*
X005817Y004255D03*
X005817Y004254D03*
X005817Y004253D03*
X005817Y004252D03*
X005817Y004250D03*
X005817Y004249D03*
X005817Y004248D03*
X005817Y004247D03*
X005817Y004245D03*
X005817Y004244D03*
X005817Y004243D03*
X005817Y004242D03*
X005817Y004240D03*
X005817Y004239D03*
X005817Y004238D03*
X005817Y004237D03*
X005817Y004235D03*
X005817Y004234D03*
X005817Y004233D03*
X005817Y004232D03*
X005817Y004230D03*
X005817Y004229D03*
X005817Y004228D03*
X005817Y004227D03*
X005817Y004225D03*
X005817Y004224D03*
X005817Y004223D03*
X005817Y004222D03*
X005817Y004220D03*
X005817Y004219D03*
X005817Y004218D03*
X005817Y004217D03*
X005817Y004215D03*
X005817Y004214D03*
X005817Y004213D03*
X005817Y004212D03*
X005817Y004210D03*
X005817Y004209D03*
X005817Y004208D03*
X005817Y004207D03*
X005817Y004205D03*
X005817Y004204D03*
X005817Y004203D03*
X005817Y004202D03*
X005817Y004200D03*
X005817Y004199D03*
X005817Y004198D03*
X005817Y004197D03*
X005817Y004195D03*
X005817Y004194D03*
X005817Y004193D03*
X005817Y004192D03*
X005817Y004190D03*
X005817Y004189D03*
X005817Y004188D03*
X005817Y004187D03*
X005817Y004185D03*
X005817Y004184D03*
X005817Y004183D03*
X005817Y004182D03*
X005817Y004180D03*
X005817Y004179D03*
X005817Y004178D03*
X005817Y004177D03*
X005817Y004175D03*
X005817Y004174D03*
X005817Y004173D03*
X005817Y004172D03*
X005817Y004170D03*
X005817Y004169D03*
X005817Y004168D03*
X005817Y004167D03*
X005817Y004165D03*
X005817Y004164D03*
X005817Y004163D03*
X005817Y004162D03*
X005817Y004160D03*
X005817Y004159D03*
X005817Y004158D03*
X005817Y004157D03*
X005817Y004155D03*
X005817Y004154D03*
X005817Y004153D03*
X005817Y004152D03*
X005817Y004150D03*
X005817Y004149D03*
X005817Y004148D03*
X005817Y004147D03*
X005817Y004145D03*
X005817Y004144D03*
X005817Y004143D03*
X005817Y004142D03*
X005817Y004140D03*
X005817Y004139D03*
X005817Y004138D03*
X005817Y004137D03*
X005817Y004135D03*
X005817Y004134D03*
X005817Y004133D03*
X005817Y004132D03*
X005817Y004130D03*
X005817Y004129D03*
X005817Y004128D03*
X005817Y004127D03*
X005817Y004125D03*
X005817Y004124D03*
X005817Y004123D03*
X005817Y004122D03*
X005817Y004120D03*
X005817Y004119D03*
X005817Y004118D03*
X005817Y004117D03*
X005817Y004115D03*
X005817Y004114D03*
X005817Y004113D03*
X005817Y004112D03*
X005817Y004110D03*
X005817Y004109D03*
X005817Y004108D03*
X005817Y004107D03*
X005817Y004105D03*
X005817Y004104D03*
X005817Y004103D03*
X005817Y004102D03*
X005817Y004100D03*
X005817Y004099D03*
X005817Y004098D03*
X005817Y004304D03*
D82*
X005817Y004304D03*
X005817Y004304D03*
X005817Y004305D03*
X005817Y004303D03*
X005817Y004301D03*
X005817Y004301D03*
X005817Y004300D03*
X005817Y004299D03*
X005817Y004299D03*
X005817Y004298D03*
X005817Y004296D03*
X005817Y004296D03*
X005817Y004295D03*
X005817Y004294D03*
X005817Y004294D03*
X005817Y004293D03*
X005817Y004291D03*
X005817Y004291D03*
X005817Y004290D03*
X005817Y004289D03*
X005817Y004289D03*
X005817Y004288D03*
X005817Y004286D03*
X005817Y004286D03*
X005817Y004285D03*
X005817Y004284D03*
X005817Y004284D03*
X005817Y004283D03*
X005817Y004281D03*
X005817Y004281D03*
X005817Y004280D03*
X005817Y004279D03*
X005817Y004279D03*
X005817Y004278D03*
X005817Y004276D03*
X005817Y004276D03*
X005817Y004275D03*
X005817Y004274D03*
X005817Y004274D03*
X005817Y004273D03*
X005817Y004271D03*
X005817Y004271D03*
X005817Y004270D03*
X005817Y004269D03*
X005817Y004269D03*
X005817Y004268D03*
X005817Y004266D03*
X005817Y004266D03*
X005817Y004265D03*
X005817Y004264D03*
X005817Y004264D03*
X005817Y004263D03*
X005817Y004261D03*
X005817Y004261D03*
X005817Y004260D03*
X005817Y004259D03*
X005817Y004259D03*
X005817Y004258D03*
X005817Y004256D03*
X005817Y004256D03*
X005817Y004255D03*
X005817Y004254D03*
X005817Y004254D03*
X005817Y004253D03*
X005817Y004251D03*
X005817Y004251D03*
X005817Y004250D03*
X005817Y004249D03*
X005817Y004249D03*
X005817Y004248D03*
X005817Y004246D03*
X005817Y004246D03*
X005817Y004245D03*
X005817Y004244D03*
X005817Y004244D03*
X005817Y004243D03*
X005817Y004241D03*
X005817Y004241D03*
X005817Y004240D03*
X005817Y004239D03*
X005817Y004239D03*
X005817Y004238D03*
X005817Y004236D03*
X005817Y004236D03*
X005817Y004235D03*
X005817Y004234D03*
X005817Y004234D03*
X005817Y004233D03*
X005817Y004231D03*
X005817Y004231D03*
X005817Y004230D03*
X005817Y004229D03*
X005817Y004229D03*
X005817Y004228D03*
X005817Y004226D03*
X005817Y004226D03*
X005817Y004225D03*
X005817Y004224D03*
X005817Y004224D03*
X005817Y004223D03*
X005817Y004221D03*
X005817Y004221D03*
X005817Y004220D03*
X005817Y004219D03*
X005817Y004219D03*
X005817Y004218D03*
X005817Y004216D03*
X005817Y004216D03*
X005817Y004215D03*
X005817Y004214D03*
X005817Y004214D03*
X005817Y004213D03*
X005817Y004211D03*
X005817Y004211D03*
X005817Y004210D03*
X005817Y004209D03*
X005817Y004209D03*
X005817Y004208D03*
X005817Y004206D03*
X005817Y004206D03*
X005817Y004205D03*
X005817Y004204D03*
X005817Y004204D03*
X005817Y004203D03*
X005817Y004201D03*
X005817Y004201D03*
X005817Y004200D03*
X005817Y004199D03*
X005817Y004199D03*
X005817Y004198D03*
X005817Y004196D03*
X005817Y004196D03*
X005817Y004195D03*
X005817Y004194D03*
X005817Y004194D03*
X005817Y004193D03*
X005817Y004191D03*
X005817Y004191D03*
X005817Y004190D03*
X005817Y004189D03*
X005817Y004189D03*
X005817Y004188D03*
X005817Y004186D03*
X005817Y004186D03*
X005817Y004185D03*
X005817Y004184D03*
X005817Y004184D03*
X005817Y004183D03*
X005817Y004181D03*
X005817Y004181D03*
X005817Y004180D03*
X005817Y004179D03*
X005817Y004179D03*
X005817Y004178D03*
X005817Y004176D03*
X005817Y004176D03*
X005817Y004175D03*
X005817Y004174D03*
X005817Y004174D03*
X005817Y004173D03*
X005817Y004171D03*
X005817Y004171D03*
X005817Y004170D03*
X005817Y004169D03*
X005817Y004169D03*
X005817Y004168D03*
X005817Y004166D03*
X005817Y004166D03*
X005817Y004165D03*
X005817Y004164D03*
X005817Y004164D03*
X005817Y004163D03*
X005817Y004161D03*
X005817Y004161D03*
X005817Y004160D03*
X005817Y004159D03*
X005817Y004159D03*
X005817Y004158D03*
X005817Y004156D03*
X005817Y004156D03*
X005817Y004155D03*
X005817Y004154D03*
X005817Y004154D03*
X005817Y004153D03*
X005817Y004151D03*
X005817Y004151D03*
X005817Y004150D03*
X005817Y004149D03*
X005817Y004149D03*
X005817Y004148D03*
X005817Y004146D03*
X005817Y004146D03*
X005817Y004145D03*
X005817Y004144D03*
X005817Y004144D03*
X005817Y004143D03*
X005817Y004141D03*
X005817Y004141D03*
X005817Y004140D03*
X005817Y004139D03*
X005817Y004139D03*
X005817Y004138D03*
X005817Y004136D03*
X005817Y004136D03*
X005817Y004135D03*
X005817Y004134D03*
X005817Y004134D03*
X005817Y004133D03*
X005817Y004131D03*
X005817Y004131D03*
X005817Y004130D03*
X005817Y004129D03*
X005817Y004129D03*
X005817Y004128D03*
X005817Y004126D03*
X005817Y004126D03*
X005817Y004125D03*
X005817Y004124D03*
X005817Y004124D03*
X005817Y004123D03*
X005817Y004121D03*
X005817Y004121D03*
X005817Y004120D03*
X005817Y004119D03*
X005817Y004119D03*
X005817Y004118D03*
X005817Y004116D03*
X005817Y004116D03*
X005817Y004115D03*
X005817Y004114D03*
X005817Y004114D03*
X005817Y004113D03*
X005817Y004111D03*
X005817Y004111D03*
X005817Y004110D03*
X005817Y004109D03*
X005817Y004109D03*
X005817Y004108D03*
X005817Y004106D03*
X005817Y004106D03*
X005817Y004105D03*
X005817Y004104D03*
X005817Y004104D03*
X005817Y004103D03*
X005817Y004101D03*
X005817Y004101D03*
X005817Y004100D03*
X005817Y004099D03*
X005817Y004099D03*
D83*
X005817Y004308D03*
D84*
X006434Y004309D03*
D85*
X005817Y004310D03*
D86*
X006434Y004310D03*
D87*
X006434Y004311D03*
D88*
X006434Y004313D03*
D89*
X006434Y004314D03*
D90*
X005817Y004314D03*
D91*
X006434Y004315D03*
D92*
X006434Y004315D03*
D93*
X005817Y004315D03*
D94*
X006434Y004316D03*
D95*
X005817Y004316D03*
D96*
X006434Y004316D03*
D97*
X006434Y004317D03*
D98*
X005817Y004317D03*
D99*
X006434Y004318D03*
D100*
X005817Y004318D03*
D101*
X006434Y004318D03*
D102*
X005817Y004318D03*
D103*
X006434Y004319D03*
D104*
X005817Y004319D03*
D105*
X006434Y004319D03*
D106*
X005817Y004319D03*
D107*
X006434Y004319D03*
D108*
X005817Y004319D03*
D109*
X006434Y004320D03*
D110*
X005817Y004320D03*
D111*
X006434Y004320D03*
D112*
X005817Y004320D03*
D113*
X006434Y004321D03*
D114*
X005817Y004321D03*
D115*
X006434Y004321D03*
D116*
X006434Y004322D03*
D117*
X005817Y004322D03*
D118*
X006434Y004323D03*
D119*
X005817Y004323D03*
D120*
X006434Y004323D03*
D121*
X005817Y004323D03*
D122*
X006434Y004324D03*
D123*
X005817Y004324D03*
D124*
X006434Y004324D03*
D125*
X006434Y004324D03*
D126*
X005817Y004324D03*
D127*
X006432Y004325D03*
D128*
X005817Y004325D03*
D129*
X006433Y004325D03*
X006433Y004327D03*
D130*
X005817Y004325D03*
D131*
X006433Y004326D03*
X006433Y004326D03*
D132*
X005817Y004326D03*
D133*
X005817Y004327D03*
D134*
X006433Y004328D03*
X006433Y004329D03*
D135*
X005817Y004328D03*
D136*
X006433Y004328D03*
D137*
X005817Y004328D03*
D138*
X005813Y004329D03*
X005813Y004329D03*
X005813Y004330D03*
D139*
X006433Y004330D03*
X006433Y004329D03*
D140*
X006433Y004329D03*
X006433Y004330D03*
D141*
X005813Y004329D03*
D142*
X005813Y004330D03*
X005813Y004332D03*
X006442Y004389D03*
D143*
X006433Y004331D03*
X006433Y004331D03*
D144*
X006442Y004389D03*
X006442Y004389D03*
X006442Y004390D03*
X005813Y004331D03*
X005813Y004331D03*
D145*
X006433Y004332D03*
D146*
X006434Y004333D03*
X006434Y004334D03*
D147*
X005813Y004334D03*
X005813Y004334D03*
X005813Y004333D03*
D148*
X006434Y004333D03*
D149*
X005813Y004333D03*
D150*
X006434Y004334D03*
X006434Y004335D03*
D151*
X006434Y004335D03*
X006434Y004334D03*
D152*
X006442Y004392D03*
X006442Y004393D03*
X005812Y004335D03*
X005812Y004334D03*
D153*
X005812Y004335D03*
X005812Y004336D03*
X006442Y004393D03*
D154*
X006434Y004336D03*
X006434Y004336D03*
D155*
X006443Y004394D03*
X006443Y004394D03*
X006443Y004395D03*
X005812Y004339D03*
X005812Y004338D03*
X005812Y004336D03*
D156*
X006434Y004337D03*
D157*
X006443Y004394D03*
X005812Y004338D03*
X005812Y004337D03*
D158*
X006434Y004338D03*
X006434Y004339D03*
X006434Y004339D03*
D159*
X006434Y004338D03*
D160*
X005812Y004339D03*
X005812Y004340D03*
D161*
X006435Y004340D03*
X006435Y004339D03*
D162*
X005812Y004339D03*
X005812Y004340D03*
D163*
X006435Y004340D03*
D164*
X006435Y004341D03*
X006435Y004341D03*
D165*
X006443Y004398D03*
X006443Y004399D03*
X005812Y004343D03*
X005812Y004341D03*
X005812Y004341D03*
D166*
X006435Y004342D03*
D167*
X006443Y004397D03*
X006443Y004398D03*
X005812Y004342D03*
D168*
X006435Y004343D03*
X006435Y004344D03*
X006435Y004344D03*
D169*
X006435Y004343D03*
D170*
X005811Y004343D03*
X005811Y004344D03*
D171*
X005811Y004344D03*
X005811Y004344D03*
D172*
X006435Y004344D03*
X006435Y004345D03*
D173*
X006435Y004345D03*
D174*
X006444Y004401D03*
X006444Y004401D03*
X005811Y004346D03*
X005811Y004346D03*
X005811Y004345D03*
D175*
X005811Y004345D03*
X006444Y004400D03*
D176*
X006436Y004348D03*
X006436Y004346D03*
X006436Y004346D03*
D177*
X006436Y004347D03*
D178*
X006444Y004402D03*
X006444Y004403D03*
X005811Y004348D03*
X005811Y004347D03*
D179*
X005811Y004348D03*
X005811Y004349D03*
X006444Y004403D03*
X006444Y004404D03*
D180*
X006436Y004348D03*
D181*
X006436Y004349D03*
X006436Y004349D03*
D182*
X005811Y004350D03*
X005811Y004351D03*
X005811Y004349D03*
D183*
X006436Y004349D03*
X006436Y004350D03*
D184*
X005811Y004350D03*
X005811Y004349D03*
D185*
X006436Y004350D03*
D186*
X006436Y004351D03*
X006436Y004351D03*
X006436Y004353D03*
D187*
X006444Y004406D03*
X006444Y004406D03*
X005810Y004353D03*
X005810Y004351D03*
D188*
X006436Y004352D03*
D189*
X006444Y004405D03*
X006444Y004407D03*
X005810Y004353D03*
X005810Y004352D03*
D190*
X006436Y004353D03*
D191*
X006436Y004354D03*
X006436Y004354D03*
D192*
X005810Y004355D03*
X005810Y004354D03*
X005810Y004354D03*
D193*
X006437Y004354D03*
X006437Y004355D03*
D194*
X005810Y004354D03*
D195*
X006437Y004355D03*
X006437Y004356D03*
D196*
X006445Y004409D03*
X005810Y004357D03*
X005810Y004355D03*
D197*
X005810Y004356D03*
X005810Y004356D03*
X006445Y004409D03*
X006445Y004410D03*
D198*
X006437Y004358D03*
X006437Y004356D03*
D199*
X006437Y004357D03*
D200*
X006445Y004411D03*
X006445Y004411D03*
X005810Y004359D03*
X005810Y004359D03*
X005810Y004358D03*
D201*
X006437Y004358D03*
D202*
X006445Y004410D03*
X006445Y004412D03*
X005810Y004358D03*
D203*
X006437Y004359D03*
X006437Y004359D03*
D204*
X006438Y004359D03*
X006438Y004360D03*
D205*
X005809Y004360D03*
X005809Y004359D03*
D206*
X006438Y004360D03*
X006438Y004361D03*
D207*
X005809Y004361D03*
X005809Y004360D03*
D208*
X006438Y004361D03*
X006438Y004363D03*
D209*
X006446Y004414D03*
X006446Y004415D03*
X005809Y004364D03*
X005809Y004363D03*
X005809Y004361D03*
D210*
X006438Y004362D03*
D211*
X006446Y004414D03*
X006446Y004415D03*
X005809Y004363D03*
X005809Y004362D03*
D212*
X006438Y004363D03*
X006438Y004364D03*
D213*
X006438Y004364D03*
X006438Y004364D03*
D214*
X005809Y004365D03*
X005809Y004364D03*
D215*
X005809Y004364D03*
X005809Y004365D03*
D216*
X006438Y004366D03*
X006438Y004365D03*
D217*
X006438Y004365D03*
D218*
X006446Y004418D03*
X006446Y004419D03*
X005809Y004368D03*
X005809Y004366D03*
X005809Y004366D03*
D219*
X006439Y004366D03*
X006439Y004368D03*
D220*
X006439Y004367D03*
D221*
X006446Y004418D03*
X005809Y004367D03*
D222*
X006439Y004368D03*
X006439Y004369D03*
D223*
X006446Y004419D03*
X006446Y004420D03*
X005808Y004369D03*
X005808Y004368D03*
D224*
X006439Y004369D03*
X006439Y004369D03*
D225*
X006446Y004419D03*
X006446Y004420D03*
X005808Y004369D03*
X005808Y004369D03*
D226*
X006439Y004370D03*
X006439Y004371D03*
D227*
X005808Y004371D03*
X005808Y004371D03*
X005808Y004370D03*
D228*
X006439Y004370D03*
D229*
X005808Y004370D03*
D230*
X006439Y004371D03*
X006439Y004373D03*
D231*
X006439Y004373D03*
X006439Y004372D03*
D232*
X006447Y004423D03*
X005808Y004373D03*
X005808Y004372D03*
D233*
X005808Y004373D03*
X005808Y004374D03*
X006447Y004423D03*
X006447Y004424D03*
X006447Y004424D03*
D234*
X006440Y004374D03*
X006440Y004374D03*
D235*
X005808Y004375D03*
X005808Y004376D03*
X005808Y004374D03*
D236*
X006440Y004374D03*
D237*
X005808Y004374D03*
X005808Y004375D03*
D238*
X006440Y004376D03*
X006440Y004375D03*
D239*
X006440Y004375D03*
D240*
X006440Y004376D03*
X006440Y004378D03*
D241*
X006447Y004426D03*
X006447Y004426D03*
X005807Y004378D03*
X005807Y004376D03*
D242*
X006440Y004377D03*
X006440Y004378D03*
D243*
X006447Y004427D03*
X005807Y004378D03*
X005807Y004377D03*
D244*
X006440Y004379D03*
X006440Y004379D03*
D245*
X006448Y004428D03*
X006448Y004429D03*
X006448Y004429D03*
X005807Y004380D03*
X005807Y004379D03*
X005807Y004379D03*
D246*
X006440Y004379D03*
D247*
X006448Y004428D03*
X005807Y004379D03*
D248*
X006441Y004380D03*
X006441Y004381D03*
X006441Y004381D03*
D249*
X006441Y004380D03*
D250*
X005807Y004380D03*
X005807Y004382D03*
D251*
X005807Y004381D03*
X005807Y004381D03*
D252*
X006441Y004382D03*
X006441Y004383D03*
D253*
X006441Y004383D03*
D254*
X006448Y004431D03*
X006448Y004431D03*
X006448Y004433D03*
X005807Y004384D03*
X005807Y004384D03*
X005807Y004383D03*
D255*
X005807Y004383D03*
X006448Y004432D03*
D256*
X006441Y004384D03*
X006441Y004384D03*
D257*
X006441Y004384D03*
D258*
X005806Y004384D03*
X005806Y004385D03*
D259*
X006441Y004386D03*
X006441Y004386D03*
X006441Y004385D03*
D260*
X005806Y004386D03*
X005806Y004385D03*
D261*
X006441Y004385D03*
D262*
X006449Y004435D03*
X006449Y004436D03*
X005806Y004389D03*
X005806Y004388D03*
X005806Y004386D03*
D263*
X006441Y004387D03*
X006441Y004388D03*
D264*
X006449Y004434D03*
X006449Y004435D03*
X005806Y004388D03*
X005806Y004387D03*
D265*
X006441Y004388D03*
D266*
X006449Y004436D03*
X006449Y004438D03*
X005806Y004390D03*
X005806Y004389D03*
D267*
X005806Y004389D03*
X005806Y004390D03*
X006449Y004437D03*
D268*
X006442Y004390D03*
D269*
X006442Y004391D03*
X006442Y004391D03*
D270*
X005806Y004391D03*
X005806Y004391D03*
X005806Y004393D03*
D271*
X005806Y004392D03*
D272*
X005805Y004393D03*
X005805Y004394D03*
X006449Y004439D03*
X006449Y004440D03*
D273*
X006449Y004440D03*
X006449Y004441D03*
X005805Y004394D03*
X005805Y004394D03*
D274*
X005805Y004395D03*
X005805Y004396D03*
X005805Y004396D03*
D275*
X006443Y004395D03*
D276*
X005805Y004395D03*
D277*
X006443Y004396D03*
X006443Y004396D03*
D278*
X006450Y004443D03*
X006450Y004444D03*
X005805Y004398D03*
X005805Y004397D03*
D279*
X005805Y004398D03*
X005805Y004399D03*
X006450Y004444D03*
X006450Y004444D03*
D280*
X006443Y004400D03*
X006443Y004399D03*
D281*
X006450Y004445D03*
X006450Y004446D03*
X005805Y004401D03*
X005805Y004400D03*
X005805Y004399D03*
D282*
X006443Y004399D03*
D283*
X006450Y004445D03*
X005805Y004400D03*
X005805Y004399D03*
D284*
X005804Y004401D03*
X005804Y004403D03*
D285*
X005804Y004403D03*
X005804Y004402D03*
D286*
X005804Y004404D03*
X005804Y004404D03*
X005804Y004405D03*
X006451Y004449D03*
X006451Y004449D03*
D287*
X006444Y004405D03*
X006444Y004404D03*
D288*
X006444Y004404D03*
D289*
X006451Y004448D03*
X006451Y004449D03*
X005804Y004404D03*
D290*
X005804Y004405D03*
X005804Y004407D03*
D291*
X005804Y004406D03*
X005804Y004406D03*
D292*
X006445Y004408D03*
X006445Y004409D03*
D293*
X006451Y004451D03*
X006451Y004453D03*
X005804Y004409D03*
X005804Y004409D03*
X005804Y004408D03*
D294*
X006445Y004408D03*
D295*
X006451Y004452D03*
X006451Y004453D03*
X005804Y004408D03*
D296*
X005803Y004409D03*
X005803Y004410D03*
X006451Y004454D03*
D297*
X006451Y004454D03*
X006451Y004454D03*
X005803Y004411D03*
X005803Y004410D03*
D298*
X005803Y004411D03*
X005803Y004413D03*
X005803Y004414D03*
D299*
X005803Y004413D03*
X005803Y004412D03*
D300*
X006445Y004413D03*
X006445Y004414D03*
D301*
X006445Y004413D03*
D302*
X006452Y004456D03*
X006452Y004458D03*
X005803Y004415D03*
X005803Y004414D03*
D303*
X005803Y004414D03*
X005803Y004415D03*
X006452Y004457D03*
X006452Y004458D03*
D304*
X006446Y004416D03*
X006446Y004416D03*
D305*
X005803Y004416D03*
X005803Y004416D03*
X005803Y004418D03*
D306*
X006446Y004417D03*
D307*
X005803Y004417D03*
D308*
X005802Y004418D03*
X005802Y004419D03*
X006452Y004460D03*
D309*
X006452Y004460D03*
X006452Y004461D03*
X006452Y004461D03*
X005802Y004419D03*
X005802Y004419D03*
D310*
X005802Y004420D03*
X005802Y004421D03*
X005802Y004421D03*
X006453Y004463D03*
D311*
X006453Y004463D03*
X006453Y004462D03*
X005802Y004420D03*
D312*
X006446Y004421D03*
X006446Y004421D03*
D313*
X006446Y004422D03*
D314*
X005802Y004423D03*
X005802Y004422D03*
D315*
X005802Y004423D03*
X005802Y004424D03*
D316*
X005802Y004424D03*
X005802Y004425D03*
X005802Y004426D03*
X006453Y004465D03*
X006453Y004466D03*
X006453Y004466D03*
D317*
X006447Y004425D03*
X006447Y004424D03*
D318*
X006453Y004465D03*
X005802Y004425D03*
X005802Y004424D03*
D319*
X006447Y004425D03*
D320*
X005801Y004426D03*
X005801Y004428D03*
D321*
X005801Y004428D03*
X005801Y004427D03*
D322*
X005801Y004429D03*
X005801Y004429D03*
X005801Y004430D03*
X006454Y004469D03*
X006454Y004469D03*
X006454Y004470D03*
D323*
X006448Y004430D03*
X006448Y004429D03*
D324*
X006454Y004469D03*
X005801Y004429D03*
D325*
X006448Y004430D03*
D326*
X006454Y004470D03*
X005801Y004432D03*
X005801Y004430D03*
D327*
X005801Y004431D03*
X005801Y004431D03*
X006454Y004471D03*
X006454Y004471D03*
D328*
X005801Y004434D03*
X005801Y004434D03*
X005801Y004433D03*
D329*
X006448Y004433D03*
D330*
X005801Y004433D03*
D331*
X006448Y004434D03*
X006448Y004434D03*
D332*
X006454Y004474D03*
X005800Y004435D03*
X005800Y004434D03*
D333*
X005800Y004435D03*
X005800Y004436D03*
X006454Y004474D03*
X006454Y004474D03*
X006454Y004475D03*
D334*
X005800Y004439D03*
X005800Y004438D03*
X005800Y004436D03*
D335*
X005800Y004437D03*
X005800Y004438D03*
D336*
X006449Y004438D03*
D337*
X006449Y004439D03*
X006449Y004439D03*
D338*
X006455Y004478D03*
X006455Y004479D03*
X005800Y004440D03*
X005800Y004439D03*
D339*
X005800Y004439D03*
X005800Y004440D03*
X006455Y004477D03*
X006455Y004478D03*
D340*
X006455Y004479D03*
X006455Y004480D03*
X005800Y004443D03*
X005800Y004441D03*
X005800Y004441D03*
D341*
X006450Y004441D03*
X006450Y004443D03*
D342*
X006450Y004442D03*
D343*
X006455Y004479D03*
X005800Y004442D03*
D344*
X005799Y004443D03*
X005799Y004444D03*
D345*
X005799Y004444D03*
X005799Y004444D03*
D346*
X005799Y004445D03*
X005799Y004446D03*
X005799Y004446D03*
X006456Y004483D03*
X006456Y004484D03*
D347*
X006456Y004483D03*
X006456Y004482D03*
X005799Y004445D03*
D348*
X006450Y004446D03*
X006450Y004448D03*
D349*
X006450Y004447D03*
D350*
X005799Y004448D03*
X005799Y004447D03*
D351*
X005799Y004448D03*
X005799Y004449D03*
D352*
X005799Y004449D03*
X005799Y004450D03*
X005799Y004451D03*
X006456Y004486D03*
X006456Y004486D03*
D353*
X006456Y004485D03*
X006456Y004487D03*
X005799Y004450D03*
X005799Y004449D03*
D354*
X006451Y004450D03*
X006451Y004451D03*
D355*
X006451Y004450D03*
D356*
X006456Y004488D03*
X006456Y004489D03*
X005798Y004453D03*
X005798Y004451D03*
D357*
X005798Y004452D03*
X005798Y004453D03*
X006456Y004488D03*
D358*
X005798Y004455D03*
X005798Y004454D03*
X005798Y004454D03*
D359*
X005798Y004454D03*
D360*
X006451Y004455D03*
X006451Y004456D03*
D361*
X006451Y004455D03*
D362*
X006457Y004490D03*
X006457Y004492D03*
X005798Y004457D03*
X005798Y004455D03*
D363*
X005798Y004456D03*
X005798Y004456D03*
X006457Y004491D03*
X006457Y004491D03*
D364*
X005798Y004459D03*
X005798Y004459D03*
X005798Y004458D03*
D365*
X005798Y004458D03*
D366*
X006452Y004459D03*
X006452Y004459D03*
D367*
X006452Y004459D03*
D368*
X006457Y004494D03*
X006457Y004495D03*
X005797Y004460D03*
X005797Y004459D03*
D369*
X005797Y004460D03*
X005797Y004461D03*
X006457Y004494D03*
X006457Y004495D03*
D370*
X006458Y004496D03*
X006458Y004496D03*
X005797Y004464D03*
X005797Y004463D03*
X005797Y004461D03*
D371*
X005797Y004462D03*
X005797Y004463D03*
X006458Y004497D03*
D372*
X006453Y004464D03*
X006453Y004464D03*
D373*
X005797Y004465D03*
X005797Y004464D03*
D374*
X006453Y004464D03*
D375*
X005797Y004464D03*
X005797Y004465D03*
D376*
X005797Y004466D03*
X005797Y004466D03*
X005797Y004468D03*
X006458Y004499D03*
X006458Y004500D03*
D377*
X006453Y004468D03*
X006453Y004467D03*
D378*
X006458Y004499D03*
X006458Y004500D03*
X005797Y004467D03*
D379*
X006453Y004468D03*
D380*
X005796Y004468D03*
X005796Y004469D03*
D381*
X005796Y004469D03*
X005796Y004469D03*
D382*
X005796Y004470D03*
X005796Y004471D03*
X005796Y004471D03*
X006459Y004503D03*
X006459Y004504D03*
X006459Y004504D03*
D383*
X006459Y004503D03*
X005796Y004470D03*
D384*
X006454Y004472D03*
X006454Y004473D03*
D385*
X006459Y004504D03*
X006459Y004505D03*
X005796Y004473D03*
X005796Y004472D03*
D386*
X006454Y004473D03*
D387*
X006459Y004505D03*
X005796Y004474D03*
X005796Y004473D03*
D388*
X005796Y004474D03*
X005796Y004475D03*
X005796Y004476D03*
D389*
X005796Y004475D03*
X005796Y004474D03*
D390*
X006455Y004475D03*
D391*
X006455Y004476D03*
X006455Y004476D03*
D392*
X006459Y004508D03*
X006459Y004509D03*
X006459Y004509D03*
X005795Y004478D03*
X005795Y004476D03*
D393*
X005795Y004477D03*
X005795Y004478D03*
X006459Y004508D03*
D394*
X005795Y004480D03*
X005795Y004479D03*
X005795Y004479D03*
D395*
X005795Y004479D03*
D396*
X006455Y004480D03*
D397*
X006460Y004512D03*
X005795Y004482D03*
X005795Y004480D03*
D398*
X006455Y004481D03*
X006455Y004481D03*
D399*
X006460Y004511D03*
X006460Y004511D03*
X006460Y004513D03*
X005795Y004481D03*
X005795Y004481D03*
D400*
X005795Y004483D03*
X005795Y004484D03*
X005795Y004484D03*
X006460Y004514D03*
X006460Y004514D03*
D401*
X006460Y004513D03*
X005795Y004483D03*
D402*
X006456Y004484D03*
X006456Y004485D03*
D403*
X006456Y004484D03*
D404*
X005794Y004484D03*
X005794Y004485D03*
D405*
X005794Y004485D03*
X005794Y004486D03*
D406*
X005794Y004486D03*
X005794Y004488D03*
X005794Y004489D03*
X006461Y004516D03*
X006461Y004516D03*
X006461Y004518D03*
D407*
X006461Y004517D03*
X005794Y004488D03*
X005794Y004487D03*
D408*
X006456Y004489D03*
X006456Y004490D03*
D409*
X005794Y004490D03*
X005794Y004489D03*
D410*
X006456Y004489D03*
D411*
X005794Y004489D03*
X005794Y004490D03*
D412*
X005794Y004491D03*
X005794Y004491D03*
X005794Y004493D03*
X006461Y004520D03*
X006461Y004521D03*
D413*
X006461Y004520D03*
X006461Y004519D03*
X005794Y004492D03*
D414*
X006457Y004493D03*
X006457Y004494D03*
D415*
X006457Y004493D03*
D416*
X006461Y004522D03*
X005793Y004494D03*
X005793Y004493D03*
D417*
X005793Y004494D03*
X005793Y004494D03*
X006461Y004521D03*
X006461Y004523D03*
D418*
X005793Y004496D03*
X005793Y004496D03*
X005793Y004495D03*
D419*
X005793Y004495D03*
D420*
X005793Y004497D03*
X005793Y004498D03*
X006462Y004524D03*
X006462Y004525D03*
D421*
X006458Y004499D03*
X006458Y004498D03*
D422*
X006462Y004525D03*
X006462Y004526D03*
X005793Y004499D03*
X005793Y004498D03*
D423*
X006458Y004498D03*
D424*
X005793Y004499D03*
X005793Y004500D03*
X005793Y004501D03*
D425*
X005793Y004500D03*
X005793Y004499D03*
D426*
X006458Y004501D03*
X006458Y004501D03*
D427*
X006462Y004529D03*
X006462Y004529D03*
X005792Y004503D03*
X005792Y004501D03*
D428*
X006458Y004502D03*
D429*
X006462Y004528D03*
X006462Y004529D03*
X005792Y004503D03*
X005792Y004502D03*
D430*
X005792Y004504D03*
X005792Y004504D03*
X005792Y004505D03*
X006463Y004530D03*
X006463Y004531D03*
D431*
X006463Y004530D03*
X005792Y004504D03*
D432*
X005792Y004505D03*
X005792Y004507D03*
D433*
X006459Y004506D03*
X006459Y004506D03*
D434*
X005792Y004506D03*
X005792Y004506D03*
D435*
X006459Y004507D03*
D436*
X006463Y004534D03*
X006463Y004534D03*
X005792Y004509D03*
X005792Y004509D03*
X005792Y004508D03*
D437*
X005792Y004508D03*
X006463Y004533D03*
X006463Y004534D03*
D438*
X006460Y004510D03*
X006460Y004509D03*
D439*
X005791Y004509D03*
X005791Y004510D03*
D440*
X006460Y004510D03*
D441*
X005791Y004511D03*
X005791Y004510D03*
D442*
X005791Y004511D03*
X005791Y004513D03*
X005791Y004514D03*
X006464Y004536D03*
X006464Y004538D03*
D443*
X006464Y004538D03*
X006464Y004537D03*
X005791Y004513D03*
X005791Y004512D03*
D444*
X005791Y004514D03*
X005791Y004515D03*
X006464Y004539D03*
X006464Y004539D03*
D445*
X006460Y004515D03*
X006460Y004514D03*
D446*
X006464Y004539D03*
X005791Y004515D03*
X005791Y004514D03*
D447*
X006460Y004515D03*
D448*
X005791Y004516D03*
X005791Y004516D03*
X005791Y004518D03*
D449*
X005791Y004517D03*
D450*
X006461Y004518D03*
D451*
X006464Y004542D03*
X006464Y004543D03*
X005790Y004519D03*
X005790Y004518D03*
D452*
X006461Y004519D03*
X006461Y004519D03*
D453*
X006464Y004541D03*
X006464Y004543D03*
X005790Y004519D03*
X005790Y004519D03*
D454*
X005790Y004520D03*
X005790Y004521D03*
X005790Y004521D03*
D455*
X005790Y004520D03*
D456*
X005790Y004522D03*
X005790Y004523D03*
X006465Y004545D03*
D457*
X006465Y004545D03*
X006465Y004546D03*
X006465Y004546D03*
X005790Y004524D03*
X005790Y004523D03*
D458*
X006461Y004523D03*
D459*
X006461Y004524D03*
X006461Y004524D03*
D460*
X006465Y004548D03*
X005790Y004526D03*
X005790Y004525D03*
X005790Y004524D03*
D461*
X005790Y004524D03*
X005790Y004525D03*
X006465Y004547D03*
X006465Y004548D03*
D462*
X006462Y004528D03*
X006462Y004526D03*
D463*
X005789Y004526D03*
X005789Y004528D03*
D464*
X006462Y004527D03*
D465*
X005789Y004528D03*
X005789Y004527D03*
D466*
X005789Y004529D03*
X005789Y004529D03*
X005789Y004530D03*
X006466Y004550D03*
X006466Y004551D03*
X006466Y004551D03*
D467*
X006466Y004550D03*
X005789Y004529D03*
D468*
X005789Y004530D03*
X005789Y004532D03*
D469*
X005789Y004531D03*
X005789Y004531D03*
D470*
X006463Y004531D03*
X006463Y004533D03*
D471*
X006463Y004532D03*
D472*
X006466Y004554D03*
X006466Y004554D03*
X006466Y004555D03*
X005789Y004534D03*
X005789Y004534D03*
X005789Y004533D03*
D473*
X005789Y004533D03*
X006466Y004554D03*
D474*
X006466Y004555D03*
X005788Y004535D03*
X005788Y004534D03*
D475*
X006463Y004535D03*
X006463Y004536D03*
D476*
X006466Y004556D03*
X006466Y004556D03*
X005788Y004536D03*
X005788Y004535D03*
D477*
X006463Y004535D03*
D478*
X005788Y004536D03*
X005788Y004538D03*
X005788Y004539D03*
D479*
X005788Y004538D03*
X005788Y004537D03*
D480*
X005788Y004539D03*
X005788Y004540D03*
X006467Y004559D03*
X006467Y004559D03*
X006467Y004560D03*
D481*
X006467Y004559D03*
X005788Y004540D03*
X005788Y004539D03*
D482*
X006464Y004540D03*
X006464Y004541D03*
D483*
X006464Y004540D03*
D484*
X005788Y004541D03*
X005788Y004541D03*
X005788Y004543D03*
D485*
X005788Y004542D03*
D486*
X005787Y004543D03*
X005787Y004544D03*
X006467Y004562D03*
X006467Y004563D03*
D487*
X006465Y004544D03*
X006465Y004544D03*
D488*
X006467Y004563D03*
X006467Y004564D03*
X005787Y004544D03*
X005787Y004544D03*
D489*
X006465Y004544D03*
D490*
X006468Y004564D03*
X006468Y004565D03*
X005787Y004546D03*
X005787Y004546D03*
X005787Y004545D03*
D491*
X005787Y004545D03*
X006468Y004564D03*
D492*
X005787Y004548D03*
X005787Y004547D03*
D493*
X005787Y004548D03*
X005787Y004549D03*
D494*
X006465Y004549D03*
X006465Y004549D03*
D495*
X006468Y004568D03*
X006468Y004569D03*
X005787Y004551D03*
X005787Y004550D03*
X005787Y004549D03*
D496*
X006465Y004549D03*
D497*
X006468Y004567D03*
X006468Y004568D03*
X005787Y004550D03*
X005787Y004549D03*
D498*
X005786Y004551D03*
X005786Y004553D03*
D499*
X006466Y004553D03*
X006466Y004552D03*
D500*
X005786Y004553D03*
X005786Y004552D03*
D501*
X006466Y004553D03*
D502*
X006469Y004571D03*
X006469Y004571D03*
X005786Y004555D03*
X005786Y004554D03*
X005786Y004554D03*
D503*
X005786Y004554D03*
X006469Y004570D03*
X006469Y004572D03*
D504*
X006469Y004573D03*
X005786Y004557D03*
X005786Y004555D03*
D505*
X005786Y004556D03*
X005786Y004556D03*
X006469Y004573D03*
X006469Y004574D03*
D506*
X006466Y004558D03*
X006466Y004557D03*
D507*
X006466Y004558D03*
D508*
X005786Y004559D03*
X005786Y004559D03*
X005786Y004558D03*
D509*
X005786Y004558D03*
D510*
X005785Y004559D03*
X005785Y004560D03*
X006469Y004575D03*
X006469Y004577D03*
D511*
X006469Y004576D03*
X006469Y004576D03*
X005785Y004561D03*
X005785Y004560D03*
D512*
X006467Y004560D03*
D513*
X006467Y004561D03*
X006467Y004561D03*
D514*
X005785Y004561D03*
X005785Y004563D03*
X005785Y004564D03*
D515*
X005785Y004563D03*
X005785Y004562D03*
D516*
X005785Y004564D03*
X005785Y004565D03*
X006470Y004579D03*
X006470Y004580D03*
D517*
X006470Y004580D03*
X006470Y004579D03*
X005785Y004565D03*
X005785Y004564D03*
D518*
X006468Y004565D03*
D519*
X006468Y004566D03*
X006468Y004566D03*
D520*
X006470Y004581D03*
X006470Y004581D03*
X005785Y004568D03*
X005785Y004566D03*
X005785Y004566D03*
D521*
X005785Y004567D03*
X006470Y004582D03*
D522*
X005784Y004569D03*
X005784Y004568D03*
D523*
X005784Y004569D03*
X005784Y004569D03*
D524*
X006468Y004570D03*
X006468Y004569D03*
D525*
X006468Y004569D03*
D526*
X006471Y004584D03*
X006471Y004585D03*
X005784Y004571D03*
X005784Y004571D03*
X005784Y004570D03*
D527*
X005784Y004570D03*
X006471Y004584D03*
X006471Y004585D03*
D528*
X005784Y004573D03*
X005784Y004572D03*
D529*
X005784Y004573D03*
X005784Y004574D03*
D530*
X006469Y004575D03*
X006469Y004574D03*
D531*
X006471Y004588D03*
X006471Y004589D03*
X006471Y004589D03*
X005784Y004576D03*
X005784Y004575D03*
X005784Y004574D03*
D532*
X006469Y004574D03*
D533*
X006471Y004588D03*
X005784Y004575D03*
X005784Y004574D03*
D534*
X005783Y004576D03*
X005783Y004578D03*
X006471Y004590D03*
D535*
X006471Y004590D03*
X006471Y004589D03*
X005783Y004578D03*
X005783Y004577D03*
D536*
X006470Y004578D03*
X006470Y004579D03*
D537*
X006470Y004578D03*
D538*
X005783Y004579D03*
X005783Y004579D03*
X005783Y004580D03*
D539*
X005783Y004579D03*
D540*
X005783Y004580D03*
X005783Y004582D03*
X006472Y004593D03*
D541*
X006472Y004593D03*
X006472Y004594D03*
X006472Y004594D03*
X005783Y004581D03*
X005783Y004581D03*
D542*
X006470Y004583D03*
X006470Y004584D03*
D543*
X005783Y004584D03*
X005783Y004584D03*
X005783Y004583D03*
D544*
X006470Y004583D03*
D545*
X005783Y004583D03*
D546*
X005782Y004584D03*
X005782Y004585D03*
X006472Y004597D03*
D547*
X006472Y004598D03*
X006472Y004596D03*
X006472Y004596D03*
X005782Y004586D03*
X005782Y004585D03*
D548*
X006471Y004586D03*
X006471Y004586D03*
D549*
X006473Y004599D03*
X006473Y004599D03*
X005782Y004589D03*
X005782Y004588D03*
X005782Y004586D03*
D550*
X006471Y004587D03*
D551*
X006473Y004598D03*
X005782Y004588D03*
X005782Y004587D03*
D552*
X005782Y004589D03*
X005782Y004590D03*
D553*
X005782Y004590D03*
X005782Y004589D03*
D554*
X006471Y004591D03*
X006471Y004591D03*
D555*
X006473Y004601D03*
X006473Y004601D03*
X006473Y004603D03*
X005782Y004593D03*
X005782Y004591D03*
X005782Y004591D03*
D556*
X006471Y004592D03*
D557*
X006473Y004602D03*
X005782Y004592D03*
D558*
X005781Y004593D03*
X005781Y004594D03*
D559*
X005781Y004594D03*
X005781Y004594D03*
D560*
X006472Y004594D03*
X006472Y004595D03*
D561*
X006472Y004595D03*
D562*
X006474Y004605D03*
X006474Y004606D03*
X005781Y004596D03*
X005781Y004596D03*
X005781Y004595D03*
D563*
X005781Y004595D03*
X006474Y004604D03*
X006474Y004605D03*
D564*
X006474Y004607D03*
X005781Y004598D03*
X005781Y004597D03*
D565*
X005781Y004598D03*
X005781Y004599D03*
X006474Y004606D03*
X006474Y004608D03*
D566*
X005781Y004601D03*
X005781Y004600D03*
X005781Y004599D03*
D567*
X006473Y004599D03*
X006473Y004600D03*
D568*
X005781Y004600D03*
X005781Y004599D03*
D569*
X006473Y004600D03*
D570*
X006474Y004610D03*
X006474Y004611D03*
X005780Y004603D03*
X005780Y004601D03*
D571*
X005780Y004602D03*
X005780Y004603D03*
X006474Y004609D03*
X006474Y004610D03*
D572*
X006473Y004603D03*
D573*
X006473Y004604D03*
X006473Y004604D03*
D574*
X005780Y004605D03*
X005780Y004604D03*
X005780Y004604D03*
D575*
X005780Y004604D03*
D576*
X005780Y004605D03*
X005780Y004607D03*
X006475Y004613D03*
X006475Y004614D03*
D577*
X006475Y004614D03*
X006475Y004614D03*
X005780Y004606D03*
X005780Y004606D03*
D578*
X005780Y004608D03*
X005780Y004609D03*
X005780Y004609D03*
X006475Y004615D03*
X006475Y004616D03*
D579*
X006474Y004608D03*
D580*
X006475Y004615D03*
X005780Y004608D03*
D581*
X006474Y004609D03*
X006474Y004609D03*
D582*
X005779Y004609D03*
X005779Y004610D03*
D583*
X005779Y004610D03*
X005779Y004611D03*
D584*
X006475Y004611D03*
X006475Y004613D03*
D585*
X006476Y004619D03*
X006476Y004619D03*
X005779Y004614D03*
X005779Y004613D03*
X005779Y004611D03*
D586*
X006475Y004612D03*
D587*
X006476Y004618D03*
X006476Y004619D03*
X005779Y004613D03*
X005779Y004612D03*
D588*
X005779Y004614D03*
X005779Y004615D03*
D589*
X005779Y004615D03*
X005779Y004614D03*
D590*
X005779Y004616D03*
X005779Y004616D03*
X005779Y004618D03*
X006476Y004621D03*
X006476Y004623D03*
D591*
X006475Y004618D03*
X006475Y004616D03*
D592*
X006475Y004617D03*
D593*
X006476Y004622D03*
X006476Y004623D03*
X005779Y004617D03*
D594*
X005778Y004618D03*
X005778Y004619D03*
X006476Y004624D03*
D595*
X006476Y004624D03*
X006476Y004624D03*
X005778Y004619D03*
X005778Y004619D03*
D596*
X006476Y004620D03*
X006476Y004621D03*
D597*
X005778Y004621D03*
X005778Y004621D03*
X005778Y004620D03*
D598*
X006476Y004620D03*
D599*
X005778Y004620D03*
D600*
X005778Y004622D03*
X005778Y004623D03*
X006477Y004627D03*
X006477Y004628D03*
D601*
X006477Y004628D03*
X006477Y004626D03*
X005778Y004624D03*
X005778Y004623D03*
D602*
X005778Y004624D03*
X005778Y004625D03*
X005778Y004626D03*
D603*
X005778Y004625D03*
X005778Y004624D03*
D604*
X006476Y004625D03*
X006476Y004626D03*
D605*
X006476Y004625D03*
D606*
X006477Y004630D03*
X006477Y004631D03*
X006477Y004631D03*
X005777Y004628D03*
X005777Y004626D03*
D607*
X005777Y004627D03*
X005777Y004628D03*
X006477Y004630D03*
D608*
X006477Y004629D03*
X006477Y004629D03*
D609*
X006478Y004633D03*
X005777Y004630D03*
X005777Y004629D03*
X005777Y004629D03*
D610*
X006477Y004629D03*
D611*
X006478Y004632D03*
X006478Y004633D03*
X005777Y004629D03*
D612*
X005777Y004630D03*
X005777Y004632D03*
D613*
X005777Y004631D03*
X005777Y004631D03*
D614*
X005777Y004633D03*
X005777Y004634D03*
X005777Y004634D03*
X006478Y004635D03*
X006478Y004636D03*
X006478Y004636D03*
D615*
X006478Y004635D03*
X005777Y004633D03*
D616*
X006478Y004634D03*
X006478Y004634D03*
D617*
X006478Y004634D03*
D618*
X005776Y004634D03*
X005776Y004635D03*
D619*
X005776Y004635D03*
X005776Y004636D03*
D620*
X005776Y004636D03*
X005776Y004638D03*
X005776Y004639D03*
X006479Y004640D03*
X006479Y004639D03*
X006479Y004639D03*
D621*
X006478Y004638D03*
X006478Y004637D03*
D622*
X006479Y004639D03*
X005776Y004638D03*
X005776Y004637D03*
D623*
X006478Y004638D03*
D624*
X006479Y004641D03*
X006479Y004641D03*
X005776Y004640D03*
X005776Y004639D03*
D625*
X005776Y004639D03*
X005776Y004640D03*
X006479Y004640D03*
D626*
X005776Y004641D03*
X005776Y004641D03*
X005776Y004643D03*
D627*
X006479Y004643D03*
X006479Y004642D03*
D628*
X005776Y004642D03*
D629*
X006479Y004643D03*
D630*
X006479Y004644D03*
X005775Y004644D03*
X005775Y004643D03*
D631*
X005775Y004644D03*
X005775Y004644D03*
X006479Y004645D03*
X006479Y004644D03*
X006479Y004644D03*
D632*
X005775Y004645D03*
X005775Y004646D03*
X005775Y004646D03*
D633*
X006480Y004645D03*
D634*
X005775Y004645D03*
D635*
X006480Y004646D03*
X006480Y004646D03*
D636*
X006480Y004647D03*
X006480Y004648D03*
X005775Y004648D03*
X005775Y004647D03*
D637*
X005775Y004648D03*
X005775Y004649D03*
X006480Y004649D03*
X006480Y004648D03*
D638*
X006480Y004649D03*
X006480Y004650D03*
X005775Y004651D03*
X005775Y004650D03*
X005775Y004649D03*
D639*
X005775Y004649D03*
X005775Y004650D03*
X006480Y004649D03*
D640*
X006480Y004650D03*
D641*
X006480Y004651D03*
X006480Y004651D03*
D642*
X005774Y004651D03*
X005774Y004653D03*
D643*
X005774Y004654D03*
X006481Y004653D03*
X006481Y004652D03*
D644*
X005774Y004653D03*
X005774Y004652D03*
D645*
X005774Y004654D03*
X005774Y004654D03*
X005774Y004655D03*
X006481Y004654D03*
X006481Y004653D03*
D646*
X006481Y004654D03*
X006481Y004655D03*
D647*
X006481Y004654D03*
D648*
X006481Y004655D03*
X006481Y004657D03*
X005774Y004658D03*
D649*
X005774Y004657D03*
X005774Y004655D03*
D650*
X005774Y004658D03*
X005774Y004659D03*
X005774Y004659D03*
X006481Y004656D03*
X006481Y004656D03*
D651*
X005774Y004656D03*
X005774Y004656D03*
D652*
X005773Y004660D03*
X005773Y004661D03*
X006481Y004659D03*
X006481Y004658D03*
D653*
X006481Y004658D03*
X005773Y004659D03*
X005773Y004660D03*
D654*
X006481Y004660D03*
X006481Y004659D03*
D655*
X006481Y004659D03*
D656*
X006482Y004660D03*
X006482Y004662D03*
X005773Y004664D03*
X005773Y004665D03*
D657*
X005773Y004665D03*
X005773Y004664D03*
X006482Y004661D03*
X006482Y004661D03*
D658*
X005773Y004661D03*
X005773Y004663D03*
X005773Y004664D03*
D659*
X005773Y004663D03*
X005773Y004662D03*
D660*
X006482Y004663D03*
X006482Y004664D03*
D661*
X006482Y004663D03*
D662*
X006482Y004664D03*
X006482Y004665D03*
X005772Y004669D03*
X005772Y004669D03*
D663*
X005772Y004669D03*
X005772Y004668D03*
X006482Y004665D03*
X006482Y004664D03*
D664*
X006483Y004666D03*
X006483Y004666D03*
X005772Y004670D03*
X005772Y004671D03*
X005772Y004671D03*
D665*
X005773Y004668D03*
X005773Y004666D03*
X005773Y004666D03*
D666*
X005772Y004670D03*
X006483Y004667D03*
D667*
X005773Y004667D03*
D668*
X006483Y004668D03*
X006483Y004669D03*
D669*
X006483Y004668D03*
D670*
X006483Y004669D03*
X006483Y004670D03*
X005772Y004674D03*
X005772Y004675D03*
X005772Y004676D03*
D671*
X005772Y004675D03*
X005772Y004674D03*
X006483Y004670D03*
X006483Y004669D03*
D672*
X006483Y004671D03*
X006483Y004671D03*
D673*
X006483Y004672D03*
D674*
X005772Y004672D03*
X005772Y004673D03*
D675*
X005771Y004679D03*
X005771Y004679D03*
X005771Y004680D03*
X006484Y004674D03*
X006484Y004674D03*
X006484Y004673D03*
D676*
X005772Y004674D03*
X005772Y004673D03*
D677*
X005771Y004679D03*
X006484Y004673D03*
D678*
X006484Y004674D03*
X006484Y004675D03*
X005771Y004680D03*
X005771Y004682D03*
D679*
X005771Y004681D03*
X005771Y004681D03*
X006484Y004675D03*
D680*
X006484Y004676D03*
X006484Y004676D03*
D681*
X005771Y004676D03*
X005771Y004678D03*
D682*
X006484Y004677D03*
D683*
X005771Y004678D03*
X005771Y004677D03*
D684*
X005770Y004685D03*
X005770Y004686D03*
X006484Y004679D03*
X006484Y004679D03*
X006484Y004678D03*
D685*
X006484Y004678D03*
X005770Y004684D03*
X005770Y004685D03*
D686*
X006485Y004680D03*
X006485Y004679D03*
D687*
X006485Y004680D03*
D688*
X006485Y004681D03*
X006485Y004681D03*
X006485Y004683D03*
X005770Y004689D03*
X005770Y004690D03*
D689*
X005770Y004690D03*
X005770Y004689D03*
X006485Y004682D03*
D690*
X005771Y004683D03*
X005771Y004684D03*
X005771Y004684D03*
D691*
X005770Y004692D03*
X006485Y004683D03*
D692*
X005771Y004683D03*
D693*
X005770Y004691D03*
X005770Y004691D03*
X005770Y004693D03*
X006485Y004684D03*
X006485Y004684D03*
D694*
X006485Y004684D03*
X006485Y004685D03*
D695*
X006485Y004685D03*
D696*
X006486Y004686D03*
X006486Y004686D03*
X006486Y004688D03*
X005769Y004695D03*
X005769Y004696D03*
X005769Y004696D03*
D697*
X005770Y004689D03*
X005770Y004688D03*
X005770Y004686D03*
D698*
X005769Y004695D03*
X006486Y004687D03*
D699*
X005770Y004688D03*
X005770Y004687D03*
D700*
X006486Y004688D03*
D701*
X006486Y004689D03*
X006486Y004689D03*
D702*
X006486Y004689D03*
X006486Y004690D03*
X005769Y004699D03*
D703*
X005769Y004699D03*
X006486Y004691D03*
X006486Y004690D03*
D704*
X006486Y004691D03*
X006486Y004693D03*
D705*
X006486Y004692D03*
D706*
X006486Y004693D03*
X006486Y004694D03*
D707*
X005769Y004694D03*
X005769Y004693D03*
D708*
X006486Y004694D03*
X006486Y004694D03*
D709*
X005769Y004694D03*
X005769Y004694D03*
D710*
X006487Y004695D03*
X006487Y004696D03*
D711*
X006487Y004695D03*
D712*
X006487Y004696D03*
X006487Y004698D03*
D713*
X006487Y004697D03*
D714*
X005769Y004698D03*
X005769Y004697D03*
D715*
X005769Y004698D03*
X005769Y004699D03*
D716*
X006487Y004699D03*
X006487Y004698D03*
D717*
X006487Y004699D03*
X006487Y004699D03*
D718*
X006431Y004700D03*
X006431Y004701D03*
X006431Y004701D03*
X006431Y004703D03*
X006431Y004704D03*
X006431Y004704D03*
X006431Y004705D03*
X006431Y004706D03*
X006431Y004706D03*
X006431Y004708D03*
X006431Y004709D03*
X006431Y004709D03*
X006431Y004710D03*
X006431Y004711D03*
X006431Y004711D03*
X006431Y004713D03*
X006431Y004714D03*
X006431Y004714D03*
X006431Y004715D03*
X006431Y004716D03*
X006431Y004716D03*
X006431Y004718D03*
X006431Y004719D03*
X006431Y004719D03*
X006431Y004720D03*
X006431Y004721D03*
X006431Y004721D03*
X006431Y004723D03*
X006431Y004724D03*
X006431Y004724D03*
X006431Y004725D03*
D719*
X005823Y004725D03*
X005823Y004724D03*
X005823Y004724D03*
X005823Y004723D03*
X005823Y004721D03*
X005823Y004721D03*
X005823Y004720D03*
X005823Y004719D03*
X005823Y004719D03*
X005823Y004718D03*
X005823Y004716D03*
X005823Y004716D03*
X005823Y004715D03*
X005823Y004714D03*
X005823Y004714D03*
X005823Y004713D03*
X005823Y004711D03*
X005823Y004711D03*
X005823Y004710D03*
X005823Y004709D03*
X005823Y004709D03*
X005823Y004708D03*
X005823Y004706D03*
X005823Y004706D03*
X005823Y004705D03*
X005823Y004704D03*
X005823Y004704D03*
X005823Y004703D03*
X005823Y004701D03*
X005823Y004701D03*
X005823Y004700D03*
D720*
X006431Y004700D03*
X006431Y004702D03*
X006431Y004703D03*
X006431Y004704D03*
X006431Y004705D03*
X006431Y004707D03*
X006431Y004708D03*
X006431Y004709D03*
X006431Y004710D03*
X006431Y004712D03*
X006431Y004713D03*
X006431Y004714D03*
X006431Y004715D03*
X006431Y004717D03*
X006431Y004718D03*
X006431Y004719D03*
X006431Y004720D03*
X006431Y004722D03*
X006431Y004723D03*
X006431Y004724D03*
X006431Y004725D03*
D721*
X005823Y004725D03*
X005823Y004724D03*
X005823Y004723D03*
X005823Y004722D03*
X005823Y004720D03*
X005823Y004719D03*
X005823Y004718D03*
X005823Y004717D03*
X005823Y004715D03*
X005823Y004714D03*
X005823Y004713D03*
X005823Y004712D03*
X005823Y004710D03*
X005823Y004709D03*
X005823Y004708D03*
X005823Y004707D03*
X005823Y004705D03*
X005823Y004704D03*
X005823Y004703D03*
X005823Y004702D03*
X005823Y004700D03*
D722*
X006127Y004726D03*
X006127Y004726D03*
X006127Y004728D03*
X006127Y004729D03*
X006127Y004729D03*
X006127Y004730D03*
X006127Y004731D03*
X006127Y004731D03*
X006127Y004733D03*
X006127Y004734D03*
X006127Y004734D03*
X006127Y004735D03*
X006127Y004736D03*
X006127Y004736D03*
X006127Y004738D03*
X006127Y004739D03*
X006127Y004739D03*
X006127Y004740D03*
X006127Y004741D03*
X006127Y004741D03*
X006127Y004743D03*
X006127Y004744D03*
X006127Y004744D03*
X006127Y004745D03*
X006127Y004746D03*
X006127Y004875D03*
X006127Y004876D03*
X006127Y004876D03*
X006127Y004878D03*
X006127Y004879D03*
X006127Y004879D03*
X006127Y004880D03*
X006127Y004881D03*
X006127Y004881D03*
X006127Y004883D03*
X006127Y004884D03*
X006127Y004884D03*
X006127Y004885D03*
X006127Y004886D03*
X006127Y004886D03*
X006127Y004888D03*
X006127Y004889D03*
X006127Y004889D03*
X006127Y004890D03*
X006127Y004891D03*
X006127Y004891D03*
X006127Y004893D03*
X006127Y004894D03*
X006127Y004894D03*
X006127Y004895D03*
X006127Y004896D03*
X006127Y004896D03*
X006127Y004898D03*
X006127Y004899D03*
X006127Y004899D03*
X006127Y004900D03*
X006127Y004901D03*
X006127Y004901D03*
X006127Y004903D03*
X006127Y004904D03*
X006127Y004904D03*
X006127Y004905D03*
X006127Y004906D03*
X006127Y004906D03*
X006127Y004908D03*
X006127Y004909D03*
X006127Y004909D03*
X006127Y004910D03*
X006127Y004911D03*
D723*
X006127Y004910D03*
X006127Y004909D03*
X006127Y004908D03*
X006127Y004907D03*
X006127Y004905D03*
X006127Y004904D03*
X006127Y004903D03*
X006127Y004902D03*
X006127Y004900D03*
X006127Y004899D03*
X006127Y004898D03*
X006127Y004897D03*
X006127Y004895D03*
X006127Y004894D03*
X006127Y004893D03*
X006127Y004892D03*
X006127Y004890D03*
X006127Y004889D03*
X006127Y004888D03*
X006127Y004887D03*
X006127Y004885D03*
X006127Y004884D03*
X006127Y004883D03*
X006127Y004882D03*
X006127Y004880D03*
X006127Y004879D03*
X006127Y004878D03*
X006127Y004877D03*
X006127Y004875D03*
X006127Y004745D03*
X006127Y004744D03*
X006127Y004743D03*
X006127Y004742D03*
X006127Y004740D03*
X006127Y004739D03*
X006127Y004738D03*
X006127Y004737D03*
X006127Y004735D03*
X006127Y004734D03*
X006127Y004733D03*
X006127Y004732D03*
X006127Y004730D03*
X006127Y004729D03*
X006127Y004728D03*
X006127Y004727D03*
D724*
X006401Y004746D03*
X006401Y004748D03*
X006401Y004749D03*
X006401Y004749D03*
X006401Y004750D03*
X006401Y004751D03*
X006401Y004751D03*
X006401Y004753D03*
X006401Y004754D03*
X006401Y004754D03*
X006401Y004755D03*
X006401Y004756D03*
X006401Y004756D03*
X006401Y004758D03*
X006401Y004759D03*
X006401Y004759D03*
X006401Y004760D03*
X006401Y004761D03*
X006401Y004761D03*
X006401Y004763D03*
X006401Y004764D03*
X006401Y004764D03*
X006401Y004765D03*
X006401Y004766D03*
X006401Y004766D03*
X006401Y004768D03*
X006401Y004769D03*
X006401Y004769D03*
X006401Y004770D03*
X006401Y004771D03*
X006401Y004771D03*
X006401Y004773D03*
X006401Y004774D03*
X006401Y004774D03*
X006401Y004775D03*
X006401Y004776D03*
X006401Y004776D03*
X006401Y004778D03*
X006401Y004779D03*
X006401Y004779D03*
X006401Y004780D03*
X006401Y004781D03*
X006401Y004781D03*
X006401Y004783D03*
X006401Y004784D03*
X006401Y004784D03*
X006401Y004785D03*
X006401Y004786D03*
X006401Y004786D03*
X006401Y004788D03*
X006401Y004789D03*
X006401Y004789D03*
X006401Y004790D03*
X006401Y004791D03*
X006401Y004791D03*
X006401Y004793D03*
X006401Y004794D03*
X006401Y004794D03*
X006401Y004795D03*
X006401Y004796D03*
X006401Y004796D03*
X006401Y004798D03*
X006401Y004799D03*
X006401Y004799D03*
X006401Y004800D03*
X006401Y004801D03*
X006401Y004801D03*
X006401Y004803D03*
X006401Y004804D03*
X006401Y004804D03*
X006401Y004805D03*
X006401Y004806D03*
X006401Y004806D03*
X006401Y004808D03*
X006401Y004809D03*
X006401Y004809D03*
X006401Y004810D03*
X006401Y004811D03*
X006401Y004811D03*
X006401Y004813D03*
X006401Y004814D03*
X006401Y004814D03*
X006401Y004815D03*
X006401Y004816D03*
X006401Y004816D03*
X006401Y004818D03*
X006401Y004819D03*
X006401Y004819D03*
X006401Y004820D03*
X006401Y004821D03*
X006401Y004821D03*
X006401Y004823D03*
X006401Y004824D03*
X006401Y004824D03*
X006401Y004825D03*
X006401Y004826D03*
X006401Y004826D03*
X006401Y004828D03*
X006401Y004829D03*
X006401Y004829D03*
X006401Y004830D03*
X006401Y004831D03*
X006401Y004831D03*
X006401Y004833D03*
X006401Y004834D03*
X006401Y004834D03*
X006401Y004835D03*
X006401Y004836D03*
X006401Y004836D03*
X006401Y004838D03*
X006401Y004839D03*
X006401Y004839D03*
X006401Y004840D03*
X006401Y004841D03*
X006401Y004841D03*
X006401Y004843D03*
X006401Y004844D03*
X006401Y004844D03*
X006401Y004845D03*
X006401Y004846D03*
X006401Y004846D03*
X006401Y004848D03*
X006401Y004849D03*
X006401Y004849D03*
X006401Y004850D03*
X006401Y004851D03*
X006401Y004851D03*
X006401Y004853D03*
X006401Y004854D03*
X006401Y004854D03*
X006401Y004855D03*
X006401Y004856D03*
X006401Y004856D03*
X006401Y004858D03*
X006401Y004859D03*
X006401Y004859D03*
X006401Y004860D03*
X006401Y004861D03*
X006401Y004861D03*
X006401Y004863D03*
X006401Y004864D03*
X006401Y004864D03*
X006401Y004865D03*
X006401Y004866D03*
X006401Y004866D03*
X006401Y004868D03*
X006401Y004869D03*
X006401Y004869D03*
X006401Y004870D03*
X006401Y004871D03*
X006401Y004871D03*
X006401Y004873D03*
X006401Y004874D03*
X006401Y004874D03*
D725*
X005846Y004874D03*
X005846Y004874D03*
X005846Y004873D03*
X005846Y004871D03*
X005846Y004871D03*
X005846Y004870D03*
X005846Y004869D03*
X005846Y004869D03*
X005846Y004868D03*
X005846Y004866D03*
X005846Y004866D03*
X005846Y004865D03*
X005846Y004864D03*
X005846Y004864D03*
X005846Y004863D03*
X005846Y004861D03*
X005846Y004861D03*
X005846Y004860D03*
X005846Y004859D03*
X005846Y004859D03*
X005846Y004858D03*
X005846Y004856D03*
X005846Y004856D03*
X005846Y004855D03*
X005846Y004854D03*
X005846Y004854D03*
X005846Y004853D03*
X005846Y004851D03*
X005846Y004851D03*
X005846Y004850D03*
X005846Y004849D03*
X005846Y004849D03*
X005846Y004848D03*
X005846Y004846D03*
X005846Y004846D03*
X005846Y004845D03*
X005846Y004844D03*
X005846Y004844D03*
X005846Y004843D03*
X005846Y004841D03*
X005846Y004841D03*
X005846Y004840D03*
X005846Y004839D03*
X005846Y004839D03*
X005846Y004838D03*
X005846Y004836D03*
X005846Y004836D03*
X005846Y004835D03*
X005846Y004834D03*
X005846Y004834D03*
X005846Y004833D03*
X005846Y004831D03*
X005846Y004831D03*
X005846Y004830D03*
X005846Y004829D03*
X005846Y004829D03*
X005846Y004828D03*
X005846Y004826D03*
X005846Y004826D03*
X005846Y004825D03*
X005846Y004824D03*
X005846Y004824D03*
X005846Y004823D03*
X005846Y004821D03*
X005846Y004821D03*
X005846Y004820D03*
X005846Y004819D03*
X005846Y004819D03*
X005846Y004818D03*
X005846Y004816D03*
X005846Y004816D03*
X005846Y004815D03*
X005846Y004814D03*
X005846Y004814D03*
X005846Y004813D03*
X005846Y004811D03*
X005846Y004811D03*
X005846Y004810D03*
X005846Y004809D03*
X005846Y004809D03*
X005846Y004808D03*
X005846Y004806D03*
X005846Y004806D03*
X005846Y004805D03*
X005846Y004804D03*
X005846Y004804D03*
X005846Y004803D03*
X005846Y004801D03*
X005846Y004801D03*
X005846Y004800D03*
X005846Y004799D03*
X005846Y004799D03*
X005846Y004798D03*
X005846Y004796D03*
X005846Y004796D03*
X005846Y004795D03*
X005846Y004794D03*
X005846Y004794D03*
X005846Y004793D03*
X005846Y004791D03*
X005846Y004791D03*
X005846Y004790D03*
X005846Y004789D03*
X005846Y004789D03*
X005846Y004788D03*
X005846Y004786D03*
X005846Y004786D03*
X005846Y004785D03*
X005846Y004784D03*
X005846Y004784D03*
X005846Y004783D03*
X005846Y004781D03*
X005846Y004781D03*
X005846Y004780D03*
X005846Y004779D03*
X005846Y004779D03*
X005846Y004778D03*
X005846Y004776D03*
X005846Y004776D03*
X005846Y004775D03*
X005846Y004774D03*
X005846Y004774D03*
X005846Y004773D03*
X005846Y004771D03*
X005846Y004771D03*
X005846Y004770D03*
X005846Y004769D03*
X005846Y004769D03*
X005846Y004768D03*
X005846Y004766D03*
X005846Y004766D03*
X005846Y004765D03*
X005846Y004764D03*
X005846Y004764D03*
X005846Y004763D03*
X005846Y004761D03*
X005846Y004761D03*
X005846Y004760D03*
X005846Y004759D03*
X005846Y004759D03*
X005846Y004758D03*
X005846Y004756D03*
X005846Y004756D03*
X005846Y004755D03*
X005846Y004754D03*
X005846Y004754D03*
X005846Y004753D03*
X005846Y004751D03*
X005846Y004751D03*
X005846Y004750D03*
X005846Y004749D03*
X005846Y004749D03*
X005846Y004748D03*
X005846Y004746D03*
D726*
X006401Y004747D03*
X006401Y004748D03*
X006401Y004749D03*
X006401Y004750D03*
X006401Y004752D03*
X006401Y004753D03*
X006401Y004754D03*
X006401Y004755D03*
X006401Y004757D03*
X006401Y004758D03*
X006401Y004759D03*
X006401Y004760D03*
X006401Y004762D03*
X006401Y004763D03*
X006401Y004764D03*
X006401Y004765D03*
X006401Y004767D03*
X006401Y004768D03*
X006401Y004769D03*
X006401Y004770D03*
X006401Y004772D03*
X006401Y004773D03*
X006401Y004774D03*
X006401Y004775D03*
X006401Y004777D03*
X006401Y004778D03*
X006401Y004779D03*
X006401Y004780D03*
X006401Y004782D03*
X006401Y004783D03*
X006401Y004784D03*
X006401Y004785D03*
X006401Y004787D03*
X006401Y004788D03*
X006401Y004789D03*
X006401Y004790D03*
X006401Y004792D03*
X006401Y004793D03*
X006401Y004794D03*
X006401Y004795D03*
X006401Y004797D03*
X006401Y004798D03*
X006401Y004799D03*
X006401Y004800D03*
X006401Y004802D03*
X006401Y004803D03*
X006401Y004804D03*
X006401Y004805D03*
X006401Y004807D03*
X006401Y004808D03*
X006401Y004809D03*
X006401Y004810D03*
X006401Y004812D03*
X006401Y004813D03*
X006401Y004814D03*
X006401Y004815D03*
X006401Y004817D03*
X006401Y004818D03*
X006401Y004819D03*
X006401Y004820D03*
X006401Y004822D03*
X006401Y004823D03*
X006401Y004824D03*
X006401Y004825D03*
X006401Y004827D03*
X006401Y004828D03*
X006401Y004829D03*
X006401Y004830D03*
X006401Y004832D03*
X006401Y004833D03*
X006401Y004834D03*
X006401Y004835D03*
X006401Y004837D03*
X006401Y004838D03*
X006401Y004839D03*
X006401Y004840D03*
X006401Y004842D03*
X006401Y004843D03*
X006401Y004844D03*
X006401Y004845D03*
X006401Y004847D03*
X006401Y004848D03*
X006401Y004849D03*
X006401Y004850D03*
X006401Y004852D03*
X006401Y004853D03*
X006401Y004854D03*
X006401Y004855D03*
X006401Y004857D03*
X006401Y004858D03*
X006401Y004859D03*
X006401Y004860D03*
X006401Y004862D03*
X006401Y004863D03*
X006401Y004864D03*
X006401Y004865D03*
X006401Y004867D03*
X006401Y004868D03*
X006401Y004869D03*
X006401Y004870D03*
X006401Y004872D03*
X006401Y004873D03*
X006401Y004874D03*
D727*
X005846Y004874D03*
X005846Y004873D03*
X005846Y004872D03*
X005846Y004870D03*
X005846Y004869D03*
X005846Y004868D03*
X005846Y004867D03*
X005846Y004865D03*
X005846Y004864D03*
X005846Y004863D03*
X005846Y004862D03*
X005846Y004860D03*
X005846Y004859D03*
X005846Y004858D03*
X005846Y004857D03*
X005846Y004855D03*
X005846Y004854D03*
X005846Y004853D03*
X005846Y004852D03*
X005846Y004850D03*
X005846Y004849D03*
X005846Y004848D03*
X005846Y004847D03*
X005846Y004845D03*
X005846Y004844D03*
X005846Y004843D03*
X005846Y004842D03*
X005846Y004840D03*
X005846Y004839D03*
X005846Y004838D03*
X005846Y004837D03*
X005846Y004835D03*
X005846Y004834D03*
X005846Y004833D03*
X005846Y004832D03*
X005846Y004830D03*
X005846Y004829D03*
X005846Y004828D03*
X005846Y004827D03*
X005846Y004825D03*
X005846Y004824D03*
X005846Y004823D03*
X005846Y004822D03*
X005846Y004820D03*
X005846Y004819D03*
X005846Y004818D03*
X005846Y004817D03*
X005846Y004815D03*
X005846Y004814D03*
X005846Y004813D03*
X005846Y004812D03*
X005846Y004810D03*
X005846Y004809D03*
X005846Y004808D03*
X005846Y004807D03*
X005846Y004805D03*
X005846Y004804D03*
X005846Y004803D03*
X005846Y004802D03*
X005846Y004800D03*
X005846Y004799D03*
X005846Y004798D03*
X005846Y004797D03*
X005846Y004795D03*
X005846Y004794D03*
X005846Y004793D03*
X005846Y004792D03*
X005846Y004790D03*
X005846Y004789D03*
X005846Y004788D03*
X005846Y004787D03*
X005846Y004785D03*
X005846Y004784D03*
X005846Y004783D03*
X005846Y004782D03*
X005846Y004780D03*
X005846Y004779D03*
X005846Y004778D03*
X005846Y004777D03*
X005846Y004775D03*
X005846Y004774D03*
X005846Y004773D03*
X005846Y004772D03*
X005846Y004770D03*
X005846Y004769D03*
X005846Y004768D03*
X005846Y004767D03*
X005846Y004765D03*
X005846Y004764D03*
X005846Y004763D03*
X005846Y004762D03*
X005846Y004760D03*
X005846Y004759D03*
X005846Y004758D03*
X005846Y004757D03*
X005846Y004755D03*
X005846Y004754D03*
X005846Y004753D03*
X005846Y004752D03*
X005846Y004750D03*
X005846Y004749D03*
X005846Y004748D03*
X005846Y004747D03*
D728*
X006128Y004911D03*
D729*
X006128Y004912D03*
D730*
X006127Y004913D03*
X006127Y004914D03*
X006127Y004914D03*
X006127Y004915D03*
D731*
X006127Y004915D03*
X006127Y004914D03*
X006127Y004913D03*
D732*
X006127Y004916D03*
D733*
X006127Y004916D03*
X006127Y004918D03*
X006127Y004919D03*
D734*
X006127Y004918D03*
X006127Y004917D03*
D735*
X006127Y004919D03*
D736*
X006127Y004919D03*
D737*
X006127Y004920D03*
X006127Y004921D03*
X006127Y004921D03*
D738*
X006127Y004920D03*
D739*
X006127Y004922D03*
D740*
X006127Y004923D03*
D741*
X006127Y004923D03*
D742*
X006127Y004924D03*
X006127Y004924D03*
D743*
X006127Y004924D03*
D744*
X006127Y004925D03*
D745*
X006127Y004925D03*
D746*
X006127Y004926D03*
X006127Y004926D03*
D747*
X006127Y004927D03*
D748*
X006127Y004928D03*
D749*
X006127Y004928D03*
D750*
X006127Y004929D03*
X006127Y004929D03*
D751*
X006127Y004929D03*
D752*
X006127Y004930D03*
X006127Y004931D03*
X006127Y004931D03*
D753*
X006127Y004930D03*
D754*
X006127Y004932D03*
X006127Y004933D03*
D755*
X006127Y004933D03*
X006127Y004934D03*
D756*
X006127Y004934D03*
X006127Y004935D03*
D757*
X006127Y004935D03*
X006127Y004934D03*
D758*
X006127Y004936D03*
X006127Y004936D03*
X006127Y004938D03*
D759*
X006127Y004937D03*
D760*
X006127Y004938D03*
X006127Y004939D03*
D761*
X006127Y004939D03*
X006127Y004939D03*
D762*
X006127Y004940D03*
X006127Y004941D03*
D763*
X006127Y004940D03*
D764*
X006128Y004941D03*
D765*
X006127Y004942D03*
D766*
X006127Y004943D03*
D767*
X006128Y004943D03*
D768*
X006127Y004944D03*
X006127Y004944D03*
D769*
X006127Y004944D03*
D770*
X006128Y004945D03*
D771*
X006127Y004945D03*
D772*
X006127Y004946D03*
D773*
X006128Y004946D03*
D774*
X006127Y004947D03*
D775*
X006127Y004948D03*
D776*
X006128Y004948D03*
D777*
X006127Y004949D03*
X006127Y004949D03*
D778*
X006128Y004949D03*
D779*
X006127Y004950D03*
D780*
X006128Y004950D03*
D781*
X006127Y004951D03*
X006127Y004951D03*
D782*
X006128Y004952D03*
D783*
X006127Y004953D03*
D784*
X006127Y004953D03*
D785*
X006128Y004954D03*
D786*
X006127Y004954D03*
D787*
X006128Y004954D03*
D788*
X006127Y004955D03*
D789*
X006127Y004955D03*
D790*
X006128Y004956D03*
D791*
X006127Y004956D03*
D792*
X006128Y004957D03*
D793*
X006128Y004958D03*
D794*
X006128Y004958D03*
D795*
X006127Y004959D03*
D796*
X006127Y004959D03*
D797*
X006127Y004959D03*
D798*
X006127Y004960D03*
D799*
X006127Y004960D03*
D800*
X006127Y004961D03*
D801*
X006127Y004961D03*
D802*
X006127Y004962D03*
D803*
X006127Y004963D03*
D804*
X006127Y004963D03*
D805*
X006127Y004964D03*
D806*
X006127Y004964D03*
D807*
X006127Y004964D03*
D808*
X006127Y004965D03*
D809*
X006127Y004965D03*
D810*
X006127Y004966D03*
D811*
X006127Y004966D03*
D812*
X006127Y004967D03*
D813*
X006127Y004968D03*
D814*
X006127Y004968D03*
D815*
X006127Y004969D03*
D816*
X006127Y004969D03*
D817*
X006127Y004969D03*
D818*
X006127Y004970D03*
D819*
X006127Y004970D03*
D820*
X006127Y004971D03*
D821*
X006127Y004971D03*
D822*
X006127Y004972D03*
D823*
X006127Y004973D03*
D824*
X006127Y004973D03*
D825*
X006127Y004974D03*
D826*
X006127Y004974D03*
D827*
X006128Y004974D03*
D828*
X006128Y004975D03*
D829*
X006128Y004975D03*
D830*
X006128Y004976D03*
D831*
X006128Y004976D03*
D832*
X006128Y004977D03*
D833*
X006128Y004978D03*
D834*
X006128Y004978D03*
D835*
X006128Y004979D03*
D836*
X006128Y004979D03*
D837*
X006128Y004979D03*
D838*
X006128Y004980D03*
D839*
X006128Y004980D03*
D840*
X006128Y004981D03*
D841*
X006128Y004981D03*
D842*
X006128Y004982D03*
D843*
X006128Y004983D03*
D844*
X006127Y004983D03*
D845*
X006127Y004984D03*
D846*
X006127Y004984D03*
D847*
X006127Y004984D03*
D848*
X006127Y004985D03*
D849*
X006127Y004985D03*
D850*
X006127Y004986D03*
D851*
X006127Y004986D03*
D852*
X006127Y004987D03*
D853*
X006127Y004988D03*
D854*
X006127Y004988D03*
D855*
X006127Y004989D03*
D856*
X006127Y004989D03*
D857*
X006127Y004989D03*
D858*
X006127Y004990D03*
D859*
X006127Y004990D03*
D860*
X006127Y004991D03*
D861*
X006127Y004991D03*
D862*
X006127Y004992D03*
D863*
X006127Y004993D03*
D864*
X006127Y004993D03*
D865*
X006127Y004994D03*
D866*
X006127Y004994D03*
D867*
X006127Y004994D03*
D868*
X006127Y004995D03*
D869*
X006127Y004995D03*
D870*
X006127Y004996D03*
D871*
X006127Y004996D03*
D872*
X006127Y004997D03*
D873*
X006127Y004998D03*
D874*
X006127Y004998D03*
D875*
X006127Y004999D03*
D876*
X006128Y004999D03*
D877*
X006128Y004999D03*
D878*
X006128Y005000D03*
D879*
X006128Y005000D03*
D880*
X006128Y005001D03*
D881*
X006128Y005001D03*
D882*
X006128Y005002D03*
D883*
X006128Y005003D03*
D884*
X006128Y005003D03*
D885*
X006128Y005004D03*
D886*
X006128Y005004D03*
D887*
X006128Y005004D03*
D888*
X006128Y005005D03*
D889*
X006128Y005005D03*
D890*
X006128Y005006D03*
D891*
X006128Y005006D03*
D892*
X006128Y005007D03*
D893*
X006127Y005008D03*
D894*
X006127Y005008D03*
D895*
X006127Y005009D03*
D896*
X006127Y005009D03*
D897*
X006127Y005009D03*
D898*
X006127Y005010D03*
D899*
X006127Y005010D03*
D900*
X006127Y005011D03*
D901*
X006127Y005011D03*
D902*
X006127Y005012D03*
D903*
X006127Y005013D03*
D904*
X006127Y005013D03*
D905*
X006127Y005014D03*
D906*
X006127Y005014D03*
D907*
X006127Y005014D03*
D908*
X006127Y005015D03*
D909*
X006127Y005015D03*
D910*
X006127Y005016D03*
D911*
X006127Y005016D03*
D912*
X006127Y005017D03*
D913*
X006127Y005018D03*
D914*
X006127Y005018D03*
D915*
X006127Y005019D03*
D916*
X006127Y005019D03*
D917*
X006127Y005019D03*
D918*
X006127Y005020D03*
D919*
X006127Y005020D03*
D920*
X006127Y005021D03*
D921*
X006127Y005021D03*
D922*
X006127Y005022D03*
D923*
X006127Y005023D03*
D924*
X006127Y005023D03*
D925*
X006127Y005024D03*
D926*
X006128Y005024D03*
D927*
X006128Y005024D03*
D928*
X006128Y005025D03*
D929*
X006128Y005025D03*
D930*
X006128Y005026D03*
D931*
X006128Y005026D03*
D932*
X006128Y005027D03*
D933*
X006128Y005028D03*
D934*
X006128Y005028D03*
D935*
X006128Y005029D03*
D936*
X006128Y005029D03*
D937*
X006128Y005029D03*
D938*
X006128Y005030D03*
D939*
X006128Y005030D03*
D940*
X006128Y005031D03*
D941*
X006127Y005031D03*
D942*
X006127Y005032D03*
D943*
X006127Y005033D03*
D944*
X006127Y005033D03*
D945*
X006127Y005034D03*
D946*
X006127Y005034D03*
D947*
X006127Y005034D03*
D948*
X006127Y005035D03*
D949*
X006127Y005035D03*
D950*
X006127Y005036D03*
D951*
X006127Y005036D03*
D952*
X006127Y005037D03*
D953*
X006127Y005038D03*
D954*
X006127Y005038D03*
D955*
X006127Y005039D03*
D956*
X006127Y005039D03*
D957*
X006127Y005039D03*
D958*
X006127Y005040D03*
D959*
X006127Y005040D03*
D960*
X006127Y005041D03*
D961*
X006127Y005041D03*
D962*
X006127Y005042D03*
D963*
X006127Y005043D03*
D964*
X006127Y005043D03*
D965*
X006127Y005044D03*
D966*
X006127Y005044D03*
D967*
X006127Y005044D03*
D968*
X006127Y005045D03*
D969*
X006127Y005045D03*
D970*
X006127Y005046D03*
D971*
X006127Y005046D03*
D972*
X006127Y005047D03*
D973*
X006127Y005048D03*
D974*
X006127Y005048D03*
D975*
X006128Y005049D03*
D976*
X006128Y005049D03*
D977*
X006128Y005049D03*
D978*
X006128Y005050D03*
D979*
X006128Y005050D03*
D980*
X006128Y005051D03*
D981*
X006128Y005051D03*
D982*
X006128Y005052D03*
D983*
X006128Y005053D03*
D984*
X006128Y005053D03*
D985*
X006128Y005054D03*
D986*
X006128Y005054D03*
D987*
X006128Y005054D03*
D988*
X006128Y005055D03*
D989*
X006128Y005055D03*
D990*
X006127Y005056D03*
D991*
X006127Y005056D03*
D992*
X006127Y005057D03*
D993*
X006127Y005058D03*
D994*
X006127Y005058D03*
D995*
X006127Y005059D03*
D996*
X006127Y005059D03*
D997*
X006127Y005059D03*
D998*
X006127Y005060D03*
D999*
X006127Y005060D03*
D1000*
X006127Y005061D03*
D1001*
X006127Y005061D03*
D1002*
X006127Y005062D03*
D1003*
X006127Y005063D03*
D1004*
X006127Y005063D03*
D1005*
X006127Y005064D03*
D1006*
X006127Y005064D03*
D1007*
X006127Y005064D03*
D1008*
X006127Y005065D03*
D1009*
X006127Y005065D03*
D1010*
X006127Y005066D03*
D1011*
X006127Y005066D03*
D1012*
X006127Y005067D03*
D1013*
X006127Y005068D03*
D1014*
X006127Y005068D03*
D1015*
X006127Y005069D03*
D1016*
X006127Y005069D03*
D1017*
X006127Y005069D03*
D1018*
X006127Y005070D03*
D1019*
X006127Y005070D03*
D1020*
X006127Y005071D03*
D1021*
X006127Y005071D03*
D1022*
X006127Y005072D03*
D1023*
X006127Y005073D03*
D1024*
X006128Y005073D03*
D1025*
X006128Y005074D03*
D1026*
X006128Y005074D03*
D1027*
X006128Y005074D03*
D1028*
X006128Y005075D03*
D1029*
X006128Y005075D03*
D1030*
X006128Y005076D03*
D1031*
X006128Y005076D03*
D1032*
X006128Y005077D03*
D1033*
X006128Y005078D03*
D1034*
X006128Y005078D03*
D1035*
X006128Y005079D03*
D1036*
X006128Y005079D03*
D1037*
X006128Y005079D03*
D1038*
X006128Y005080D03*
D1039*
X006127Y005080D03*
D1040*
X006127Y005081D03*
D1041*
X006127Y005081D03*
D1042*
X006127Y005082D03*
D1043*
X006127Y005083D03*
D1044*
X006127Y005083D03*
D1045*
X006127Y005084D03*
D1046*
X006127Y005084D03*
D1047*
X006127Y005084D03*
D1048*
X006127Y005085D03*
D1049*
X006127Y005085D03*
D1050*
X006127Y005086D03*
D1051*
X006127Y005086D03*
D1052*
X006127Y005087D03*
D1053*
X006127Y005088D03*
D1054*
X006127Y005088D03*
D1055*
X006127Y005089D03*
D1056*
X006127Y005089D03*
D1057*
X006127Y005089D03*
D1058*
X006127Y005090D03*
D1059*
X006127Y005090D03*
D1060*
X006127Y005091D03*
D1061*
X006128Y005091D03*
D1062*
X006127Y005092D03*
D1063*
X006127Y005093D03*
D1064*
X006127Y005093D03*
D1065*
X006127Y005094D03*
D1066*
X006127Y005094D03*
D1067*
X006128Y005094D03*
D1068*
X006128Y005095D03*
D1069*
X006128Y005095D03*
D1070*
X006128Y005096D03*
D1071*
X006128Y005096D03*
D1072*
X006128Y005097D03*
D1073*
X006128Y005098D03*
D1074*
X006128Y005098D03*
D1075*
X006128Y005099D03*
D1076*
X006128Y005099D03*
D1077*
X006128Y005099D03*
D1078*
X006128Y005100D03*
D1079*
X006128Y005100D03*
D1080*
X006128Y005101D03*
D1081*
X006128Y005101D03*
D1082*
X006631Y004048D02*
X006630Y004048D01*
X006630Y004048D01*
X006631Y004048D01*
X006631Y004048D01*
X006631Y004047D01*
X006631Y004048D02*
X006631Y004048D01*
X006631Y004048D01*
X006632Y004048D01*
X006632Y004048D01*
X006632Y004048D01*
X006632Y004048D01*
X006632Y004048D01*
X006632Y004048D01*
X006632Y004048D01*
X006632Y004048D01*
X006632Y004048D01*
X006633Y004048D01*
X006633Y004048D01*
X006633Y004048D01*
X006632Y004048D01*
X006633Y004049D02*
X006633Y004048D01*
X006633Y004048D01*
X006633Y004048D01*
X006634Y004048D02*
X006634Y004048D01*
X006634Y004048D01*
X006634Y004048D01*
X006634Y004048D01*
X006634Y004048D01*
X006634Y004048D01*
X006634Y004048D01*
X006634Y004048D01*
X006635Y004048D02*
X006635Y004048D01*
X006635Y004048D01*
X006635Y004048D01*
X006635Y004047D01*
X006635Y004047D01*
X006635Y004047D01*
X006635Y004048D02*
X006635Y004048D01*
X006635Y004048D01*
X006636Y004048D02*
X006636Y004048D01*
X006636Y004048D01*
X006636Y004048D01*
X006636Y004048D01*
X006636Y004048D01*
X006636Y004048D01*
X006636Y004048D01*
X006636Y004048D01*
X006637Y004048D01*
X006637Y004049D02*
X006637Y004049D01*
X006637Y004048D01*
X006638Y004047D02*
X006637Y004047D01*
X006638Y004048D02*
X006638Y004048D01*
X006638Y004048D01*
X006638Y004048D01*
X006638Y004049D02*
X006638Y004049D01*
X006639Y004048D02*
X006639Y004048D01*
X006639Y004048D01*
X006639Y004048D01*
X006639Y004048D01*
X006639Y004048D01*
X006639Y004048D01*
X006639Y004048D01*
X006640Y004048D02*
X006640Y004049D01*
X006641Y004048D02*
X006641Y004048D01*
X006641Y004048D01*
X006641Y004048D01*
X006641Y004048D01*
X006642Y004048D01*
X006642Y004048D01*
X006642Y004048D01*
X006643Y004048D01*
X006643Y004048D01*
X006643Y004048D01*
X006642Y004048D01*
X006642Y004048D01*
X006642Y004048D01*
X006642Y004048D01*
X006641Y004048D01*
X006640Y004048D01*
X006640Y004048D01*
X006641Y004048D01*
X006641Y004048D01*
X006642Y004048D02*
X006643Y004048D01*
X006643Y004048D01*
X006644Y004048D01*
X006644Y004048D01*
X006644Y004048D01*
X006643Y004048D01*
X006643Y004049D02*
X006643Y004049D01*
X006645Y004048D02*
X006645Y004049D01*
X006646Y004048D02*
X006646Y004048D01*
X006646Y004048D01*
X006646Y004048D01*
X006646Y004048D01*
X006646Y004048D01*
X006646Y004048D01*
X006646Y004048D01*
X006646Y004048D01*
X006647Y004048D02*
X006647Y004048D01*
X006647Y004048D01*
X006647Y004048D01*
X006647Y004048D01*
X006647Y004048D01*
X006647Y004048D01*
X006647Y004048D01*
X006648Y004048D01*
X006648Y004048D01*
X006648Y004048D01*
X006648Y004048D01*
X006648Y004048D01*
X006648Y004048D01*
X006649Y004048D01*
X006649Y004048D01*
X006649Y004048D01*
X006649Y004049D01*
X006650Y004048D01*
X006648Y004048D02*
X006648Y004048D01*
X006647Y004048D02*
X006647Y004048D01*
X006648Y004048D01*
M02*
