G75*
%MOIN*%
%OFA0B0*%
%FSLAX24Y24*%
%IPPOS*%
%LPD*%
%AMOC8*
5,1,8,0,0,1.08239X$1,22.5*
%
%ADD10C,0.0010*%
%ADD11R,0.0870X0.0240*%
%ADD12R,0.0157X0.0551*%
%ADD13R,0.0709X0.0709*%
%ADD14C,0.0476*%
%ADD15C,0.0787*%
%ADD16R,0.0709X0.0394*%
%ADD17R,0.0315X0.0315*%
%ADD18R,0.0110X0.0335*%
%ADD19R,0.0945X0.0650*%
%ADD20R,0.0276X0.0110*%
%ADD21R,0.0327X0.0248*%
%ADD22R,0.0394X0.0551*%
%ADD23R,0.0236X0.0315*%
%ADD24R,0.0433X0.0394*%
%ADD25R,0.0276X0.0354*%
%ADD26R,0.0354X0.0276*%
%ADD27R,0.0250X0.0500*%
%ADD28C,0.1266*%
%ADD29C,0.0120*%
%ADD30R,0.0394X0.1811*%
%ADD31R,0.0630X0.1260*%
%ADD32C,0.0100*%
%ADD33C,0.0140*%
%ADD34C,0.0400*%
%ADD35C,0.0160*%
%ADD36C,0.0240*%
D10*
X000150Y006150D02*
X000152Y006304D01*
X000158Y006459D01*
X000168Y006613D01*
X000182Y006767D01*
X000200Y006920D01*
X000221Y007073D01*
X000247Y007226D01*
X000277Y007377D01*
X000310Y007528D01*
X000348Y007678D01*
X000389Y007827D01*
X000434Y007975D01*
X000483Y008121D01*
X000536Y008267D01*
X000592Y008410D01*
X000652Y008553D01*
X000716Y008693D01*
X000783Y008833D01*
X000854Y008970D01*
X000928Y009105D01*
X001006Y009239D01*
X001087Y009370D01*
X001172Y009499D01*
X001260Y009627D01*
X001351Y009751D01*
X001445Y009874D01*
X001543Y009994D01*
X001643Y010111D01*
X001747Y010226D01*
X001853Y010338D01*
X001962Y010447D01*
X002074Y010553D01*
X002189Y010657D01*
X002306Y010757D01*
X002426Y010855D01*
X002549Y010949D01*
X002673Y011040D01*
X002801Y011128D01*
X002930Y011213D01*
X003061Y011294D01*
X003195Y011372D01*
X003330Y011446D01*
X003467Y011517D01*
X003607Y011584D01*
X003747Y011648D01*
X003890Y011708D01*
X004033Y011764D01*
X004179Y011817D01*
X004325Y011866D01*
X004473Y011911D01*
X004622Y011952D01*
X004772Y011990D01*
X004923Y012023D01*
X005074Y012053D01*
X005227Y012079D01*
X005380Y012100D01*
X005533Y012118D01*
X005687Y012132D01*
X005841Y012142D01*
X005996Y012148D01*
X006150Y012150D01*
X006304Y012148D01*
X006459Y012142D01*
X006613Y012132D01*
X006767Y012118D01*
X006920Y012100D01*
X007073Y012079D01*
X007226Y012053D01*
X007377Y012023D01*
X007528Y011990D01*
X007678Y011952D01*
X007827Y011911D01*
X007975Y011866D01*
X008121Y011817D01*
X008267Y011764D01*
X008410Y011708D01*
X008553Y011648D01*
X008693Y011584D01*
X008833Y011517D01*
X008970Y011446D01*
X009105Y011372D01*
X009239Y011294D01*
X009370Y011213D01*
X009499Y011128D01*
X009627Y011040D01*
X009751Y010949D01*
X009874Y010855D01*
X009994Y010757D01*
X010111Y010657D01*
X010226Y010553D01*
X010338Y010447D01*
X010447Y010338D01*
X010553Y010226D01*
X010657Y010111D01*
X010757Y009994D01*
X010855Y009874D01*
X010949Y009751D01*
X011040Y009627D01*
X011128Y009499D01*
X011213Y009370D01*
X011294Y009239D01*
X011372Y009105D01*
X011446Y008970D01*
X011517Y008833D01*
X011584Y008693D01*
X011648Y008553D01*
X011708Y008410D01*
X011764Y008267D01*
X011817Y008121D01*
X011866Y007975D01*
X011911Y007827D01*
X011952Y007678D01*
X011990Y007528D01*
X012023Y007377D01*
X012053Y007226D01*
X012079Y007073D01*
X012100Y006920D01*
X012118Y006767D01*
X012132Y006613D01*
X012142Y006459D01*
X012148Y006304D01*
X012150Y006150D01*
X012148Y005996D01*
X012142Y005841D01*
X012132Y005687D01*
X012118Y005533D01*
X012100Y005380D01*
X012079Y005227D01*
X012053Y005074D01*
X012023Y004923D01*
X011990Y004772D01*
X011952Y004622D01*
X011911Y004473D01*
X011866Y004325D01*
X011817Y004179D01*
X011764Y004033D01*
X011708Y003890D01*
X011648Y003747D01*
X011584Y003607D01*
X011517Y003467D01*
X011446Y003330D01*
X011372Y003195D01*
X011294Y003061D01*
X011213Y002930D01*
X011128Y002801D01*
X011040Y002673D01*
X010949Y002549D01*
X010855Y002426D01*
X010757Y002306D01*
X010657Y002189D01*
X010553Y002074D01*
X010447Y001962D01*
X010338Y001853D01*
X010226Y001747D01*
X010111Y001643D01*
X009994Y001543D01*
X009874Y001445D01*
X009751Y001351D01*
X009627Y001260D01*
X009499Y001172D01*
X009370Y001087D01*
X009239Y001006D01*
X009105Y000928D01*
X008970Y000854D01*
X008833Y000783D01*
X008693Y000716D01*
X008553Y000652D01*
X008410Y000592D01*
X008267Y000536D01*
X008121Y000483D01*
X007975Y000434D01*
X007827Y000389D01*
X007678Y000348D01*
X007528Y000310D01*
X007377Y000277D01*
X007226Y000247D01*
X007073Y000221D01*
X006920Y000200D01*
X006767Y000182D01*
X006613Y000168D01*
X006459Y000158D01*
X006304Y000152D01*
X006150Y000150D01*
X005996Y000152D01*
X005841Y000158D01*
X005687Y000168D01*
X005533Y000182D01*
X005380Y000200D01*
X005227Y000221D01*
X005074Y000247D01*
X004923Y000277D01*
X004772Y000310D01*
X004622Y000348D01*
X004473Y000389D01*
X004325Y000434D01*
X004179Y000483D01*
X004033Y000536D01*
X003890Y000592D01*
X003747Y000652D01*
X003607Y000716D01*
X003467Y000783D01*
X003330Y000854D01*
X003195Y000928D01*
X003061Y001006D01*
X002930Y001087D01*
X002801Y001172D01*
X002673Y001260D01*
X002549Y001351D01*
X002426Y001445D01*
X002306Y001543D01*
X002189Y001643D01*
X002074Y001747D01*
X001962Y001853D01*
X001853Y001962D01*
X001747Y002074D01*
X001643Y002189D01*
X001543Y002306D01*
X001445Y002426D01*
X001351Y002549D01*
X001260Y002673D01*
X001172Y002801D01*
X001087Y002930D01*
X001006Y003061D01*
X000928Y003195D01*
X000854Y003330D01*
X000783Y003467D01*
X000716Y003607D01*
X000652Y003747D01*
X000592Y003890D01*
X000536Y004033D01*
X000483Y004179D01*
X000434Y004325D01*
X000389Y004473D01*
X000348Y004622D01*
X000310Y004772D01*
X000277Y004923D01*
X000247Y005074D01*
X000221Y005227D01*
X000200Y005380D01*
X000182Y005533D01*
X000168Y005687D01*
X000158Y005841D01*
X000152Y005996D01*
X000150Y006150D01*
D11*
X004830Y005900D03*
X004830Y005400D03*
X004830Y006400D03*
X004830Y006900D03*
X007480Y006900D03*
X007480Y006400D03*
X007480Y005900D03*
X007480Y005400D03*
D12*
X006662Y010357D03*
X006406Y010357D03*
X006150Y010357D03*
X005894Y010357D03*
X005638Y010357D03*
D13*
X005697Y011400D03*
X006603Y011400D03*
D14*
X007105Y010298D03*
X005195Y010298D03*
D15*
X004729Y011400D03*
X007571Y011400D03*
D16*
X008425Y008651D03*
X008425Y007549D03*
D17*
X008475Y006245D03*
X008475Y005655D03*
X004000Y005855D03*
X004000Y006445D03*
D18*
X004044Y007415D03*
X003847Y007415D03*
X003650Y007415D03*
X003453Y007415D03*
X003256Y007415D03*
X003256Y008635D03*
X003453Y008635D03*
X003650Y008635D03*
X003847Y008635D03*
X004044Y008635D03*
D19*
X003650Y008025D03*
D20*
X003040Y007927D03*
X003040Y008123D03*
X004260Y008123D03*
X004260Y007927D03*
D21*
X005325Y008122D03*
X005325Y009028D03*
X007125Y009078D03*
X007125Y008172D03*
D22*
X004350Y004133D03*
X003976Y003267D03*
X004724Y003267D03*
D23*
X008450Y003883D03*
X008450Y004317D03*
D24*
X003735Y009225D03*
X003065Y009225D03*
D25*
X004769Y007650D03*
X005281Y007650D03*
X003956Y006950D03*
X003444Y006950D03*
X005119Y009525D03*
X005631Y009525D03*
X006944Y009500D03*
X007456Y009500D03*
X007431Y007650D03*
X006919Y007650D03*
D26*
X006488Y008419D03*
X006013Y008419D03*
X006013Y008931D03*
X006488Y008931D03*
X009000Y006156D03*
X009000Y005644D03*
X003400Y005456D03*
X002900Y005456D03*
X002400Y005456D03*
X002400Y004944D03*
X002900Y004944D03*
X003400Y004944D03*
X002850Y006994D03*
X002400Y006994D03*
X002400Y007506D03*
X002850Y007506D03*
D27*
X003198Y004113D03*
X003552Y004113D03*
D28*
X001650Y003550D03*
X003550Y001650D03*
X000963Y006150D03*
X001650Y008750D03*
X003550Y010650D03*
X008750Y010650D03*
X010650Y008750D03*
X011338Y006150D03*
X010650Y003550D03*
X008750Y001650D03*
D29*
X008159Y002183D02*
X008248Y002270D01*
X008350Y002343D01*
X008463Y002400D01*
X008583Y002438D01*
X008708Y002456D01*
X008835Y002453D01*
X008959Y002431D01*
X009078Y002388D01*
X009189Y002327D01*
X009288Y002249D01*
X009374Y002156D01*
X009443Y002050D01*
X009886Y001382D01*
X008414Y000532D01*
X008057Y001250D01*
X008005Y001364D01*
X007972Y001484D01*
X007957Y001608D01*
X007961Y001733D01*
X007984Y001855D01*
X008025Y001973D01*
X008084Y002083D01*
X008159Y002183D01*
X008145Y002165D02*
X009365Y002165D01*
X009445Y002046D02*
X008064Y002046D01*
X008009Y001928D02*
X009524Y001928D01*
X009603Y001809D02*
X007975Y001809D01*
X007959Y001691D02*
X009681Y001691D01*
X009760Y001572D02*
X007961Y001572D01*
X007980Y001454D02*
X009839Y001454D01*
X009804Y001335D02*
X008019Y001335D01*
X008074Y001217D02*
X009599Y001217D01*
X009394Y001098D02*
X008133Y001098D01*
X008192Y000980D02*
X009189Y000980D01*
X008983Y000861D02*
X008250Y000861D01*
X008309Y000743D02*
X008778Y000743D01*
X008573Y000624D02*
X008368Y000624D01*
X008266Y002283D02*
X009245Y002283D01*
X009041Y002402D02*
X008469Y002402D01*
X009925Y003227D02*
X009984Y003117D01*
X010059Y003017D01*
X010148Y002930D01*
X010250Y002857D01*
X010918Y002414D01*
X011768Y003886D01*
X011050Y004243D01*
X010937Y004300D01*
X010817Y004338D01*
X010692Y004356D01*
X010565Y004353D01*
X010441Y004331D01*
X010322Y004288D01*
X010211Y004227D01*
X010112Y004149D01*
X010026Y004056D01*
X009957Y003950D01*
X009905Y003836D01*
X009872Y003716D01*
X009857Y003592D01*
X009861Y003467D01*
X009884Y003345D01*
X009925Y003227D01*
X009924Y003231D02*
X011390Y003231D01*
X011458Y003350D02*
X009883Y003350D01*
X009861Y003468D02*
X011526Y003468D01*
X011595Y003587D02*
X009857Y003587D01*
X009870Y003705D02*
X011663Y003705D01*
X011732Y003824D02*
X009902Y003824D01*
X009954Y003942D02*
X011655Y003942D01*
X011417Y004061D02*
X010031Y004061D01*
X010150Y004179D02*
X011178Y004179D01*
X010942Y004298D02*
X010348Y004298D01*
X010000Y005100D02*
X011050Y006150D01*
X010550Y006026D02*
X010580Y005905D01*
X010629Y005790D01*
X010695Y005684D01*
X010777Y005589D01*
X010871Y005508D01*
X010977Y005442D01*
X011092Y005393D01*
X011213Y005362D01*
X011338Y005350D01*
X012138Y005300D01*
X012138Y007000D01*
X011338Y006950D01*
X011211Y006943D01*
X011088Y006915D01*
X010971Y006869D01*
X010862Y006803D01*
X010766Y006721D01*
X010684Y006625D01*
X010619Y006517D01*
X010572Y006400D01*
X010545Y006276D01*
X010538Y006150D01*
X010550Y006026D01*
X010545Y006075D02*
X012138Y006075D01*
X012138Y005957D02*
X010567Y005957D01*
X010609Y005838D02*
X012138Y005838D01*
X012138Y005720D02*
X010673Y005720D01*
X010766Y005601D02*
X012138Y005601D01*
X012138Y005483D02*
X010912Y005483D01*
X011206Y005364D02*
X012138Y005364D01*
X012138Y006194D02*
X010540Y006194D01*
X010553Y006312D02*
X012138Y006312D01*
X012138Y006431D02*
X010584Y006431D01*
X010638Y006549D02*
X012138Y006549D01*
X012138Y006668D02*
X010720Y006668D01*
X010842Y006786D02*
X012138Y006786D01*
X012138Y006905D02*
X011061Y006905D01*
X010816Y007972D02*
X010692Y007957D01*
X010567Y007961D01*
X010445Y007984D01*
X010327Y008025D01*
X010217Y008084D01*
X010117Y008159D01*
X010030Y008248D01*
X009957Y008350D01*
X009900Y008463D01*
X009862Y008583D01*
X009844Y008708D01*
X009847Y008835D01*
X009869Y008959D01*
X009912Y009078D01*
X009973Y009189D01*
X010051Y009288D01*
X010144Y009374D01*
X010250Y009443D01*
X010918Y009886D01*
X011768Y008414D01*
X011050Y008057D01*
X010936Y008005D01*
X010816Y007972D01*
X010810Y007971D02*
X010512Y007971D01*
X010210Y008090D02*
X011115Y008090D01*
X011354Y008208D02*
X010069Y008208D01*
X009974Y008327D02*
X011592Y008327D01*
X011750Y008445D02*
X009909Y008445D01*
X009869Y008564D02*
X011681Y008564D01*
X011613Y008682D02*
X009848Y008682D01*
X009846Y008801D02*
X011545Y008801D01*
X011476Y008919D02*
X009862Y008919D01*
X009897Y009038D02*
X011408Y009038D01*
X011339Y009156D02*
X009955Y009156D01*
X010040Y009275D02*
X011271Y009275D01*
X011203Y009393D02*
X010174Y009393D01*
X010353Y009512D02*
X011134Y009512D01*
X011066Y009630D02*
X010532Y009630D01*
X010711Y009749D02*
X010997Y009749D01*
X010929Y009867D02*
X010889Y009867D01*
X009886Y010918D02*
X008414Y011768D01*
X008057Y011050D01*
X008000Y010937D01*
X007962Y010817D01*
X007944Y010692D01*
X007947Y010565D01*
X007969Y010441D01*
X008012Y010322D01*
X008073Y010211D01*
X008151Y010112D01*
X008244Y010026D01*
X008350Y009957D01*
X008464Y009905D01*
X008584Y009872D01*
X008708Y009857D01*
X008833Y009861D01*
X008955Y009884D01*
X009073Y009925D01*
X009183Y009984D01*
X009283Y010059D01*
X009370Y010148D01*
X009443Y010250D01*
X009886Y010918D01*
X009859Y010934D02*
X007999Y010934D01*
X007962Y010815D02*
X009818Y010815D01*
X009739Y010697D02*
X007945Y010697D01*
X007946Y010578D02*
X009661Y010578D01*
X009582Y010460D02*
X007966Y010460D01*
X008005Y010341D02*
X009503Y010341D01*
X009423Y010223D02*
X008067Y010223D01*
X008160Y010104D02*
X009327Y010104D01*
X009185Y009986D02*
X008307Y009986D01*
X008623Y009867D02*
X008866Y009867D01*
X009654Y011052D02*
X008058Y011052D01*
X008117Y011171D02*
X009448Y011171D01*
X009243Y011289D02*
X008176Y011289D01*
X008235Y011408D02*
X009038Y011408D01*
X008833Y011526D02*
X008294Y011526D01*
X008353Y011645D02*
X008627Y011645D01*
X008422Y011763D02*
X008411Y011763D01*
X006406Y010357D02*
X006406Y009013D01*
X006150Y009068D02*
X006150Y010357D01*
X004339Y010567D02*
X004316Y010445D01*
X004275Y010327D01*
X004216Y010217D01*
X004141Y010117D01*
X004052Y010030D01*
X003950Y009957D01*
X003837Y009900D01*
X003717Y009862D01*
X003592Y009844D01*
X003465Y009847D01*
X003341Y009869D01*
X003222Y009912D01*
X003111Y009973D01*
X003012Y010051D01*
X002926Y010144D01*
X002857Y010250D01*
X002414Y010918D01*
X003886Y011768D01*
X004243Y011050D01*
X004295Y010936D01*
X004328Y010816D01*
X004343Y010692D01*
X004339Y010567D01*
X004340Y010578D02*
X002639Y010578D01*
X002561Y010697D02*
X004343Y010697D01*
X004328Y010815D02*
X002482Y010815D01*
X002441Y010934D02*
X004295Y010934D01*
X004242Y011052D02*
X002646Y011052D01*
X002852Y011171D02*
X004183Y011171D01*
X004124Y011289D02*
X003057Y011289D01*
X003262Y011408D02*
X004065Y011408D01*
X004006Y011526D02*
X003467Y011526D01*
X003673Y011645D02*
X003947Y011645D01*
X003889Y011763D02*
X003878Y011763D01*
X004319Y010460D02*
X002718Y010460D01*
X002797Y010341D02*
X004280Y010341D01*
X004219Y010223D02*
X002875Y010223D01*
X002963Y010104D02*
X004128Y010104D01*
X003990Y009986D02*
X003095Y009986D01*
X003354Y009867D02*
X003732Y009867D01*
X003845Y009114D02*
X003846Y008638D01*
X003847Y008635D01*
X003453Y008635D02*
X003453Y008877D01*
X002439Y008833D02*
X002443Y008708D01*
X002428Y008584D01*
X002395Y008464D01*
X002343Y008350D01*
X002274Y008244D01*
X002188Y008151D01*
X002089Y008073D01*
X001978Y008012D01*
X001859Y007969D01*
X001735Y007947D01*
X001608Y007944D01*
X001483Y007962D01*
X001363Y008000D01*
X001250Y008057D01*
X000532Y008414D01*
X001382Y009886D01*
X002050Y009443D01*
X002152Y009370D01*
X002241Y009283D01*
X002316Y009183D01*
X002375Y009073D01*
X002416Y008955D01*
X002439Y008833D01*
X002440Y008801D02*
X000755Y008801D01*
X000824Y008919D02*
X002423Y008919D01*
X002387Y009038D02*
X000892Y009038D01*
X000961Y009156D02*
X002330Y009156D01*
X002247Y009275D02*
X001029Y009275D01*
X001097Y009393D02*
X002120Y009393D01*
X001947Y009512D02*
X001166Y009512D01*
X001234Y009630D02*
X001768Y009630D01*
X001589Y009749D02*
X001303Y009749D01*
X001371Y009867D02*
X001411Y009867D01*
X000687Y008682D02*
X002440Y008682D01*
X002423Y008564D02*
X000619Y008564D01*
X000550Y008445D02*
X002386Y008445D01*
X002327Y008327D02*
X000708Y008327D01*
X000946Y008208D02*
X002240Y008208D01*
X002110Y008090D02*
X001185Y008090D01*
X001456Y007971D02*
X001864Y007971D01*
X001087Y006938D02*
X000963Y006950D01*
X000163Y007000D01*
X000163Y005300D01*
X000963Y005350D01*
X001089Y005357D01*
X001212Y005385D01*
X001329Y005431D01*
X001438Y005497D01*
X001534Y005579D01*
X001616Y005675D01*
X001681Y005783D01*
X001728Y005900D01*
X001755Y006024D01*
X001763Y006150D01*
X001750Y006274D01*
X001720Y006395D01*
X001671Y006510D01*
X001605Y006616D01*
X001523Y006711D01*
X001429Y006792D01*
X001323Y006858D01*
X001208Y006907D01*
X001087Y006938D01*
X001214Y006905D02*
X000163Y006905D01*
X000163Y006786D02*
X001436Y006786D01*
X001561Y006668D02*
X000163Y006668D01*
X000163Y006549D02*
X001646Y006549D01*
X001705Y006431D02*
X000163Y006431D01*
X000163Y006312D02*
X001741Y006312D01*
X001758Y006194D02*
X000163Y006194D01*
X000163Y006075D02*
X001758Y006075D01*
X001740Y005957D02*
X000163Y005957D01*
X000163Y005838D02*
X001703Y005838D01*
X001643Y005720D02*
X000163Y005720D01*
X000163Y005601D02*
X001553Y005601D01*
X001414Y005483D02*
X000163Y005483D01*
X000163Y005364D02*
X001120Y005364D01*
X001374Y004298D02*
X001909Y004298D01*
X001855Y004316D02*
X001733Y004339D01*
X001608Y004343D01*
X001484Y004328D01*
X001364Y004295D01*
X001250Y004243D01*
X000532Y003886D01*
X001382Y002414D01*
X002050Y002857D01*
X002156Y002926D01*
X002249Y003012D01*
X002327Y003111D01*
X002388Y003222D01*
X002431Y003341D01*
X002453Y003465D01*
X002456Y003592D01*
X002438Y003717D01*
X002400Y003837D01*
X002343Y003950D01*
X002270Y004052D01*
X002183Y004141D01*
X002083Y004216D01*
X001973Y004275D01*
X001855Y004316D01*
X002132Y004179D02*
X001122Y004179D01*
X000883Y004061D02*
X002262Y004061D01*
X002347Y003942D02*
X000645Y003942D01*
X000568Y003824D02*
X002404Y003824D01*
X002439Y003705D02*
X000637Y003705D01*
X000705Y003587D02*
X002456Y003587D01*
X002453Y003468D02*
X000774Y003468D01*
X000842Y003350D02*
X002432Y003350D01*
X002391Y003231D02*
X000910Y003231D01*
X000979Y003113D02*
X002328Y003113D01*
X002229Y002994D02*
X001047Y002994D01*
X001116Y002876D02*
X002078Y002876D01*
X001899Y002757D02*
X001184Y002757D01*
X001252Y002639D02*
X001721Y002639D01*
X001542Y002520D02*
X001321Y002520D01*
X002414Y001382D02*
X003886Y000532D01*
X004243Y001250D01*
X004300Y001363D01*
X004338Y001483D01*
X004356Y001608D01*
X004353Y001735D01*
X004331Y001859D01*
X004288Y001978D01*
X004227Y002089D01*
X004149Y002188D01*
X004056Y002274D01*
X003950Y002343D01*
X003836Y002395D01*
X003716Y002428D01*
X003592Y002443D01*
X003467Y002439D01*
X003345Y002416D01*
X003227Y002375D01*
X003117Y002316D01*
X003017Y002241D01*
X002930Y002152D01*
X002857Y002050D01*
X002414Y001382D01*
X002461Y001454D02*
X004328Y001454D01*
X004350Y001572D02*
X002540Y001572D01*
X002619Y001691D02*
X004354Y001691D01*
X004340Y001809D02*
X002697Y001809D01*
X002776Y001928D02*
X004306Y001928D01*
X004251Y002046D02*
X002855Y002046D01*
X002942Y002165D02*
X004167Y002165D01*
X004041Y002283D02*
X003073Y002283D01*
X003303Y002402D02*
X003811Y002402D01*
X004286Y001335D02*
X002496Y001335D01*
X002701Y001217D02*
X004226Y001217D01*
X004167Y001098D02*
X002906Y001098D01*
X003111Y000980D02*
X004108Y000980D01*
X004050Y000861D02*
X003317Y000861D01*
X003522Y000743D02*
X003991Y000743D01*
X003932Y000624D02*
X003727Y000624D01*
X007780Y005100D02*
X010000Y005100D01*
X009987Y003113D02*
X011321Y003113D01*
X011253Y002994D02*
X010083Y002994D01*
X010224Y002876D02*
X011184Y002876D01*
X011116Y002757D02*
X010401Y002757D01*
X010579Y002639D02*
X011048Y002639D01*
X010979Y002520D02*
X010758Y002520D01*
X007780Y005100D02*
X007480Y005400D01*
X007480Y005900D02*
X008000Y005900D01*
X008100Y006000D01*
X008100Y007100D01*
X008000Y007200D01*
X006650Y007200D01*
X006400Y007450D01*
X006400Y008332D01*
X006050Y008382D02*
X006050Y007800D01*
X006050Y007500D01*
X004534Y007415D02*
X004044Y007415D01*
X003450Y006894D02*
X003450Y006650D01*
X003655Y006445D01*
X004000Y006445D01*
D30*
X005756Y003044D03*
X006544Y003044D03*
D31*
X007489Y000997D03*
X004811Y000997D03*
D32*
X002003Y002003D02*
X001679Y002383D01*
X002155Y002699D01*
X002209Y002734D01*
X002226Y002733D01*
X002273Y002776D01*
X002326Y002811D01*
X002329Y002828D01*
X002332Y002830D01*
X002349Y002833D01*
X002389Y002882D01*
X002435Y002925D01*
X002436Y002942D01*
X002438Y002946D01*
X002455Y002950D01*
X002486Y003006D01*
X002525Y003056D01*
X002523Y003073D01*
X002525Y003076D01*
X002541Y003084D01*
X002562Y003143D01*
X002592Y003199D01*
X002588Y003216D01*
X002589Y003219D01*
X002603Y003229D01*
X002615Y003292D01*
X002636Y003351D01*
X002628Y003367D01*
X002629Y003371D01*
X002642Y003383D01*
X002643Y003446D01*
X002654Y003508D01*
X002644Y003523D01*
X002645Y003527D01*
X002655Y003541D01*
X002646Y003603D01*
X002647Y003667D01*
X002635Y003679D01*
X002634Y003683D01*
X002643Y003699D01*
X002624Y003759D01*
X002615Y003822D01*
X002601Y003832D01*
X002599Y003836D01*
X002605Y003852D01*
X002576Y003909D01*
X002557Y003969D01*
X002542Y003977D01*
X002540Y003980D01*
X002543Y003996D01*
X002506Y004049D01*
X002477Y004106D01*
X002461Y004111D01*
X002461Y004111D01*
X002461Y004128D01*
X002416Y004174D01*
X002379Y004226D01*
X002363Y004229D01*
X002362Y004229D01*
X002360Y004246D01*
X002309Y004284D01*
X002264Y004330D01*
X002247Y004330D01*
X002247Y004331D01*
X002242Y004346D01*
X002186Y004377D01*
X002134Y004415D01*
X002118Y004413D01*
X002118Y004413D01*
X002110Y004428D01*
X002050Y004449D01*
X001993Y004480D01*
X001978Y004475D01*
X001977Y004475D01*
X002087Y004520D01*
X002180Y004613D01*
X002206Y004676D01*
X002631Y004676D01*
X002650Y004695D01*
X002650Y004361D01*
X002688Y004269D01*
X002758Y004198D01*
X002943Y004014D01*
X002943Y003809D01*
X003019Y003733D01*
X003731Y003733D01*
X003807Y003809D01*
X003807Y004404D01*
X003924Y004520D01*
X003966Y004520D01*
X004087Y004570D01*
X004140Y004623D01*
X004140Y004539D01*
X004099Y004539D01*
X004023Y004463D01*
X004023Y003804D01*
X004099Y003727D01*
X004601Y003727D01*
X004677Y003804D01*
X004677Y003940D01*
X005429Y003940D01*
X005429Y003517D01*
X005051Y003517D01*
X005051Y003596D01*
X004975Y003673D01*
X004473Y003673D01*
X004397Y003596D01*
X004397Y002937D01*
X004473Y002861D01*
X004975Y002861D01*
X005051Y002937D01*
X005051Y003017D01*
X005429Y003017D01*
X005429Y002085D01*
X005506Y002009D01*
X006007Y002009D01*
X006083Y002085D01*
X006083Y004004D01*
X006014Y004073D01*
X006261Y004073D01*
X006255Y004070D01*
X006227Y004042D01*
X006207Y004008D01*
X006197Y003969D01*
X006197Y003093D01*
X006495Y003093D01*
X006495Y002996D01*
X006197Y002996D01*
X006197Y002119D01*
X006207Y002081D01*
X006227Y002047D01*
X006255Y002019D01*
X006289Y001999D01*
X006327Y001989D01*
X006495Y001989D01*
X006495Y002996D01*
X006592Y002996D01*
X006592Y003093D01*
X006891Y003093D01*
X006891Y003969D01*
X006880Y004008D01*
X006861Y004042D01*
X006833Y004070D01*
X006827Y004073D01*
X008202Y004073D01*
X008202Y003672D01*
X008240Y003634D01*
X008240Y003587D01*
X008170Y003517D01*
X008120Y003396D01*
X008120Y003264D01*
X008170Y003143D01*
X008263Y003050D01*
X008384Y003000D01*
X008516Y003000D01*
X008637Y003050D01*
X008730Y003143D01*
X008780Y003264D01*
X008780Y003396D01*
X008730Y003517D01*
X008660Y003587D01*
X008660Y003634D01*
X008698Y003672D01*
X008698Y004095D01*
X008693Y004100D01*
X008698Y004105D01*
X008698Y004528D01*
X008622Y004604D01*
X008278Y004604D01*
X008202Y004528D01*
X008202Y004493D01*
X005546Y004493D01*
X005413Y004360D01*
X004677Y004360D01*
X004677Y004463D01*
X004654Y004486D01*
X004737Y004520D01*
X004830Y004613D01*
X004880Y004734D01*
X004880Y004866D01*
X004830Y004987D01*
X004737Y005080D01*
X004616Y005130D01*
X004484Y005130D01*
X004363Y005080D01*
X004270Y004987D01*
X004230Y004890D01*
X004230Y004916D01*
X004180Y005037D01*
X004087Y005130D01*
X004038Y005150D01*
X005700Y005150D01*
X005792Y005188D01*
X006624Y006020D01*
X006666Y006020D01*
X006787Y006070D01*
X006880Y006163D01*
X006915Y006248D01*
X006915Y006226D01*
X006991Y006150D01*
X006951Y006110D01*
X006913Y006110D01*
X006790Y005987D01*
X006683Y005880D01*
X006584Y005880D01*
X006463Y005830D01*
X006370Y005737D01*
X006320Y005616D01*
X006320Y005484D01*
X006370Y005363D01*
X006463Y005270D01*
X006584Y005220D01*
X006716Y005220D01*
X006837Y005270D01*
X006915Y005348D01*
X006915Y005226D01*
X006991Y005150D01*
X007461Y005150D01*
X007590Y005021D01*
X007701Y004910D01*
X010079Y004910D01*
X010632Y005463D01*
X010642Y005454D01*
X010684Y005406D01*
X010700Y005404D01*
X010700Y005404D01*
X010704Y005388D01*
X010759Y005354D01*
X010807Y005312D01*
X010824Y005314D01*
X010824Y005313D01*
X010830Y005298D01*
X010889Y005273D01*
X010944Y005239D01*
X010960Y005243D01*
X010961Y005242D01*
X010969Y005228D01*
X011031Y005212D01*
X011090Y005187D01*
X011106Y005193D01*
X011117Y005181D01*
X011180Y005174D01*
X011243Y005159D01*
X011253Y005165D01*
X011322Y005161D01*
X011397Y005153D01*
X011400Y005156D01*
X011917Y005123D01*
X011728Y004338D01*
X011653Y004156D01*
X011135Y004413D01*
X011077Y004442D01*
X011069Y004457D01*
X011009Y004476D01*
X010952Y004505D01*
X010936Y004499D01*
X010932Y004501D01*
X010922Y004515D01*
X010859Y004524D01*
X010799Y004543D01*
X010783Y004534D01*
X010779Y004535D01*
X010767Y004547D01*
X010703Y004546D01*
X010641Y004555D01*
X010627Y004545D01*
X010623Y004544D01*
X010608Y004554D01*
X010546Y004543D01*
X010483Y004542D01*
X010471Y004529D01*
X010467Y004528D01*
X010451Y004536D01*
X010392Y004515D01*
X010329Y004503D01*
X010319Y004489D01*
X010316Y004488D01*
X010299Y004492D01*
X010243Y004462D01*
X010184Y004441D01*
X010176Y004425D01*
X010173Y004423D01*
X010156Y004425D01*
X010106Y004386D01*
X010050Y004355D01*
X010046Y004338D01*
X010042Y004336D01*
X010025Y004335D01*
X009982Y004289D01*
X009933Y004249D01*
X009930Y004232D01*
X009928Y004229D01*
X009911Y004226D01*
X009876Y004173D01*
X009833Y004126D01*
X009834Y004109D01*
X009832Y004106D01*
X009817Y004100D01*
X009790Y004042D01*
X009755Y003988D01*
X009759Y003972D01*
X009758Y003972D01*
X009744Y003963D01*
X009727Y003902D01*
X009700Y003843D01*
X009706Y003828D01*
X009706Y003827D01*
X009693Y003817D01*
X009685Y003753D01*
X009668Y003692D01*
X009676Y003677D01*
X009664Y003665D01*
X009666Y003601D01*
X009659Y003537D01*
X009669Y003524D01*
X009669Y003523D01*
X009659Y003510D01*
X009671Y003447D01*
X009673Y003383D01*
X009685Y003371D01*
X009686Y003371D01*
X009678Y003356D01*
X009700Y003295D01*
X009711Y003232D01*
X009725Y003223D01*
X009725Y003222D01*
X009720Y003207D01*
X009751Y003150D01*
X009772Y003090D01*
X009787Y003082D01*
X009785Y003066D01*
X009823Y003014D01*
X009854Y002958D01*
X009869Y002953D01*
X009870Y002953D01*
X009870Y002936D01*
X009916Y002891D01*
X009954Y002840D01*
X009971Y002838D01*
X009971Y002837D01*
X009974Y002821D01*
X010026Y002784D01*
X010072Y002739D01*
X010085Y002739D01*
X010142Y002701D01*
X010204Y002657D01*
X010207Y002657D01*
X010621Y002383D01*
X010297Y002003D01*
X009933Y001692D01*
X009653Y002113D01*
X008818Y001632D01*
X008768Y001718D01*
X008682Y001668D01*
X007934Y001236D01*
X007934Y001121D01*
X008732Y001582D01*
X008682Y001668D01*
X008202Y002499D01*
X008190Y002491D01*
X008190Y002491D01*
X008094Y002417D01*
X008008Y002332D01*
X008008Y002332D01*
X008008Y002332D01*
X007984Y002301D01*
X007933Y002237D01*
X007910Y002201D01*
X007869Y002135D01*
X007869Y002135D01*
X007817Y002025D01*
X007817Y002025D01*
X007779Y001910D01*
X007755Y001792D01*
X007755Y001792D01*
X007752Y001757D01*
X007120Y001757D01*
X007044Y001681D01*
X007044Y000355D01*
X006150Y000285D01*
X005256Y000355D01*
X005256Y001681D01*
X005180Y001757D01*
X004543Y001757D01*
X004542Y001817D01*
X004529Y001829D01*
X004528Y001833D01*
X004536Y001849D01*
X004515Y001908D01*
X004503Y001971D01*
X004489Y001981D01*
X004488Y001984D01*
X004492Y002001D01*
X004462Y002057D01*
X004441Y002116D01*
X004425Y002124D01*
X004423Y002127D01*
X004425Y002144D01*
X004386Y002194D01*
X004355Y002250D01*
X004338Y002254D01*
X004336Y002258D01*
X004335Y002275D01*
X004289Y002318D01*
X004249Y002367D01*
X004232Y002370D01*
X004229Y002372D01*
X004226Y002388D01*
X004226Y002861D01*
X004227Y002861D01*
X004303Y002937D01*
X004303Y003596D01*
X004227Y003673D01*
X003725Y003673D01*
X003649Y003596D01*
X003649Y002937D01*
X003725Y002861D01*
X003726Y002861D01*
X003726Y002623D01*
X003692Y002632D01*
X003677Y002624D01*
X003665Y002636D01*
X003601Y002634D01*
X003537Y002641D01*
X003524Y002631D01*
X003523Y002631D01*
X003510Y002641D01*
X003447Y002629D01*
X003383Y002627D01*
X003371Y002615D01*
X003371Y002614D01*
X003356Y002622D01*
X003295Y002600D01*
X003232Y002589D01*
X003223Y002575D01*
X003222Y002575D01*
X003207Y002580D01*
X003150Y002549D01*
X003090Y002528D01*
X003082Y002513D01*
X003066Y002515D01*
X003014Y002477D01*
X002958Y002446D01*
X002953Y002431D01*
X002953Y002430D01*
X002936Y002430D01*
X002891Y002384D01*
X002840Y002346D01*
X002838Y002329D01*
X002837Y002329D01*
X002821Y002326D01*
X002784Y002274D01*
X002739Y002228D01*
X002739Y002215D01*
X002701Y002158D01*
X002657Y002096D01*
X002657Y002093D01*
X002383Y001679D01*
X002003Y002003D01*
X001987Y002022D02*
X002610Y002022D01*
X002674Y002120D02*
X001903Y002120D01*
X001819Y002219D02*
X002739Y002219D01*
X002814Y002317D02*
X001734Y002317D01*
X001728Y002416D02*
X002922Y002416D01*
X003064Y002514D02*
X001877Y002514D01*
X002025Y002613D02*
X003330Y002613D01*
X003083Y002514D02*
X003073Y002514D01*
X003082Y002513D02*
X003082Y002513D01*
X003677Y002624D02*
X003677Y002624D01*
X003726Y002711D02*
X002174Y002711D01*
X002324Y002810D02*
X003726Y002810D01*
X003679Y002908D02*
X002417Y002908D01*
X002486Y003007D02*
X003649Y003007D01*
X003649Y003105D02*
X002548Y003105D01*
X002591Y003204D02*
X003649Y003204D01*
X003649Y003302D02*
X002618Y003302D01*
X002642Y003401D02*
X003649Y003401D01*
X003649Y003499D02*
X002653Y003499D01*
X002647Y003598D02*
X003650Y003598D01*
X003793Y003795D02*
X004032Y003795D01*
X004023Y003893D02*
X003807Y003893D01*
X003807Y003992D02*
X004023Y003992D01*
X004023Y004090D02*
X003807Y004090D01*
X003807Y004189D02*
X004023Y004189D01*
X004023Y004287D02*
X003807Y004287D01*
X003807Y004386D02*
X004023Y004386D01*
X004045Y004484D02*
X003888Y004484D01*
X004099Y004583D02*
X004140Y004583D01*
X004205Y004977D02*
X004266Y004977D01*
X004358Y005075D02*
X004142Y005075D01*
X003698Y005657D02*
X003631Y005724D01*
X003169Y005724D01*
X003163Y005717D01*
X003135Y005733D01*
X003097Y005744D01*
X002919Y005744D01*
X002919Y005475D01*
X002881Y005475D01*
X002881Y005744D01*
X002703Y005744D01*
X002665Y005733D01*
X002637Y005717D01*
X002631Y005724D01*
X002580Y005724D01*
X002580Y006175D01*
X002925Y006520D01*
X003030Y006625D01*
X003030Y006726D01*
X003081Y006726D01*
X003157Y006802D01*
X003157Y007053D01*
X003176Y007073D01*
X003176Y006719D01*
X003252Y006643D01*
X003260Y006643D01*
X003260Y006571D01*
X003371Y006460D01*
X003576Y006255D01*
X003713Y006255D01*
X003713Y006234D01*
X003789Y006158D01*
X003806Y006158D01*
X003785Y006152D01*
X003750Y006132D01*
X003722Y006104D01*
X003703Y006070D01*
X003693Y006032D01*
X003693Y005883D01*
X003971Y005883D01*
X003971Y005826D01*
X003693Y005826D01*
X003693Y005677D01*
X003698Y005657D01*
X003696Y005666D02*
X003689Y005666D01*
X003693Y005765D02*
X002580Y005765D01*
X002580Y005863D02*
X003971Y005863D01*
X003693Y005962D02*
X002580Y005962D01*
X002580Y006060D02*
X003700Y006060D01*
X003788Y006159D02*
X002580Y006159D01*
X002662Y006257D02*
X003574Y006257D01*
X003476Y006356D02*
X002760Y006356D01*
X002859Y006454D02*
X003377Y006454D01*
X003279Y006553D02*
X002957Y006553D01*
X003030Y006651D02*
X003244Y006651D01*
X003176Y006750D02*
X003104Y006750D01*
X003157Y006848D02*
X003176Y006848D01*
X003176Y006947D02*
X003157Y006947D01*
X003157Y007045D02*
X003176Y007045D01*
X002850Y006994D02*
X002850Y006700D01*
X002400Y006250D01*
X002400Y005456D01*
X002220Y005724D02*
X002210Y005724D01*
X002210Y006706D01*
X002381Y006706D01*
X002381Y006975D01*
X002419Y006975D01*
X002419Y006706D01*
X002597Y006706D01*
X002604Y006708D01*
X002220Y006325D01*
X002220Y005724D01*
X002220Y005765D02*
X002210Y005765D01*
X002210Y005863D02*
X002220Y005863D01*
X002210Y005962D02*
X002220Y005962D01*
X002210Y006060D02*
X002220Y006060D01*
X002210Y006159D02*
X002220Y006159D01*
X002210Y006257D02*
X002220Y006257D01*
X002210Y006356D02*
X002251Y006356D01*
X002210Y006454D02*
X002349Y006454D01*
X002448Y006553D02*
X002210Y006553D01*
X002210Y006651D02*
X002546Y006651D01*
X002419Y006750D02*
X002381Y006750D01*
X002381Y006848D02*
X002419Y006848D01*
X002419Y006947D02*
X002381Y006947D01*
X002850Y006994D02*
X003256Y007415D01*
X003453Y007415D01*
X003650Y007415D01*
X003835Y007415D02*
X003847Y007415D01*
X003847Y007550D01*
X003847Y007550D01*
X003847Y007415D01*
X003847Y007415D01*
X003854Y007415D01*
X003854Y007415D01*
X003847Y007415D01*
X003847Y007415D01*
X003847Y007415D01*
X003847Y007257D01*
X003847Y007257D01*
X003847Y007415D01*
X003847Y007415D01*
X003835Y007415D01*
X003835Y007415D01*
X003847Y007439D02*
X003847Y007439D01*
X003847Y007341D02*
X003847Y007341D01*
X003847Y007538D02*
X003847Y007538D01*
X003700Y008075D02*
X003600Y008075D01*
X003600Y008318D01*
X003650Y008318D01*
X003700Y008318D01*
X003700Y008075D01*
X003700Y008129D02*
X003600Y008129D01*
X003600Y008227D02*
X003700Y008227D01*
X003650Y008318D02*
X003650Y008635D01*
X003650Y008635D01*
X003650Y008318D01*
X003650Y008326D02*
X003650Y008326D01*
X003650Y008424D02*
X003650Y008424D01*
X003650Y008523D02*
X003650Y008523D01*
X003650Y008621D02*
X003650Y008621D01*
X003256Y008635D02*
X002935Y008635D01*
X003048Y008815D02*
X003004Y008852D01*
X002831Y008837D01*
X002630Y008599D01*
X002632Y008608D01*
X002624Y008623D01*
X002636Y008635D01*
X002634Y008699D01*
X002641Y008763D01*
X002631Y008776D01*
X002631Y008777D01*
X002641Y008790D01*
X002629Y008853D01*
X002627Y008917D01*
X002615Y008929D01*
X002614Y008929D01*
X002622Y008944D01*
X002600Y009005D01*
X002589Y009068D01*
X002575Y009077D01*
X002575Y009078D01*
X002580Y009093D01*
X002549Y009150D01*
X002528Y009210D01*
X002513Y009218D01*
X002515Y009234D01*
X002477Y009286D01*
X002446Y009342D01*
X002431Y009347D01*
X002430Y009347D01*
X002430Y009364D01*
X002384Y009409D01*
X002719Y009409D01*
X002719Y009476D02*
X002719Y008974D01*
X002795Y008898D01*
X003113Y008898D01*
X003071Y008856D01*
X003071Y008815D01*
X003048Y008815D01*
X003044Y008818D02*
X003071Y008818D01*
X002815Y008818D02*
X002635Y008818D01*
X002636Y008720D02*
X002732Y008720D01*
X002649Y008621D02*
X002625Y008621D01*
X002624Y008623D02*
X002624Y008623D01*
X002627Y008917D02*
X002777Y008917D01*
X002719Y009015D02*
X002598Y009015D01*
X002569Y009114D02*
X002719Y009114D01*
X002719Y009212D02*
X002525Y009212D01*
X002513Y009218D02*
X002513Y009218D01*
X002463Y009311D02*
X002719Y009311D01*
X002719Y009476D02*
X002795Y009552D01*
X003336Y009552D01*
X003400Y009488D01*
X003464Y009552D01*
X004005Y009552D01*
X004081Y009476D01*
X004081Y008974D01*
X004039Y008933D01*
X004150Y008933D01*
X004825Y009608D01*
X004837Y009620D01*
X004734Y009620D01*
X004613Y009670D01*
X004520Y009763D01*
X004470Y009884D01*
X004470Y010016D01*
X004520Y010137D01*
X004613Y010230D01*
X004734Y010280D01*
X004827Y010280D01*
X004827Y010371D01*
X004883Y010506D01*
X004987Y010610D01*
X005122Y010666D01*
X005268Y010666D01*
X005404Y010610D01*
X005409Y010604D01*
X005409Y010652D01*
X005420Y010690D01*
X005439Y010724D01*
X005467Y010752D01*
X005502Y010772D01*
X005540Y010782D01*
X005638Y010782D01*
X005638Y010357D01*
X005638Y010357D01*
X005638Y010782D01*
X005737Y010782D01*
X005775Y010772D01*
X005792Y010762D01*
X006794Y010762D01*
X006871Y010686D01*
X006871Y010584D01*
X006896Y010610D01*
X007032Y010666D01*
X007178Y010666D01*
X007313Y010610D01*
X007417Y010506D01*
X007473Y010371D01*
X007473Y010224D01*
X007417Y010089D01*
X007388Y010060D01*
X007887Y010060D01*
X008512Y009435D01*
X008635Y009312D01*
X008635Y008978D01*
X008833Y008978D01*
X008909Y008902D01*
X008909Y008400D01*
X008833Y008324D01*
X008017Y008324D01*
X007941Y008400D01*
X007941Y008789D01*
X007930Y008763D01*
X007860Y008693D01*
X007860Y008210D01*
X008937Y008210D01*
X009087Y008060D01*
X009210Y007937D01*
X009210Y007494D01*
X009212Y007492D01*
X009250Y007400D01*
X009250Y007327D01*
X009280Y007297D01*
X009330Y007176D01*
X009330Y007044D01*
X009280Y006923D01*
X009210Y006853D01*
X009210Y006424D01*
X009231Y006424D01*
X009307Y006348D01*
X009307Y005964D01*
X009243Y005900D01*
X009307Y005836D01*
X009307Y005452D01*
X009231Y005376D01*
X008769Y005376D01*
X008732Y005413D01*
X008686Y005367D01*
X008264Y005367D01*
X008188Y005443D01*
X008188Y005819D01*
X008079Y005710D01*
X008029Y005710D01*
X007969Y005650D01*
X007047Y005650D01*
X007047Y005650D01*
X007969Y005650D01*
X008045Y005574D01*
X008045Y005290D01*
X009921Y005290D01*
X010415Y005784D01*
X010400Y005844D01*
X010375Y005903D01*
X010381Y005918D01*
X010381Y005919D01*
X010368Y005929D01*
X010362Y005993D01*
X010346Y006055D01*
X010354Y006069D01*
X010354Y006070D01*
X010343Y006082D01*
X010347Y006146D01*
X010341Y006210D01*
X010351Y006223D01*
X010351Y006226D01*
X010342Y006241D01*
X010356Y006302D01*
X010359Y006365D01*
X010372Y006377D01*
X010373Y006381D01*
X010366Y006397D01*
X010390Y006456D01*
X010404Y006518D01*
X010418Y006527D01*
X010420Y006531D01*
X010416Y006548D01*
X010448Y006602D01*
X010472Y006661D01*
X010488Y006667D01*
X010490Y006671D01*
X010488Y006688D01*
X010529Y006736D01*
X010562Y006791D01*
X010579Y006795D01*
X010582Y006798D01*
X010583Y006815D01*
X010631Y006856D01*
X010672Y006904D01*
X010690Y006906D01*
X010693Y006908D01*
X010697Y006925D01*
X010751Y006958D01*
X010799Y006999D01*
X010817Y006998D01*
X010820Y007000D01*
X010827Y007016D01*
X010886Y007039D01*
X010940Y007072D01*
X010957Y007068D01*
X010961Y007069D01*
X010970Y007084D01*
X011032Y007098D01*
X011090Y007121D01*
X011107Y007114D01*
X011110Y007115D01*
X011122Y007128D01*
X011185Y007132D01*
X011247Y007145D01*
X011262Y007136D01*
X011326Y007140D01*
X011917Y007177D01*
X011728Y007962D01*
X011660Y008127D01*
X011502Y008049D01*
X011502Y008049D01*
X011200Y007897D01*
X010718Y008732D01*
X010632Y008682D01*
X011111Y007851D01*
X011098Y007844D01*
X011098Y007844D01*
X011095Y007843D01*
X010986Y007799D01*
X010986Y007799D01*
X010870Y007766D01*
X010870Y007766D01*
X010750Y007748D01*
X010750Y007748D01*
X010629Y007744D01*
X010629Y007744D01*
X010508Y007755D01*
X010508Y007755D01*
X010390Y007779D01*
X010390Y007779D01*
X010275Y007817D01*
X010275Y007817D01*
X010165Y007869D01*
X010165Y007869D01*
X010093Y007914D01*
X010063Y007933D01*
X010063Y007933D01*
X009994Y007988D01*
X009968Y008008D01*
X009968Y008008D01*
X009968Y008008D01*
X009883Y008094D01*
X009883Y008094D01*
X009809Y008190D01*
X009809Y008190D01*
X009801Y008202D01*
X010632Y008682D01*
X010582Y008768D01*
X009749Y008288D01*
X009746Y008293D01*
X009746Y008293D01*
X009728Y008334D01*
X009695Y008406D01*
X009695Y008406D01*
X009659Y008524D01*
X009659Y008524D01*
X009637Y008646D01*
X009637Y008646D01*
X009631Y008770D01*
X009631Y008770D01*
X009640Y008893D01*
X009640Y008893D01*
X009665Y009014D01*
X009704Y009131D01*
X009758Y009243D01*
X009825Y009346D01*
X009904Y009441D01*
X009904Y009441D01*
X009995Y009525D01*
X010095Y009598D01*
X010101Y009601D01*
X010582Y008768D01*
X010668Y008818D01*
X010553Y008818D01*
X010497Y008720D02*
X010610Y008720D01*
X010697Y008720D02*
X010725Y008720D01*
X010668Y008818D02*
X010187Y009653D01*
X010608Y009933D01*
X010297Y010297D01*
X009917Y010621D01*
X009643Y010207D01*
X009643Y010204D01*
X009599Y010142D01*
X009561Y010085D01*
X009561Y010072D01*
X009516Y010026D01*
X009479Y009974D01*
X009463Y009971D01*
X009462Y009971D01*
X009460Y009954D01*
X009409Y009916D01*
X009364Y009870D01*
X009347Y009870D01*
X009347Y009869D01*
X009342Y009854D01*
X009286Y009823D01*
X009234Y009785D01*
X009218Y009787D01*
X009218Y009787D01*
X009210Y009772D01*
X009150Y009751D01*
X009093Y009720D01*
X009078Y009725D01*
X009077Y009725D01*
X009068Y009711D01*
X009005Y009700D01*
X008944Y009678D01*
X008929Y009686D01*
X008929Y009685D01*
X008917Y009673D01*
X008853Y009671D01*
X008790Y009659D01*
X008777Y009669D01*
X008776Y009669D01*
X008763Y009659D01*
X008699Y009666D01*
X008635Y009664D01*
X008623Y009676D01*
X008623Y009676D01*
X008608Y009668D01*
X008547Y009685D01*
X008483Y009693D01*
X008473Y009706D01*
X008472Y009706D01*
X008457Y009700D01*
X008398Y009727D01*
X008337Y009744D01*
X008328Y009758D01*
X008328Y009759D01*
X008312Y009755D01*
X008258Y009790D01*
X008200Y009817D01*
X008194Y009832D01*
X008191Y009834D01*
X008174Y009833D01*
X008127Y009876D01*
X008074Y009911D01*
X008071Y009928D01*
X008068Y009930D01*
X008051Y009933D01*
X008011Y009982D01*
X007965Y010025D01*
X007964Y010042D01*
X007962Y010046D01*
X007945Y010050D01*
X007914Y010106D01*
X007875Y010156D01*
X007877Y010173D01*
X007875Y010176D01*
X007859Y010184D01*
X007838Y010243D01*
X007808Y010299D01*
X007812Y010316D01*
X007811Y010319D01*
X007797Y010329D01*
X007785Y010392D01*
X007764Y010451D01*
X007772Y010467D01*
X007771Y010471D01*
X007758Y010483D01*
X007757Y010546D01*
X007746Y010608D01*
X007756Y010623D01*
X007755Y010627D01*
X007745Y010641D01*
X007754Y010703D01*
X007753Y010767D01*
X007765Y010779D01*
X007766Y010783D01*
X007757Y010799D01*
X007776Y010859D01*
X007785Y010922D01*
X007786Y010922D01*
X007675Y010876D01*
X007467Y010876D01*
X007275Y010956D01*
X007127Y011103D01*
X007087Y011200D01*
X007087Y010992D01*
X007011Y010916D01*
X006195Y010916D01*
X006150Y010960D01*
X006105Y010916D01*
X005289Y010916D01*
X005213Y010992D01*
X005213Y011200D01*
X005173Y011103D01*
X005025Y010956D01*
X004833Y010876D01*
X004625Y010876D01*
X004495Y010930D01*
X004494Y010928D01*
X004494Y010927D01*
X004507Y010917D01*
X004515Y010853D01*
X004532Y010792D01*
X004524Y010777D01*
X004524Y010777D01*
X004536Y010765D01*
X004534Y010701D01*
X004541Y010637D01*
X004531Y010624D01*
X004531Y010623D01*
X004541Y010610D01*
X004529Y010547D01*
X004527Y010483D01*
X004515Y010471D01*
X004514Y010471D01*
X004522Y010456D01*
X004500Y010395D01*
X004489Y010332D01*
X004475Y010323D01*
X004475Y010322D01*
X004480Y010307D01*
X004449Y010250D01*
X004428Y010190D01*
X004413Y010182D01*
X004413Y010182D01*
X004415Y010166D01*
X004377Y010114D01*
X004346Y010058D01*
X004331Y010053D01*
X004330Y010053D01*
X004330Y010036D01*
X004284Y009991D01*
X004246Y009940D01*
X004229Y009938D01*
X004229Y009937D01*
X004226Y009921D01*
X004174Y009884D01*
X004128Y009839D01*
X004111Y009839D01*
X004111Y009839D01*
X004106Y009823D01*
X004049Y009794D01*
X003996Y009757D01*
X003980Y009760D01*
X003977Y009758D01*
X003969Y009743D01*
X003909Y009724D01*
X003852Y009695D01*
X003836Y009701D01*
X003832Y009699D01*
X003822Y009685D01*
X003759Y009676D01*
X003699Y009657D01*
X003683Y009666D01*
X003679Y009665D01*
X003667Y009653D01*
X003603Y009654D01*
X003541Y009645D01*
X003527Y009655D01*
X003523Y009656D01*
X003508Y009646D01*
X003446Y009657D01*
X003383Y009658D01*
X003371Y009671D01*
X003367Y009672D01*
X003351Y009664D01*
X003292Y009685D01*
X003229Y009697D01*
X003219Y009711D01*
X003216Y009712D01*
X003199Y009708D01*
X003143Y009738D01*
X003084Y009759D01*
X003076Y009775D01*
X003073Y009777D01*
X003056Y009775D01*
X003006Y009814D01*
X002950Y009845D01*
X002946Y009862D01*
X002942Y009864D01*
X002925Y009865D01*
X002882Y009911D01*
X002833Y009951D01*
X002830Y009968D01*
X002828Y009971D01*
X002811Y009974D01*
X002776Y010027D01*
X002733Y010074D01*
X002734Y010091D01*
X002699Y010145D01*
X002383Y010621D01*
X002003Y010297D01*
X001679Y009917D01*
X002093Y009643D01*
X002096Y009643D01*
X002158Y009599D01*
X002215Y009561D01*
X002228Y009561D01*
X002274Y009516D01*
X002326Y009479D01*
X002329Y009463D01*
X002329Y009462D01*
X002346Y009460D01*
X002384Y009409D01*
X002286Y009508D02*
X002751Y009508D01*
X003020Y009803D02*
X001851Y009803D01*
X001999Y009705D02*
X003224Y009705D01*
X003380Y009508D02*
X003420Y009508D01*
X003871Y009705D02*
X004579Y009705D01*
X004504Y009803D02*
X004066Y009803D01*
X004199Y009902D02*
X004470Y009902D01*
X004470Y010000D02*
X004293Y010000D01*
X004368Y010099D02*
X004504Y010099D01*
X004431Y010197D02*
X004580Y010197D01*
X004474Y010296D02*
X004827Y010296D01*
X004837Y010394D02*
X004500Y010394D01*
X004527Y010493D02*
X004878Y010493D01*
X004968Y010591D02*
X004537Y010591D01*
X004535Y010690D02*
X005419Y010690D01*
X005638Y010690D02*
X005638Y010690D01*
X005638Y010591D02*
X005638Y010591D01*
X005638Y010493D02*
X005638Y010493D01*
X005638Y010394D02*
X005638Y010394D01*
X005638Y010357D02*
X005638Y009931D01*
X005638Y010357D01*
X005638Y010357D01*
X005638Y010296D02*
X005638Y010296D01*
X005638Y010197D02*
X005638Y010197D01*
X005638Y010099D02*
X005638Y010099D01*
X005638Y010000D02*
X005638Y010000D01*
X005638Y009931D02*
X005540Y009931D01*
X005502Y009941D01*
X005467Y009961D01*
X005439Y009989D01*
X005428Y010009D01*
X005404Y009986D01*
X005268Y009930D01*
X005141Y009930D01*
X005198Y009879D01*
X005206Y009879D01*
X005253Y009832D01*
X005311Y009832D01*
X005364Y009779D01*
X005373Y009794D01*
X005401Y009822D01*
X005435Y009842D01*
X005473Y009852D01*
X005612Y009852D01*
X005612Y009544D01*
X005650Y009544D01*
X005919Y009544D01*
X005919Y009722D01*
X005908Y009760D01*
X005889Y009794D01*
X005861Y009822D01*
X005827Y009842D01*
X005788Y009852D01*
X005650Y009852D01*
X005650Y009544D01*
X005650Y009506D01*
X005919Y009506D01*
X005919Y009328D01*
X005908Y009290D01*
X005889Y009256D01*
X005861Y009228D01*
X005827Y009208D01*
X005792Y009199D01*
X005960Y009199D01*
X005960Y009951D01*
X005792Y009951D01*
X005775Y009941D01*
X005737Y009931D01*
X005638Y009931D01*
X005650Y009803D02*
X005612Y009803D01*
X005612Y009705D02*
X005650Y009705D01*
X005650Y009606D02*
X005612Y009606D01*
X005612Y009506D02*
X005650Y009506D01*
X005650Y009198D01*
X005781Y009198D01*
X005724Y009141D01*
X005694Y009141D01*
X005638Y009085D01*
X005638Y009172D01*
X005628Y009210D01*
X005612Y009238D01*
X005612Y009506D01*
X005650Y009508D02*
X005960Y009508D01*
X005960Y009606D02*
X005919Y009606D01*
X005919Y009705D02*
X005960Y009705D01*
X005960Y009803D02*
X005880Y009803D01*
X005960Y009902D02*
X005173Y009902D01*
X005340Y009803D02*
X005382Y009803D01*
X005418Y010000D02*
X005433Y010000D01*
X005612Y009409D02*
X005650Y009409D01*
X005650Y009311D02*
X005612Y009311D01*
X005627Y009212D02*
X005650Y009212D01*
X005638Y009114D02*
X005667Y009114D01*
X005833Y009212D02*
X005960Y009212D01*
X005960Y009311D02*
X005914Y009311D01*
X005919Y009409D02*
X005960Y009409D01*
X006150Y009068D02*
X006013Y008931D01*
X006406Y009013D02*
X006488Y008931D01*
X006730Y008675D02*
X006795Y008739D01*
X006795Y008868D01*
X006864Y008868D01*
X006908Y008824D01*
X007342Y008824D01*
X007344Y008826D01*
X007370Y008763D01*
X007440Y008693D01*
X007440Y007957D01*
X007409Y007957D01*
X007428Y007990D01*
X007438Y008028D01*
X007438Y008160D01*
X007137Y008160D01*
X007137Y008184D01*
X007438Y008184D01*
X007438Y008316D01*
X007428Y008354D01*
X007408Y008388D01*
X007380Y008416D01*
X007346Y008436D01*
X007308Y008446D01*
X007137Y008446D01*
X007137Y008184D01*
X007113Y008184D01*
X007113Y008160D01*
X006812Y008160D01*
X006812Y008028D01*
X006822Y007990D01*
X006829Y007977D01*
X006762Y007977D01*
X006723Y007967D01*
X006689Y007947D01*
X006661Y007919D01*
X006642Y007885D01*
X006631Y007847D01*
X006631Y007669D01*
X006900Y007669D01*
X006900Y007631D01*
X006631Y007631D01*
X006631Y007487D01*
X006590Y007529D01*
X006590Y008151D01*
X006719Y008151D01*
X006795Y008227D01*
X006795Y008611D01*
X006730Y008675D01*
X006775Y008720D02*
X007414Y008720D01*
X007440Y008621D02*
X006784Y008621D01*
X006795Y008523D02*
X007440Y008523D01*
X007440Y008424D02*
X007367Y008424D01*
X007436Y008326D02*
X007440Y008326D01*
X007438Y008227D02*
X007440Y008227D01*
X007438Y008129D02*
X007440Y008129D01*
X007438Y008030D02*
X007440Y008030D01*
X007137Y008227D02*
X007113Y008227D01*
X007113Y008184D02*
X007113Y008446D01*
X006942Y008446D01*
X006904Y008436D01*
X006870Y008416D01*
X006842Y008388D01*
X006822Y008354D01*
X006812Y008316D01*
X006812Y008184D01*
X007113Y008184D01*
X007113Y008326D02*
X007137Y008326D01*
X007137Y008424D02*
X007113Y008424D01*
X006883Y008424D02*
X006795Y008424D01*
X006795Y008326D02*
X006814Y008326D01*
X006812Y008227D02*
X006794Y008227D01*
X006812Y008129D02*
X006590Y008129D01*
X006590Y008030D02*
X006812Y008030D01*
X006674Y007932D02*
X006590Y007932D01*
X006590Y007833D02*
X006631Y007833D01*
X006631Y007735D02*
X006590Y007735D01*
X006590Y007636D02*
X006900Y007636D01*
X006631Y007538D02*
X006590Y007538D01*
X006050Y007500D02*
X007150Y006400D01*
X007480Y006400D01*
X007470Y006890D02*
X006915Y006890D01*
X006795Y007010D01*
X006895Y007010D01*
X006895Y006910D01*
X007470Y006910D01*
X007470Y006890D01*
X006895Y006947D02*
X006858Y006947D01*
X006875Y006159D02*
X006983Y006159D01*
X006991Y006150D02*
X007910Y006150D01*
X007910Y006150D01*
X006991Y006150D01*
X006863Y006060D02*
X006762Y006060D01*
X006765Y005962D02*
X006565Y005962D01*
X006543Y005863D02*
X006467Y005863D01*
X006398Y005765D02*
X006368Y005765D01*
X006341Y005666D02*
X006270Y005666D01*
X006320Y005568D02*
X006171Y005568D01*
X006073Y005469D02*
X006326Y005469D01*
X006367Y005371D02*
X005974Y005371D01*
X005876Y005272D02*
X006461Y005272D01*
X006839Y005272D02*
X006915Y005272D01*
X006968Y005174D02*
X005756Y005174D01*
X005537Y004484D02*
X004655Y004484D01*
X004677Y004386D02*
X005439Y004386D01*
X005429Y003893D02*
X004677Y003893D01*
X004668Y003795D02*
X005429Y003795D01*
X005429Y003696D02*
X002641Y003696D01*
X002618Y003795D02*
X002957Y003795D01*
X002943Y003893D02*
X002584Y003893D01*
X002542Y003992D02*
X002943Y003992D01*
X002867Y004090D02*
X002485Y004090D01*
X002406Y004189D02*
X002768Y004189D01*
X002680Y004287D02*
X002306Y004287D01*
X002174Y004386D02*
X002650Y004386D01*
X002650Y004484D02*
X001999Y004484D01*
X002149Y004583D02*
X002650Y004583D01*
X002636Y004681D02*
X002650Y004681D01*
X002881Y005568D02*
X002919Y005568D01*
X002919Y005666D02*
X002881Y005666D01*
X003450Y006894D02*
X003444Y006950D01*
X003040Y007975D02*
X003040Y007975D01*
X003040Y008075D01*
X003040Y008075D01*
X003040Y007975D01*
X003040Y008030D02*
X003040Y008030D01*
X004044Y008635D02*
X004058Y008650D01*
X004150Y008650D01*
X004305Y008523D02*
X005428Y008523D01*
X005440Y008534D02*
X005282Y008376D01*
X005108Y008376D01*
X005032Y008300D01*
X005032Y007944D01*
X005040Y007936D01*
X005023Y007919D01*
X005014Y007904D01*
X004961Y007957D01*
X004577Y007957D01*
X004548Y007928D01*
X004548Y008001D01*
X004542Y008025D01*
X004548Y008049D01*
X004548Y008123D01*
X004449Y008123D01*
X004449Y008123D01*
X004548Y008123D01*
X004548Y008198D01*
X004538Y008236D01*
X004518Y008271D01*
X004490Y008299D01*
X004456Y008318D01*
X004418Y008329D01*
X004272Y008329D01*
X004272Y008370D01*
X004262Y008408D01*
X004242Y008442D01*
X004234Y008451D01*
X005001Y009218D01*
X005027Y009218D01*
X005022Y009210D01*
X005012Y009172D01*
X005012Y009040D01*
X005313Y009040D01*
X005313Y009016D01*
X005012Y009016D01*
X005012Y008884D01*
X005022Y008846D01*
X005042Y008812D01*
X005070Y008784D01*
X005104Y008764D01*
X005142Y008754D01*
X005313Y008754D01*
X005313Y009016D01*
X005337Y009016D01*
X005337Y008754D01*
X005440Y008754D01*
X005440Y008534D01*
X005440Y008621D02*
X004404Y008621D01*
X004502Y008720D02*
X005440Y008720D01*
X005337Y008818D02*
X005313Y008818D01*
X005313Y008917D02*
X005337Y008917D01*
X005337Y009015D02*
X005313Y009015D01*
X005012Y009015D02*
X004798Y009015D01*
X004896Y009114D02*
X005012Y009114D01*
X005023Y009212D02*
X004995Y009212D01*
X005012Y008917D02*
X004699Y008917D01*
X004601Y008818D02*
X005038Y008818D01*
X005330Y008424D02*
X004253Y008424D01*
X004429Y008326D02*
X005057Y008326D01*
X005032Y008227D02*
X004540Y008227D01*
X004548Y008129D02*
X005032Y008129D01*
X005032Y008030D02*
X004543Y008030D01*
X004548Y007932D02*
X004552Y007932D01*
X004260Y007975D02*
X004260Y007975D01*
X004260Y008075D01*
X004260Y008075D01*
X004260Y007975D01*
X004260Y008030D02*
X004260Y008030D01*
X004986Y007932D02*
X005035Y007932D01*
X005300Y007669D02*
X005569Y007669D01*
X005569Y007847D01*
X005559Y007885D01*
X005618Y007944D01*
X005618Y008119D01*
X005716Y008217D01*
X005781Y008151D01*
X005860Y008151D01*
X005860Y008077D01*
X005770Y007987D01*
X005720Y007866D01*
X005720Y007734D01*
X005770Y007613D01*
X005860Y007523D01*
X005860Y007487D01*
X005837Y007510D01*
X005569Y007510D01*
X005569Y007631D01*
X005300Y007631D01*
X005300Y007669D01*
X005300Y007636D02*
X005761Y007636D01*
X005720Y007735D02*
X005569Y007735D01*
X005569Y007833D02*
X005720Y007833D01*
X005747Y007932D02*
X005606Y007932D01*
X005618Y008030D02*
X005813Y008030D01*
X005860Y008129D02*
X005628Y008129D01*
X006013Y008419D02*
X006050Y008382D01*
X006400Y008332D02*
X006488Y008419D01*
X006795Y008818D02*
X007347Y008818D01*
X007860Y008621D02*
X007941Y008621D01*
X007941Y008523D02*
X007860Y008523D01*
X007860Y008424D02*
X007941Y008424D01*
X008016Y008326D02*
X007860Y008326D01*
X007860Y008227D02*
X009844Y008227D01*
X009856Y008129D02*
X009018Y008129D01*
X009117Y008030D02*
X009946Y008030D01*
X010064Y007932D02*
X009210Y007932D01*
X009210Y007833D02*
X010241Y007833D01*
X010015Y008326D02*
X009815Y008326D01*
X009731Y008326D02*
X008834Y008326D01*
X008909Y008424D02*
X009689Y008424D01*
X009659Y008523D02*
X008909Y008523D01*
X008909Y008621D02*
X009641Y008621D01*
X009633Y008720D02*
X008909Y008720D01*
X008909Y008818D02*
X009635Y008818D01*
X009645Y008917D02*
X008895Y008917D01*
X008635Y009015D02*
X009665Y009015D01*
X009698Y009114D02*
X008635Y009114D01*
X008635Y009212D02*
X009743Y009212D01*
X009802Y009311D02*
X008635Y009311D01*
X008538Y009409D02*
X009877Y009409D01*
X009976Y009508D02*
X008439Y009508D01*
X008341Y009606D02*
X010214Y009606D01*
X010265Y009705D02*
X009031Y009705D01*
X009259Y009803D02*
X010413Y009803D01*
X010561Y009902D02*
X009395Y009902D01*
X009498Y010000D02*
X010551Y010000D01*
X010467Y010099D02*
X009570Y010099D01*
X009638Y010197D02*
X010383Y010197D01*
X010299Y010296D02*
X009701Y010296D01*
X009766Y010394D02*
X010184Y010394D01*
X010068Y010493D02*
X009832Y010493D01*
X009897Y010591D02*
X009953Y010591D01*
X010155Y009508D02*
X010270Y009508D01*
X010212Y009409D02*
X010327Y009409D01*
X010269Y009311D02*
X010384Y009311D01*
X010326Y009212D02*
X010441Y009212D01*
X010498Y009114D02*
X010382Y009114D01*
X010439Y009015D02*
X010555Y009015D01*
X010612Y008917D02*
X010496Y008917D01*
X010527Y008621D02*
X010327Y008621D01*
X010356Y008523D02*
X010156Y008523D01*
X010185Y008424D02*
X009985Y008424D01*
X010667Y008621D02*
X010782Y008621D01*
X010724Y008523D02*
X010839Y008523D01*
X010896Y008424D02*
X010780Y008424D01*
X010837Y008326D02*
X010953Y008326D01*
X011010Y008227D02*
X010894Y008227D01*
X010951Y008129D02*
X011067Y008129D01*
X011123Y008030D02*
X011008Y008030D01*
X011065Y007932D02*
X011180Y007932D01*
X011268Y007932D02*
X011735Y007932D01*
X011759Y007833D02*
X011071Y007833D01*
X011464Y008030D02*
X011700Y008030D01*
X011783Y007735D02*
X009210Y007735D01*
X009210Y007636D02*
X011806Y007636D01*
X011830Y007538D02*
X009210Y007538D01*
X009234Y007439D02*
X011854Y007439D01*
X011877Y007341D02*
X009250Y007341D01*
X009303Y007242D02*
X011901Y007242D01*
X011388Y007144D02*
X011250Y007144D01*
X011239Y007144D02*
X009330Y007144D01*
X009330Y007045D02*
X010895Y007045D01*
X010732Y006947D02*
X009289Y006947D01*
X009210Y006848D02*
X010622Y006848D01*
X010537Y006750D02*
X009210Y006750D01*
X009210Y006651D02*
X010468Y006651D01*
X010419Y006553D02*
X009210Y006553D01*
X009210Y006454D02*
X010389Y006454D01*
X010359Y006356D02*
X009299Y006356D01*
X009307Y006257D02*
X010346Y006257D01*
X010346Y006159D02*
X009307Y006159D01*
X009307Y006060D02*
X010349Y006060D01*
X010365Y005962D02*
X009304Y005962D01*
X009280Y005863D02*
X010392Y005863D01*
X010396Y005765D02*
X009307Y005765D01*
X009307Y005666D02*
X010297Y005666D01*
X010199Y005568D02*
X009307Y005568D01*
X009307Y005469D02*
X010100Y005469D01*
X010002Y005371D02*
X008690Y005371D01*
X008260Y005371D02*
X008045Y005371D01*
X008045Y005469D02*
X008188Y005469D01*
X008188Y005568D02*
X008045Y005568D01*
X007985Y005666D02*
X008188Y005666D01*
X008188Y005765D02*
X008133Y005765D01*
X007536Y005075D02*
X004742Y005075D01*
X004834Y004977D02*
X007635Y004977D01*
X008257Y004583D02*
X004799Y004583D01*
X004858Y004681D02*
X011810Y004681D01*
X011787Y004583D02*
X008643Y004583D01*
X008698Y004484D02*
X010284Y004484D01*
X010105Y004386D02*
X008698Y004386D01*
X008698Y004287D02*
X009980Y004287D01*
X009886Y004189D02*
X008698Y004189D01*
X008698Y004090D02*
X009812Y004090D01*
X009757Y003992D02*
X008698Y003992D01*
X008698Y003893D02*
X009723Y003893D01*
X009690Y003795D02*
X008698Y003795D01*
X008698Y003696D02*
X009669Y003696D01*
X009676Y003677D02*
X009676Y003677D01*
X009666Y003598D02*
X008660Y003598D01*
X008737Y003499D02*
X009661Y003499D01*
X009673Y003401D02*
X008778Y003401D01*
X008780Y003302D02*
X009697Y003302D01*
X009722Y003204D02*
X008755Y003204D01*
X008692Y003105D02*
X009767Y003105D01*
X009787Y003082D02*
X009787Y003082D01*
X009828Y003007D02*
X008531Y003007D01*
X008369Y003007D02*
X006592Y003007D01*
X006592Y002996D02*
X006891Y002996D01*
X006891Y002119D01*
X006880Y002081D01*
X006861Y002047D01*
X006833Y002019D01*
X006798Y001999D01*
X006760Y001989D01*
X006592Y001989D01*
X006592Y002996D01*
X006592Y002908D02*
X006495Y002908D01*
X006495Y002810D02*
X006592Y002810D01*
X006592Y002711D02*
X006495Y002711D01*
X006495Y002613D02*
X006592Y002613D01*
X006592Y002514D02*
X006495Y002514D01*
X006495Y002416D02*
X006592Y002416D01*
X006592Y002317D02*
X006495Y002317D01*
X006495Y002219D02*
X006592Y002219D01*
X006592Y002120D02*
X006495Y002120D01*
X006495Y002022D02*
X006592Y002022D01*
X006836Y002022D02*
X007816Y002022D01*
X007783Y001923D02*
X004512Y001923D01*
X004534Y001825D02*
X007762Y001825D01*
X007779Y001910D02*
X007779Y001910D01*
X007862Y002120D02*
X006891Y002120D01*
X006891Y002219D02*
X007921Y002219D01*
X007933Y002237D02*
X007933Y002237D01*
X007996Y002317D02*
X006891Y002317D01*
X006891Y002416D02*
X008093Y002416D01*
X008094Y002417D02*
X008094Y002417D01*
X008250Y002416D02*
X008366Y002416D01*
X008309Y002514D02*
X006891Y002514D01*
X006891Y002613D02*
X008430Y002613D01*
X008406Y002605D02*
X008406Y002605D01*
X008294Y002555D01*
X008293Y002554D01*
X008288Y002551D01*
X008768Y001718D01*
X009601Y002199D01*
X009598Y002205D01*
X009525Y002305D01*
X009441Y002396D01*
X009346Y002475D01*
X009243Y002542D01*
X009131Y002596D01*
X009014Y002635D01*
X008893Y002660D01*
X008893Y002660D01*
X008770Y002669D01*
X008770Y002669D01*
X008646Y002663D01*
X008524Y002641D01*
X008406Y002605D01*
X008293Y002554D02*
X008293Y002554D01*
X008307Y002317D02*
X008423Y002317D01*
X008480Y002219D02*
X008364Y002219D01*
X008421Y002120D02*
X008536Y002120D01*
X008478Y002022D02*
X008593Y002022D01*
X008535Y001923D02*
X008650Y001923D01*
X008592Y001825D02*
X008707Y001825D01*
X008764Y001726D02*
X008648Y001726D01*
X008611Y001628D02*
X008705Y001628D01*
X008640Y001529D02*
X008440Y001529D01*
X008470Y001431D02*
X008270Y001431D01*
X008299Y001332D02*
X008099Y001332D01*
X008129Y001234D02*
X007934Y001234D01*
X007934Y001135D02*
X007958Y001135D01*
X007044Y001135D02*
X005256Y001135D01*
X005256Y001037D02*
X007044Y001037D01*
X007044Y000938D02*
X005256Y000938D01*
X005256Y000840D02*
X007044Y000840D01*
X007044Y000741D02*
X005256Y000741D01*
X005256Y000643D02*
X007044Y000643D01*
X007044Y000544D02*
X005256Y000544D01*
X005256Y000446D02*
X007044Y000446D01*
X006938Y000347D02*
X005362Y000347D01*
X005256Y001234D02*
X007044Y001234D01*
X007044Y001332D02*
X005256Y001332D01*
X005256Y001431D02*
X007044Y001431D01*
X007044Y001529D02*
X005256Y001529D01*
X005256Y001628D02*
X007044Y001628D01*
X007089Y001726D02*
X005211Y001726D01*
X005493Y002022D02*
X004481Y002022D01*
X004433Y002120D02*
X005429Y002120D01*
X005429Y002219D02*
X004372Y002219D01*
X004289Y002317D02*
X005429Y002317D01*
X005429Y002416D02*
X004226Y002416D01*
X004226Y002514D02*
X005429Y002514D01*
X005429Y002613D02*
X004226Y002613D01*
X004226Y002711D02*
X005429Y002711D01*
X005429Y002810D02*
X004226Y002810D01*
X004273Y002908D02*
X004427Y002908D01*
X004397Y003007D02*
X004303Y003007D01*
X004303Y003105D02*
X004397Y003105D01*
X004397Y003204D02*
X004303Y003204D01*
X004303Y003302D02*
X004397Y003302D01*
X004397Y003401D02*
X004303Y003401D01*
X004303Y003499D02*
X004397Y003499D01*
X004398Y003598D02*
X004302Y003598D01*
X005021Y002908D02*
X005429Y002908D01*
X005429Y003007D02*
X005051Y003007D01*
X005050Y003598D02*
X005429Y003598D01*
X006083Y003598D02*
X006197Y003598D01*
X006197Y003696D02*
X006083Y003696D01*
X006083Y003795D02*
X006197Y003795D01*
X006197Y003893D02*
X006083Y003893D01*
X006083Y003992D02*
X006203Y003992D01*
X006197Y003499D02*
X006083Y003499D01*
X006083Y003401D02*
X006197Y003401D01*
X006197Y003302D02*
X006083Y003302D01*
X006083Y003204D02*
X006197Y003204D01*
X006197Y003105D02*
X006083Y003105D01*
X006083Y003007D02*
X006495Y003007D01*
X006197Y002908D02*
X006083Y002908D01*
X006083Y002810D02*
X006197Y002810D01*
X006197Y002711D02*
X006083Y002711D01*
X006083Y002613D02*
X006197Y002613D01*
X006197Y002514D02*
X006083Y002514D01*
X006083Y002416D02*
X006197Y002416D01*
X006197Y002317D02*
X006083Y002317D01*
X006083Y002219D02*
X006197Y002219D01*
X006197Y002120D02*
X006083Y002120D01*
X006020Y002022D02*
X006252Y002022D01*
X006891Y002711D02*
X010127Y002711D01*
X009990Y002810D02*
X006891Y002810D01*
X006891Y002908D02*
X009899Y002908D01*
X010275Y002613D02*
X009082Y002613D01*
X009286Y002514D02*
X010423Y002514D01*
X010572Y002416D02*
X009418Y002416D01*
X009441Y002396D02*
X009441Y002396D01*
X009514Y002317D02*
X010566Y002317D01*
X010481Y002219D02*
X009588Y002219D01*
X009464Y002120D02*
X010397Y002120D01*
X010313Y002022D02*
X009714Y002022D01*
X009779Y001923D02*
X010204Y001923D01*
X010088Y001825D02*
X009845Y001825D01*
X009910Y001726D02*
X009973Y001726D01*
X009493Y002022D02*
X009293Y002022D01*
X009323Y001923D02*
X009123Y001923D01*
X009152Y001825D02*
X008952Y001825D01*
X008982Y001726D02*
X008782Y001726D01*
X008524Y002641D02*
X008524Y002641D01*
X008646Y002663D02*
X008646Y002663D01*
X008208Y003105D02*
X006891Y003105D01*
X006891Y003204D02*
X008145Y003204D01*
X008120Y003302D02*
X006891Y003302D01*
X006891Y003401D02*
X008122Y003401D01*
X008163Y003499D02*
X006891Y003499D01*
X006891Y003598D02*
X008240Y003598D01*
X008202Y003696D02*
X006891Y003696D01*
X006891Y003795D02*
X008202Y003795D01*
X008202Y003893D02*
X006891Y003893D01*
X006885Y003992D02*
X008202Y003992D01*
X008417Y004283D02*
X008450Y004317D01*
X010145Y004977D02*
X011881Y004977D01*
X011905Y005075D02*
X010244Y005075D01*
X010342Y005174D02*
X011184Y005174D01*
X011106Y005193D02*
X011106Y005193D01*
X010891Y005272D02*
X010441Y005272D01*
X010539Y005371D02*
X010732Y005371D01*
X011050Y006150D02*
X011338Y006150D01*
X011858Y004878D02*
X004875Y004878D01*
X004880Y004780D02*
X011834Y004780D01*
X011763Y004484D02*
X010994Y004484D01*
X011190Y004386D02*
X011739Y004386D01*
X011707Y004287D02*
X011388Y004287D01*
X011586Y004189D02*
X011666Y004189D01*
X007941Y008720D02*
X007886Y008720D01*
X008242Y009705D02*
X008447Y009705D01*
X008469Y009705D02*
X008473Y009705D01*
X008230Y009803D02*
X008144Y009803D01*
X008088Y009902D02*
X008045Y009902D01*
X007992Y010000D02*
X007947Y010000D01*
X007918Y010099D02*
X007421Y010099D01*
X007461Y010197D02*
X007855Y010197D01*
X007809Y010296D02*
X007473Y010296D01*
X007463Y010394D02*
X007784Y010394D01*
X007758Y010493D02*
X007422Y010493D01*
X007332Y010591D02*
X007749Y010591D01*
X007752Y010690D02*
X006867Y010690D01*
X006871Y010591D02*
X006878Y010591D01*
X007080Y010985D02*
X007246Y010985D01*
X007147Y011084D02*
X007087Y011084D01*
X007087Y011182D02*
X007095Y011182D01*
X007442Y010887D02*
X004858Y010887D01*
X005054Y010985D02*
X005220Y010985D01*
X005213Y011084D02*
X005153Y011084D01*
X005205Y011182D02*
X005213Y011182D01*
X004600Y010887D02*
X004511Y010887D01*
X004530Y010788D02*
X007763Y010788D01*
X007780Y010887D02*
X007700Y010887D01*
X004823Y009606D02*
X002148Y009606D01*
X001749Y010000D02*
X002794Y010000D01*
X002729Y010099D02*
X001833Y010099D01*
X001917Y010197D02*
X002664Y010197D01*
X002599Y010296D02*
X002001Y010296D01*
X002116Y010394D02*
X002534Y010394D01*
X002468Y010493D02*
X002232Y010493D01*
X002347Y010591D02*
X002403Y010591D01*
X002891Y009902D02*
X001703Y009902D01*
X004049Y009508D02*
X004725Y009508D01*
X004626Y009409D02*
X004081Y009409D01*
X004081Y009311D02*
X004528Y009311D01*
X004429Y009212D02*
X004081Y009212D01*
X004081Y009114D02*
X004331Y009114D01*
X004232Y009015D02*
X004081Y009015D01*
X005569Y007538D02*
X005846Y007538D01*
X002545Y001923D02*
X002096Y001923D01*
X002212Y001825D02*
X002479Y001825D01*
X002414Y001726D02*
X002327Y001726D01*
D33*
X004830Y005900D02*
X005550Y005900D01*
X005550Y006400D02*
X004830Y006400D01*
X004830Y006900D02*
X005550Y006900D01*
X004769Y007650D02*
X004534Y007415D01*
X004150Y008650D02*
X005025Y009525D01*
X005119Y009525D01*
X003845Y009114D02*
X003735Y009225D01*
X003453Y008877D02*
X003105Y009225D01*
D34*
X004800Y009950D03*
X006050Y007800D03*
X006150Y006900D03*
X006600Y006350D03*
X006650Y005550D03*
X005550Y005900D03*
X005550Y006400D03*
X005550Y006900D03*
X004550Y004800D03*
X003900Y004850D03*
X001900Y004800D03*
X007650Y008950D03*
X009000Y007110D03*
X008450Y006690D03*
X008450Y003330D03*
D35*
X008450Y003883D01*
X008417Y004283D02*
X005633Y004283D01*
X005500Y004150D01*
X004483Y004150D01*
X004350Y004133D01*
X004350Y004600D01*
X004550Y004800D01*
X003552Y004796D02*
X003552Y004113D01*
X003552Y004796D02*
X003400Y004944D01*
X002400Y004944D02*
X002400Y005150D01*
X002100Y005150D01*
X002000Y005250D01*
X002000Y004900D01*
X001900Y004800D01*
X002000Y005250D02*
X002000Y007400D01*
X002106Y007506D01*
X002400Y007506D01*
X002400Y008000D01*
X002935Y008635D01*
X003065Y009225D02*
X003105Y009225D01*
X004800Y009950D02*
X005119Y009669D01*
X005119Y009525D01*
X005631Y009525D02*
X005631Y009334D01*
X005325Y009028D01*
X005650Y008800D02*
X005781Y008931D01*
X006013Y008931D01*
X005650Y008800D02*
X005650Y008447D01*
X005325Y008122D01*
X005750Y007300D02*
X004649Y007300D01*
X004534Y007415D01*
X004830Y006900D02*
X004006Y006900D01*
X003956Y006950D01*
X005750Y007300D02*
X006150Y006900D01*
X007000Y005900D02*
X007480Y005900D01*
X007000Y005900D02*
X006650Y005550D01*
X008475Y005655D02*
X008486Y005644D01*
X009000Y005644D01*
X009000Y006156D02*
X009000Y007110D01*
X009000Y007350D02*
X009000Y007850D01*
X008850Y008000D01*
X007781Y008000D01*
X007650Y007869D01*
X007650Y008950D01*
X007650Y009306D01*
X007456Y009500D01*
X007800Y009850D02*
X008425Y009225D01*
X008425Y008651D01*
X007650Y007869D02*
X007431Y007650D01*
X008425Y007549D02*
X008450Y007474D01*
X008450Y006690D01*
X006488Y008931D02*
X006634Y009078D01*
X007125Y009078D01*
X006944Y009309D01*
X006944Y009500D01*
X006750Y009850D02*
X007800Y009850D01*
X006750Y009850D02*
X006650Y009950D01*
X006650Y010345D01*
X006662Y010357D01*
X005638Y010357D02*
X005631Y010349D01*
X005631Y009525D01*
D36*
X006600Y006350D02*
X005650Y005400D01*
X004830Y005400D01*
X003456Y005400D01*
X003400Y005456D01*
X002900Y004944D02*
X002900Y004410D01*
X003198Y004113D01*
X003552Y004113D02*
X003552Y004502D01*
X003900Y004850D01*
X003976Y003267D02*
X003976Y002124D01*
X003526Y001674D01*
X003550Y001650D01*
X004724Y003267D02*
X005534Y003267D01*
X005756Y003044D01*
X009000Y007110D02*
X009000Y007350D01*
M02*
