G75*
%MOIN*%
%OFA0B0*%
%FSLAX24Y24*%
%IPPOS*%
%LPD*%
%AMOC8*
5,1,8,0,0,1.08239X$1,22.5*
%
%ADD10C,0.0476*%
%ADD11C,0.0787*%
%ADD12C,0.1266*%
%ADD13C,0.0120*%
%ADD14C,0.0400*%
%ADD15C,0.0140*%
%ADD16C,0.0100*%
%ADD17C,0.0160*%
%ADD18C,0.0240*%
D10*
X005195Y010298D03*
X007105Y010298D03*
D11*
X007571Y011400D03*
X004729Y011400D03*
D12*
X003550Y010650D03*
X001650Y008750D03*
X000963Y006150D03*
X001650Y003550D03*
X003550Y001650D03*
X008750Y001650D03*
X010650Y003550D03*
X011338Y006150D03*
X010650Y008750D03*
X008750Y010650D03*
D13*
X009327Y010104D02*
X008160Y010104D01*
X008151Y010112D02*
X008244Y010026D01*
X008350Y009957D01*
X008464Y009905D01*
X008584Y009872D01*
X008708Y009857D01*
X008833Y009861D01*
X008955Y009884D01*
X009073Y009925D01*
X009183Y009984D01*
X009283Y010059D01*
X009370Y010148D01*
X009443Y010250D01*
X009886Y010918D01*
X008414Y011768D01*
X008057Y011050D01*
X008000Y010937D01*
X007962Y010817D01*
X007944Y010692D01*
X007947Y010565D01*
X007969Y010441D01*
X008012Y010322D01*
X008073Y010211D01*
X008151Y010112D01*
X008067Y010223D02*
X009423Y010223D01*
X009503Y010341D02*
X008005Y010341D01*
X007966Y010460D02*
X009582Y010460D01*
X009661Y010578D02*
X007946Y010578D01*
X007945Y010697D02*
X009739Y010697D01*
X009818Y010815D02*
X007962Y010815D01*
X007999Y010934D02*
X009859Y010934D01*
X009654Y011052D02*
X008058Y011052D01*
X008117Y011171D02*
X009448Y011171D01*
X009243Y011289D02*
X008176Y011289D01*
X008235Y011408D02*
X009038Y011408D01*
X008833Y011526D02*
X008294Y011526D01*
X008353Y011645D02*
X008627Y011645D01*
X008422Y011763D02*
X008411Y011763D01*
X008307Y009986D02*
X009185Y009986D01*
X008866Y009867D02*
X008623Y009867D01*
X009955Y009156D02*
X011339Y009156D01*
X011271Y009275D02*
X010040Y009275D01*
X010051Y009288D02*
X009973Y009189D01*
X009912Y009078D01*
X009869Y008959D01*
X009847Y008835D01*
X009844Y008708D01*
X009862Y008583D01*
X009900Y008463D01*
X009957Y008350D01*
X010030Y008248D01*
X010117Y008159D01*
X010217Y008084D01*
X010327Y008025D01*
X010445Y007984D01*
X010567Y007961D01*
X010692Y007957D01*
X010816Y007972D01*
X010936Y008005D01*
X011050Y008057D01*
X011768Y008414D01*
X010918Y009886D01*
X010250Y009443D01*
X010144Y009374D01*
X010051Y009288D01*
X010174Y009393D02*
X011203Y009393D01*
X011134Y009512D02*
X010353Y009512D01*
X010532Y009630D02*
X011066Y009630D01*
X010997Y009749D02*
X010711Y009749D01*
X010889Y009867D02*
X010929Y009867D01*
X011408Y009038D02*
X009897Y009038D01*
X009862Y008919D02*
X011476Y008919D01*
X011545Y008801D02*
X009846Y008801D01*
X009848Y008682D02*
X011613Y008682D01*
X011681Y008564D02*
X009869Y008564D01*
X009909Y008445D02*
X011750Y008445D01*
X011592Y008327D02*
X009974Y008327D01*
X010069Y008208D02*
X011354Y008208D01*
X011115Y008090D02*
X010210Y008090D01*
X010512Y007971D02*
X010810Y007971D01*
X011211Y006943D02*
X011338Y006950D01*
X012138Y007000D01*
X012138Y005300D01*
X011338Y005350D01*
X011213Y005362D01*
X011092Y005393D01*
X010977Y005442D01*
X010871Y005508D01*
X010777Y005589D01*
X010695Y005684D01*
X010629Y005790D01*
X010580Y005905D01*
X010550Y006026D01*
X010538Y006150D01*
X010545Y006276D01*
X010572Y006400D01*
X010619Y006517D01*
X010684Y006625D01*
X010766Y006721D01*
X010862Y006803D01*
X010971Y006869D01*
X011088Y006915D01*
X011211Y006943D01*
X011061Y006905D02*
X012138Y006905D01*
X012138Y006786D02*
X010842Y006786D01*
X010720Y006668D02*
X012138Y006668D01*
X012138Y006549D02*
X010638Y006549D01*
X010584Y006431D02*
X012138Y006431D01*
X012138Y006312D02*
X010553Y006312D01*
X010540Y006194D02*
X012138Y006194D01*
X012138Y006075D02*
X010545Y006075D01*
X010567Y005957D02*
X012138Y005957D01*
X012138Y005838D02*
X010609Y005838D01*
X010673Y005720D02*
X012138Y005720D01*
X012138Y005601D02*
X010766Y005601D01*
X010912Y005483D02*
X012138Y005483D01*
X012138Y005364D02*
X011206Y005364D01*
X010817Y004338D02*
X010692Y004356D01*
X010565Y004353D01*
X010441Y004331D01*
X010322Y004288D01*
X010211Y004227D01*
X010112Y004149D01*
X010026Y004056D01*
X009957Y003950D01*
X009905Y003836D01*
X009872Y003716D01*
X009857Y003592D01*
X009861Y003467D01*
X009884Y003345D01*
X009925Y003227D01*
X009984Y003117D01*
X010059Y003017D01*
X010148Y002930D01*
X010250Y002857D01*
X010918Y002414D01*
X011768Y003886D01*
X011050Y004243D01*
X010937Y004300D01*
X010817Y004338D01*
X010942Y004298D02*
X010348Y004298D01*
X010150Y004179D02*
X011178Y004179D01*
X011417Y004061D02*
X010031Y004061D01*
X009954Y003942D02*
X011655Y003942D01*
X011732Y003824D02*
X009902Y003824D01*
X009870Y003705D02*
X011663Y003705D01*
X011595Y003587D02*
X009857Y003587D01*
X009861Y003468D02*
X011526Y003468D01*
X011458Y003350D02*
X009883Y003350D01*
X009924Y003231D02*
X011390Y003231D01*
X011321Y003113D02*
X009987Y003113D01*
X010083Y002994D02*
X011253Y002994D01*
X011184Y002876D02*
X010224Y002876D01*
X010401Y002757D02*
X011116Y002757D01*
X011048Y002639D02*
X010579Y002639D01*
X010758Y002520D02*
X010979Y002520D01*
X010650Y003550D02*
X009700Y004500D01*
X009700Y007400D01*
X009450Y007650D01*
X006200Y007650D01*
X006050Y007800D01*
X004052Y010030D02*
X003950Y009957D01*
X003837Y009900D01*
X003717Y009862D01*
X003592Y009844D01*
X003465Y009847D01*
X003341Y009869D01*
X003222Y009912D01*
X003111Y009973D01*
X003012Y010051D01*
X002926Y010144D01*
X002857Y010250D01*
X002414Y010918D01*
X003886Y011768D01*
X004243Y011050D01*
X004295Y010936D01*
X004328Y010816D01*
X004343Y010692D01*
X004339Y010567D01*
X004316Y010445D01*
X004275Y010327D01*
X004216Y010217D01*
X004141Y010117D01*
X004052Y010030D01*
X003990Y009986D02*
X003095Y009986D01*
X002963Y010104D02*
X004128Y010104D01*
X004219Y010223D02*
X002875Y010223D01*
X002797Y010341D02*
X004280Y010341D01*
X004319Y010460D02*
X002718Y010460D01*
X002639Y010578D02*
X004340Y010578D01*
X004343Y010697D02*
X002561Y010697D01*
X002482Y010815D02*
X004328Y010815D01*
X004295Y010934D02*
X002441Y010934D01*
X002646Y011052D02*
X004242Y011052D01*
X004183Y011171D02*
X002852Y011171D01*
X003057Y011289D02*
X004124Y011289D01*
X004065Y011408D02*
X003262Y011408D01*
X003467Y011526D02*
X004006Y011526D01*
X003947Y011645D02*
X003673Y011645D01*
X003878Y011763D02*
X003889Y011763D01*
X003732Y009867D02*
X003354Y009867D01*
X002316Y009183D02*
X002375Y009073D01*
X002416Y008955D01*
X002439Y008833D01*
X002443Y008708D01*
X002428Y008584D01*
X002395Y008464D01*
X002343Y008350D01*
X002274Y008244D01*
X002188Y008151D01*
X002089Y008073D01*
X001978Y008012D01*
X001859Y007969D01*
X001735Y007947D01*
X001608Y007944D01*
X001483Y007962D01*
X001363Y008000D01*
X001250Y008057D01*
X000532Y008414D01*
X001382Y009886D01*
X002050Y009443D01*
X002152Y009370D01*
X002241Y009283D01*
X002316Y009183D01*
X002330Y009156D02*
X000961Y009156D01*
X001029Y009275D02*
X002247Y009275D01*
X002120Y009393D02*
X001097Y009393D01*
X001166Y009512D02*
X001947Y009512D01*
X001768Y009630D02*
X001234Y009630D01*
X001303Y009749D02*
X001589Y009749D01*
X001411Y009867D02*
X001371Y009867D01*
X000892Y009038D02*
X002387Y009038D01*
X002423Y008919D02*
X000824Y008919D01*
X000755Y008801D02*
X002440Y008801D01*
X002440Y008682D02*
X000687Y008682D01*
X000619Y008564D02*
X002423Y008564D01*
X002386Y008445D02*
X000550Y008445D01*
X000708Y008327D02*
X002327Y008327D01*
X002240Y008208D02*
X000946Y008208D01*
X001185Y008090D02*
X002110Y008090D01*
X001864Y007971D02*
X001456Y007971D01*
X001087Y006938D02*
X000963Y006950D01*
X000163Y007000D01*
X000163Y005300D01*
X000963Y005350D01*
X001089Y005357D01*
X001212Y005385D01*
X001329Y005431D01*
X001438Y005497D01*
X001534Y005579D01*
X001616Y005675D01*
X001681Y005783D01*
X001728Y005900D01*
X001755Y006024D01*
X001763Y006150D01*
X001750Y006274D01*
X001720Y006395D01*
X001671Y006510D01*
X001605Y006616D01*
X001523Y006711D01*
X001429Y006792D01*
X001323Y006858D01*
X001208Y006907D01*
X001087Y006938D01*
X001214Y006905D02*
X000163Y006905D01*
X000163Y006786D02*
X001436Y006786D01*
X001561Y006668D02*
X000163Y006668D01*
X000163Y006549D02*
X001646Y006549D01*
X001705Y006431D02*
X000163Y006431D01*
X000163Y006312D02*
X001741Y006312D01*
X001758Y006194D02*
X000163Y006194D01*
X000163Y006075D02*
X001758Y006075D01*
X001740Y005957D02*
X000163Y005957D01*
X000163Y005838D02*
X001703Y005838D01*
X001643Y005720D02*
X000163Y005720D01*
X000163Y005601D02*
X001553Y005601D01*
X001414Y005483D02*
X000163Y005483D01*
X000163Y005364D02*
X001120Y005364D01*
X001374Y004298D02*
X001909Y004298D01*
X001855Y004316D02*
X001733Y004339D01*
X001608Y004343D01*
X001484Y004328D01*
X001364Y004295D01*
X001250Y004243D01*
X000532Y003886D01*
X001382Y002414D01*
X002050Y002857D01*
X002156Y002926D01*
X002249Y003012D01*
X002327Y003111D01*
X002388Y003222D01*
X002431Y003341D01*
X002453Y003465D01*
X002456Y003592D01*
X002438Y003717D01*
X002400Y003837D01*
X002343Y003950D01*
X002270Y004052D01*
X002183Y004141D01*
X002083Y004216D01*
X001973Y004275D01*
X001855Y004316D01*
X002132Y004179D02*
X001122Y004179D01*
X000883Y004061D02*
X002262Y004061D01*
X002347Y003942D02*
X000645Y003942D01*
X000568Y003824D02*
X002404Y003824D01*
X002439Y003705D02*
X000637Y003705D01*
X000705Y003587D02*
X002456Y003587D01*
X002453Y003468D02*
X000774Y003468D01*
X000842Y003350D02*
X002432Y003350D01*
X002391Y003231D02*
X000910Y003231D01*
X000979Y003113D02*
X002328Y003113D01*
X002229Y002994D02*
X001047Y002994D01*
X001116Y002876D02*
X002078Y002876D01*
X001899Y002757D02*
X001184Y002757D01*
X001252Y002639D02*
X001721Y002639D01*
X001542Y002520D02*
X001321Y002520D01*
X002414Y001382D02*
X003886Y000532D01*
X004243Y001250D01*
X004300Y001363D01*
X004338Y001483D01*
X004356Y001608D01*
X004353Y001735D01*
X004331Y001859D01*
X004288Y001978D01*
X004227Y002089D01*
X004149Y002188D01*
X004056Y002274D01*
X003950Y002343D01*
X003836Y002395D01*
X003716Y002428D01*
X003592Y002443D01*
X003467Y002439D01*
X003345Y002416D01*
X003227Y002375D01*
X003117Y002316D01*
X003017Y002241D01*
X002930Y002152D01*
X002857Y002050D01*
X002414Y001382D01*
X002461Y001454D02*
X004328Y001454D01*
X004350Y001572D02*
X002540Y001572D01*
X002619Y001691D02*
X004354Y001691D01*
X004340Y001809D02*
X002697Y001809D01*
X002776Y001928D02*
X004306Y001928D01*
X004251Y002046D02*
X002855Y002046D01*
X002942Y002165D02*
X004167Y002165D01*
X004041Y002283D02*
X003073Y002283D01*
X003303Y002402D02*
X003811Y002402D01*
X004286Y001335D02*
X002496Y001335D01*
X002701Y001217D02*
X004226Y001217D01*
X004167Y001098D02*
X002906Y001098D01*
X003111Y000980D02*
X004108Y000980D01*
X004050Y000861D02*
X003317Y000861D01*
X003522Y000743D02*
X003991Y000743D01*
X003932Y000624D02*
X003727Y000624D01*
X007972Y001484D02*
X008005Y001364D01*
X008057Y001250D01*
X008414Y000532D01*
X009886Y001382D01*
X009443Y002050D01*
X009374Y002156D01*
X009288Y002249D01*
X009189Y002327D01*
X009078Y002388D01*
X008959Y002431D01*
X008835Y002453D01*
X008708Y002456D01*
X008583Y002438D01*
X008463Y002400D01*
X008350Y002343D01*
X008248Y002270D01*
X008159Y002183D01*
X008084Y002083D01*
X008025Y001973D01*
X007984Y001855D01*
X007961Y001733D01*
X007957Y001608D01*
X007972Y001484D01*
X007980Y001454D02*
X009839Y001454D01*
X009804Y001335D02*
X008019Y001335D01*
X008074Y001217D02*
X009599Y001217D01*
X009394Y001098D02*
X008133Y001098D01*
X008192Y000980D02*
X009189Y000980D01*
X008983Y000861D02*
X008250Y000861D01*
X008309Y000743D02*
X008778Y000743D01*
X008573Y000624D02*
X008368Y000624D01*
X007961Y001572D02*
X009760Y001572D01*
X009681Y001691D02*
X007959Y001691D01*
X007975Y001809D02*
X009603Y001809D01*
X009524Y001928D02*
X008009Y001928D01*
X008064Y002046D02*
X009445Y002046D01*
X009365Y002165D02*
X008145Y002165D01*
X008266Y002283D02*
X009245Y002283D01*
X009041Y002402D02*
X008469Y002402D01*
D14*
X008450Y003330D03*
X006650Y005550D03*
X006600Y006350D03*
X006150Y006900D03*
X005550Y006900D03*
X005550Y006400D03*
X005550Y005900D03*
X004550Y004800D03*
X003900Y004850D03*
X001900Y004800D03*
X006050Y007800D03*
X007650Y008950D03*
X009000Y007110D03*
X008450Y006690D03*
X004800Y009950D03*
D15*
X003550Y010650D02*
X005550Y008650D01*
X005550Y006900D01*
X005550Y006400D02*
X002500Y006400D01*
X002100Y006800D01*
X002100Y008300D01*
X001650Y008750D01*
X000963Y006150D02*
X001213Y005900D01*
X005550Y005900D01*
X006650Y005550D02*
X005250Y004150D01*
X002250Y004150D01*
X001650Y003550D01*
D16*
X001655Y002367D02*
X001865Y002107D01*
X002365Y001652D01*
X002657Y002093D01*
X002657Y002096D01*
X002701Y002158D01*
X002739Y002215D01*
X002739Y002228D01*
X002784Y002274D01*
X002821Y002326D01*
X002837Y002329D01*
X002838Y002329D01*
X002840Y002346D01*
X002891Y002384D01*
X002936Y002430D01*
X002953Y002430D01*
X002953Y002431D01*
X002958Y002446D01*
X003014Y002477D01*
X003066Y002515D01*
X003082Y002513D01*
X003082Y002513D01*
X003090Y002528D01*
X003150Y002549D01*
X003207Y002580D01*
X003222Y002575D01*
X003223Y002575D01*
X003232Y002589D01*
X003295Y002600D01*
X003356Y002622D01*
X003371Y002614D01*
X003371Y002615D01*
X003383Y002627D01*
X003447Y002629D01*
X003510Y002641D01*
X003523Y002631D01*
X003524Y002631D01*
X003537Y002641D01*
X003601Y002634D01*
X003665Y002636D01*
X003677Y002624D01*
X003677Y002624D01*
X003692Y002632D01*
X003753Y002615D01*
X003817Y002607D01*
X003827Y002594D01*
X003828Y002594D01*
X003843Y002600D01*
X003902Y002573D01*
X003963Y002556D01*
X003972Y002542D01*
X003972Y002541D01*
X003988Y002545D01*
X004042Y002510D01*
X004100Y002483D01*
X004106Y002468D01*
X004109Y002466D01*
X004126Y002467D01*
X004173Y002424D01*
X004226Y002389D01*
X004229Y002372D01*
X004232Y002370D01*
X004249Y002367D01*
X004289Y002318D01*
X004335Y002275D01*
X004336Y002258D01*
X004338Y002254D01*
X004355Y002250D01*
X004386Y002194D01*
X004425Y002144D01*
X004423Y002127D01*
X004425Y002124D01*
X004441Y002116D01*
X004462Y002057D01*
X004492Y002001D01*
X004488Y001984D01*
X004489Y001981D01*
X004503Y001971D01*
X004515Y001908D01*
X004536Y001849D01*
X004528Y001833D01*
X004529Y001829D01*
X004542Y001817D01*
X004543Y001754D01*
X004554Y001692D01*
X004544Y001677D01*
X004545Y001673D01*
X004555Y001659D01*
X004546Y001597D01*
X004547Y001533D01*
X004535Y001521D01*
X004534Y001517D01*
X004543Y001501D01*
X004524Y001441D01*
X004515Y001378D01*
X004501Y001368D01*
X004499Y001364D01*
X004505Y001348D01*
X004476Y001291D01*
X004457Y001231D01*
X004442Y001223D01*
X004413Y001165D01*
X004142Y000619D01*
X004887Y000396D01*
X005759Y000272D01*
X006639Y000280D01*
X007509Y000418D01*
X008138Y000618D01*
X008049Y000798D01*
X008049Y000798D01*
X007897Y001100D01*
X008732Y001582D01*
X008682Y001668D01*
X007851Y001189D01*
X007844Y001202D01*
X007844Y001202D01*
X007844Y001203D01*
X007799Y001314D01*
X007799Y001314D01*
X007766Y001430D01*
X007766Y001430D01*
X007748Y001550D01*
X007748Y001550D01*
X007744Y001671D01*
X007744Y001671D01*
X007755Y001792D01*
X007755Y001792D01*
X007779Y001910D01*
X007779Y001910D01*
X007817Y002025D01*
X007817Y002025D01*
X007869Y002135D01*
X007869Y002135D01*
X007888Y002166D01*
X007933Y002237D01*
X007933Y002237D01*
X007961Y002273D01*
X008008Y002332D01*
X008008Y002332D01*
X008008Y002332D01*
X008094Y002417D01*
X008094Y002417D01*
X008190Y002491D01*
X008190Y002491D01*
X008202Y002499D01*
X008682Y001668D01*
X008768Y001718D01*
X008288Y002551D01*
X008293Y002554D01*
X008293Y002554D01*
X008295Y002555D01*
X008406Y002605D01*
X008406Y002605D01*
X008524Y002641D01*
X008524Y002641D01*
X008646Y002663D01*
X008646Y002663D01*
X008770Y002669D01*
X008770Y002669D01*
X008893Y002660D01*
X008893Y002660D01*
X009014Y002635D01*
X009131Y002596D01*
X009243Y002542D01*
X009346Y002475D01*
X009441Y002396D01*
X009441Y002396D01*
X009525Y002305D01*
X009598Y002205D01*
X009601Y002199D01*
X008768Y001718D01*
X008818Y001632D01*
X009653Y002113D01*
X009953Y001662D01*
X010502Y002179D01*
X010647Y002365D01*
X010207Y002657D01*
X010204Y002657D01*
X010142Y002701D01*
X010085Y002739D01*
X010072Y002739D01*
X010026Y002784D01*
X009974Y002821D01*
X009971Y002837D01*
X009971Y002838D01*
X009954Y002840D01*
X009916Y002891D01*
X009870Y002936D01*
X009870Y002953D01*
X009869Y002953D01*
X009854Y002958D01*
X009823Y003014D01*
X009785Y003066D01*
X009787Y003082D01*
X009787Y003082D01*
X009772Y003090D01*
X009751Y003150D01*
X009720Y003207D01*
X009725Y003222D01*
X009725Y003223D01*
X009711Y003232D01*
X009700Y003295D01*
X009678Y003356D01*
X009686Y003371D01*
X009685Y003371D01*
X009673Y003383D01*
X009671Y003447D01*
X009659Y003510D01*
X009669Y003523D01*
X009669Y003524D01*
X009659Y003537D01*
X009666Y003601D01*
X009664Y003665D01*
X009676Y003677D01*
X009676Y003677D01*
X009668Y003692D01*
X009685Y003753D01*
X009693Y003817D01*
X009706Y003827D01*
X009706Y003828D01*
X009700Y003843D01*
X009727Y003902D01*
X009744Y003963D01*
X009758Y003972D01*
X009759Y003972D01*
X009755Y003988D01*
X009790Y004042D01*
X009817Y004100D01*
X009827Y004104D01*
X009621Y004310D01*
X009510Y004421D01*
X009510Y007321D01*
X009371Y007460D01*
X006121Y007460D01*
X006111Y007470D01*
X005984Y007470D01*
X005863Y007520D01*
X005770Y007613D01*
X005750Y007662D01*
X005750Y007167D01*
X005830Y007087D01*
X005850Y007038D01*
X005870Y007087D01*
X005963Y007180D01*
X006084Y007230D01*
X006216Y007230D01*
X006337Y007180D01*
X006430Y007087D01*
X006480Y006966D01*
X006480Y006834D01*
X006430Y006713D01*
X006400Y006683D01*
X006400Y006617D01*
X006413Y006630D01*
X006534Y006680D01*
X006576Y006680D01*
X007218Y007322D01*
X007310Y007360D01*
X008783Y007360D01*
X008813Y007390D01*
X008934Y007440D01*
X009066Y007440D01*
X009187Y007390D01*
X009280Y007297D01*
X009330Y007176D01*
X009330Y007044D01*
X009280Y006923D01*
X009187Y006830D01*
X009066Y006780D01*
X008934Y006780D01*
X008813Y006830D01*
X008783Y006860D01*
X008737Y006860D01*
X008780Y006756D01*
X008780Y006624D01*
X008730Y006503D01*
X008660Y006433D01*
X008660Y003587D01*
X008730Y003517D01*
X008780Y003396D01*
X008780Y003264D01*
X008730Y003143D01*
X008637Y003050D01*
X008516Y003000D01*
X008384Y003000D01*
X008263Y003050D01*
X008170Y003143D01*
X008120Y003264D01*
X008120Y003396D01*
X008170Y003517D01*
X008240Y003587D01*
X008240Y006433D01*
X008170Y006503D01*
X008120Y006624D01*
X008120Y006756D01*
X008163Y006860D01*
X007464Y006860D01*
X006930Y006326D01*
X006930Y006284D01*
X006880Y006163D01*
X006787Y006070D01*
X006666Y006020D01*
X006534Y006020D01*
X006413Y006070D01*
X006400Y006083D01*
X006400Y005850D01*
X006362Y005758D01*
X006292Y005688D01*
X005792Y005188D01*
X005700Y005150D01*
X004554Y005150D01*
X004534Y005130D01*
X004616Y005130D01*
X004737Y005080D01*
X004830Y004987D01*
X004880Y004866D01*
X004880Y004734D01*
X004830Y004613D01*
X004737Y004520D01*
X004616Y004470D01*
X004517Y004470D01*
X004410Y004363D01*
X004397Y004350D01*
X005167Y004350D01*
X006320Y005503D01*
X006320Y005616D01*
X006370Y005737D01*
X006463Y005830D01*
X006584Y005880D01*
X006716Y005880D01*
X006837Y005830D01*
X006930Y005737D01*
X006980Y005616D01*
X006980Y005484D01*
X006930Y005363D01*
X006837Y005270D01*
X006716Y005220D01*
X006603Y005220D01*
X005450Y004067D01*
X005333Y003950D01*
X002563Y003950D01*
X002576Y003909D01*
X002605Y003852D01*
X002599Y003836D01*
X002601Y003832D01*
X002615Y003822D01*
X002624Y003759D01*
X002643Y003699D01*
X002634Y003683D01*
X002635Y003679D01*
X002647Y003667D01*
X002646Y003603D01*
X002655Y003541D01*
X002645Y003527D01*
X002644Y003523D01*
X002654Y003508D01*
X002643Y003446D01*
X002642Y003383D01*
X002629Y003371D01*
X002628Y003367D01*
X002636Y003351D01*
X002615Y003292D01*
X002603Y003229D01*
X002589Y003219D01*
X002588Y003216D01*
X002592Y003199D01*
X002562Y003143D01*
X002541Y003084D01*
X002525Y003076D01*
X002523Y003073D01*
X002525Y003056D01*
X002486Y003006D01*
X002455Y002950D01*
X002438Y002946D01*
X002436Y002942D01*
X002435Y002925D01*
X002389Y002882D01*
X002349Y002833D01*
X002332Y002830D01*
X002329Y002828D01*
X002326Y002811D01*
X002273Y002776D01*
X002226Y002733D01*
X002209Y002734D01*
X002155Y002699D01*
X001655Y002367D01*
X001695Y002317D02*
X002814Y002317D01*
X002739Y002219D02*
X001775Y002219D01*
X001855Y002120D02*
X002674Y002120D01*
X002610Y002022D02*
X001959Y002022D01*
X002067Y001923D02*
X002545Y001923D01*
X002479Y001825D02*
X002175Y001825D01*
X002283Y001726D02*
X002414Y001726D01*
X002922Y002416D02*
X001728Y002416D01*
X001877Y002514D02*
X003064Y002514D01*
X003073Y002514D02*
X003083Y002514D01*
X003330Y002613D02*
X002025Y002613D01*
X002174Y002711D02*
X010127Y002711D01*
X009990Y002810D02*
X002324Y002810D01*
X002417Y002908D02*
X009899Y002908D01*
X009828Y003007D02*
X008531Y003007D01*
X008369Y003007D02*
X002486Y003007D01*
X002548Y003105D02*
X008208Y003105D01*
X008145Y003204D02*
X002591Y003204D01*
X002618Y003302D02*
X008120Y003302D01*
X008122Y003401D02*
X002642Y003401D01*
X002653Y003499D02*
X008163Y003499D01*
X008240Y003598D02*
X002647Y003598D01*
X002641Y003696D02*
X008240Y003696D01*
X008240Y003795D02*
X002618Y003795D01*
X002584Y003893D02*
X008240Y003893D01*
X008240Y003992D02*
X005374Y003992D01*
X005473Y004090D02*
X008240Y004090D01*
X008240Y004189D02*
X005571Y004189D01*
X005670Y004287D02*
X008240Y004287D01*
X008240Y004386D02*
X005768Y004386D01*
X005867Y004484D02*
X008240Y004484D01*
X008240Y004583D02*
X005965Y004583D01*
X006064Y004681D02*
X008240Y004681D01*
X008240Y004780D02*
X006162Y004780D01*
X006261Y004878D02*
X008240Y004878D01*
X008240Y004977D02*
X006359Y004977D01*
X006458Y005075D02*
X008240Y005075D01*
X008240Y005174D02*
X006556Y005174D01*
X006839Y005272D02*
X008240Y005272D01*
X008240Y005371D02*
X006933Y005371D01*
X006974Y005469D02*
X008240Y005469D01*
X008240Y005568D02*
X006980Y005568D01*
X006959Y005666D02*
X008240Y005666D01*
X008240Y005765D02*
X006902Y005765D01*
X006757Y005863D02*
X008240Y005863D01*
X008240Y005962D02*
X006400Y005962D01*
X006400Y006060D02*
X006438Y006060D01*
X006400Y005863D02*
X006543Y005863D01*
X006398Y005765D02*
X006364Y005765D01*
X006341Y005666D02*
X006270Y005666D01*
X006320Y005568D02*
X006171Y005568D01*
X006073Y005469D02*
X006286Y005469D01*
X006188Y005371D02*
X005974Y005371D01*
X005876Y005272D02*
X006089Y005272D01*
X005991Y005174D02*
X005756Y005174D01*
X005892Y005075D02*
X004742Y005075D01*
X004834Y004977D02*
X005794Y004977D01*
X005695Y004878D02*
X004875Y004878D01*
X004880Y004780D02*
X005597Y004780D01*
X005498Y004681D02*
X004858Y004681D01*
X004799Y004583D02*
X005400Y004583D01*
X005301Y004484D02*
X004649Y004484D01*
X004432Y004386D02*
X005203Y004386D01*
X006762Y006060D02*
X008240Y006060D01*
X008240Y006159D02*
X006875Y006159D01*
X006919Y006257D02*
X008240Y006257D01*
X008240Y006356D02*
X006959Y006356D01*
X007058Y006454D02*
X008219Y006454D01*
X008150Y006553D02*
X007156Y006553D01*
X007255Y006651D02*
X008120Y006651D01*
X008120Y006750D02*
X007353Y006750D01*
X007452Y006848D02*
X008158Y006848D01*
X008681Y006454D02*
X009510Y006454D01*
X009510Y006356D02*
X008660Y006356D01*
X008660Y006257D02*
X009510Y006257D01*
X009510Y006159D02*
X008660Y006159D01*
X008660Y006060D02*
X009510Y006060D01*
X009510Y005962D02*
X008660Y005962D01*
X008660Y005863D02*
X009510Y005863D01*
X009510Y005765D02*
X008660Y005765D01*
X008660Y005666D02*
X009510Y005666D01*
X009510Y005568D02*
X008660Y005568D01*
X008660Y005469D02*
X009510Y005469D01*
X009510Y005371D02*
X008660Y005371D01*
X008660Y005272D02*
X009510Y005272D01*
X009510Y005174D02*
X008660Y005174D01*
X008660Y005075D02*
X009510Y005075D01*
X009510Y004977D02*
X008660Y004977D01*
X008660Y004878D02*
X009510Y004878D01*
X009510Y004780D02*
X008660Y004780D01*
X008660Y004681D02*
X009510Y004681D01*
X009510Y004583D02*
X008660Y004583D01*
X008660Y004484D02*
X009510Y004484D01*
X009546Y004386D02*
X008660Y004386D01*
X008660Y004287D02*
X009644Y004287D01*
X009743Y004189D02*
X008660Y004189D01*
X008660Y004090D02*
X009812Y004090D01*
X009757Y003992D02*
X008660Y003992D01*
X008660Y003893D02*
X009723Y003893D01*
X009690Y003795D02*
X008660Y003795D01*
X008660Y003696D02*
X009669Y003696D01*
X009666Y003598D02*
X008660Y003598D01*
X008737Y003499D02*
X009661Y003499D01*
X009673Y003401D02*
X008778Y003401D01*
X008780Y003302D02*
X009697Y003302D01*
X009722Y003204D02*
X008755Y003204D01*
X008692Y003105D02*
X009767Y003105D01*
X010275Y002613D02*
X009082Y002613D01*
X009286Y002514D02*
X010423Y002514D01*
X010572Y002416D02*
X009418Y002416D01*
X009514Y002317D02*
X010609Y002317D01*
X010532Y002219D02*
X009588Y002219D01*
X009464Y002120D02*
X010439Y002120D01*
X010334Y002022D02*
X009714Y002022D01*
X009779Y001923D02*
X010230Y001923D01*
X010125Y001825D02*
X009845Y001825D01*
X009910Y001726D02*
X010021Y001726D01*
X009493Y002022D02*
X009293Y002022D01*
X009323Y001923D02*
X009123Y001923D01*
X009152Y001825D02*
X008952Y001825D01*
X008982Y001726D02*
X008782Y001726D01*
X008764Y001726D02*
X008648Y001726D01*
X008611Y001628D02*
X008705Y001628D01*
X008640Y001529D02*
X008440Y001529D01*
X008470Y001431D02*
X008270Y001431D01*
X008299Y001332D02*
X008099Y001332D01*
X008129Y001234D02*
X007929Y001234D01*
X007831Y001234D02*
X004458Y001234D01*
X004497Y001332D02*
X007794Y001332D01*
X007766Y001431D02*
X004522Y001431D01*
X004543Y001529D02*
X007752Y001529D01*
X007746Y001628D02*
X004550Y001628D01*
X004548Y001726D02*
X007749Y001726D01*
X007762Y001825D02*
X004534Y001825D01*
X004512Y001923D02*
X007783Y001923D01*
X007816Y002022D02*
X004481Y002022D01*
X004433Y002120D02*
X007862Y002120D01*
X007921Y002219D02*
X004372Y002219D01*
X004289Y002317D02*
X007996Y002317D01*
X008093Y002416D02*
X004186Y002416D01*
X004035Y002514D02*
X008309Y002514D01*
X008366Y002416D02*
X008250Y002416D01*
X008307Y002317D02*
X008423Y002317D01*
X008480Y002219D02*
X008364Y002219D01*
X008421Y002120D02*
X008536Y002120D01*
X008478Y002022D02*
X008593Y002022D01*
X008535Y001923D02*
X008650Y001923D01*
X008592Y001825D02*
X008707Y001825D01*
X008430Y002613D02*
X003775Y002613D01*
X004398Y001135D02*
X007958Y001135D01*
X007929Y001037D02*
X004349Y001037D01*
X004300Y000938D02*
X007979Y000938D01*
X008028Y000840D02*
X004251Y000840D01*
X004202Y000741D02*
X008077Y000741D01*
X008126Y000643D02*
X004153Y000643D01*
X004393Y000544D02*
X007905Y000544D01*
X007595Y000446D02*
X004722Y000446D01*
X005233Y000347D02*
X007063Y000347D01*
X010091Y004378D02*
X009890Y004579D01*
X009890Y007479D01*
X009779Y007590D01*
X009640Y007729D01*
X009529Y007840D01*
X006380Y007840D01*
X006380Y007866D01*
X006330Y007987D01*
X006237Y008080D01*
X006116Y008130D01*
X005984Y008130D01*
X005863Y008080D01*
X005770Y007987D01*
X005750Y007938D01*
X005750Y008733D01*
X004863Y009620D01*
X004866Y009620D01*
X004914Y009640D01*
X007493Y009640D01*
X007440Y009587D01*
X007440Y009584D01*
X007438Y009582D01*
X007440Y009498D01*
X007440Y009207D01*
X007370Y009137D01*
X007320Y009016D01*
X007320Y008884D01*
X007370Y008763D01*
X007463Y008670D01*
X007584Y008620D01*
X007716Y008620D01*
X007837Y008670D01*
X007930Y008763D01*
X007980Y008884D01*
X007980Y009016D01*
X007930Y009137D01*
X007860Y009207D01*
X007860Y009416D01*
X008191Y009762D01*
X008192Y009763D01*
X008232Y009802D01*
X008258Y009790D01*
X008312Y009755D01*
X008328Y009759D01*
X008328Y009758D01*
X008337Y009744D01*
X008398Y009727D01*
X008457Y009700D01*
X008472Y009706D01*
X008473Y009706D01*
X008483Y009693D01*
X008547Y009685D01*
X008608Y009668D01*
X008623Y009676D01*
X008635Y009664D01*
X008699Y009666D01*
X008763Y009659D01*
X008776Y009669D01*
X008777Y009669D01*
X008790Y009659D01*
X008853Y009671D01*
X008917Y009673D01*
X008929Y009685D01*
X008929Y009686D01*
X008944Y009678D01*
X009005Y009700D01*
X009068Y009711D01*
X009077Y009725D01*
X009078Y009725D01*
X009093Y009720D01*
X009150Y009751D01*
X009210Y009772D01*
X009218Y009787D01*
X009234Y009785D01*
X009286Y009823D01*
X009342Y009854D01*
X009347Y009869D01*
X009347Y009870D01*
X009364Y009870D01*
X009409Y009916D01*
X009460Y009954D01*
X009462Y009971D01*
X009463Y009971D01*
X009479Y009974D01*
X009516Y010026D01*
X009561Y010072D01*
X009561Y010085D01*
X009599Y010142D01*
X009643Y010204D01*
X009643Y010207D01*
X009935Y010648D01*
X010435Y010193D01*
X010633Y009949D01*
X010187Y009653D01*
X010668Y008818D01*
X010553Y008818D01*
X010582Y008768D02*
X010101Y009601D01*
X010095Y009598D01*
X009995Y009525D01*
X009904Y009441D01*
X009825Y009346D01*
X009758Y009243D01*
X009704Y009131D01*
X009665Y009014D01*
X009640Y008893D01*
X009640Y008893D01*
X009631Y008770D01*
X009631Y008770D01*
X009637Y008646D01*
X009659Y008524D01*
X009695Y008406D01*
X009745Y008294D01*
X009746Y008293D01*
X009749Y008288D01*
X010582Y008768D01*
X010632Y008682D01*
X010718Y008732D01*
X011200Y007897D01*
X011502Y008049D01*
X011682Y008138D01*
X011764Y007933D01*
X011943Y007178D01*
X011326Y007140D01*
X011262Y007136D01*
X011247Y007145D01*
X011185Y007132D01*
X011122Y007128D01*
X011110Y007115D01*
X011107Y007114D01*
X011090Y007121D01*
X011032Y007098D01*
X010970Y007084D01*
X010961Y007069D01*
X010957Y007068D01*
X010940Y007072D01*
X010886Y007039D01*
X010827Y007016D01*
X010820Y007000D01*
X010817Y006998D01*
X010799Y006999D01*
X010751Y006958D01*
X010697Y006925D01*
X010693Y006908D01*
X010690Y006906D01*
X010672Y006904D01*
X010631Y006856D01*
X010583Y006815D01*
X010582Y006798D01*
X010579Y006795D01*
X010562Y006791D01*
X010529Y006736D01*
X010488Y006688D01*
X010490Y006671D01*
X010488Y006667D01*
X010472Y006661D01*
X010448Y006602D01*
X010416Y006548D01*
X010420Y006531D01*
X010418Y006527D01*
X010404Y006518D01*
X010390Y006456D01*
X010366Y006397D01*
X010373Y006381D01*
X010372Y006377D01*
X010359Y006365D01*
X010356Y006302D01*
X010342Y006241D01*
X010351Y006226D01*
X010351Y006223D01*
X010341Y006210D01*
X010347Y006146D01*
X010343Y006082D01*
X010354Y006070D01*
X010354Y006069D01*
X010346Y006055D01*
X010362Y005993D01*
X010368Y005929D01*
X010381Y005919D01*
X010381Y005918D01*
X010375Y005903D01*
X010400Y005844D01*
X010416Y005782D01*
X010430Y005773D01*
X010430Y005773D01*
X010426Y005756D01*
X010460Y005702D01*
X010485Y005643D01*
X010501Y005637D01*
X010501Y005636D01*
X010500Y005620D01*
X010542Y005571D01*
X010575Y005517D01*
X010591Y005513D01*
X010592Y005513D01*
X010593Y005496D01*
X010642Y005454D01*
X010684Y005406D01*
X010700Y005404D01*
X010700Y005404D01*
X010704Y005388D01*
X010759Y005354D01*
X010807Y005312D01*
X010824Y005314D01*
X010824Y005313D01*
X010830Y005298D01*
X010889Y005273D01*
X010944Y005239D01*
X010960Y005243D01*
X010961Y005242D01*
X010969Y005228D01*
X011031Y005212D01*
X011090Y005187D01*
X011106Y005193D01*
X011117Y005181D01*
X011180Y005174D01*
X011243Y005159D01*
X011253Y005165D01*
X011322Y005161D01*
X011397Y005153D01*
X011400Y005156D01*
X011939Y005122D01*
X011793Y004461D01*
X011673Y004146D01*
X011135Y004413D01*
X011077Y004442D01*
X011069Y004457D01*
X011009Y004476D01*
X010952Y004505D01*
X010936Y004499D01*
X010932Y004501D01*
X010922Y004515D01*
X010859Y004524D01*
X010799Y004543D01*
X010783Y004534D01*
X010779Y004535D01*
X010767Y004547D01*
X010703Y004546D01*
X010641Y004555D01*
X010627Y004545D01*
X010623Y004544D01*
X010608Y004554D01*
X010546Y004543D01*
X010483Y004542D01*
X010471Y004529D01*
X010467Y004528D01*
X010451Y004536D01*
X010392Y004515D01*
X010329Y004503D01*
X010319Y004489D01*
X010316Y004488D01*
X010299Y004492D01*
X010243Y004462D01*
X010184Y004441D01*
X010176Y004425D01*
X010173Y004423D01*
X010156Y004425D01*
X010106Y004386D01*
X010091Y004378D01*
X010083Y004386D02*
X010105Y004386D01*
X009985Y004484D02*
X010284Y004484D01*
X009890Y004583D02*
X011820Y004583D01*
X011842Y004681D02*
X009890Y004681D01*
X009890Y004780D02*
X011863Y004780D01*
X011885Y004878D02*
X009890Y004878D01*
X009890Y004977D02*
X011907Y004977D01*
X011928Y005075D02*
X009890Y005075D01*
X009890Y005174D02*
X011184Y005174D01*
X011106Y005193D02*
X011106Y005193D01*
X010891Y005272D02*
X009890Y005272D01*
X009890Y005371D02*
X010732Y005371D01*
X010625Y005469D02*
X009890Y005469D01*
X009890Y005568D02*
X010544Y005568D01*
X010476Y005666D02*
X009890Y005666D01*
X009890Y005765D02*
X010428Y005765D01*
X010392Y005863D02*
X009890Y005863D01*
X009890Y005962D02*
X010365Y005962D01*
X010349Y006060D02*
X009890Y006060D01*
X009890Y006159D02*
X010346Y006159D01*
X010346Y006257D02*
X009890Y006257D01*
X009890Y006356D02*
X010359Y006356D01*
X010389Y006454D02*
X009890Y006454D01*
X009890Y006553D02*
X010419Y006553D01*
X010468Y006651D02*
X009890Y006651D01*
X009890Y006750D02*
X010537Y006750D01*
X010622Y006848D02*
X009890Y006848D01*
X009890Y006947D02*
X010732Y006947D01*
X010895Y007045D02*
X009890Y007045D01*
X009890Y007144D02*
X011239Y007144D01*
X011250Y007144D02*
X011388Y007144D01*
X011928Y007242D02*
X009890Y007242D01*
X009890Y007341D02*
X011905Y007341D01*
X011882Y007439D02*
X009890Y007439D01*
X009831Y007538D02*
X011858Y007538D01*
X011835Y007636D02*
X009733Y007636D01*
X009634Y007735D02*
X011812Y007735D01*
X011788Y007833D02*
X011071Y007833D01*
X011098Y007844D02*
X011098Y007844D01*
X010986Y007799D01*
X010986Y007799D01*
X010870Y007766D01*
X010870Y007766D01*
X010750Y007748D01*
X010750Y007748D01*
X010629Y007744D01*
X010629Y007744D01*
X010508Y007755D01*
X010508Y007755D01*
X010390Y007779D01*
X010390Y007779D01*
X010275Y007817D01*
X010275Y007817D01*
X010165Y007869D01*
X010165Y007869D01*
X010101Y007909D01*
X010063Y007933D01*
X010063Y007933D01*
X010001Y007982D01*
X009968Y008008D01*
X009968Y008008D01*
X009968Y008008D01*
X009883Y008094D01*
X009883Y008094D01*
X009809Y008190D01*
X009809Y008190D01*
X009801Y008202D01*
X010632Y008682D01*
X011111Y007851D01*
X011098Y007844D01*
X011098Y007844D01*
X011065Y007932D02*
X011180Y007932D01*
X011268Y007932D02*
X011765Y007932D01*
X011725Y008030D02*
X011464Y008030D01*
X011502Y008049D02*
X011502Y008049D01*
X011663Y008129D02*
X011686Y008129D01*
X011123Y008030D02*
X011008Y008030D01*
X010951Y008129D02*
X011067Y008129D01*
X011010Y008227D02*
X010894Y008227D01*
X010837Y008326D02*
X010953Y008326D01*
X010896Y008424D02*
X010780Y008424D01*
X010724Y008523D02*
X010839Y008523D01*
X010782Y008621D02*
X010667Y008621D01*
X010697Y008720D02*
X010725Y008720D01*
X010668Y008818D02*
X010582Y008768D01*
X010610Y008720D02*
X010497Y008720D01*
X010527Y008621D02*
X010327Y008621D01*
X010356Y008523D02*
X010156Y008523D01*
X010185Y008424D02*
X009985Y008424D01*
X010015Y008326D02*
X009815Y008326D01*
X009746Y008293D02*
X009746Y008293D01*
X009731Y008326D02*
X005750Y008326D01*
X005750Y008424D02*
X009689Y008424D01*
X009695Y008406D02*
X009695Y008406D01*
X009659Y008523D02*
X005750Y008523D01*
X005750Y008621D02*
X007582Y008621D01*
X007718Y008621D02*
X009641Y008621D01*
X009637Y008646D02*
X009637Y008646D01*
X009633Y008720D02*
X007886Y008720D01*
X007953Y008818D02*
X009635Y008818D01*
X009645Y008917D02*
X007980Y008917D01*
X007980Y009015D02*
X009665Y009015D01*
X009698Y009114D02*
X007939Y009114D01*
X007860Y009212D02*
X009743Y009212D01*
X009802Y009311D02*
X007860Y009311D01*
X007860Y009409D02*
X009877Y009409D01*
X009904Y009441D02*
X009904Y009441D01*
X009976Y009508D02*
X007948Y009508D01*
X008042Y009606D02*
X010214Y009606D01*
X010265Y009705D02*
X009031Y009705D01*
X009218Y009787D02*
X009218Y009787D01*
X009259Y009803D02*
X010413Y009803D01*
X010561Y009902D02*
X009395Y009902D01*
X009498Y010000D02*
X010591Y010000D01*
X010511Y010099D02*
X009570Y010099D01*
X009638Y010197D02*
X010430Y010197D01*
X010322Y010296D02*
X009701Y010296D01*
X009766Y010394D02*
X010214Y010394D01*
X010106Y010493D02*
X009832Y010493D01*
X009897Y010591D02*
X009998Y010591D01*
X010155Y009508D02*
X010270Y009508D01*
X010212Y009409D02*
X010327Y009409D01*
X010269Y009311D02*
X010384Y009311D01*
X010326Y009212D02*
X010441Y009212D01*
X010498Y009114D02*
X010382Y009114D01*
X010439Y009015D02*
X010555Y009015D01*
X010612Y008917D02*
X010496Y008917D01*
X009844Y008227D02*
X005750Y008227D01*
X005750Y008129D02*
X005981Y008129D01*
X006119Y008129D02*
X009856Y008129D01*
X009946Y008030D02*
X006287Y008030D01*
X006353Y007932D02*
X010064Y007932D01*
X010241Y007833D02*
X009536Y007833D01*
X009392Y007439D02*
X009068Y007439D01*
X008932Y007439D02*
X005750Y007439D01*
X005750Y007341D02*
X007263Y007341D01*
X007138Y007242D02*
X005750Y007242D01*
X005773Y007144D02*
X005927Y007144D01*
X005853Y007045D02*
X005847Y007045D01*
X005846Y007538D02*
X005750Y007538D01*
X005750Y007636D02*
X005761Y007636D01*
X005750Y008030D02*
X005813Y008030D01*
X005750Y008720D02*
X007414Y008720D01*
X007347Y008818D02*
X005665Y008818D01*
X005566Y008917D02*
X007320Y008917D01*
X007320Y009015D02*
X005468Y009015D01*
X005369Y009114D02*
X007361Y009114D01*
X007440Y009212D02*
X005271Y009212D01*
X005172Y009311D02*
X007440Y009311D01*
X007440Y009409D02*
X005074Y009409D01*
X004975Y009508D02*
X007440Y009508D01*
X007459Y009606D02*
X004877Y009606D01*
X006373Y007144D02*
X007040Y007144D01*
X006941Y007045D02*
X006447Y007045D01*
X006480Y006947D02*
X006843Y006947D01*
X006744Y006848D02*
X006480Y006848D01*
X006445Y006750D02*
X006646Y006750D01*
X006464Y006651D02*
X006400Y006651D01*
X008742Y006848D02*
X008795Y006848D01*
X008780Y006750D02*
X009510Y006750D01*
X009510Y006848D02*
X009205Y006848D01*
X009289Y006947D02*
X009510Y006947D01*
X009510Y007045D02*
X009330Y007045D01*
X009330Y007144D02*
X009510Y007144D01*
X009510Y007242D02*
X009303Y007242D01*
X009236Y007341D02*
X009491Y007341D01*
X009510Y006651D02*
X008780Y006651D01*
X008750Y006553D02*
X009510Y006553D01*
X009659Y008524D02*
X009659Y008524D01*
X008623Y009676D02*
X008623Y009676D01*
X008473Y009705D02*
X008469Y009705D01*
X008447Y009705D02*
X008136Y009705D01*
X010994Y004484D02*
X011798Y004484D01*
X011765Y004386D02*
X011190Y004386D01*
X011388Y004287D02*
X011727Y004287D01*
X011689Y004189D02*
X011586Y004189D01*
D17*
X008450Y003330D02*
X008450Y006690D01*
X007650Y008950D02*
X007650Y009500D01*
X008041Y009909D01*
X007982Y009850D01*
X004900Y009850D01*
X004800Y009950D01*
X008041Y009909D02*
X008750Y010650D01*
X004550Y004800D02*
X004200Y004450D01*
X002250Y004450D01*
X001900Y004800D01*
D18*
X003900Y004850D02*
X004450Y005400D01*
X005650Y005400D01*
X006150Y005900D01*
X006150Y006900D01*
X006600Y006350D02*
X007360Y007110D01*
X009000Y007110D01*
M02*
