G75*
%MOIN*%
%OFA0B0*%
%FSLAX24Y24*%
%IPPOS*%
%LPD*%
%AMOC8*
5,1,8,0,0,1.08239X$1,22.5*
%
%ADD10C,0.0556*%
%ADD11C,0.0867*%
%ADD12C,0.1346*%
%ADD13C,0.0120*%
D10*
X005225Y010328D03*
X007135Y010328D03*
D11*
X007601Y011430D03*
X004759Y011430D03*
D12*
X003580Y010680D03*
X001680Y008780D03*
X000993Y006180D03*
X001680Y003580D03*
X003580Y001680D03*
X008780Y001680D03*
X010680Y003580D03*
X011368Y006180D03*
X010680Y008780D03*
X008780Y010680D03*
D13*
X000562Y003916D02*
X001412Y002444D01*
X002080Y002887D01*
X002186Y002956D01*
X002279Y003042D01*
X002357Y003141D01*
X002418Y003252D01*
X002461Y003371D01*
X002483Y003495D01*
X002486Y003622D01*
X002468Y003747D01*
X002430Y003867D01*
X002373Y003980D01*
X002300Y004082D01*
X002213Y004171D01*
X002113Y004246D01*
X002003Y004305D01*
X001885Y004346D01*
X001763Y004369D01*
X001638Y004373D01*
X001514Y004358D01*
X001394Y004325D01*
X001280Y004273D01*
X000562Y003916D01*
X000598Y003854D02*
X002434Y003854D01*
X002469Y003735D02*
X000667Y003735D01*
X000735Y003617D02*
X002486Y003617D01*
X002483Y003498D02*
X000804Y003498D01*
X000872Y003380D02*
X002462Y003380D01*
X002421Y003261D02*
X000940Y003261D01*
X001009Y003143D02*
X002358Y003143D01*
X002259Y003024D02*
X001077Y003024D01*
X001146Y002906D02*
X002108Y002906D01*
X001929Y002787D02*
X001214Y002787D01*
X001282Y002669D02*
X001751Y002669D01*
X001572Y002550D02*
X001351Y002550D01*
X002444Y001412D02*
X003916Y000562D01*
X004273Y001280D01*
X004330Y001393D01*
X004368Y001513D01*
X004386Y001638D01*
X004383Y001765D01*
X004361Y001889D01*
X004318Y002008D01*
X004257Y002119D01*
X004179Y002218D01*
X004086Y002304D01*
X003980Y002373D01*
X003866Y002425D01*
X003746Y002458D01*
X003622Y002473D01*
X003497Y002469D01*
X003375Y002446D01*
X003257Y002405D01*
X003147Y002346D01*
X003047Y002271D01*
X002960Y002182D01*
X002887Y002080D01*
X002444Y001412D01*
X002491Y001484D02*
X004358Y001484D01*
X004380Y001602D02*
X002570Y001602D01*
X002649Y001721D02*
X004384Y001721D01*
X004370Y001839D02*
X002727Y001839D01*
X002806Y001958D02*
X004336Y001958D01*
X004281Y002076D02*
X002885Y002076D01*
X002972Y002195D02*
X004197Y002195D01*
X004071Y002313D02*
X003103Y002313D01*
X003333Y002432D02*
X003841Y002432D01*
X004316Y001365D02*
X002526Y001365D01*
X002731Y001247D02*
X004256Y001247D01*
X004197Y001128D02*
X002936Y001128D01*
X003141Y001010D02*
X004138Y001010D01*
X004080Y000891D02*
X003347Y000891D01*
X003552Y000773D02*
X004021Y000773D01*
X003962Y000654D02*
X003757Y000654D01*
X002377Y003972D02*
X000675Y003972D01*
X000913Y004091D02*
X002292Y004091D01*
X002162Y004209D02*
X001152Y004209D01*
X001404Y004328D02*
X001939Y004328D01*
X001359Y005461D02*
X001242Y005415D01*
X001119Y005387D01*
X000993Y005380D01*
X000193Y005330D01*
X000193Y007030D01*
X000993Y006980D01*
X001117Y006968D01*
X001238Y006937D01*
X001353Y006888D01*
X001459Y006822D01*
X001553Y006741D01*
X001635Y006646D01*
X001701Y006540D01*
X001750Y006425D01*
X001780Y006304D01*
X001793Y006180D01*
X001785Y006054D01*
X001758Y005930D01*
X001711Y005813D01*
X001646Y005705D01*
X001564Y005609D01*
X001468Y005527D01*
X001359Y005461D01*
X001444Y005513D02*
X000193Y005513D01*
X000193Y005631D02*
X001583Y005631D01*
X001673Y005750D02*
X000193Y005750D01*
X000193Y005868D02*
X001733Y005868D01*
X001770Y005987D02*
X000193Y005987D01*
X000193Y006105D02*
X001788Y006105D01*
X001788Y006224D02*
X000193Y006224D01*
X000193Y006342D02*
X001771Y006342D01*
X001735Y006461D02*
X000193Y006461D01*
X000193Y006579D02*
X001676Y006579D01*
X001591Y006698D02*
X000193Y006698D01*
X000193Y006816D02*
X001466Y006816D01*
X001244Y006935D02*
X000193Y006935D01*
X000562Y008444D02*
X001280Y008087D01*
X001393Y008030D01*
X001513Y007992D01*
X001638Y007974D01*
X001765Y007977D01*
X001889Y007999D01*
X002008Y008042D01*
X002119Y008103D01*
X002218Y008181D01*
X002304Y008274D01*
X002373Y008380D01*
X002425Y008494D01*
X002458Y008614D01*
X002473Y008738D01*
X002469Y008863D01*
X002446Y008985D01*
X002405Y009103D01*
X002346Y009213D01*
X002271Y009313D01*
X002182Y009400D01*
X002080Y009473D01*
X001412Y009916D01*
X000562Y008444D01*
X000580Y008475D02*
X002416Y008475D01*
X002453Y008594D02*
X000649Y008594D01*
X000717Y008712D02*
X002470Y008712D01*
X002470Y008831D02*
X000785Y008831D01*
X000854Y008949D02*
X002453Y008949D01*
X002417Y009068D02*
X000922Y009068D01*
X000991Y009186D02*
X002360Y009186D01*
X002277Y009305D02*
X001059Y009305D01*
X001127Y009423D02*
X002150Y009423D01*
X001977Y009542D02*
X001196Y009542D01*
X001264Y009660D02*
X001798Y009660D01*
X001619Y009779D02*
X001333Y009779D01*
X001401Y009897D02*
X001441Y009897D01*
X002444Y010948D02*
X003916Y011798D01*
X004273Y011080D01*
X004325Y010966D01*
X004358Y010846D01*
X004373Y010722D01*
X004369Y010597D01*
X004346Y010475D01*
X004305Y010357D01*
X004246Y010247D01*
X004171Y010147D01*
X004082Y010060D01*
X003980Y009987D01*
X003867Y009930D01*
X003747Y009892D01*
X003622Y009874D01*
X003495Y009877D01*
X003371Y009899D01*
X003252Y009942D01*
X003141Y010003D01*
X003042Y010081D01*
X002956Y010174D01*
X002887Y010280D01*
X002444Y010948D01*
X002471Y010964D02*
X004325Y010964D01*
X004358Y010845D02*
X002512Y010845D01*
X002591Y010727D02*
X004373Y010727D01*
X004370Y010608D02*
X002669Y010608D01*
X002748Y010490D02*
X004349Y010490D01*
X004310Y010371D02*
X002827Y010371D01*
X002905Y010253D02*
X004249Y010253D01*
X004158Y010134D02*
X002993Y010134D01*
X003125Y010016D02*
X004020Y010016D01*
X003762Y009897D02*
X003384Y009897D01*
X002676Y011082D02*
X004272Y011082D01*
X004213Y011201D02*
X002882Y011201D01*
X003087Y011319D02*
X004154Y011319D01*
X004095Y011438D02*
X003292Y011438D01*
X003497Y011556D02*
X004036Y011556D01*
X003977Y011675D02*
X003703Y011675D01*
X003908Y011793D02*
X003919Y011793D01*
X002357Y008357D02*
X000738Y008357D01*
X000976Y008238D02*
X002270Y008238D01*
X002140Y008120D02*
X001215Y008120D01*
X001486Y008001D02*
X001894Y008001D01*
X001150Y005394D02*
X000193Y005394D01*
X008055Y002003D02*
X008014Y001885D01*
X007991Y001763D01*
X007987Y001638D01*
X008002Y001514D01*
X008035Y001394D01*
X008087Y001280D01*
X008444Y000562D01*
X009916Y001412D01*
X009473Y002080D01*
X009404Y002186D01*
X009318Y002279D01*
X009219Y002357D01*
X009108Y002418D01*
X008989Y002461D01*
X008865Y002483D01*
X008738Y002486D01*
X008613Y002468D01*
X008493Y002430D01*
X008380Y002373D01*
X008278Y002300D01*
X008189Y002213D01*
X008114Y002113D01*
X008055Y002003D01*
X008039Y001958D02*
X009554Y001958D01*
X009475Y002076D02*
X008094Y002076D01*
X008175Y002195D02*
X009395Y002195D01*
X009275Y002313D02*
X008296Y002313D01*
X008499Y002432D02*
X009071Y002432D01*
X009633Y001839D02*
X008005Y001839D01*
X007989Y001721D02*
X009711Y001721D01*
X009790Y001602D02*
X007991Y001602D01*
X008010Y001484D02*
X009869Y001484D01*
X009834Y001365D02*
X008049Y001365D01*
X008104Y001247D02*
X009629Y001247D01*
X009424Y001128D02*
X008163Y001128D01*
X008222Y001010D02*
X009219Y001010D01*
X009013Y000891D02*
X008280Y000891D01*
X008339Y000773D02*
X008808Y000773D01*
X008603Y000654D02*
X008398Y000654D01*
X010178Y002960D02*
X010280Y002887D01*
X010948Y002444D01*
X011798Y003916D01*
X011080Y004273D01*
X010967Y004330D01*
X010847Y004368D01*
X010722Y004386D01*
X010595Y004383D01*
X010471Y004361D01*
X010352Y004318D01*
X010241Y004257D01*
X010142Y004179D01*
X010056Y004086D01*
X009987Y003980D01*
X009935Y003866D01*
X009902Y003746D01*
X009887Y003622D01*
X009891Y003497D01*
X009914Y003375D01*
X009955Y003257D01*
X010014Y003147D01*
X010089Y003047D01*
X010178Y002960D01*
X010113Y003024D02*
X011283Y003024D01*
X011351Y003143D02*
X010017Y003143D01*
X009954Y003261D02*
X011420Y003261D01*
X011488Y003380D02*
X009913Y003380D01*
X009891Y003498D02*
X011556Y003498D01*
X011625Y003617D02*
X009887Y003617D01*
X009900Y003735D02*
X011693Y003735D01*
X011762Y003854D02*
X009932Y003854D01*
X009984Y003972D02*
X011685Y003972D01*
X011447Y004091D02*
X010061Y004091D01*
X010180Y004209D02*
X011208Y004209D01*
X010972Y004328D02*
X010378Y004328D01*
X011007Y005472D02*
X011122Y005423D01*
X011243Y005392D01*
X011368Y005380D01*
X012168Y005330D01*
X012168Y007030D01*
X011368Y006980D01*
X011241Y006973D01*
X011118Y006945D01*
X011001Y006899D01*
X010892Y006833D01*
X010796Y006751D01*
X010714Y006655D01*
X010649Y006547D01*
X010602Y006430D01*
X010575Y006306D01*
X010568Y006180D01*
X010580Y006056D01*
X010610Y005935D01*
X010659Y005820D01*
X010725Y005714D01*
X010807Y005619D01*
X010901Y005538D01*
X011007Y005472D01*
X010942Y005513D02*
X012168Y005513D01*
X012168Y005631D02*
X010796Y005631D01*
X010703Y005750D02*
X012168Y005750D01*
X012168Y005868D02*
X010639Y005868D01*
X010597Y005987D02*
X012168Y005987D01*
X012168Y006105D02*
X010575Y006105D01*
X010570Y006224D02*
X012168Y006224D01*
X012168Y006342D02*
X010583Y006342D01*
X010614Y006461D02*
X012168Y006461D01*
X012168Y006579D02*
X010668Y006579D01*
X010750Y006698D02*
X012168Y006698D01*
X012168Y006816D02*
X010872Y006816D01*
X011091Y006935D02*
X012168Y006935D01*
X011798Y008444D02*
X011080Y008087D01*
X010966Y008035D01*
X010846Y008002D01*
X010722Y007987D01*
X010597Y007991D01*
X010475Y008014D01*
X010357Y008055D01*
X010247Y008114D01*
X010147Y008189D01*
X010060Y008278D01*
X009987Y008380D01*
X009930Y008493D01*
X009892Y008613D01*
X009874Y008738D01*
X009877Y008865D01*
X009899Y008989D01*
X009942Y009108D01*
X010003Y009219D01*
X010081Y009318D01*
X010174Y009404D01*
X010280Y009473D01*
X010948Y009916D01*
X011798Y008444D01*
X011780Y008475D02*
X009939Y008475D01*
X009899Y008594D02*
X011711Y008594D01*
X011643Y008712D02*
X009878Y008712D01*
X009876Y008831D02*
X011575Y008831D01*
X011506Y008949D02*
X009892Y008949D01*
X009927Y009068D02*
X011438Y009068D01*
X011369Y009186D02*
X009985Y009186D01*
X010070Y009305D02*
X011301Y009305D01*
X011233Y009423D02*
X010204Y009423D01*
X010383Y009542D02*
X011164Y009542D01*
X011096Y009660D02*
X010562Y009660D01*
X010741Y009779D02*
X011027Y009779D01*
X010959Y009897D02*
X010919Y009897D01*
X009916Y010948D02*
X008444Y011798D01*
X008087Y011080D01*
X008030Y010967D01*
X007992Y010847D01*
X007974Y010722D01*
X007977Y010595D01*
X007999Y010471D01*
X008042Y010352D01*
X008103Y010241D01*
X008181Y010142D01*
X008274Y010056D01*
X008380Y009987D01*
X008494Y009935D01*
X008614Y009902D01*
X008738Y009887D01*
X008863Y009891D01*
X008985Y009914D01*
X009103Y009955D01*
X009213Y010014D01*
X009313Y010089D01*
X009400Y010178D01*
X009473Y010280D01*
X009916Y010948D01*
X009889Y010964D02*
X008029Y010964D01*
X007992Y010845D02*
X009848Y010845D01*
X009769Y010727D02*
X007975Y010727D01*
X007976Y010608D02*
X009691Y010608D01*
X009612Y010490D02*
X007996Y010490D01*
X008035Y010371D02*
X009533Y010371D01*
X009453Y010253D02*
X008097Y010253D01*
X008190Y010134D02*
X009357Y010134D01*
X009215Y010016D02*
X008337Y010016D01*
X008653Y009897D02*
X008896Y009897D01*
X009684Y011082D02*
X008088Y011082D01*
X008147Y011201D02*
X009478Y011201D01*
X009273Y011319D02*
X008206Y011319D01*
X008265Y011438D02*
X009068Y011438D01*
X008863Y011556D02*
X008324Y011556D01*
X008383Y011675D02*
X008657Y011675D01*
X008452Y011793D02*
X008441Y011793D01*
X010004Y008357D02*
X011622Y008357D01*
X011384Y008238D02*
X010099Y008238D01*
X010240Y008120D02*
X011145Y008120D01*
X010840Y008001D02*
X010542Y008001D01*
X011236Y005394D02*
X012168Y005394D01*
X011214Y002906D02*
X010254Y002906D01*
X010431Y002787D02*
X011146Y002787D01*
X011078Y002669D02*
X010609Y002669D01*
X010788Y002550D02*
X011009Y002550D01*
M02*
