G75*
%MOIN*%
%OFA0B0*%
%FSLAX24Y24*%
%IPPOS*%
%LPD*%
%AMOC8*
5,1,8,0,0,1.08239X$1,22.5*
%
%ADD10R,0.0950X0.0320*%
%ADD11R,0.0237X0.0631*%
%ADD12R,0.0789X0.0789*%
%ADD13C,0.0556*%
%ADD14C,0.0867*%
%ADD15R,0.0789X0.0474*%
%ADD16R,0.0395X0.0395*%
%ADD17R,0.0190X0.0415*%
%ADD18R,0.1025X0.0730*%
%ADD19R,0.0356X0.0190*%
%ADD20R,0.0407X0.0328*%
%ADD21R,0.0474X0.0631*%
%ADD22R,0.0316X0.0395*%
%ADD23R,0.0513X0.0474*%
%ADD24R,0.0356X0.0434*%
%ADD25R,0.0434X0.0356*%
%ADD26R,0.0330X0.0580*%
%ADD27C,0.1346*%
%ADD28C,0.0120*%
%ADD29R,0.0474X0.1891*%
%ADD30R,0.0710X0.1340*%
D10*
X004830Y005400D03*
X004830Y005900D03*
X004830Y006400D03*
X004830Y006900D03*
X007480Y006900D03*
X007480Y006400D03*
X007480Y005900D03*
X007480Y005400D03*
D11*
X006662Y010357D03*
X006406Y010357D03*
X006150Y010357D03*
X005894Y010357D03*
X005638Y010357D03*
D12*
X005697Y011400D03*
X006603Y011400D03*
D13*
X007105Y010298D03*
X005195Y010298D03*
D14*
X004729Y011400D03*
X007571Y011400D03*
D15*
X008425Y008651D03*
X008425Y007549D03*
D16*
X008475Y006245D03*
X008475Y005655D03*
X004000Y005855D03*
X004000Y006445D03*
D17*
X004044Y007415D03*
X003847Y007415D03*
X003650Y007415D03*
X003453Y007415D03*
X003256Y007415D03*
X003256Y008635D03*
X003453Y008635D03*
X003650Y008635D03*
X003847Y008635D03*
X004044Y008635D03*
D18*
X003650Y008025D03*
D19*
X003040Y007927D03*
X003040Y008123D03*
X004260Y008123D03*
X004260Y007927D03*
D20*
X005325Y008122D03*
X005325Y009028D03*
X007125Y009078D03*
X007125Y008172D03*
D21*
X004350Y004133D03*
X003976Y003267D03*
X004724Y003267D03*
D22*
X008450Y003883D03*
X008450Y004317D03*
D23*
X003735Y009225D03*
X003065Y009225D03*
D24*
X004769Y007650D03*
X005281Y007650D03*
X003956Y006950D03*
X003444Y006950D03*
X005119Y009525D03*
X005631Y009525D03*
X006944Y009500D03*
X007456Y009500D03*
X007431Y007650D03*
X006919Y007650D03*
D25*
X006488Y008419D03*
X006013Y008419D03*
X006013Y008931D03*
X006488Y008931D03*
X009000Y006156D03*
X009000Y005644D03*
X003400Y005456D03*
X002900Y005456D03*
X002400Y005456D03*
X002400Y004944D03*
X002900Y004944D03*
X003400Y004944D03*
X002850Y006994D03*
X002400Y006994D03*
X002400Y007506D03*
X002850Y007506D03*
D26*
X003198Y004113D03*
X003552Y004113D03*
D27*
X001650Y003550D03*
X003550Y001650D03*
X000963Y006150D03*
X001650Y008750D03*
X003550Y010650D03*
X008750Y010650D03*
X010650Y008750D03*
X011338Y006150D03*
X010650Y003550D03*
X008750Y001650D03*
D28*
X001382Y002414D02*
X000532Y003886D01*
X001250Y004243D01*
X001364Y004295D01*
X001484Y004328D01*
X001608Y004343D01*
X001733Y004339D01*
X001855Y004316D01*
X001973Y004275D01*
X002083Y004216D01*
X002183Y004141D01*
X002270Y004052D01*
X002343Y003950D01*
X002400Y003837D01*
X002438Y003717D01*
X002456Y003592D01*
X002453Y003465D01*
X002431Y003341D01*
X002388Y003222D01*
X002327Y003111D01*
X002249Y003012D01*
X002156Y002926D01*
X002050Y002857D01*
X001382Y002414D01*
X001321Y002520D02*
X001542Y002520D01*
X001721Y002639D02*
X001252Y002639D01*
X001184Y002757D02*
X001899Y002757D01*
X002078Y002876D02*
X001116Y002876D01*
X001047Y002994D02*
X002229Y002994D01*
X002328Y003113D02*
X000979Y003113D01*
X000910Y003231D02*
X002391Y003231D01*
X002432Y003350D02*
X000842Y003350D01*
X000774Y003468D02*
X002453Y003468D01*
X002456Y003587D02*
X000705Y003587D01*
X000637Y003705D02*
X002439Y003705D01*
X002404Y003824D02*
X000568Y003824D01*
X000645Y003942D02*
X002347Y003942D01*
X002262Y004061D02*
X000883Y004061D01*
X001122Y004179D02*
X002132Y004179D01*
X001909Y004298D02*
X001374Y004298D01*
X001120Y005364D02*
X000163Y005364D01*
X000163Y005300D02*
X000163Y007000D01*
X000963Y006950D01*
X001087Y006938D01*
X001208Y006907D01*
X001323Y006858D01*
X001429Y006792D01*
X001523Y006711D01*
X001605Y006616D01*
X001671Y006510D01*
X001720Y006395D01*
X001750Y006274D01*
X001763Y006150D01*
X001755Y006024D01*
X001728Y005900D01*
X001681Y005783D01*
X001616Y005675D01*
X001534Y005579D01*
X001438Y005497D01*
X001329Y005431D01*
X001212Y005385D01*
X001089Y005357D01*
X000963Y005350D01*
X000163Y005300D01*
X000163Y005483D02*
X001414Y005483D01*
X001553Y005601D02*
X000163Y005601D01*
X000163Y005720D02*
X001643Y005720D01*
X001703Y005838D02*
X000163Y005838D01*
X000163Y005957D02*
X001740Y005957D01*
X001758Y006075D02*
X000163Y006075D01*
X000163Y006194D02*
X001758Y006194D01*
X001741Y006312D02*
X000163Y006312D01*
X000163Y006431D02*
X001705Y006431D01*
X001646Y006549D02*
X000163Y006549D01*
X000163Y006668D02*
X001561Y006668D01*
X001436Y006786D02*
X000163Y006786D01*
X000163Y006905D02*
X001214Y006905D01*
X001483Y007962D02*
X001608Y007944D01*
X001735Y007947D01*
X001859Y007969D01*
X001978Y008012D01*
X002089Y008073D01*
X002188Y008151D01*
X002274Y008244D01*
X002343Y008350D01*
X002395Y008464D01*
X002428Y008584D01*
X002443Y008708D01*
X002439Y008833D01*
X002416Y008955D01*
X002375Y009073D01*
X002316Y009183D01*
X002241Y009283D01*
X002152Y009370D01*
X002050Y009443D01*
X001382Y009886D01*
X000532Y008414D01*
X001250Y008057D01*
X001363Y008000D01*
X001483Y007962D01*
X001456Y007971D02*
X001864Y007971D01*
X002110Y008090D02*
X001185Y008090D01*
X000946Y008208D02*
X002240Y008208D01*
X002327Y008327D02*
X000708Y008327D01*
X000550Y008445D02*
X002386Y008445D01*
X002423Y008564D02*
X000619Y008564D01*
X000687Y008682D02*
X002440Y008682D01*
X002440Y008801D02*
X000755Y008801D01*
X000824Y008919D02*
X002423Y008919D01*
X002387Y009038D02*
X000892Y009038D01*
X000961Y009156D02*
X002330Y009156D01*
X002247Y009275D02*
X001029Y009275D01*
X001097Y009393D02*
X002120Y009393D01*
X001947Y009512D02*
X001166Y009512D01*
X001234Y009630D02*
X001768Y009630D01*
X001589Y009749D02*
X001303Y009749D01*
X001371Y009867D02*
X001411Y009867D01*
X002414Y010918D02*
X003886Y011768D01*
X004243Y011050D01*
X004295Y010936D01*
X004328Y010816D01*
X004343Y010692D01*
X004339Y010567D01*
X004316Y010445D01*
X004275Y010327D01*
X004216Y010217D01*
X004141Y010117D01*
X004052Y010030D01*
X003950Y009957D01*
X003837Y009900D01*
X003717Y009862D01*
X003592Y009844D01*
X003465Y009847D01*
X003341Y009869D01*
X003222Y009912D01*
X003111Y009973D01*
X003012Y010051D01*
X002926Y010144D01*
X002857Y010250D01*
X002414Y010918D01*
X002441Y010934D02*
X004295Y010934D01*
X004328Y010815D02*
X002482Y010815D01*
X002561Y010697D02*
X004343Y010697D01*
X004340Y010578D02*
X002639Y010578D01*
X002718Y010460D02*
X004319Y010460D01*
X004280Y010341D02*
X002797Y010341D01*
X002875Y010223D02*
X004219Y010223D01*
X004128Y010104D02*
X002963Y010104D01*
X003095Y009986D02*
X003990Y009986D01*
X003732Y009867D02*
X003354Y009867D01*
X002646Y011052D02*
X004242Y011052D01*
X004183Y011171D02*
X002852Y011171D01*
X003057Y011289D02*
X004124Y011289D01*
X004065Y011408D02*
X003262Y011408D01*
X003467Y011526D02*
X004006Y011526D01*
X003947Y011645D02*
X003673Y011645D01*
X003878Y011763D02*
X003889Y011763D01*
X007962Y010817D02*
X007944Y010692D01*
X007947Y010565D01*
X007969Y010441D01*
X008012Y010322D01*
X008073Y010211D01*
X008151Y010112D01*
X008244Y010026D01*
X008350Y009957D01*
X008464Y009905D01*
X008584Y009872D01*
X008708Y009857D01*
X008833Y009861D01*
X008955Y009884D01*
X009073Y009925D01*
X009183Y009984D01*
X009283Y010059D01*
X009370Y010148D01*
X009443Y010250D01*
X009886Y010918D01*
X008414Y011768D01*
X008057Y011050D01*
X008000Y010937D01*
X007962Y010817D01*
X007962Y010815D02*
X009818Y010815D01*
X009859Y010934D02*
X007999Y010934D01*
X008058Y011052D02*
X009654Y011052D01*
X009448Y011171D02*
X008117Y011171D01*
X008176Y011289D02*
X009243Y011289D01*
X009038Y011408D02*
X008235Y011408D01*
X008294Y011526D02*
X008833Y011526D01*
X008627Y011645D02*
X008353Y011645D01*
X008411Y011763D02*
X008422Y011763D01*
X007945Y010697D02*
X009739Y010697D01*
X009661Y010578D02*
X007946Y010578D01*
X007966Y010460D02*
X009582Y010460D01*
X009503Y010341D02*
X008005Y010341D01*
X008067Y010223D02*
X009423Y010223D01*
X009327Y010104D02*
X008160Y010104D01*
X008307Y009986D02*
X009185Y009986D01*
X008866Y009867D02*
X008623Y009867D01*
X009955Y009156D02*
X011339Y009156D01*
X011271Y009275D02*
X010040Y009275D01*
X010051Y009288D02*
X009973Y009189D01*
X009912Y009078D01*
X009869Y008959D01*
X009847Y008835D01*
X009844Y008708D01*
X009862Y008583D01*
X009900Y008463D01*
X009957Y008350D01*
X010030Y008248D01*
X010117Y008159D01*
X010217Y008084D01*
X010327Y008025D01*
X010445Y007984D01*
X010567Y007961D01*
X010692Y007957D01*
X010816Y007972D01*
X010936Y008005D01*
X011050Y008057D01*
X011768Y008414D01*
X010918Y009886D01*
X010250Y009443D01*
X010144Y009374D01*
X010051Y009288D01*
X010174Y009393D02*
X011203Y009393D01*
X011134Y009512D02*
X010353Y009512D01*
X010532Y009630D02*
X011066Y009630D01*
X010997Y009749D02*
X010711Y009749D01*
X010889Y009867D02*
X010929Y009867D01*
X011408Y009038D02*
X009897Y009038D01*
X009862Y008919D02*
X011476Y008919D01*
X011545Y008801D02*
X009846Y008801D01*
X009848Y008682D02*
X011613Y008682D01*
X011681Y008564D02*
X009869Y008564D01*
X009909Y008445D02*
X011750Y008445D01*
X011592Y008327D02*
X009974Y008327D01*
X010069Y008208D02*
X011354Y008208D01*
X011115Y008090D02*
X010210Y008090D01*
X010512Y007971D02*
X010810Y007971D01*
X011211Y006943D02*
X011338Y006950D01*
X012138Y007000D01*
X012138Y005300D01*
X011338Y005350D01*
X011213Y005362D01*
X011092Y005393D01*
X010977Y005442D01*
X010871Y005508D01*
X010777Y005589D01*
X010695Y005684D01*
X010629Y005790D01*
X010580Y005905D01*
X010550Y006026D01*
X010538Y006150D01*
X010545Y006276D01*
X010572Y006400D01*
X010619Y006517D01*
X010684Y006625D01*
X010766Y006721D01*
X010862Y006803D01*
X010971Y006869D01*
X011088Y006915D01*
X011211Y006943D01*
X011061Y006905D02*
X012138Y006905D01*
X012138Y006786D02*
X010842Y006786D01*
X010720Y006668D02*
X012138Y006668D01*
X012138Y006549D02*
X010638Y006549D01*
X010584Y006431D02*
X012138Y006431D01*
X012138Y006312D02*
X010553Y006312D01*
X010540Y006194D02*
X012138Y006194D01*
X012138Y006075D02*
X010545Y006075D01*
X010567Y005957D02*
X012138Y005957D01*
X012138Y005838D02*
X010609Y005838D01*
X010673Y005720D02*
X012138Y005720D01*
X012138Y005601D02*
X010766Y005601D01*
X010912Y005483D02*
X012138Y005483D01*
X012138Y005364D02*
X011206Y005364D01*
X010817Y004338D02*
X010692Y004356D01*
X010565Y004353D01*
X010441Y004331D01*
X010322Y004288D01*
X010211Y004227D01*
X010112Y004149D01*
X010026Y004056D01*
X009957Y003950D01*
X009905Y003836D01*
X009872Y003716D01*
X009857Y003592D01*
X009861Y003467D01*
X009884Y003345D01*
X009925Y003227D01*
X009984Y003117D01*
X010059Y003017D01*
X010148Y002930D01*
X010250Y002857D01*
X010918Y002414D01*
X011768Y003886D01*
X011050Y004243D01*
X010937Y004300D01*
X010817Y004338D01*
X010942Y004298D02*
X010348Y004298D01*
X010150Y004179D02*
X011178Y004179D01*
X011417Y004061D02*
X010031Y004061D01*
X009954Y003942D02*
X011655Y003942D01*
X011732Y003824D02*
X009902Y003824D01*
X009870Y003705D02*
X011663Y003705D01*
X011595Y003587D02*
X009857Y003587D01*
X009861Y003468D02*
X011526Y003468D01*
X011458Y003350D02*
X009883Y003350D01*
X009924Y003231D02*
X011390Y003231D01*
X011321Y003113D02*
X009987Y003113D01*
X010083Y002994D02*
X011253Y002994D01*
X011184Y002876D02*
X010224Y002876D01*
X010401Y002757D02*
X011116Y002757D01*
X011048Y002639D02*
X010579Y002639D01*
X010758Y002520D02*
X010979Y002520D01*
X009886Y001382D02*
X008414Y000532D01*
X008057Y001250D01*
X008005Y001364D01*
X007972Y001484D01*
X007957Y001608D01*
X007961Y001733D01*
X007984Y001855D01*
X008025Y001973D01*
X008084Y002083D01*
X008159Y002183D01*
X008248Y002270D01*
X008350Y002343D01*
X008463Y002400D01*
X008583Y002438D01*
X008708Y002456D01*
X008835Y002453D01*
X008959Y002431D01*
X009078Y002388D01*
X009189Y002327D01*
X009288Y002249D01*
X009374Y002156D01*
X009443Y002050D01*
X009886Y001382D01*
X009839Y001454D02*
X007980Y001454D01*
X007961Y001572D02*
X009760Y001572D01*
X009681Y001691D02*
X007959Y001691D01*
X007975Y001809D02*
X009603Y001809D01*
X009524Y001928D02*
X008009Y001928D01*
X008064Y002046D02*
X009445Y002046D01*
X009365Y002165D02*
X008145Y002165D01*
X008266Y002283D02*
X009245Y002283D01*
X009041Y002402D02*
X008469Y002402D01*
X008019Y001335D02*
X009804Y001335D01*
X009599Y001217D02*
X008074Y001217D01*
X008133Y001098D02*
X009394Y001098D01*
X009189Y000980D02*
X008192Y000980D01*
X008250Y000861D02*
X008983Y000861D01*
X008778Y000743D02*
X008309Y000743D01*
X008368Y000624D02*
X008573Y000624D01*
X004338Y001483D02*
X004356Y001608D01*
X004353Y001735D01*
X004331Y001859D01*
X004288Y001978D01*
X004227Y002089D01*
X004149Y002188D01*
X004056Y002274D01*
X003950Y002343D01*
X003836Y002395D01*
X003716Y002428D01*
X003592Y002443D01*
X003467Y002439D01*
X003345Y002416D01*
X003227Y002375D01*
X003117Y002316D01*
X003017Y002241D01*
X002930Y002152D01*
X002857Y002050D01*
X002414Y001382D01*
X003886Y000532D01*
X004243Y001250D01*
X004300Y001363D01*
X004338Y001483D01*
X004328Y001454D02*
X002461Y001454D01*
X002496Y001335D02*
X004286Y001335D01*
X004226Y001217D02*
X002701Y001217D01*
X002906Y001098D02*
X004167Y001098D01*
X004108Y000980D02*
X003111Y000980D01*
X003317Y000861D02*
X004050Y000861D01*
X003991Y000743D02*
X003522Y000743D01*
X003727Y000624D02*
X003932Y000624D01*
X004350Y001572D02*
X002540Y001572D01*
X002619Y001691D02*
X004354Y001691D01*
X004340Y001809D02*
X002697Y001809D01*
X002776Y001928D02*
X004306Y001928D01*
X004251Y002046D02*
X002855Y002046D01*
X002942Y002165D02*
X004167Y002165D01*
X004041Y002283D02*
X003073Y002283D01*
X003303Y002402D02*
X003811Y002402D01*
D29*
X005756Y003044D03*
X006544Y003044D03*
D30*
X007489Y000997D03*
X004811Y000997D03*
M02*
