%
M48
M72
T01C0.0150
T02C0.0236
T03C0.0433
T04C0.0866
%
T01
X4430Y4993
X4118Y5930
X4118Y6430
X5555Y6868
X6055Y6868
X6555Y6868
X8243Y6930
X8430Y6430
X8243Y5930
X7930Y4680
X7180Y3680
X9618Y4680
X9805Y6430
X7555Y9555
X7555Y9993
X5868Y9493
X4805Y8805
T02
X5225Y10328
X7135Y10328
T03
X7601Y11430
X4759Y11430
T04
X1680Y3580
X3580Y1680
X993Y6180
X1680Y8780
X3580Y10680
X8780Y10680
X10680Y8780
X11368Y6180
X10680Y3580
X8780Y1680
M30
