G75*
%MOIN*%
%OFA0B0*%
%FSLAX24Y24*%
%IPPOS*%
%LPD*%
%AMOC8*
5,1,8,0,0,1.08239X$1,22.5*
%
%ADD10C,0.0000*%
%ADD11R,0.0870X0.0240*%
%ADD12R,0.0157X0.0551*%
%ADD13R,0.0709X0.0709*%
%ADD14C,0.0476*%
%ADD15C,0.0787*%
%ADD16R,0.0709X0.0394*%
%ADD17R,0.0315X0.0315*%
%ADD18R,0.0110X0.0335*%
%ADD19R,0.0945X0.0650*%
%ADD20R,0.0276X0.0110*%
%ADD21R,0.0248X0.0327*%
%ADD22R,0.0394X0.0551*%
%ADD23R,0.0551X0.0551*%
%ADD24R,0.0433X0.0394*%
%ADD25R,0.0276X0.0354*%
%ADD26R,0.0354X0.0276*%
%ADD27R,0.0250X0.0500*%
%ADD28C,0.1266*%
%ADD29C,0.0120*%
%ADD30R,0.0394X0.1811*%
%ADD31R,0.0630X0.1260*%
%ADD32C,0.0100*%
%ADD33C,0.0350*%
%ADD34C,0.0080*%
D10*
X000180Y005680D02*
X000195Y005527D01*
X000213Y005374D01*
X000236Y005222D01*
X000262Y005071D01*
X000292Y004920D01*
X000326Y004770D01*
X000364Y004621D01*
X000406Y004473D01*
X000452Y004326D01*
X000501Y004180D01*
X000554Y004036D01*
X000610Y003893D01*
X000671Y003751D01*
X000734Y003611D01*
X000802Y003473D01*
X000873Y003337D01*
X000947Y003202D01*
X001025Y003069D01*
X001106Y002939D01*
X001190Y002810D01*
X001278Y002684D01*
X001369Y002560D01*
X001463Y002438D01*
X001560Y002319D01*
X001660Y002202D01*
X001763Y002088D01*
X001869Y001977D01*
X001978Y001868D01*
X002089Y001762D01*
X002203Y001659D01*
X002320Y001559D01*
X002439Y001462D01*
X002561Y001368D01*
X002685Y001277D01*
X002812Y001189D01*
X002940Y001105D01*
X003071Y001024D01*
X003204Y000946D01*
X003338Y000872D01*
X003475Y000801D01*
X003613Y000734D01*
X003753Y000670D01*
X003894Y000610D01*
X004037Y000553D01*
X004182Y000500D01*
X004327Y000451D01*
X004474Y000406D01*
X004622Y000364D01*
X004771Y000326D01*
X004921Y000292D01*
X005072Y000262D01*
X005224Y000235D01*
X005376Y000213D01*
X005528Y000194D01*
X005682Y000180D01*
X005835Y000169D01*
X005989Y000162D01*
X006142Y000159D01*
X006296Y000160D01*
X006450Y000165D01*
X006603Y000174D01*
X006757Y000187D01*
X006909Y000203D01*
X007062Y000224D01*
X007214Y000248D01*
X007365Y000277D01*
X007515Y000309D01*
X007665Y000345D01*
X007813Y000385D01*
X007961Y000428D01*
X008107Y000476D01*
X008252Y000527D01*
X008396Y000582D01*
X008538Y000640D01*
X008679Y000702D01*
X008818Y000768D01*
X008955Y000837D01*
X009091Y000909D01*
X009224Y000985D01*
X009356Y001065D01*
X009486Y001148D01*
X009613Y001234D01*
X009738Y001323D01*
X009861Y001415D01*
X009982Y001511D01*
X010100Y001610D01*
X010215Y001711D01*
X010328Y001816D01*
X010438Y001923D01*
X010545Y002033D01*
X010650Y002146D01*
X010751Y002262D01*
X010850Y002380D01*
X010946Y002500D01*
X011038Y002623D01*
X011127Y002748D01*
X011213Y002876D01*
X011296Y003005D01*
X011375Y003137D01*
X011451Y003271D01*
X011524Y003406D01*
X011593Y003544D01*
X011659Y003683D01*
X011721Y003823D01*
X011779Y003966D01*
X011834Y004109D01*
X011885Y004254D01*
X011932Y004401D01*
X011976Y004548D01*
X012015Y004697D01*
X012051Y004846D01*
X012084Y004997D01*
X012112Y005148D01*
X012136Y005300D01*
X012157Y005452D01*
X012173Y005605D01*
X012186Y005758D01*
X012195Y005912D01*
X012200Y006065D01*
X012201Y006219D01*
X012198Y006373D01*
X012191Y006527D01*
X012180Y006680D01*
X012165Y006833D01*
X012147Y006986D01*
X012124Y007138D01*
X012098Y007289D01*
X012068Y007440D01*
X012034Y007590D01*
X011996Y007739D01*
X011954Y007887D01*
X011908Y008034D01*
X011859Y008180D01*
X011806Y008324D01*
X011750Y008467D01*
X011689Y008609D01*
X011626Y008749D01*
X011558Y008887D01*
X011487Y009023D01*
X011413Y009158D01*
X011335Y009291D01*
X011254Y009421D01*
X011170Y009550D01*
X011082Y009676D01*
X010991Y009800D01*
X010897Y009922D01*
X010800Y010041D01*
X010700Y010158D01*
X010597Y010272D01*
X010491Y010383D01*
X010382Y010492D01*
X010271Y010598D01*
X010157Y010701D01*
X010040Y010801D01*
X009921Y010898D01*
X009799Y010992D01*
X009675Y011083D01*
X009548Y011171D01*
X009420Y011255D01*
X009289Y011336D01*
X009156Y011414D01*
X009022Y011488D01*
X008885Y011559D01*
X008747Y011626D01*
X008607Y011690D01*
X008466Y011750D01*
X008323Y011807D01*
X008178Y011860D01*
X008033Y011909D01*
X007886Y011954D01*
X007738Y011996D01*
X007589Y012034D01*
X007439Y012068D01*
X007288Y012098D01*
X007136Y012125D01*
X006984Y012147D01*
X006832Y012166D01*
X006678Y012180D01*
X006525Y012191D01*
X006371Y012198D01*
X006218Y012201D01*
X006064Y012200D01*
X005910Y012195D01*
X005757Y012186D01*
X005603Y012173D01*
X005451Y012157D01*
X005298Y012136D01*
X005146Y012112D01*
X004995Y012083D01*
X004845Y012051D01*
X004695Y012015D01*
X004547Y011975D01*
X004399Y011932D01*
X004253Y011884D01*
X004108Y011833D01*
X003964Y011778D01*
X003822Y011720D01*
X003681Y011658D01*
X003542Y011592D01*
X003405Y011523D01*
X003269Y011451D01*
X003136Y011375D01*
X003004Y011295D01*
X002874Y011212D01*
X002747Y011126D01*
X002622Y011037D01*
X002499Y010945D01*
X002378Y010849D01*
X002260Y010750D01*
X002145Y010649D01*
X002032Y010544D01*
X001922Y010437D01*
X001815Y010327D01*
X001710Y010214D01*
X001609Y010098D01*
X001510Y009980D01*
X001414Y009860D01*
X001322Y009737D01*
X001233Y009612D01*
X001147Y009484D01*
X001064Y009355D01*
X000985Y009223D01*
X000909Y009089D01*
X000836Y008954D01*
X000767Y008816D01*
X000701Y008677D01*
X000639Y008537D01*
X000581Y008394D01*
X000526Y008251D01*
X000475Y008106D01*
X000428Y007959D01*
X000384Y007812D01*
X000345Y007663D01*
X000309Y007514D01*
X000276Y007363D01*
X000248Y007212D01*
X000224Y007060D01*
X000203Y006908D01*
X000187Y006755D01*
X000174Y006602D01*
X000165Y006448D01*
X000160Y006295D01*
X000159Y006141D01*
X000162Y005987D01*
X000169Y005833D01*
X000180Y005680D01*
D11*
X004860Y005430D03*
X004860Y005930D03*
X004860Y006430D03*
X004860Y006930D03*
X007510Y006930D03*
X007510Y006430D03*
X007510Y005930D03*
X007510Y005430D03*
D12*
X006692Y010387D03*
X006436Y010387D03*
X006180Y010387D03*
X005924Y010387D03*
X005668Y010387D03*
D13*
X005727Y011430D03*
X006633Y011430D03*
D14*
X007135Y010328D03*
X005225Y010328D03*
D15*
X004759Y011430D03*
X007601Y011430D03*
D16*
X009055Y008731D03*
X009055Y007629D03*
D17*
X009055Y004725D03*
X009055Y004135D03*
D18*
X004074Y007445D03*
X003877Y007445D03*
X003680Y007445D03*
X003483Y007445D03*
X003286Y007445D03*
X003286Y008665D03*
X003483Y008665D03*
X003680Y008665D03*
X003877Y008665D03*
X004074Y008665D03*
D19*
X003680Y008055D03*
D20*
X003070Y007957D03*
X003070Y008153D03*
X004290Y008153D03*
X004290Y007957D03*
D21*
X005852Y008305D03*
X006758Y008305D03*
X007352Y008305D03*
X008258Y008305D03*
D22*
X003930Y004363D03*
X003556Y003497D03*
X004304Y003497D03*
D23*
X009055Y005452D03*
X009055Y006908D03*
D24*
X003765Y009305D03*
X003095Y009305D03*
D25*
X004799Y007680D03*
X005311Y007680D03*
X006049Y007680D03*
X006561Y007680D03*
X007549Y007680D03*
X008061Y007680D03*
X008061Y008868D03*
X007549Y008868D03*
X006561Y008868D03*
X006049Y008868D03*
X003498Y006805D03*
X002987Y006805D03*
D26*
X002430Y006924D03*
X002430Y007436D03*
X002430Y006186D03*
X002930Y006186D03*
X002930Y005674D03*
X002430Y005674D03*
X003555Y005674D03*
X003555Y006186D03*
X005305Y008299D03*
X005305Y008811D03*
X008430Y004686D03*
X008430Y004174D03*
D27*
X003482Y004743D03*
X003128Y004743D03*
D28*
X001680Y003580D03*
X003580Y001680D03*
X000993Y006180D03*
X001680Y008780D03*
X003580Y010680D03*
X008780Y010680D03*
X010680Y008780D03*
X011368Y006180D03*
X010680Y003580D03*
X008780Y001680D03*
D29*
X001412Y002444D02*
X000562Y003916D01*
X001280Y004273D01*
X001394Y004325D01*
X001514Y004358D01*
X001638Y004373D01*
X001763Y004369D01*
X001885Y004346D01*
X002003Y004305D01*
X002113Y004246D01*
X002213Y004171D01*
X002300Y004082D01*
X002373Y003980D01*
X002430Y003867D01*
X002468Y003747D01*
X002486Y003622D01*
X002483Y003495D01*
X002461Y003371D01*
X002418Y003252D01*
X002357Y003141D01*
X002279Y003042D01*
X002186Y002956D01*
X002080Y002887D01*
X001412Y002444D01*
X001351Y002550D02*
X001572Y002550D01*
X001751Y002669D02*
X001282Y002669D01*
X001214Y002787D02*
X001929Y002787D01*
X002108Y002906D02*
X001146Y002906D01*
X001077Y003024D02*
X002259Y003024D01*
X002358Y003143D02*
X001009Y003143D01*
X000940Y003261D02*
X002421Y003261D01*
X002462Y003380D02*
X000872Y003380D01*
X000804Y003498D02*
X002483Y003498D01*
X002486Y003617D02*
X000735Y003617D01*
X000667Y003735D02*
X002469Y003735D01*
X002434Y003854D02*
X000598Y003854D01*
X000675Y003972D02*
X002377Y003972D01*
X002292Y004091D02*
X000913Y004091D01*
X001152Y004209D02*
X002162Y004209D01*
X001939Y004328D02*
X001404Y004328D01*
X001150Y005394D02*
X000193Y005394D01*
X000193Y005330D02*
X000193Y007030D01*
X000993Y006980D01*
X001117Y006968D01*
X001238Y006937D01*
X001353Y006888D01*
X001459Y006822D01*
X001553Y006741D01*
X001635Y006646D01*
X001701Y006540D01*
X001750Y006425D01*
X001780Y006304D01*
X001793Y006180D01*
X001785Y006054D01*
X001758Y005930D01*
X001711Y005813D01*
X001646Y005705D01*
X001564Y005609D01*
X001468Y005527D01*
X001359Y005461D01*
X001242Y005415D01*
X001119Y005387D01*
X000993Y005380D01*
X000193Y005330D01*
X000193Y005513D02*
X001444Y005513D01*
X001583Y005631D02*
X000193Y005631D01*
X000193Y005750D02*
X001673Y005750D01*
X001733Y005868D02*
X000193Y005868D01*
X000193Y005987D02*
X001770Y005987D01*
X001788Y006105D02*
X000193Y006105D01*
X000193Y006224D02*
X001788Y006224D01*
X001771Y006342D02*
X000193Y006342D01*
X000193Y006461D02*
X001735Y006461D01*
X001676Y006579D02*
X000193Y006579D01*
X000193Y006698D02*
X001591Y006698D01*
X001466Y006816D02*
X000193Y006816D01*
X000193Y006935D02*
X001244Y006935D01*
X001513Y007992D02*
X001393Y008030D01*
X001280Y008087D01*
X000562Y008444D01*
X001412Y009916D01*
X002080Y009473D01*
X002182Y009400D01*
X002271Y009313D01*
X002346Y009213D01*
X002405Y009103D01*
X002446Y008985D01*
X002469Y008863D01*
X002473Y008738D01*
X002458Y008614D01*
X002425Y008494D01*
X002373Y008380D01*
X002304Y008274D01*
X002218Y008181D01*
X002119Y008103D01*
X002008Y008042D01*
X001889Y007999D01*
X001765Y007977D01*
X001638Y007974D01*
X001513Y007992D01*
X001486Y008001D02*
X001894Y008001D01*
X002140Y008120D02*
X001215Y008120D01*
X000976Y008238D02*
X002270Y008238D01*
X002357Y008357D02*
X000738Y008357D01*
X000580Y008475D02*
X002416Y008475D01*
X002453Y008594D02*
X000649Y008594D01*
X000717Y008712D02*
X002470Y008712D01*
X002470Y008831D02*
X000785Y008831D01*
X000854Y008949D02*
X002453Y008949D01*
X002417Y009068D02*
X000922Y009068D01*
X000991Y009186D02*
X002360Y009186D01*
X002277Y009305D02*
X001059Y009305D01*
X001127Y009423D02*
X002150Y009423D01*
X001977Y009542D02*
X001196Y009542D01*
X001264Y009660D02*
X001798Y009660D01*
X001619Y009779D02*
X001333Y009779D01*
X001401Y009897D02*
X001441Y009897D01*
X002444Y010948D02*
X003916Y011798D01*
X004273Y011080D01*
X004325Y010966D01*
X004358Y010846D01*
X004373Y010722D01*
X004369Y010597D01*
X004346Y010475D01*
X004305Y010357D01*
X004246Y010247D01*
X004171Y010147D01*
X004082Y010060D01*
X003980Y009987D01*
X003867Y009930D01*
X003747Y009892D01*
X003622Y009874D01*
X003495Y009877D01*
X003371Y009899D01*
X003252Y009942D01*
X003141Y010003D01*
X003042Y010081D01*
X002956Y010174D01*
X002887Y010280D01*
X002444Y010948D01*
X002471Y010964D02*
X004325Y010964D01*
X004358Y010845D02*
X002512Y010845D01*
X002591Y010727D02*
X004373Y010727D01*
X004370Y010608D02*
X002669Y010608D01*
X002748Y010490D02*
X004349Y010490D01*
X004310Y010371D02*
X002827Y010371D01*
X002905Y010253D02*
X004249Y010253D01*
X004158Y010134D02*
X002993Y010134D01*
X003125Y010016D02*
X004020Y010016D01*
X003762Y009897D02*
X003384Y009897D01*
X002676Y011082D02*
X004272Y011082D01*
X004213Y011201D02*
X002882Y011201D01*
X003087Y011319D02*
X004154Y011319D01*
X004095Y011438D02*
X003292Y011438D01*
X003497Y011556D02*
X004036Y011556D01*
X003977Y011675D02*
X003703Y011675D01*
X003908Y011793D02*
X003919Y011793D01*
X007992Y010847D02*
X007974Y010722D01*
X007977Y010595D01*
X007999Y010471D01*
X008042Y010352D01*
X008103Y010241D01*
X008181Y010142D01*
X008274Y010056D01*
X008380Y009987D01*
X008494Y009935D01*
X008614Y009902D01*
X008738Y009887D01*
X008863Y009891D01*
X008985Y009914D01*
X009103Y009955D01*
X009213Y010014D01*
X009313Y010089D01*
X009400Y010178D01*
X009473Y010280D01*
X009916Y010948D01*
X008444Y011798D01*
X008087Y011080D01*
X008030Y010967D01*
X007992Y010847D01*
X007992Y010845D02*
X009848Y010845D01*
X009889Y010964D02*
X008029Y010964D01*
X008088Y011082D02*
X009684Y011082D01*
X009478Y011201D02*
X008147Y011201D01*
X008206Y011319D02*
X009273Y011319D01*
X009068Y011438D02*
X008265Y011438D01*
X008324Y011556D02*
X008863Y011556D01*
X008657Y011675D02*
X008383Y011675D01*
X008441Y011793D02*
X008452Y011793D01*
X007975Y010727D02*
X009769Y010727D01*
X009691Y010608D02*
X007976Y010608D01*
X007996Y010490D02*
X009612Y010490D01*
X009533Y010371D02*
X008035Y010371D01*
X008097Y010253D02*
X009453Y010253D01*
X009357Y010134D02*
X008190Y010134D01*
X008337Y010016D02*
X009215Y010016D01*
X008896Y009897D02*
X008653Y009897D01*
X009899Y008989D02*
X009877Y008865D01*
X009874Y008738D01*
X009892Y008613D01*
X009930Y008493D01*
X009987Y008380D01*
X010060Y008278D01*
X010147Y008189D01*
X010247Y008114D01*
X010357Y008055D01*
X010475Y008014D01*
X010597Y007991D01*
X010722Y007987D01*
X010846Y008002D01*
X010966Y008035D01*
X011080Y008087D01*
X011798Y008444D01*
X010948Y009916D01*
X010280Y009473D01*
X010174Y009404D01*
X010081Y009318D01*
X010003Y009219D01*
X009942Y009108D01*
X009899Y008989D01*
X009892Y008949D02*
X011506Y008949D01*
X011438Y009068D02*
X009927Y009068D01*
X009985Y009186D02*
X011369Y009186D01*
X011301Y009305D02*
X010070Y009305D01*
X010204Y009423D02*
X011233Y009423D01*
X011164Y009542D02*
X010383Y009542D01*
X010562Y009660D02*
X011096Y009660D01*
X011027Y009779D02*
X010741Y009779D01*
X010919Y009897D02*
X010959Y009897D01*
X011575Y008831D02*
X009876Y008831D01*
X009878Y008712D02*
X011643Y008712D01*
X011711Y008594D02*
X009899Y008594D01*
X009939Y008475D02*
X011780Y008475D01*
X011622Y008357D02*
X010004Y008357D01*
X010099Y008238D02*
X011384Y008238D01*
X011145Y008120D02*
X010240Y008120D01*
X010542Y008001D02*
X010840Y008001D01*
X011118Y006945D02*
X011241Y006973D01*
X011368Y006980D01*
X012168Y007030D01*
X012168Y005330D01*
X011368Y005380D01*
X011243Y005392D01*
X011122Y005423D01*
X011007Y005472D01*
X010901Y005538D01*
X010807Y005619D01*
X010725Y005714D01*
X010659Y005820D01*
X010610Y005935D01*
X010580Y006056D01*
X010568Y006180D01*
X010575Y006306D01*
X010602Y006430D01*
X010649Y006547D01*
X010714Y006655D01*
X010796Y006751D01*
X010892Y006833D01*
X011001Y006899D01*
X011118Y006945D01*
X011091Y006935D02*
X012168Y006935D01*
X012168Y006816D02*
X010872Y006816D01*
X010750Y006698D02*
X012168Y006698D01*
X012168Y006579D02*
X010668Y006579D01*
X010614Y006461D02*
X012168Y006461D01*
X012168Y006342D02*
X010583Y006342D01*
X010570Y006224D02*
X012168Y006224D01*
X012168Y006105D02*
X010575Y006105D01*
X010597Y005987D02*
X012168Y005987D01*
X012168Y005868D02*
X010639Y005868D01*
X010703Y005750D02*
X012168Y005750D01*
X012168Y005631D02*
X010796Y005631D01*
X010942Y005513D02*
X012168Y005513D01*
X012168Y005394D02*
X011236Y005394D01*
X010847Y004368D02*
X010722Y004386D01*
X010595Y004383D01*
X010471Y004361D01*
X010352Y004318D01*
X010241Y004257D01*
X010142Y004179D01*
X010056Y004086D01*
X009987Y003980D01*
X009935Y003866D01*
X009902Y003746D01*
X009887Y003622D01*
X009891Y003497D01*
X009914Y003375D01*
X009955Y003257D01*
X010014Y003147D01*
X010089Y003047D01*
X010178Y002960D01*
X010280Y002887D01*
X010948Y002444D01*
X011798Y003916D01*
X011080Y004273D01*
X010967Y004330D01*
X010847Y004368D01*
X010972Y004328D02*
X010378Y004328D01*
X010180Y004209D02*
X011208Y004209D01*
X011447Y004091D02*
X010061Y004091D01*
X009984Y003972D02*
X011685Y003972D01*
X011762Y003854D02*
X009932Y003854D01*
X009900Y003735D02*
X011693Y003735D01*
X011625Y003617D02*
X009887Y003617D01*
X009891Y003498D02*
X011556Y003498D01*
X011488Y003380D02*
X009913Y003380D01*
X009954Y003261D02*
X011420Y003261D01*
X011351Y003143D02*
X010017Y003143D01*
X010113Y003024D02*
X011283Y003024D01*
X011214Y002906D02*
X010254Y002906D01*
X010431Y002787D02*
X011146Y002787D01*
X011078Y002669D02*
X010609Y002669D01*
X010788Y002550D02*
X011009Y002550D01*
X009916Y001412D02*
X008444Y000562D01*
X008087Y001280D01*
X008035Y001394D01*
X008002Y001514D01*
X007987Y001638D01*
X007991Y001763D01*
X008014Y001885D01*
X008055Y002003D01*
X008114Y002113D01*
X008189Y002213D01*
X008278Y002300D01*
X008380Y002373D01*
X008493Y002430D01*
X008613Y002468D01*
X008738Y002486D01*
X008865Y002483D01*
X008989Y002461D01*
X009108Y002418D01*
X009219Y002357D01*
X009318Y002279D01*
X009404Y002186D01*
X009473Y002080D01*
X009916Y001412D01*
X009869Y001484D02*
X008010Y001484D01*
X007991Y001602D02*
X009790Y001602D01*
X009711Y001721D02*
X007989Y001721D01*
X008005Y001839D02*
X009633Y001839D01*
X009554Y001958D02*
X008039Y001958D01*
X008094Y002076D02*
X009475Y002076D01*
X009395Y002195D02*
X008175Y002195D01*
X008296Y002313D02*
X009275Y002313D01*
X009071Y002432D02*
X008499Y002432D01*
X008049Y001365D02*
X009834Y001365D01*
X009629Y001247D02*
X008104Y001247D01*
X008163Y001128D02*
X009424Y001128D01*
X009219Y001010D02*
X008222Y001010D01*
X008280Y000891D02*
X009013Y000891D01*
X008808Y000773D02*
X008339Y000773D01*
X008398Y000654D02*
X008603Y000654D01*
X004368Y001513D02*
X004386Y001638D01*
X004383Y001765D01*
X004361Y001889D01*
X004318Y002008D01*
X004257Y002119D01*
X004179Y002218D01*
X004086Y002304D01*
X003980Y002373D01*
X003866Y002425D01*
X003746Y002458D01*
X003622Y002473D01*
X003497Y002469D01*
X003375Y002446D01*
X003257Y002405D01*
X003147Y002346D01*
X003047Y002271D01*
X002960Y002182D01*
X002887Y002080D01*
X002444Y001412D01*
X003916Y000562D01*
X004273Y001280D01*
X004330Y001393D01*
X004368Y001513D01*
X004358Y001484D02*
X002491Y001484D01*
X002526Y001365D02*
X004316Y001365D01*
X004256Y001247D02*
X002731Y001247D01*
X002936Y001128D02*
X004197Y001128D01*
X004138Y001010D02*
X003141Y001010D01*
X003347Y000891D02*
X004080Y000891D01*
X004021Y000773D02*
X003552Y000773D01*
X003757Y000654D02*
X003962Y000654D01*
X004380Y001602D02*
X002570Y001602D01*
X002649Y001721D02*
X004384Y001721D01*
X004370Y001839D02*
X002727Y001839D01*
X002806Y001958D02*
X004336Y001958D01*
X004281Y002076D02*
X002885Y002076D01*
X002972Y002195D02*
X004197Y002195D01*
X004071Y002313D02*
X003103Y002313D01*
X003333Y002432D02*
X003841Y002432D01*
D30*
X005786Y003074D03*
X006574Y003074D03*
D31*
X007519Y001027D03*
X004841Y001027D03*
D32*
X003580Y001680D02*
X003556Y001704D01*
X003556Y003497D01*
X003747Y004180D02*
X002805Y004180D01*
X002430Y004555D01*
X002430Y005674D01*
X002424Y005680D01*
X002180Y005680D01*
X002055Y005805D01*
X002055Y007305D01*
X002186Y007436D01*
X002430Y007436D01*
X002430Y007743D01*
X002618Y007930D01*
X002618Y008305D01*
X002993Y008680D01*
X003272Y008680D01*
X003286Y008665D01*
X003483Y008665D02*
X003483Y008917D01*
X003095Y009305D01*
X003765Y009305D02*
X003877Y009193D01*
X003877Y008665D01*
X004074Y008665D02*
X004121Y008618D01*
X004368Y008618D01*
X004680Y008305D01*
X005299Y008305D01*
X005305Y008299D01*
X005305Y008243D01*
X005555Y007993D01*
X006248Y007993D01*
X006561Y007680D01*
X006561Y006873D01*
X006555Y006868D01*
X006555Y006680D01*
X005305Y005430D01*
X004860Y005430D01*
X003799Y005430D01*
X003555Y005674D01*
X003243Y005993D02*
X003243Y005243D01*
X003430Y005055D01*
X003430Y004795D01*
X003482Y004743D01*
X003128Y004743D02*
X002878Y004993D01*
X002878Y005674D01*
X002930Y006186D02*
X002930Y006237D01*
X003498Y006805D01*
X003877Y007183D01*
X003877Y007445D01*
X003877Y007930D01*
X003903Y007957D01*
X004290Y007957D01*
X004326Y007993D01*
X005055Y007993D01*
X005311Y007737D01*
X005311Y007680D01*
X006049Y007680D01*
X006049Y006873D01*
X006055Y006868D01*
X005555Y006868D02*
X005493Y006930D01*
X004860Y006930D01*
X004860Y006430D02*
X004118Y006430D01*
X004118Y005930D02*
X004860Y005930D01*
X004430Y004993D02*
X006118Y004993D01*
X007055Y005930D01*
X007510Y005930D01*
X007805Y005930D02*
X008243Y005930D01*
X008680Y005930D02*
X008180Y005430D01*
X007510Y005430D01*
X007118Y005118D02*
X006363Y004363D01*
X003930Y004363D01*
X003747Y004180D01*
X004304Y003497D02*
X005738Y003497D01*
X005805Y003430D01*
X005805Y003093D01*
X005786Y003074D01*
X006574Y003074D02*
X006574Y003680D01*
X007180Y003680D01*
X007930Y004680D02*
X007936Y004686D01*
X008430Y004686D01*
X008721Y005118D02*
X007118Y005118D01*
X007510Y006430D02*
X008430Y006430D01*
X009805Y006430D01*
X009055Y006908D02*
X009055Y007629D01*
X009180Y007993D02*
X009555Y008368D01*
X009555Y009930D01*
X008780Y010680D01*
X007555Y009993D02*
X008430Y009118D01*
X008430Y008493D01*
X008258Y008320D01*
X008258Y008305D01*
X008305Y008305D01*
X008618Y007993D02*
X009180Y007993D01*
X008618Y007993D02*
X008493Y007868D01*
X008493Y007493D01*
X008305Y007305D01*
X007680Y007305D01*
X007555Y007430D01*
X007555Y007674D01*
X007549Y007680D01*
X006561Y007680D01*
X006555Y007674D01*
X006758Y008305D02*
X006758Y008671D01*
X006561Y008868D01*
X006555Y008873D01*
X006555Y009430D01*
X006180Y009805D01*
X006180Y010387D01*
X006436Y010387D02*
X006436Y009981D01*
X007549Y008868D01*
X007352Y008671D01*
X007352Y008305D01*
X007368Y008320D01*
X007352Y008305D02*
X007555Y008305D01*
X008061Y007799D01*
X008061Y007680D01*
X008243Y006930D02*
X007510Y006930D01*
X008680Y005930D02*
X011118Y005930D01*
X011368Y006180D01*
X009618Y004680D02*
X009510Y004725D01*
X009055Y004725D01*
X008721Y005118D02*
X009055Y005452D01*
X009033Y005430D01*
X009016Y004174D02*
X008430Y004174D01*
X009016Y004174D02*
X009055Y004135D01*
X005852Y008305D02*
X005346Y008811D01*
X005305Y008811D01*
X004811Y008811D01*
X004805Y008805D01*
X005305Y008811D02*
X005305Y009680D01*
X005668Y010043D01*
X005668Y010387D01*
X005868Y009493D02*
X006049Y009311D01*
X006049Y008868D01*
X004799Y007680D02*
X004564Y007445D01*
X004074Y007445D01*
X003680Y007445D02*
X003483Y007445D01*
X003286Y007445D01*
X003286Y007349D01*
X002993Y007055D01*
X002993Y006811D01*
X002987Y006805D01*
X002987Y006743D01*
X002430Y006186D01*
X002430Y006924D02*
X002430Y006930D01*
X002868Y007368D01*
X002868Y007930D01*
X002894Y007957D01*
X003070Y007957D01*
X003680Y007957D01*
X003680Y008055D01*
X003680Y008153D01*
X003070Y008153D01*
X003680Y008055D02*
X003680Y008665D01*
X003975Y008153D02*
X003877Y008055D01*
X003877Y007930D01*
X003877Y008055D02*
X003680Y008055D01*
X003975Y008153D02*
X004290Y008153D01*
X003618Y006248D02*
X003555Y006186D01*
X007555Y009555D02*
X008061Y009049D01*
X008061Y008868D01*
X009055Y008930D02*
X009055Y008731D01*
X009055Y008930D02*
X007118Y010868D01*
X006805Y010868D01*
X006692Y010754D01*
X006692Y010387D01*
D33*
X007555Y009993D03*
X007555Y009555D03*
X005868Y009493D03*
X004805Y008805D03*
X005555Y006868D03*
X006055Y006868D03*
X006555Y006868D03*
X008243Y006930D03*
X008430Y006430D03*
X008243Y005930D03*
X007930Y004680D03*
X007180Y003680D03*
X009618Y004680D03*
X009805Y006430D03*
X004430Y004993D03*
X004118Y005930D03*
X004118Y006430D03*
D34*
X004074Y006824D02*
X003618Y006368D01*
X003618Y006248D01*
X003555Y006186D02*
X003436Y006186D01*
X003243Y005993D01*
X002930Y005674D02*
X002878Y005674D01*
X004074Y006824D02*
X004074Y007445D01*
X007510Y005930D02*
X007573Y005868D01*
X007743Y005868D01*
X007805Y005930D01*
M02*
