G75*
%MOIN*%
%OFA0B0*%
%FSLAX24Y24*%
%IPPOS*%
%LPD*%
%AMOC8*
5,1,8,0,0,1.08239X$1,22.5*
%
%ADD10C,0.0476*%
%ADD11C,0.0787*%
%ADD12C,0.1266*%
%ADD13C,0.0120*%
%ADD14C,0.0350*%
%ADD15C,0.0100*%
%ADD16C,0.0160*%
D10*
X005225Y010328D03*
X007135Y010328D03*
D11*
X007601Y011430D03*
X004759Y011430D03*
D12*
X003580Y010680D03*
X001680Y008780D03*
X000993Y006180D03*
X001680Y003580D03*
X003580Y001680D03*
X008780Y001680D03*
X010680Y003580D03*
X011368Y006180D03*
X010680Y008780D03*
X008780Y010680D03*
D13*
X009357Y010134D02*
X008190Y010134D01*
X008181Y010142D02*
X008274Y010056D01*
X008380Y009987D01*
X008494Y009935D01*
X008614Y009902D01*
X008738Y009887D01*
X008863Y009891D01*
X008985Y009914D01*
X009103Y009955D01*
X009213Y010014D01*
X009313Y010089D01*
X009400Y010178D01*
X009473Y010280D01*
X009916Y010948D01*
X008444Y011798D01*
X008087Y011080D01*
X008030Y010967D01*
X007992Y010847D01*
X007974Y010722D01*
X007977Y010595D01*
X007999Y010471D01*
X008042Y010352D01*
X008103Y010241D01*
X008181Y010142D01*
X008097Y010253D02*
X009453Y010253D01*
X009533Y010371D02*
X008035Y010371D01*
X007996Y010490D02*
X009612Y010490D01*
X009691Y010608D02*
X007976Y010608D01*
X007975Y010727D02*
X009769Y010727D01*
X009848Y010845D02*
X007992Y010845D01*
X008029Y010964D02*
X009889Y010964D01*
X009684Y011082D02*
X008088Y011082D01*
X008147Y011201D02*
X009478Y011201D01*
X009273Y011319D02*
X008206Y011319D01*
X008265Y011438D02*
X009068Y011438D01*
X008863Y011556D02*
X008324Y011556D01*
X008383Y011675D02*
X008657Y011675D01*
X008452Y011793D02*
X008441Y011793D01*
X008337Y010016D02*
X009215Y010016D01*
X008896Y009897D02*
X008653Y009897D01*
X009899Y008989D02*
X009877Y008865D01*
X009874Y008738D01*
X009892Y008613D01*
X009930Y008493D01*
X009987Y008380D01*
X010060Y008278D01*
X010147Y008189D01*
X010247Y008114D01*
X010357Y008055D01*
X010475Y008014D01*
X010597Y007991D01*
X010722Y007987D01*
X010846Y008002D01*
X010966Y008035D01*
X011080Y008087D01*
X011798Y008444D01*
X010948Y009916D01*
X010280Y009473D01*
X010174Y009404D01*
X010081Y009318D01*
X010003Y009219D01*
X009942Y009108D01*
X009899Y008989D01*
X009892Y008949D02*
X011506Y008949D01*
X011438Y009068D02*
X009927Y009068D01*
X009985Y009186D02*
X011369Y009186D01*
X011301Y009305D02*
X010070Y009305D01*
X010204Y009423D02*
X011233Y009423D01*
X011164Y009542D02*
X010383Y009542D01*
X010562Y009660D02*
X011096Y009660D01*
X011027Y009779D02*
X010741Y009779D01*
X010919Y009897D02*
X010959Y009897D01*
X011575Y008831D02*
X009876Y008831D01*
X009878Y008712D02*
X011643Y008712D01*
X011711Y008594D02*
X009899Y008594D01*
X009939Y008475D02*
X011780Y008475D01*
X011622Y008357D02*
X010004Y008357D01*
X010099Y008238D02*
X011384Y008238D01*
X011145Y008120D02*
X010240Y008120D01*
X010542Y008001D02*
X010840Y008001D01*
X011118Y006945D02*
X011241Y006973D01*
X011368Y006980D01*
X012168Y007030D01*
X012168Y005330D01*
X011368Y005380D01*
X011243Y005392D01*
X011122Y005423D01*
X011007Y005472D01*
X010901Y005538D01*
X010807Y005619D01*
X010725Y005714D01*
X010659Y005820D01*
X010610Y005935D01*
X010580Y006056D01*
X010568Y006180D01*
X010575Y006306D01*
X010602Y006430D01*
X010649Y006547D01*
X010714Y006655D01*
X010796Y006751D01*
X010892Y006833D01*
X011001Y006899D01*
X011118Y006945D01*
X011091Y006935D02*
X012168Y006935D01*
X012168Y006816D02*
X010872Y006816D01*
X010750Y006698D02*
X012168Y006698D01*
X012168Y006579D02*
X010668Y006579D01*
X010614Y006461D02*
X012168Y006461D01*
X012168Y006342D02*
X010583Y006342D01*
X010570Y006224D02*
X012168Y006224D01*
X012168Y006105D02*
X010575Y006105D01*
X010597Y005987D02*
X012168Y005987D01*
X012168Y005868D02*
X010639Y005868D01*
X010703Y005750D02*
X012168Y005750D01*
X012168Y005631D02*
X010796Y005631D01*
X010942Y005513D02*
X012168Y005513D01*
X012168Y005394D02*
X011236Y005394D01*
X010847Y004368D02*
X010722Y004386D01*
X010595Y004383D01*
X010471Y004361D01*
X010352Y004318D01*
X010241Y004257D01*
X010142Y004179D01*
X010056Y004086D01*
X009987Y003980D01*
X009935Y003866D01*
X009902Y003746D01*
X009887Y003622D01*
X009891Y003497D01*
X009914Y003375D01*
X009955Y003257D01*
X010014Y003147D01*
X010089Y003047D01*
X010178Y002960D01*
X010280Y002887D01*
X010948Y002444D01*
X011798Y003916D01*
X011080Y004273D01*
X010967Y004330D01*
X010847Y004368D01*
X010972Y004328D02*
X010378Y004328D01*
X010180Y004209D02*
X011208Y004209D01*
X011447Y004091D02*
X010061Y004091D01*
X009984Y003972D02*
X011685Y003972D01*
X011762Y003854D02*
X009932Y003854D01*
X009900Y003735D02*
X011693Y003735D01*
X011625Y003617D02*
X009887Y003617D01*
X009891Y003498D02*
X011556Y003498D01*
X011488Y003380D02*
X009913Y003380D01*
X009954Y003261D02*
X011420Y003261D01*
X011351Y003143D02*
X010017Y003143D01*
X010113Y003024D02*
X011283Y003024D01*
X011214Y002906D02*
X010254Y002906D01*
X010431Y002787D02*
X011146Y002787D01*
X011078Y002669D02*
X010609Y002669D01*
X010788Y002550D02*
X011009Y002550D01*
X009916Y001412D02*
X008444Y000562D01*
X008087Y001280D01*
X008035Y001394D01*
X008002Y001514D01*
X007987Y001638D01*
X007991Y001763D01*
X008014Y001885D01*
X008055Y002003D01*
X008114Y002113D01*
X008189Y002213D01*
X008278Y002300D01*
X008380Y002373D01*
X008493Y002430D01*
X008613Y002468D01*
X008738Y002486D01*
X008865Y002483D01*
X008989Y002461D01*
X009108Y002418D01*
X009219Y002357D01*
X009318Y002279D01*
X009404Y002186D01*
X009473Y002080D01*
X009916Y001412D01*
X009869Y001484D02*
X008010Y001484D01*
X007991Y001602D02*
X009790Y001602D01*
X009711Y001721D02*
X007989Y001721D01*
X008005Y001839D02*
X009633Y001839D01*
X009554Y001958D02*
X008039Y001958D01*
X008094Y002076D02*
X009475Y002076D01*
X009395Y002195D02*
X008175Y002195D01*
X008296Y002313D02*
X009275Y002313D01*
X009071Y002432D02*
X008499Y002432D01*
X008049Y001365D02*
X009834Y001365D01*
X009629Y001247D02*
X008104Y001247D01*
X008163Y001128D02*
X009424Y001128D01*
X009219Y001010D02*
X008222Y001010D01*
X008280Y000891D02*
X009013Y000891D01*
X008808Y000773D02*
X008339Y000773D01*
X008398Y000654D02*
X008603Y000654D01*
X004368Y001513D02*
X004386Y001638D01*
X004383Y001765D01*
X004361Y001889D01*
X004318Y002008D01*
X004257Y002119D01*
X004179Y002218D01*
X004086Y002304D01*
X003980Y002373D01*
X003866Y002425D01*
X003746Y002458D01*
X003622Y002473D01*
X003497Y002469D01*
X003375Y002446D01*
X003257Y002405D01*
X003147Y002346D01*
X003047Y002271D01*
X002960Y002182D01*
X002887Y002080D01*
X002444Y001412D01*
X003916Y000562D01*
X004273Y001280D01*
X004330Y001393D01*
X004368Y001513D01*
X004358Y001484D02*
X002491Y001484D01*
X002526Y001365D02*
X004316Y001365D01*
X004256Y001247D02*
X002731Y001247D01*
X002936Y001128D02*
X004197Y001128D01*
X004138Y001010D02*
X003141Y001010D01*
X003347Y000891D02*
X004080Y000891D01*
X004021Y000773D02*
X003552Y000773D01*
X003757Y000654D02*
X003962Y000654D01*
X004380Y001602D02*
X002570Y001602D01*
X002649Y001721D02*
X004384Y001721D01*
X004370Y001839D02*
X002727Y001839D01*
X002806Y001958D02*
X004336Y001958D01*
X004281Y002076D02*
X002885Y002076D01*
X002972Y002195D02*
X004197Y002195D01*
X004071Y002313D02*
X003103Y002313D01*
X003333Y002432D02*
X003841Y002432D01*
X002461Y003371D02*
X002483Y003495D01*
X002486Y003622D01*
X002468Y003747D01*
X002430Y003867D01*
X002373Y003980D01*
X002300Y004082D01*
X002213Y004171D01*
X002113Y004246D01*
X002003Y004305D01*
X001885Y004346D01*
X001763Y004369D01*
X001638Y004373D01*
X001514Y004358D01*
X001394Y004325D01*
X001280Y004273D01*
X000562Y003916D01*
X001412Y002444D01*
X002080Y002887D01*
X002186Y002956D01*
X002279Y003042D01*
X002357Y003141D01*
X002418Y003252D01*
X002461Y003371D01*
X002462Y003380D02*
X000872Y003380D01*
X000804Y003498D02*
X002483Y003498D01*
X002486Y003617D02*
X000735Y003617D01*
X000667Y003735D02*
X002469Y003735D01*
X002434Y003854D02*
X000598Y003854D01*
X000675Y003972D02*
X002377Y003972D01*
X002292Y004091D02*
X000913Y004091D01*
X001152Y004209D02*
X002162Y004209D01*
X001939Y004328D02*
X001404Y004328D01*
X001150Y005394D02*
X000193Y005394D01*
X000193Y005330D02*
X000193Y007030D01*
X000993Y006980D01*
X001117Y006968D01*
X001238Y006937D01*
X001353Y006888D01*
X001459Y006822D01*
X001553Y006741D01*
X001635Y006646D01*
X001701Y006540D01*
X001750Y006425D01*
X001780Y006304D01*
X001793Y006180D01*
X001785Y006054D01*
X001758Y005930D01*
X001711Y005813D01*
X001646Y005705D01*
X001564Y005609D01*
X001468Y005527D01*
X001359Y005461D01*
X001242Y005415D01*
X001119Y005387D01*
X000993Y005380D01*
X000193Y005330D01*
X000193Y005513D02*
X001444Y005513D01*
X001583Y005631D02*
X000193Y005631D01*
X000193Y005750D02*
X001673Y005750D01*
X001733Y005868D02*
X000193Y005868D01*
X000193Y005987D02*
X001770Y005987D01*
X001788Y006105D02*
X000193Y006105D01*
X000193Y006224D02*
X001788Y006224D01*
X001771Y006342D02*
X000193Y006342D01*
X000193Y006461D02*
X001735Y006461D01*
X001676Y006579D02*
X000193Y006579D01*
X000193Y006698D02*
X001591Y006698D01*
X001466Y006816D02*
X000193Y006816D01*
X000193Y006935D02*
X001244Y006935D01*
X001513Y007992D02*
X001393Y008030D01*
X001280Y008087D01*
X000562Y008444D01*
X001412Y009916D01*
X002080Y009473D01*
X002182Y009400D01*
X002271Y009313D01*
X002346Y009213D01*
X002405Y009103D01*
X002446Y008985D01*
X002469Y008863D01*
X002473Y008738D01*
X002458Y008614D01*
X002425Y008494D01*
X002373Y008380D01*
X002304Y008274D01*
X002218Y008181D01*
X002119Y008103D01*
X002008Y008042D01*
X001889Y007999D01*
X001765Y007977D01*
X001638Y007974D01*
X001513Y007992D01*
X001486Y008001D02*
X001894Y008001D01*
X002140Y008120D02*
X001215Y008120D01*
X000976Y008238D02*
X002270Y008238D01*
X002357Y008357D02*
X000738Y008357D01*
X000580Y008475D02*
X002416Y008475D01*
X002453Y008594D02*
X000649Y008594D01*
X000717Y008712D02*
X002470Y008712D01*
X002470Y008831D02*
X000785Y008831D01*
X000854Y008949D02*
X002453Y008949D01*
X002417Y009068D02*
X000922Y009068D01*
X000991Y009186D02*
X002360Y009186D01*
X002277Y009305D02*
X001059Y009305D01*
X001127Y009423D02*
X002150Y009423D01*
X001977Y009542D02*
X001196Y009542D01*
X001264Y009660D02*
X001798Y009660D01*
X001619Y009779D02*
X001333Y009779D01*
X001401Y009897D02*
X001441Y009897D01*
X002444Y010948D02*
X003916Y011798D01*
X004273Y011080D01*
X004325Y010966D01*
X004358Y010846D01*
X004373Y010722D01*
X004369Y010597D01*
X004346Y010475D01*
X004305Y010357D01*
X004246Y010247D01*
X004171Y010147D01*
X004082Y010060D01*
X003980Y009987D01*
X003867Y009930D01*
X003747Y009892D01*
X003622Y009874D01*
X003495Y009877D01*
X003371Y009899D01*
X003252Y009942D01*
X003141Y010003D01*
X003042Y010081D01*
X002956Y010174D01*
X002887Y010280D01*
X002444Y010948D01*
X002471Y010964D02*
X004325Y010964D01*
X004358Y010845D02*
X002512Y010845D01*
X002591Y010727D02*
X004373Y010727D01*
X004370Y010608D02*
X002669Y010608D01*
X002748Y010490D02*
X004349Y010490D01*
X004310Y010371D02*
X002827Y010371D01*
X002905Y010253D02*
X004249Y010253D01*
X004158Y010134D02*
X002993Y010134D01*
X003125Y010016D02*
X004020Y010016D01*
X003762Y009897D02*
X003384Y009897D01*
X002676Y011082D02*
X004272Y011082D01*
X004213Y011201D02*
X002882Y011201D01*
X003087Y011319D02*
X004154Y011319D01*
X004095Y011438D02*
X003292Y011438D01*
X003497Y011556D02*
X004036Y011556D01*
X003977Y011675D02*
X003703Y011675D01*
X003908Y011793D02*
X003919Y011793D01*
X002421Y003261D02*
X000940Y003261D01*
X001009Y003143D02*
X002358Y003143D01*
X002259Y003024D02*
X001077Y003024D01*
X001146Y002906D02*
X002108Y002906D01*
X001929Y002787D02*
X001214Y002787D01*
X001282Y002669D02*
X001751Y002669D01*
X001572Y002550D02*
X001351Y002550D01*
D14*
X004430Y004993D03*
X004118Y005930D03*
X004118Y006430D03*
X005555Y006868D03*
X006055Y006868D03*
X006555Y006868D03*
X008243Y006930D03*
X008430Y006430D03*
X008243Y005930D03*
X007930Y004680D03*
X007180Y003680D03*
X009618Y004680D03*
X009805Y006430D03*
X007555Y009555D03*
X007555Y009993D03*
X005868Y009493D03*
X004805Y008805D03*
D15*
X005868Y008493D02*
X005868Y009493D01*
X005868Y008493D02*
X007930Y006430D01*
X008430Y006430D01*
X008243Y005930D02*
X008618Y005930D01*
X008993Y006305D01*
X008993Y008118D01*
X007555Y009555D01*
X006555Y006868D02*
X007936Y005487D01*
X007936Y004686D01*
X007930Y004680D01*
X009805Y005493D02*
X010368Y004930D01*
X010368Y003743D01*
X010680Y003580D01*
X009805Y005493D02*
X009805Y006430D01*
X005555Y006868D02*
X003493Y008930D01*
X003580Y010680D01*
X002180Y008430D02*
X001680Y008780D01*
X002180Y008430D02*
X002180Y008368D01*
X004118Y006430D01*
X004118Y005930D02*
X001243Y005930D01*
X000993Y006180D01*
X003093Y004993D02*
X001680Y003580D01*
X002055Y003805D01*
X003093Y004993D02*
X004430Y004993D01*
D16*
X002624Y002082D02*
X002000Y002082D01*
X001917Y002158D02*
X001729Y002390D01*
X002201Y002704D01*
X002247Y002734D01*
X002267Y002733D01*
X002321Y002782D01*
X002383Y002822D01*
X002385Y002833D01*
X002395Y002834D01*
X002441Y002892D01*
X002495Y002941D01*
X002495Y002952D01*
X002505Y002955D01*
X002541Y003019D01*
X002586Y003077D01*
X002585Y003087D01*
X002595Y003092D01*
X002619Y003161D01*
X002655Y003225D01*
X002652Y003236D01*
X002661Y003242D01*
X002674Y003314D01*
X002698Y003383D01*
X002694Y003392D01*
X002702Y003400D01*
X002703Y003473D01*
X002716Y003545D01*
X002710Y003554D01*
X002716Y003563D01*
X002706Y003635D01*
X002707Y003708D01*
X002700Y003716D01*
X002705Y003726D01*
X002683Y003796D01*
X002672Y003868D01*
X002664Y003875D01*
X002667Y003885D01*
X002634Y003950D01*
X002612Y004020D01*
X002603Y004025D01*
X002605Y004034D01*
X002562Y004094D01*
X002538Y004141D01*
X003179Y004783D01*
X004166Y004783D01*
X004240Y004709D01*
X004363Y004658D01*
X004497Y004658D01*
X004620Y004709D01*
X004714Y004803D01*
X004765Y004926D01*
X004765Y005059D01*
X004714Y005182D01*
X004620Y005276D01*
X004497Y005327D01*
X004363Y005327D01*
X004240Y005276D01*
X004166Y005202D01*
X003006Y005202D01*
X002234Y004431D01*
X002232Y004432D01*
X002173Y004477D01*
X002165Y004476D01*
X002162Y004482D01*
X002092Y004507D01*
X002027Y004542D01*
X002020Y004540D01*
X002015Y004546D01*
X001942Y004559D01*
X001872Y004584D01*
X001866Y004581D01*
X001861Y004586D01*
X001787Y004589D01*
X001714Y004602D01*
X001708Y004598D01*
X001702Y004603D01*
X001628Y004594D01*
X001554Y004596D01*
X001548Y004591D01*
X001542Y004595D01*
X001471Y004575D01*
X001397Y004566D01*
X001392Y004560D01*
X001386Y004563D01*
X001318Y004532D01*
X001246Y004512D01*
X001239Y004498D01*
X001185Y004472D01*
X001106Y004435D01*
X001104Y004431D01*
X000671Y004216D01*
X000594Y004406D01*
X000424Y005124D01*
X001006Y005160D01*
X001060Y005163D01*
X001077Y005153D01*
X001149Y005169D01*
X001222Y005173D01*
X001229Y005181D01*
X001239Y005176D01*
X001307Y005204D01*
X001379Y005220D01*
X001384Y005229D01*
X001395Y005226D01*
X001458Y005264D01*
X001526Y005291D01*
X001530Y005301D01*
X001541Y005300D01*
X001596Y005348D01*
X001659Y005385D01*
X001662Y005396D01*
X001673Y005397D01*
X001720Y005452D01*
X001776Y005500D01*
X001777Y005511D01*
X001787Y005513D01*
X001825Y005576D01*
X001872Y005632D01*
X001872Y005643D01*
X001881Y005647D01*
X001909Y005715D01*
X001912Y005720D01*
X003854Y005720D01*
X003928Y005646D01*
X004051Y005595D01*
X004184Y005595D01*
X004307Y005646D01*
X004401Y005740D01*
X004452Y005863D01*
X004452Y005997D01*
X004401Y006120D01*
X004341Y006180D01*
X004401Y006240D01*
X004452Y006363D01*
X004452Y006497D01*
X004401Y006620D01*
X004307Y006714D01*
X004184Y006765D01*
X004079Y006765D01*
X002568Y008276D01*
X002607Y008336D01*
X002605Y008343D01*
X002612Y008346D01*
X002632Y008418D01*
X002663Y008486D01*
X002660Y008492D01*
X002666Y008497D01*
X002675Y008571D01*
X002695Y008642D01*
X002691Y008648D01*
X002696Y008654D01*
X002694Y008728D01*
X002703Y008802D01*
X002698Y008808D01*
X002702Y008814D01*
X002689Y008887D01*
X002686Y008961D01*
X002681Y008966D01*
X002684Y008972D01*
X002659Y009042D01*
X002646Y009115D01*
X002640Y009120D01*
X002642Y009127D01*
X002607Y009192D01*
X002582Y009262D01*
X002576Y009265D01*
X002577Y009273D01*
X002532Y009332D01*
X002497Y009397D01*
X002490Y009399D01*
X002490Y009407D01*
X002437Y009459D01*
X002392Y009518D01*
X002385Y009519D01*
X002384Y009526D01*
X002323Y009569D01*
X002270Y009621D01*
X002254Y009621D01*
X002205Y009654D01*
X002134Y009705D01*
X002129Y009704D01*
X001726Y009972D01*
X001851Y010130D01*
X002387Y010636D01*
X002704Y010159D01*
X002734Y010113D01*
X002733Y010093D01*
X002782Y010039D01*
X002822Y009977D01*
X002833Y009975D01*
X002834Y009965D01*
X002892Y009919D01*
X002941Y009865D01*
X002952Y009865D01*
X002955Y009855D01*
X003019Y009819D01*
X003077Y009774D01*
X003087Y009775D01*
X003092Y009765D01*
X003161Y009741D01*
X003225Y009705D01*
X003236Y009708D01*
X003242Y009699D01*
X003314Y009686D01*
X003320Y009684D01*
X003287Y009021D01*
X003283Y009017D01*
X003283Y008935D01*
X003278Y008854D01*
X003283Y008849D01*
X003283Y008843D01*
X003340Y008785D01*
X003395Y008725D01*
X003401Y008724D01*
X005220Y006906D01*
X005220Y006801D01*
X005271Y006678D01*
X005365Y006584D01*
X005488Y006533D01*
X005622Y006533D01*
X005745Y006584D01*
X005839Y006678D01*
X005890Y006801D01*
X005890Y006934D01*
X005839Y007057D01*
X005745Y007151D01*
X005622Y007202D01*
X005517Y007202D01*
X003707Y009013D01*
X003739Y009659D01*
X003796Y009677D01*
X003868Y009688D01*
X003875Y009696D01*
X003885Y009693D01*
X003950Y009726D01*
X004020Y009748D01*
X004025Y009757D01*
X004034Y009755D01*
X004094Y009798D01*
X004160Y009832D01*
X004163Y009839D01*
X004170Y009839D01*
X004223Y009891D01*
X004284Y009934D01*
X004285Y009941D01*
X004292Y009942D01*
X004337Y010001D01*
X004390Y010053D01*
X004390Y010061D01*
X004397Y010063D01*
X004432Y010128D01*
X004477Y010187D01*
X004476Y010195D01*
X004482Y010198D01*
X004507Y010268D01*
X004542Y010333D01*
X004540Y010340D01*
X004546Y010345D01*
X004559Y010418D01*
X004584Y010488D01*
X004581Y010494D01*
X004586Y010499D01*
X004589Y010573D01*
X004602Y010646D01*
X004598Y010652D01*
X004603Y010658D01*
X004594Y010732D01*
X004596Y010806D01*
X004591Y010812D01*
X004595Y010818D01*
X004575Y010889D01*
X004572Y010908D01*
X004649Y010876D01*
X004869Y010876D01*
X005072Y010961D01*
X005228Y011116D01*
X005312Y011320D01*
X005312Y011540D01*
X005228Y011744D01*
X005072Y011899D01*
X005034Y011915D01*
X005693Y012021D01*
X006569Y012028D01*
X007335Y011919D01*
X007288Y011899D01*
X007132Y011744D01*
X007048Y011540D01*
X007048Y011320D01*
X007132Y011116D01*
X007288Y010961D01*
X007491Y010876D01*
X007711Y010876D01*
X007778Y010904D01*
X007777Y010896D01*
X007755Y010826D01*
X007760Y010816D01*
X007753Y010808D01*
X007754Y010735D01*
X007744Y010663D01*
X007750Y010654D01*
X007744Y010645D01*
X007757Y010573D01*
X007758Y010500D01*
X007766Y010492D01*
X007762Y010483D01*
X007786Y010414D01*
X007799Y010342D01*
X007808Y010336D01*
X007805Y010325D01*
X007841Y010261D01*
X007865Y010192D01*
X007875Y010187D01*
X007874Y010177D01*
X007919Y010119D01*
X007955Y010055D01*
X007965Y010052D01*
X007965Y010041D01*
X008019Y009992D01*
X008065Y009934D01*
X008075Y009933D01*
X008077Y009922D01*
X008139Y009882D01*
X008193Y009833D01*
X008203Y009833D01*
X008206Y009825D01*
X008274Y009794D01*
X008336Y009753D01*
X008343Y009755D01*
X008346Y009748D01*
X008418Y009728D01*
X008486Y009697D01*
X008492Y009700D01*
X008497Y009694D01*
X008571Y009685D01*
X008642Y009665D01*
X008648Y009669D01*
X008654Y009664D01*
X008728Y009666D01*
X008802Y009657D01*
X008808Y009662D01*
X008814Y009658D01*
X008887Y009671D01*
X008961Y009674D01*
X008966Y009679D01*
X008972Y009676D01*
X009042Y009701D01*
X009115Y009714D01*
X009120Y009720D01*
X009127Y009718D01*
X009192Y009753D01*
X009262Y009778D01*
X009265Y009784D01*
X009273Y009783D01*
X009332Y009828D01*
X009397Y009863D01*
X009399Y009870D01*
X009407Y009870D01*
X009459Y009923D01*
X009518Y009968D01*
X009519Y009975D01*
X009526Y009976D01*
X009569Y010037D01*
X009621Y010090D01*
X009621Y010106D01*
X009654Y010155D01*
X009705Y010226D01*
X009704Y010231D01*
X009971Y010633D01*
X010443Y010202D01*
X010618Y009986D01*
X010227Y009725D01*
X010709Y008889D01*
X010571Y008809D01*
X010651Y008671D01*
X010789Y008751D01*
X011272Y007915D01*
X011545Y008052D01*
X011545Y008052D01*
X011696Y008127D01*
X011766Y007954D01*
X011936Y007236D01*
X011354Y007200D01*
X011300Y007197D01*
X011283Y007207D01*
X011211Y007191D01*
X011138Y007187D01*
X011131Y007179D01*
X011121Y007184D01*
X011053Y007156D01*
X010981Y007140D01*
X010976Y007131D01*
X010965Y007134D01*
X010902Y007096D01*
X010834Y007069D01*
X010830Y007059D01*
X010819Y007060D01*
X010764Y007012D01*
X010701Y006975D01*
X010698Y006964D01*
X010687Y006963D01*
X010640Y006908D01*
X010584Y006860D01*
X010583Y006849D01*
X010573Y006847D01*
X010535Y006784D01*
X010488Y006728D01*
X010488Y006717D01*
X010479Y006713D01*
X010451Y006645D01*
X010414Y006582D01*
X010416Y006572D01*
X010407Y006566D01*
X010391Y006495D01*
X010364Y006427D01*
X010368Y006417D01*
X010360Y006410D01*
X010356Y006336D01*
X010340Y006265D01*
X010346Y006256D01*
X010340Y006249D01*
X010347Y006176D01*
X010343Y006101D01*
X010348Y006096D01*
X010344Y006090D01*
X010362Y006018D01*
X010369Y005944D01*
X010375Y005939D01*
X010372Y005932D01*
X010401Y005864D01*
X010420Y005792D01*
X010426Y005788D01*
X010424Y005781D01*
X010464Y005718D01*
X010493Y005650D01*
X010499Y005647D01*
X010499Y005640D01*
X010547Y005583D01*
X010586Y005520D01*
X010594Y005519D01*
X010594Y005511D01*
X010651Y005463D01*
X010699Y005407D01*
X010706Y005406D01*
X010708Y005399D01*
X010771Y005360D01*
X010827Y005311D01*
X010835Y005312D01*
X010837Y005305D01*
X010906Y005276D01*
X010969Y005237D01*
X010976Y005239D01*
X010980Y005232D01*
X011052Y005214D01*
X011120Y005185D01*
X011127Y005188D01*
X011131Y005182D01*
X011205Y005175D01*
X011277Y005156D01*
X011291Y005164D01*
X011350Y005161D01*
X011437Y005152D01*
X011440Y005155D01*
X011932Y005124D01*
X011795Y004499D01*
X011687Y004217D01*
X011179Y004470D01*
X011129Y004494D01*
X011120Y004512D01*
X011050Y004534D01*
X010985Y004567D01*
X010975Y004564D01*
X010968Y004572D01*
X010896Y004583D01*
X010826Y004605D01*
X010816Y004600D01*
X010808Y004607D01*
X010735Y004606D01*
X010663Y004616D01*
X010654Y004610D01*
X010645Y004616D01*
X010577Y004604D01*
X010577Y005017D01*
X010015Y005579D01*
X010015Y006166D01*
X010089Y006240D01*
X010140Y006363D01*
X010140Y006497D01*
X010089Y006620D01*
X009995Y006714D01*
X009872Y006765D01*
X009738Y006765D01*
X009615Y006714D01*
X009521Y006620D01*
X009470Y006497D01*
X009470Y006363D01*
X009521Y006240D01*
X009595Y006166D01*
X009595Y005406D01*
X010158Y004843D01*
X010158Y004471D01*
X010119Y004441D01*
X010055Y004405D01*
X010052Y004395D01*
X010041Y004395D01*
X009992Y004341D01*
X009934Y004295D01*
X009933Y004285D01*
X009922Y004283D01*
X009882Y004221D01*
X009833Y004167D01*
X009833Y004157D01*
X009825Y004154D01*
X009794Y004086D01*
X009753Y004024D01*
X009755Y004017D01*
X009748Y004014D01*
X009728Y003942D01*
X009697Y003874D01*
X009700Y003868D01*
X009694Y003863D01*
X009685Y003789D01*
X009665Y003718D01*
X009669Y003712D01*
X009664Y003706D01*
X009666Y003632D01*
X009657Y003558D01*
X009662Y003552D01*
X009658Y003546D01*
X009671Y003473D01*
X009674Y003399D01*
X009679Y003394D01*
X009676Y003388D01*
X009701Y003318D01*
X009714Y003245D01*
X009720Y003240D01*
X009718Y003233D01*
X009753Y003168D01*
X009778Y003098D01*
X009784Y003095D01*
X009783Y003087D01*
X009828Y003028D01*
X009863Y002963D01*
X009870Y002961D01*
X009870Y002953D01*
X009923Y002901D01*
X009968Y002842D01*
X009975Y002841D01*
X009976Y002834D01*
X010037Y002791D01*
X010090Y002739D01*
X010106Y002739D01*
X010155Y002706D01*
X010226Y002655D01*
X010231Y002656D01*
X010634Y002388D01*
X010509Y002230D01*
X009988Y001738D01*
X009725Y002133D01*
X008889Y001651D01*
X008809Y001789D01*
X008671Y001709D01*
X008751Y001571D01*
X007915Y001088D01*
X008052Y000815D01*
X008052Y000815D01*
X008125Y000666D01*
X007532Y000477D01*
X006667Y000339D01*
X005791Y000332D01*
X004924Y000455D01*
X004214Y000668D01*
X004470Y001181D01*
X004494Y001231D01*
X004512Y001240D01*
X004534Y001310D01*
X004567Y001375D01*
X004564Y001385D01*
X004572Y001392D01*
X004583Y001464D01*
X004605Y001534D01*
X004600Y001544D01*
X004607Y001552D01*
X004606Y001625D01*
X004616Y001697D01*
X004610Y001706D01*
X004616Y001715D01*
X004603Y001787D01*
X004602Y001860D01*
X004594Y001868D01*
X004598Y001877D01*
X004574Y001946D01*
X004561Y002018D01*
X004552Y002024D01*
X004555Y002035D01*
X004519Y002099D01*
X004495Y002168D01*
X004485Y002173D01*
X004486Y002183D01*
X004441Y002241D01*
X004405Y002305D01*
X004395Y002308D01*
X004395Y002319D01*
X004341Y002368D01*
X004295Y002426D01*
X004285Y002427D01*
X004283Y002438D01*
X004221Y002478D01*
X004167Y002527D01*
X004157Y002527D01*
X004154Y002535D01*
X004086Y002566D01*
X004024Y002607D01*
X004017Y002605D01*
X004014Y002612D01*
X003942Y002632D01*
X003874Y002663D01*
X003868Y002660D01*
X003863Y002666D01*
X003789Y002675D01*
X003718Y002695D01*
X003712Y002691D01*
X003706Y002696D01*
X003632Y002694D01*
X003558Y002703D01*
X003552Y002698D01*
X003546Y002702D01*
X003473Y002689D01*
X003399Y002686D01*
X003394Y002681D01*
X003388Y002684D01*
X003318Y002659D01*
X003245Y002646D01*
X003240Y002640D01*
X003233Y002642D01*
X003168Y002607D01*
X003098Y002582D01*
X003095Y002576D01*
X003087Y002577D01*
X003028Y002532D01*
X002963Y002497D01*
X002961Y002490D01*
X002953Y002490D01*
X002901Y002437D01*
X002842Y002392D01*
X002841Y002385D01*
X002834Y002384D01*
X002791Y002323D01*
X002739Y002270D01*
X002739Y002254D01*
X002706Y002205D01*
X002655Y002134D01*
X002656Y002129D01*
X002389Y001727D01*
X001917Y002158D01*
X001850Y002241D02*
X002730Y002241D01*
X002851Y002399D02*
X001742Y002399D01*
X001981Y002558D02*
X003062Y002558D01*
X002552Y003033D02*
X009824Y003033D01*
X009943Y002875D02*
X002427Y002875D01*
X002220Y002716D02*
X008629Y002716D01*
X008641Y002718D02*
X008525Y002695D01*
X008415Y002659D01*
X008413Y002658D01*
X008413Y002658D01*
X008330Y002620D01*
X008809Y001789D01*
X009640Y002269D01*
X009587Y002343D01*
X009508Y002431D01*
X009508Y002431D01*
X009420Y002510D01*
X009323Y002578D01*
X009218Y002634D01*
X009108Y002677D01*
X008994Y002708D01*
X008877Y002725D01*
X008759Y002729D01*
X008641Y002718D01*
X008641Y002718D01*
X008525Y002695D02*
X008525Y002695D01*
X008366Y002558D02*
X004105Y002558D01*
X004316Y002399D02*
X008033Y002399D01*
X008016Y002382D02*
X008016Y002382D01*
X008104Y002469D01*
X008104Y002469D01*
X008192Y002538D01*
X008671Y001709D01*
X007842Y001231D01*
X007800Y001334D01*
X007800Y001334D01*
X007800Y001336D01*
X007767Y001454D01*
X007767Y001454D01*
X007748Y001577D01*
X007748Y001577D01*
X007744Y001702D01*
X007744Y001702D01*
X007755Y001826D01*
X007755Y001826D01*
X007780Y001948D01*
X007780Y001948D01*
X007819Y002066D01*
X007819Y002066D01*
X007870Y002174D01*
X007872Y002179D01*
X007872Y002179D01*
X007935Y002281D01*
X007938Y002285D01*
X007938Y002285D01*
X008013Y002379D01*
X008016Y002382D01*
X008016Y002382D01*
X007911Y002241D02*
X004441Y002241D01*
X004529Y002082D02*
X007827Y002082D01*
X007775Y001924D02*
X004582Y001924D01*
X004607Y001765D02*
X007750Y001765D01*
X007748Y001607D02*
X004606Y001607D01*
X004581Y001448D02*
X007769Y001448D01*
X007818Y001290D02*
X004528Y001290D01*
X004444Y001131D02*
X007989Y001131D01*
X007973Y000973D02*
X004366Y000973D01*
X004287Y000814D02*
X008053Y000814D01*
X008093Y000656D02*
X004255Y000656D01*
X004785Y000497D02*
X007594Y000497D01*
X007944Y001290D02*
X008264Y001290D01*
X008218Y001448D02*
X008538Y001448D01*
X008493Y001607D02*
X008730Y001607D01*
X008767Y001765D02*
X008639Y001765D01*
X008547Y001924D02*
X008732Y001924D01*
X008640Y002082D02*
X008456Y002082D01*
X008364Y002241D02*
X008549Y002241D01*
X008457Y002399D02*
X008273Y002399D01*
X008759Y002729D02*
X008759Y002729D01*
X008877Y002725D02*
X008877Y002725D01*
X008938Y002716D02*
X010140Y002716D01*
X010379Y002558D02*
X009351Y002558D01*
X009420Y002510D02*
X009420Y002510D01*
X009537Y002399D02*
X010618Y002399D01*
X010518Y002241D02*
X009591Y002241D01*
X009636Y002082D02*
X009316Y002082D01*
X009362Y001924D02*
X009042Y001924D01*
X009087Y001765D02*
X008823Y001765D01*
X009760Y002082D02*
X010353Y002082D01*
X010185Y001924D02*
X009865Y001924D01*
X009970Y001765D02*
X010017Y001765D01*
X008994Y002708D02*
X008994Y002708D01*
X009741Y003192D02*
X002636Y003192D01*
X002687Y003350D02*
X009689Y003350D01*
X009665Y003509D02*
X002709Y003509D01*
X002707Y003667D02*
X009665Y003667D01*
X009690Y003826D02*
X002679Y003826D01*
X002624Y003984D02*
X009740Y003984D01*
X009819Y004143D02*
X002539Y004143D01*
X002698Y004301D02*
X009941Y004301D01*
X010143Y004460D02*
X008183Y004460D01*
X008214Y004490D02*
X008265Y004613D01*
X008265Y004747D01*
X008214Y004870D01*
X008146Y004938D01*
X008146Y005574D01*
X008088Y005631D01*
X008176Y005595D01*
X008309Y005595D01*
X008432Y005646D01*
X008506Y005720D01*
X008704Y005720D01*
X009079Y006095D01*
X009202Y006218D01*
X009202Y008204D01*
X007890Y009517D01*
X007890Y009622D01*
X007839Y009745D01*
X007745Y009839D01*
X007622Y009890D01*
X007488Y009890D01*
X007365Y009839D01*
X007271Y009745D01*
X007220Y009622D01*
X007220Y009488D01*
X007271Y009365D01*
X007365Y009271D01*
X007488Y009220D01*
X007593Y009220D01*
X008783Y008031D01*
X008783Y006392D01*
X008765Y006374D01*
X008765Y006497D01*
X008714Y006620D01*
X008620Y006714D01*
X008497Y006765D01*
X008363Y006765D01*
X008240Y006714D01*
X008166Y006640D01*
X008017Y006640D01*
X006077Y008579D01*
X006077Y009229D01*
X006151Y009303D01*
X006202Y009426D01*
X006202Y009559D01*
X006151Y009682D01*
X006057Y009776D01*
X005934Y009827D01*
X005801Y009827D01*
X005678Y009776D01*
X005584Y009682D01*
X005533Y009559D01*
X005533Y009426D01*
X005584Y009303D01*
X005658Y009229D01*
X005658Y008406D01*
X007843Y006220D01*
X008067Y006220D01*
X008053Y006214D01*
X007959Y006120D01*
X007908Y005997D01*
X007908Y005863D01*
X007944Y005776D01*
X006890Y006829D01*
X006890Y006934D01*
X006839Y007057D01*
X006745Y007151D01*
X006622Y007202D01*
X006488Y007202D01*
X006365Y007151D01*
X006271Y007057D01*
X006220Y006934D01*
X006220Y006801D01*
X006271Y006678D01*
X006365Y006584D01*
X006488Y006533D01*
X006593Y006533D01*
X007726Y005400D01*
X007726Y004950D01*
X007646Y004870D01*
X007595Y004747D01*
X007595Y004613D01*
X007646Y004490D01*
X007740Y004396D01*
X007863Y004345D01*
X007997Y004345D01*
X008120Y004396D01*
X008214Y004490D01*
X008265Y004618D02*
X010158Y004618D01*
X010158Y004777D02*
X008253Y004777D01*
X008149Y004935D02*
X010066Y004935D01*
X009907Y005094D02*
X008146Y005094D01*
X008146Y005252D02*
X009749Y005252D01*
X009595Y005411D02*
X008146Y005411D01*
X008146Y005569D02*
X009595Y005569D01*
X009595Y005728D02*
X008712Y005728D01*
X008870Y005886D02*
X009595Y005886D01*
X009595Y006045D02*
X009029Y006045D01*
X009187Y006203D02*
X009558Y006203D01*
X009471Y006362D02*
X009202Y006362D01*
X009202Y006520D02*
X009480Y006520D01*
X009580Y006679D02*
X009202Y006679D01*
X009202Y006837D02*
X010567Y006837D01*
X010735Y006996D02*
X009202Y006996D01*
X009202Y007154D02*
X011042Y007154D01*
X010906Y007767D02*
X010783Y007748D01*
X010783Y007748D01*
X010658Y007744D01*
X010658Y007744D01*
X010534Y007755D01*
X010534Y007755D01*
X010412Y007780D01*
X010412Y007780D01*
X010294Y007819D01*
X010294Y007819D01*
X010227Y007851D01*
X010181Y007872D01*
X010181Y007872D01*
X010114Y007914D01*
X010075Y007938D01*
X010075Y007938D01*
X010011Y007989D01*
X009978Y008016D01*
X009978Y008016D01*
X009891Y008104D01*
X009891Y008104D01*
X009822Y008192D01*
X010651Y008671D01*
X011129Y007842D01*
X011026Y007800D01*
X011026Y007800D01*
X011026Y007800D01*
X010906Y007767D01*
X010906Y007767D01*
X010982Y007788D02*
X011805Y007788D01*
X011768Y007947D02*
X011335Y007947D01*
X011254Y007947D02*
X011069Y007947D01*
X010977Y008105D02*
X011162Y008105D01*
X011071Y008264D02*
X010886Y008264D01*
X010794Y008422D02*
X010979Y008422D01*
X010888Y008581D02*
X010703Y008581D01*
X010769Y008739D02*
X010796Y008739D01*
X010705Y008898D02*
X010520Y008898D01*
X010571Y008809D02*
X010091Y009640D01*
X010017Y009587D01*
X009929Y009508D01*
X009928Y009508D01*
X009850Y009420D01*
X009782Y009323D01*
X009726Y009218D01*
X009683Y009108D01*
X009652Y008994D01*
X009635Y008877D01*
X009631Y008759D01*
X009642Y008641D01*
X009665Y008525D01*
X009702Y008414D01*
X009702Y008413D01*
X009702Y008413D01*
X009740Y008330D01*
X010571Y008809D01*
X010611Y008739D02*
X010449Y008739D01*
X010494Y008581D02*
X010174Y008581D01*
X010220Y008422D02*
X009900Y008422D01*
X009945Y008264D02*
X009143Y008264D01*
X009202Y008105D02*
X009890Y008105D01*
X009978Y008016D02*
X009978Y008016D01*
X010065Y007947D02*
X009202Y007947D01*
X009202Y007788D02*
X010388Y007788D01*
X009699Y008422D02*
X008985Y008422D01*
X008826Y008581D02*
X009654Y008581D01*
X009665Y008525D02*
X009665Y008525D01*
X009642Y008641D02*
X009642Y008641D01*
X009633Y008739D02*
X008668Y008739D01*
X008509Y008898D02*
X009638Y008898D01*
X009635Y008877D02*
X009635Y008877D01*
X009631Y008759D02*
X009631Y008759D01*
X009652Y008994D02*
X009652Y008994D01*
X009669Y009056D02*
X008351Y009056D01*
X008192Y009215D02*
X009725Y009215D01*
X009818Y009373D02*
X008034Y009373D01*
X007890Y009532D02*
X009955Y009532D01*
X009850Y009420D02*
X009850Y009420D01*
X010154Y009532D02*
X010338Y009532D01*
X010247Y009690D02*
X009012Y009690D01*
X009370Y009849D02*
X010412Y009849D01*
X010601Y010007D02*
X009548Y010007D01*
X009661Y010166D02*
X010473Y010166D01*
X010309Y010324D02*
X009766Y010324D01*
X009871Y010483D02*
X010135Y010483D01*
X010245Y009373D02*
X010430Y009373D01*
X010522Y009215D02*
X010337Y009215D01*
X010428Y009056D02*
X010613Y009056D01*
X011653Y008105D02*
X011705Y008105D01*
X011843Y007630D02*
X009202Y007630D01*
X009202Y007471D02*
X011880Y007471D01*
X011918Y007313D02*
X009202Y007313D01*
X008783Y007313D02*
X007344Y007313D01*
X007503Y007154D02*
X008783Y007154D01*
X008783Y006996D02*
X007661Y006996D01*
X007820Y006837D02*
X008783Y006837D01*
X008783Y006679D02*
X008655Y006679D01*
X008755Y006520D02*
X008783Y006520D01*
X008205Y006679D02*
X007978Y006679D01*
X007702Y006362D02*
X007358Y006362D01*
X007199Y006520D02*
X007543Y006520D01*
X007385Y006679D02*
X007041Y006679D01*
X006890Y006837D02*
X007226Y006837D01*
X007068Y006996D02*
X006865Y006996D01*
X006909Y007154D02*
X006739Y007154D01*
X006751Y007313D02*
X005407Y007313D01*
X005248Y007471D02*
X006592Y007471D01*
X006434Y007630D02*
X005090Y007630D01*
X004931Y007788D02*
X006275Y007788D01*
X006117Y007947D02*
X004773Y007947D01*
X004614Y008105D02*
X005958Y008105D01*
X005800Y008264D02*
X004456Y008264D01*
X004297Y008422D02*
X005658Y008422D01*
X005658Y008581D02*
X004139Y008581D01*
X003980Y008739D02*
X005658Y008739D01*
X005658Y008898D02*
X003822Y008898D01*
X003709Y009056D02*
X005658Y009056D01*
X005658Y009215D02*
X003717Y009215D01*
X003725Y009373D02*
X005554Y009373D01*
X005533Y009532D02*
X003733Y009532D01*
X003870Y009690D02*
X005591Y009690D01*
X005451Y009990D02*
X005563Y010102D01*
X005623Y010248D01*
X005623Y010407D01*
X005563Y010553D01*
X005451Y010665D01*
X005304Y010726D01*
X005146Y010726D01*
X005000Y010665D01*
X004888Y010553D01*
X004827Y010407D01*
X004827Y010248D01*
X004888Y010102D01*
X005000Y009990D01*
X005146Y009930D01*
X005304Y009930D01*
X005451Y009990D01*
X005468Y010007D02*
X006892Y010007D01*
X006909Y009990D02*
X007056Y009930D01*
X007214Y009930D01*
X007360Y009990D01*
X007472Y010102D01*
X007533Y010248D01*
X007533Y010407D01*
X007472Y010553D01*
X007360Y010665D01*
X007214Y010726D01*
X007056Y010726D01*
X006909Y010665D01*
X006797Y010553D01*
X006737Y010407D01*
X006737Y010248D01*
X006797Y010102D01*
X006909Y009990D01*
X006771Y010166D02*
X005589Y010166D01*
X005623Y010324D02*
X006737Y010324D01*
X006768Y010483D02*
X005592Y010483D01*
X005475Y010641D02*
X006885Y010641D01*
X007132Y011117D02*
X005228Y011117D01*
X005294Y011275D02*
X007066Y011275D01*
X007048Y011434D02*
X005312Y011434D01*
X005291Y011592D02*
X007069Y011592D01*
X007139Y011751D02*
X005221Y011751D01*
X005049Y011909D02*
X007311Y011909D01*
X007294Y010958D02*
X005066Y010958D01*
X004976Y010641D02*
X004601Y010641D01*
X004596Y010800D02*
X007753Y010800D01*
X007745Y010641D02*
X007384Y010641D01*
X007501Y010483D02*
X007762Y010483D01*
X007806Y010324D02*
X007533Y010324D01*
X007498Y010166D02*
X007883Y010166D01*
X008003Y010007D02*
X007377Y010007D01*
X007388Y009849D02*
X004180Y009849D01*
X004343Y010007D02*
X004983Y010007D01*
X004862Y010166D02*
X004460Y010166D01*
X004537Y010324D02*
X004827Y010324D01*
X004859Y010483D02*
X004582Y010483D01*
X003293Y009690D02*
X002154Y009690D01*
X002376Y009532D02*
X003312Y009532D01*
X003304Y009373D02*
X002510Y009373D01*
X002599Y009215D02*
X003296Y009215D01*
X003289Y009056D02*
X002657Y009056D01*
X002688Y008898D02*
X003281Y008898D01*
X003382Y008739D02*
X002695Y008739D01*
X002677Y008581D02*
X003545Y008581D01*
X003704Y008422D02*
X002634Y008422D01*
X002581Y008264D02*
X003862Y008264D01*
X004021Y008105D02*
X002739Y008105D01*
X002898Y007947D02*
X004179Y007947D01*
X004338Y007788D02*
X003056Y007788D01*
X003215Y007630D02*
X004496Y007630D01*
X004655Y007471D02*
X003373Y007471D01*
X003532Y007313D02*
X004813Y007313D01*
X004972Y007154D02*
X003690Y007154D01*
X003849Y006996D02*
X005130Y006996D01*
X005220Y006837D02*
X004007Y006837D01*
X004343Y006679D02*
X005271Y006679D01*
X005739Y007154D02*
X006371Y007154D01*
X006245Y006996D02*
X005865Y006996D01*
X005890Y006837D02*
X006220Y006837D01*
X006271Y006679D02*
X005839Y006679D01*
X006606Y006520D02*
X004443Y006520D01*
X004452Y006362D02*
X006764Y006362D01*
X006923Y006203D02*
X004364Y006203D01*
X004433Y006045D02*
X007081Y006045D01*
X007240Y005886D02*
X004452Y005886D01*
X004389Y005728D02*
X007398Y005728D01*
X007557Y005569D02*
X001821Y005569D01*
X001684Y005411D02*
X007715Y005411D01*
X007726Y005252D02*
X004644Y005252D01*
X004751Y005094D02*
X007726Y005094D01*
X007711Y004935D02*
X004765Y004935D01*
X004688Y004777D02*
X007607Y004777D01*
X007595Y004618D02*
X003015Y004618D01*
X003173Y004777D02*
X004172Y004777D01*
X004216Y005252D02*
X001438Y005252D01*
X001159Y004460D02*
X000581Y004460D01*
X000544Y004618D02*
X002421Y004618D01*
X002263Y004460D02*
X002195Y004460D01*
X002580Y004777D02*
X000506Y004777D01*
X000469Y004935D02*
X002738Y004935D01*
X002897Y005094D02*
X000431Y005094D01*
X000636Y004301D02*
X000842Y004301D01*
X002856Y004460D02*
X007677Y004460D01*
X007833Y005886D02*
X007908Y005886D01*
X007927Y006045D02*
X007675Y006045D01*
X007516Y006203D02*
X008042Y006203D01*
X008783Y007471D02*
X007186Y007471D01*
X007027Y007630D02*
X008783Y007630D01*
X008783Y007788D02*
X006869Y007788D01*
X006710Y007947D02*
X008783Y007947D01*
X008708Y008105D02*
X006552Y008105D01*
X006393Y008264D02*
X008550Y008264D01*
X008391Y008422D02*
X006235Y008422D01*
X006077Y008581D02*
X008233Y008581D01*
X008074Y008739D02*
X006077Y008739D01*
X006077Y008898D02*
X007916Y008898D01*
X007757Y009056D02*
X006077Y009056D01*
X006077Y009215D02*
X007599Y009215D01*
X007268Y009373D02*
X006181Y009373D01*
X006202Y009532D02*
X007220Y009532D01*
X007248Y009690D02*
X006144Y009690D01*
X007722Y009849D02*
X008176Y009849D01*
X007862Y009690D02*
X008532Y009690D01*
X010030Y006679D02*
X010465Y006679D01*
X010397Y006520D02*
X010130Y006520D01*
X010139Y006362D02*
X010357Y006362D01*
X010344Y006203D02*
X010052Y006203D01*
X010015Y006045D02*
X010355Y006045D01*
X010392Y005886D02*
X010015Y005886D01*
X010015Y005728D02*
X010458Y005728D01*
X010556Y005569D02*
X010025Y005569D01*
X010184Y005411D02*
X010696Y005411D01*
X010944Y005252D02*
X010342Y005252D01*
X010501Y005094D02*
X011925Y005094D01*
X011890Y004935D02*
X010577Y004935D01*
X010577Y004777D02*
X011855Y004777D01*
X011821Y004618D02*
X010577Y004618D01*
X011199Y004460D02*
X011779Y004460D01*
X011719Y004301D02*
X011518Y004301D01*
X006553Y000339D02*
X005746Y000339D01*
X002519Y001924D02*
X002174Y001924D01*
X002348Y001765D02*
X002414Y001765D01*
X001912Y009849D02*
X002966Y009849D01*
X002803Y010007D02*
X001754Y010007D01*
X001888Y010166D02*
X002699Y010166D01*
X002594Y010324D02*
X002056Y010324D01*
X002224Y010483D02*
X002489Y010483D01*
M02*
