%
M48
M72
T01C0.0200
T02C0.0236
T03C0.0433
T04C0.0866
%
T01
X1900Y4800
X3900Y4850
X4550Y4800
X5550Y5900
X5550Y6400
X5550Y6900
X6150Y6900
X6600Y6350
X6650Y5550
X8450Y6690
X9000Y7110
X7650Y8950
X6050Y7800
X4800Y9950
X8450Y3330
T02
X7105Y10298
X5195Y10298
T03
X4729Y11400
X7571Y11400
T04
X1650Y3550
X3550Y1650
X963Y6150
X1650Y8750
X3550Y10650
X8750Y10650
X10650Y8750
X11338Y6150
X10650Y3550
X8750Y1650
M30
